<svg xmlns="http://www.w3.org/2000/svg" xmlns:xlink="http://www.w3.org/1999/xlink" width="190" height="93.099" viewBox="0 0 190 93.099">
  <defs>
    <clipPath id="clip-path">
      <rect id="Rect치ngulo_378034" data-name="Rect치ngulo 378034" width="116.688" height="93.099" fill="#0a5e6b"/>
    </clipPath>
  </defs>
  <g id="Grupo_1072369" data-name="Grupo 1072369" transform="translate(-285 -6776)">
    <g id="Grupo_1072368" data-name="Grupo 1072368" transform="translate(322 6776)">
      <g id="Grupo_1072367" data-name="Grupo 1072367" clip-path="url(#clip-path)">
        <path id="Trazado_838949" data-name="Trazado 838949" d="M9.031,24.264a44.32,44.32,0,0,0-3.992,8.744,22.851,22.851,0,0,1-.717,2.36c-.119.26.089.289.264.339a10.2,10.2,0,0,1,4.646,2.886,10.838,10.838,0,0,1,3.192,9.065A11.29,11.29,0,0,1,5.24,57.1c-.316.136-.825.033-.923.381-.075.269.2.625.286.951a41.494,41.494,0,0,0,3.387,8.48c.276.53.586,1.042.851,1.577.115.232.2.248.425.128a11.417,11.417,0,0,1,16.225,7.114,10.828,10.828,0,0,1-.807,8.138c-.138.272-.089.373.165.519a45.289,45.289,0,0,0,8.178,3.666c.858.287,1.755.448,2.6.788.3.119.273-.14.323-.284A11.362,11.362,0,0,1,40.5,82.627a10.774,10.774,0,0,1,7.043-1.906,11.4,11.4,0,0,1,9.263,5.929,6.2,6.2,0,0,1,.735,1.783c.086.4.274.443.617.341a51.512,51.512,0,0,0,6.353-2.241c1.51-.672,2.971-1.435,4.414-2.237.163-.091.206-.128.1-.314a9.41,9.41,0,0,1-1.284-3.925,11.287,11.287,0,0,1,2.594-8.576c.288-.348.619-.66.923-1,.186-.205.307-.211.479.04.558.814,1.125,1.622,1.723,2.406a.577.577,0,0,1-.067.877,6.546,6.546,0,0,0-1.759,3.4A7.938,7.938,0,0,0,73.2,83.828a1.538,1.538,0,0,1-.034,2.079,3.472,3.472,0,0,1-.919.784,46.946,46.946,0,0,1-10.029,4.834,45.009,45.009,0,0,1-5.461,1.516,1.924,1.924,0,0,1-2.508-1.782,7.477,7.477,0,0,0-7.446-6.7,7.307,7.307,0,0,0-6.894,4.157A5.668,5.668,0,0,0,39.16,91.2a1.973,1.973,0,0,1-2.472,1.829,48.738,48.738,0,0,1-8.4-2.654,47.471,47.471,0,0,1-7.129-3.729,3.731,3.731,0,0,1-.9-.731,1.716,1.716,0,0,1-.091-2.19,7.621,7.621,0,0,0,1.568-3.346c.637-4.385-1.4-7.682-5.277-8.8a7.386,7.386,0,0,0-6.9,1.263,1.8,1.8,0,0,1-2.8-.453,38.771,38.771,0,0,1-3.192-5.647,46.252,46.252,0,0,1-3.5-10.385A1.907,1.907,0,0,1,1.682,54.1a7.439,7.439,0,0,0,4.076-1.651,7.184,7.184,0,0,0,2.83-6.064,7.4,7.4,0,0,0-4.909-6.94,5.084,5.084,0,0,0-1.592-.395,2.008,2.008,0,0,1-2.039-1.48,2.423,2.423,0,0,1,.084-1.195A46.528,46.528,0,0,1,6.456,21.108a4.213,4.213,0,0,1,.659-.837,1.7,1.7,0,0,1,2.332-.17,7.781,7.781,0,0,0,3.463,1.553c2.783.343,5.256-.232,7.163-2.443a6.51,6.51,0,0,0,1.741-4.547,7.765,7.765,0,0,0-.6-3.734q-.41-.745-.891-1.442A1.772,1.772,0,0,1,20.794,6.7a37.855,37.855,0,0,1,4.486-2.61,46.4,46.4,0,0,1,7.131-2.919A30.674,30.674,0,0,1,36.828.044,1.891,1.891,0,0,1,39.1,1.621a8.822,8.822,0,0,0,.642,2.418,7.37,7.37,0,0,0,6.937,4.492,7.431,7.431,0,0,0,7-4.55,6.589,6.589,0,0,0,.589-2.234A2.091,2.091,0,0,1,56.686.036,47.983,47.983,0,0,1,72.027,6.268a5.365,5.365,0,0,1,1.013.749,1.763,1.763,0,0,1,.215,2.375,7.79,7.79,0,0,0-1.588,3.442,7.487,7.487,0,0,0,1.769,6.45c.342.365.372.618.032,1.01-.593.683-1.134,1.413-1.674,2.14-.192.258-.319.291-.556.054a11.307,11.307,0,0,1-3.54-7.933,10.8,10.8,0,0,1,.856-4.627,1.327,1.327,0,0,0,.091-.224c.075-.327.54-.579.384-.871-.137-.254-.552-.363-.849-.526a45.024,45.024,0,0,0-6.432-2.945c-1.173-.423-2.391-.7-3.548-1.161-.367-.147-.53-.007-.638.34a10.426,10.426,0,0,1-3.979,5.476,10.961,10.961,0,0,1-8.9,2.034,11.361,11.361,0,0,1-8.452-6.87,3.935,3.935,0,0,1-.239-.734c-.069-.3-.2-.395-.508-.284-1.765.629-3.581,1.112-5.312,1.844a40.883,40.883,0,0,0-5.339,2.655c-.248.151-.246.257-.126.488a11.387,11.387,0,0,1,1.237,5.138,10.662,10.662,0,0,1-1.579,5.673,11.2,11.2,0,0,1-8.135,5.563,11.076,11.076,0,0,1-6.371-.818c-.293-.132-.567-.3-.824-.443" transform="translate(0 0)" fill="#0a5e6b"/>
        <path id="Trazado_838950" data-name="Trazado 838950" d="M251.429,39.883q0,9.821,0,19.642a4.584,4.584,0,0,1-.017.581,2,2,0,0,1-2.2,1.982q-5.568.038-11.137,0a2.013,2.013,0,0,1-2.2-2.136c-.017-.209-.01-.42-.01-.63q0-19.666.01-39.332c0-.461-.1-.6-.577-.583-1,.041-2.01.028-3.015.006a1.958,1.958,0,0,1-1.641-3.336c.634-.858,1.3-1.7,1.937-2.55q4.727-6.281,9.45-12.564a1.9,1.9,0,0,1,2.645-.585,2.272,2.272,0,0,1,.618.609q5.2,6.924,10.407,13.848c.3.4.612.795.918,1.192A1.976,1.976,0,0,1,255,19.405c-1,.039-2.011.03-3.015,0-.43-.013-.565.087-.563.545q.025,9.966.011,19.932M235.92,15.532c.208,0,.4.005.595,0,2.637-.087,3.262.617,3.255,3.255-.031,12.948-.01,25.9-.027,38.845,0,.506.141.6.614.595q3.307-.039,6.614,0c.477.006.576-.121.576-.583q-.02-19.641-.011-39.282c0-.178,0-.356,0-.533a2.08,2.08,0,0,1,2.207-2.288c.436-.023.875,0,1.313-.014.116,0,.261.067.363-.109-.137-.187-.278-.383-.423-.575L243.978,5.55c-.327-.433-.327-.435-.669.017q-3.623,4.8-7.245,9.608a.405.405,0,0,0-.145.357" transform="translate(-140.526 -0.039)" fill="#0a5e6b"/>
        <path id="Trazado_838951" data-name="Trazado 838951" d="M210.57,79.2q0,8.412,0,16.825a4,4,0,0,1-.024.58,1.991,1.991,0,0,1-2.2,1.933q-5.567.037-11.134,0a2.014,2.014,0,0,1-2.2-2.132c-.014-.177-.01-.355-.01-.533q0-16.776,0-33.552a4.005,4.005,0,0,1,.021-.581,1.979,1.979,0,0,1,2.2-1.977q5.543-.046,11.086,0c1.563.015,2.257.828,2.258,2.471q.007,8.485,0,16.97m-11.674-.08q0,7.539-.009,15.077c0,.384.1.48.482.477q3.427-.027,6.855,0c.355,0,.461-.077.461-.448q-.016-15.078,0-30.155c0-.365-.1-.456-.457-.453q-3.4.026-6.806,0c-.417,0-.538.084-.537.523.018,4.993.012,9.987.012,14.98" transform="translate(-119.123 -36.492)" fill="#0a5e6b"/>
        <path id="Trazado_838952" data-name="Trazado 838952" d="M160.57,95.241q0,6.569,0,13.139a2.016,2.016,0,0,1-1.475,2.231,3.85,3.85,0,0,1-.96.129q-5.324-.008-10.648-.006a3.957,3.957,0,0,1-.723-.07A1.814,1.814,0,0,1,145.077,109a4.781,4.781,0,0,1-.075-.964q0-12.872,0-25.745a4.07,4.07,0,0,1,.025-.628,1.983,1.983,0,0,1,2.218-1.957q5.518-.041,11.037,0c1.566.013,2.282.821,2.285,2.446q.009,6.545,0,13.091M148.9,95.164c0,3.732.007,7.465-.01,11.2,0,.407.106.505.507.5,2.285-.02,4.569-.016,6.854,0,.333,0,.436-.076.435-.423q-.015-11.222,0-22.444c0-.344-.095-.429-.432-.426q-3.427.022-6.854,0c-.4,0-.512.087-.511.5.017,3.7.01,7.4.01,11.1" transform="translate(-88.579 -48.677)" fill="#0a5e6b"/>
        <path id="Trazado_838953" data-name="Trazado 838953" d="M110.57,111.334q0,4.557,0,9.114c0,1.71-.775,2.479-2.506,2.48q-5.25,0-10.5,0c-.1,0-.195,0-.292,0a2.072,2.072,0,0,1-2.262-2.185c-.011-.161-.007-.323-.007-.485q0-9.017,0-18.034a4.11,4.11,0,0,1,.021-.58,2,2,0,0,1,2.244-1.986c3.662-.025,7.325-.01,10.987-.008a2.219,2.219,0,0,1,.385.042,1.989,1.989,0,0,1,1.925,2.239c.019.759.005,1.519.006,2.278v7.126m-11.674-.1c0,2.456.009,4.911-.009,7.367,0,.367.1.454.458.451q3.451-.025,6.9,0c.331,0,.437-.073.437-.422q-.018-7.342,0-14.685c0-.344-.1-.428-.433-.426q-3.426.022-6.853,0c-.4,0-.516.083-.512.5.021,2.407.011,4.814.011,7.221" transform="translate(-58.035 -60.869)" fill="#0a5e6b"/>
        <path id="Trazado_838954" data-name="Trazado 838954" d="M87.647,44.1c-.056.111-.1.214-.159.312-.5.884-1.019,1.762-1.509,2.654-.139.253-.256.205-.449.086a22.2,22.2,0,0,0-5.477-2.327,26.763,26.763,0,0,0-6.995-1.039A26.677,26.677,0,0,0,55.169,49.74a26.786,26.786,0,0,0-8.646,12.286,14.389,14.389,0,0,0-.762,2.845c-.058.437-.272.551-.7.458-.995-.217-2-.4-3-.583-.254-.047-.3-.14-.242-.394A31.262,31.262,0,0,1,47.65,51.915,30.849,30.849,0,0,1,62.585,41.4a30.107,30.107,0,0,1,10.029-1.551,30.427,30.427,0,0,1,6.921.88A32.474,32.474,0,0,1,87.2,43.706c.172.093.4.155.448.392" transform="translate(-25.532 -24.343)" fill="#0a5e6b"/>
        <path id="Trazado_838955" data-name="Trazado 838955" d="M72.3,159.283a35.631,35.631,0,0,1-7.1-.841,30.879,30.879,0,0,1-16.034-9.3,30.457,30.457,0,0,1-6.616-11.23c-.353-1.06-.584-2.147-.907-3.211-.073-.24.029-.3.209-.317,1.031-.126,2.028-.415,3.041-.628.489-.1.679.067.746.519A20.3,20.3,0,0,0,47.8,140.46a26.865,26.865,0,0,0,12.09,12.052,25.137,25.137,0,0,0,7.385,2.445,30.315,30.315,0,0,0,8.234.213,27.41,27.41,0,0,0,9.231-2.8c.044-.021.084-.049.13-.066.3-.114.532-.53.828-.405.227.1.331.486.484.748.407.7.8,1.405,1.224,2.09.188.3.114.475-.168.618a34.3,34.3,0,0,1-5.064,2.2,32.1,32.1,0,0,1-9.876,1.729" transform="translate(-25.425 -81.69)" fill="#0a5e6b"/>
        <path id="Trazado_838956" data-name="Trazado 838956" d="M39.993,116.363c0-.565.012-1.131-.005-1.7-.009-.307.064-.437.41-.4,1.045.119,2.093.213,3.141.3.236.02.31.127.3.339a16.076,16.076,0,0,0,.032,2.854c.028.242-.067.348-.319.369q-1.644.137-3.287.3c-.294.03-.268-.15-.269-.33q0-.872,0-1.744" transform="translate(-24.427 -69.801)" fill="#0a5e6b"/>
      </g>
    </g>
    <rect id="Rect치ngulo_378035" data-name="Rect치ngulo 378035" width="190" height="93" transform="translate(285 6776)" fill="none"/>
  </g>
</svg>
