<svg xmlns="http://www.w3.org/2000/svg" xmlns:xlink="http://www.w3.org/1999/xlink" width="190" height="357" viewBox="0 0 190 357">
  <defs>
    <clipPath id="clip-path">
      <rect id="Rectángulo_377653" data-name="Rectángulo 377653" width="190" height="357" transform="translate(1230 944)" fill="#fff" stroke="#707070" stroke-width="1"/>
    </clipPath>
    <clipPath id="clip-path-2">
      <rect id="Rectángulo_377652" data-name="Rectángulo 377652" width="336.612" height="344.857" fill="#dbe5f3"/>
    </clipPath>
    <clipPath id="clip-path-5">
      <rect id="Rectángulo_377646" data-name="Rectángulo 377646" width="190" height="357" transform="translate(1230 944)" fill="#dee4f0" stroke="#707070" stroke-width="1"/>
    </clipPath>
    <clipPath id="clip-path-6">
      <rect id="Rectángulo_377649" data-name="Rectángulo 377649" width="189.935" height="296.184" fill="none"/>
    </clipPath>
  </defs>
  <g id="Grupo_1072077" data-name="Grupo 1072077" transform="translate(-1230 -944)">
    <g id="Enmascarar_grupo_86" data-name="Enmascarar grupo 86" clip-path="url(#clip-path)">
      <g id="Grupo_1072073" data-name="Grupo 1072073" transform="translate(1230 944)">
        <g id="Grupo_1072072" data-name="Grupo 1072072" clip-path="url(#clip-path-2)">
          <g id="Grupo_1072071" data-name="Grupo 1072071">
            <g id="Grupo_1072070" data-name="Grupo 1072070" clip-path="url(#clip-path-2)">
              <path id="Trazado_838407" data-name="Trazado 838407" d="M310.744,100.8S278.851,11.2,167.985.57,49.525,131.175,29.023,176.739c-12.91,28.69-31.961,58.314-28.641,91,10.052,98.959,133.98,80.09,200.836,64.777,4.614-1.057,9.22-2.147,13.847-3.145,38.727-8.353,87.326,2.278,108.588-41.005S339.6,155.479,310.744,100.8" transform="translate(0 0)" fill="#dbe5f3"/>
              <g id="Grupo_1072069" data-name="Grupo 1072069" opacity="0.7">
                <g id="Grupo_1072068" data-name="Grupo 1072068">
                  <g id="Grupo_1072067" data-name="Grupo 1072067" clip-path="url(#clip-path-2)">
                    <path id="Trazado_838408" data-name="Trazado 838408" d="M310.744,100.8S278.851,11.2,167.985.57,49.525,131.175,29.023,176.739c-12.91,28.69-31.961,58.314-28.641,91,10.052,98.959,133.98,80.09,200.836,64.777,4.614-1.057,9.22-2.147,13.847-3.145,38.727-8.353,87.326,2.278,108.588-41.005S339.6,155.479,310.744,100.8" transform="translate(0 0)" fill="#dbe5f3"/>
                  </g>
                </g>
              </g>
            </g>
          </g>
        </g>
      </g>
    </g>
    <g id="Enmascarar_grupo_85" data-name="Enmascarar grupo 85" clip-path="url(#clip-path-5)">
      <g id="Grupo_1072066" data-name="Grupo 1072066" transform="translate(1230.064 1017.402)">
        <g id="Grupo_1072065" data-name="Grupo 1072065" clip-path="url(#clip-path-6)">
          <path id="Trazado_838353" data-name="Trazado 838353" d="M107.057,118.48s-9.589,58.686-9.589,63.189a17.909,17.909,0,0,1-2.251,8.255L83.96,205.682l14.258,4.253,7.754-9.005s3.586-82.449,3.836-83.2-1.752-2.5-2.752.75" transform="translate(-17.356 -24.1)" fill="#1fd27a"/>
          <path id="Trazado_838354" data-name="Trazado 838354" d="M107.057,118.48s-9.589,58.686-9.589,63.189a17.909,17.909,0,0,1-2.251,8.255L83.96,205.682l14.258,4.253,7.754-9.005s3.586-82.449,3.836-83.2S108.057,115.229,107.057,118.48Z" transform="translate(-17.356 -24.1)" fill="none" stroke="#263238" stroke-linecap="round" stroke-linejoin="round" stroke-width="1"/>
          <path id="Trazado_838355" data-name="Trazado 838355" d="M186.148,339.827c1.052-10.248,2.262-21.073,3.086-25.425,1.751-9.255,4.753-28.266,4.753-28.266l-9.005-32.268-40.523-.251s-12.006.75-18.51,0a101.641,101.641,0,0,0-10.506-.75s-7.5,26.015-1.5,62.786c2.419,14.813,4.593,25.237,6.328,32.409,21.158-4.215,44.928-3.413,65.879-8.234" transform="translate(-23.073 -52.273)" fill="#263238"/>
          <path id="Trazado_838356" data-name="Trazado 838356" d="M186.148,339.827c1.052-10.248,2.262-21.073,3.086-25.425,1.751-9.255,4.753-28.266,4.753-28.266l-9.005-32.268-40.523-.251s-12.006.75-18.51,0a101.641,101.641,0,0,0-10.506-.75s-7.5,26.015-1.5,62.786c2.419,14.813,4.593,25.237,6.328,32.409C141.427,343.846,165.2,344.647,186.148,339.827Z" transform="translate(-23.073 -52.273)" fill="none" stroke="#263238" stroke-linecap="round" stroke-linejoin="round" stroke-width="1"/>
          <path id="Trazado_838357" data-name="Trazado 838357" d="M138.17,99.763s-26.644,11.337-26.644,13.088-4,41.827-4,48.081-1.751,51.029-1.5,57.032-3.091,34.247-2.341,34.748.532,5.191,6.286,4.19,4.81-34.185,4.81-34.185l4.5-28.517.251-18.51s0-19.761,2-30.767,8-26.016,8.5-26.766,8.131-18.395,8.131-18.395" transform="translate(-21.411 -20.623)" fill="#1fd27a"/>
          <path id="Trazado_838358" data-name="Trazado 838358" d="M138.17,99.763s-26.644,11.337-26.644,13.088-4,41.827-4,48.081-1.751,51.029-1.5,57.032-3.091,34.247-2.341,34.748.532,5.191,6.286,4.19,4.81-34.185,4.81-34.185l4.5-28.517.251-18.51s0-19.761,2-30.767,8-26.016,8.5-26.766S138.17,99.763,138.17,99.763Z" transform="translate(-21.411 -20.623)" fill="none" stroke="#263238" stroke-linecap="round" stroke-linejoin="round" stroke-width="1"/>
          <path id="Trazado_838359" data-name="Trazado 838359" d="M169.274,92.364s13.364,4.974,20.924,8.281c10.767,4.711,18.679,6.843,19.179,10.1s-10.2,87.927-10.2,87.927l14.829,58.167s-23.74,9.066-40.5,8.316-26.189-3.841-26.189-3.841l-.812-39.371s-3.123-23.658,3.223-59.091c5.351-29.875,15.037-68.481,15.037-68.481Z" transform="translate(-30.128 -19.094)" fill="#1fd27a"/>
          <path id="Trazado_838360" data-name="Trazado 838360" d="M169.274,92.364s13.364,4.974,20.924,8.281c10.767,4.711,18.679,6.843,19.179,10.1s-10.2,87.927-10.2,87.927l14.829,58.167s-23.74,9.066-40.5,8.316-26.189-3.841-26.189-3.841l-.812-39.371s-3.123-23.658,3.223-59.091c5.351-29.875,15.037-68.481,15.037-68.481Z" transform="translate(-30.128 -19.094)" fill="none" stroke="#263238" stroke-linecap="round" stroke-linejoin="round" stroke-width="1"/>
          <path id="Trazado_838361" data-name="Trazado 838361" d="M139.175,101.921s-6.754,7-10.255,13.508a78.4,78.4,0,0,0-5.253,12.006l3.752,1.5-8.255,10.256a63.851,63.851,0,0,0,.5,18.26c1.752,9.255,3.752,24.264,3.752,24.264s16.009.25,20.762-2.752,21.512-36.02,22.263-38.772-6.754-14.008-6.754-14.008l5.148-1.2,9.861-2.3s-3.252-21.262-5.253-26.765-1-6.253-5.5-8-23.013,13.257-23.013,13.257Z" transform="translate(-24.544 -18.144)" fill="#1fd27a"/>
          <path id="Trazado_838362" data-name="Trazado 838362" d="M139.175,101.921s-6.754,7-10.255,13.508a78.4,78.4,0,0,0-5.253,12.006l3.752,1.5-8.255,10.256a63.851,63.851,0,0,0,.5,18.26c1.752,9.255,3.752,24.264,3.752,24.264s16.009.25,20.762-2.752,21.512-36.02,22.263-38.772-6.754-14.008-6.754-14.008l5.148-1.2,9.861-2.3s-3.252-21.262-5.253-26.765-1-6.253-5.5-8-23.013,13.257-23.013,13.257Z" transform="translate(-24.544 -18.144)" fill="none" stroke="#263238" stroke-linecap="round" stroke-linejoin="round" stroke-width="1"/>
          <path id="Trazado_838363" data-name="Trazado 838363" d="M153.721,64.292s1.251,9.255,3.752,15.009a69.548,69.548,0,0,0,3,6.5s-8.255,26.515-12.757,51.28-7.5,49.028-7.5,61.285.5,17.76.5,17.76-2.752,1.5-10.006,1a48.888,48.888,0,0,1-13.007-2.752s6.253-54.031,6.5-67.038,13.258-47.778,13.258-47.778l-2.251-7.254s7.5-9.005,9.255-15.759,5.753-12.757,9.255-12.257" transform="translate(-24.331 -13.285)" fill="#fff"/>
          <path id="Trazado_838364" data-name="Trazado 838364" d="M153.721,64.292s1.251,9.255,3.752,15.009a69.548,69.548,0,0,0,3,6.5s-8.255,26.515-12.757,51.28-7.5,49.028-7.5,61.285.5,17.76.5,17.76-2.752,1.5-10.006,1a48.888,48.888,0,0,1-13.007-2.752s6.253-54.031,6.5-67.038,13.258-47.778,13.258-47.778l-2.251-7.254s7.5-9.005,9.255-15.759S150.219,63.792,153.721,64.292Z" transform="translate(-24.331 -13.285)" fill="none" stroke="#263238" stroke-linecap="round" stroke-linejoin="round" stroke-width="1"/>
          <path id="Trazado_838365" data-name="Trazado 838365" d="M148.992,79.915c-1.812,6.739-9.219,15.629-9.219,15.629l2.251,7.255s-.336.9-.9,2.452c8.172-7.985,13.191-22.189,13.191-22.189Z" transform="translate(-28.894 -16.52)" fill="#263238"/>
          <path id="Trazado_838366" data-name="Trazado 838366" d="M148.992,79.915c-1.812,6.739-9.219,15.629-9.219,15.629l2.251,7.255s-.336.9-.9,2.452c8.172-7.985,13.191-22.189,13.191-22.189Z" transform="translate(-28.894 -16.52)" fill="none" stroke="#263238" stroke-linecap="round" stroke-linejoin="round" stroke-width="1"/>
          <path id="Trazado_838367" data-name="Trazado 838367" d="M151.324,134.341a65.67,65.67,0,0,1-21.035.742c-3.061,9.819-5.968,20.66-6.085,26.743-.25,13.007-6.5,67.038-6.5,67.038a48.888,48.888,0,0,0,13.007,2.752c7.254.5,10.006-1,10.006-1s-.5-5.5-.5-17.76,3-36.521,7.5-61.285c1.049-5.769,2.3-11.629,3.606-17.23" transform="translate(-24.331 -27.771)" fill="#fff"/>
          <path id="Trazado_838368" data-name="Trazado 838368" d="M151.324,134.341a65.67,65.67,0,0,1-21.035.742c-3.061,9.819-5.968,20.66-6.085,26.743-.25,13.007-6.5,67.038-6.5,67.038a48.888,48.888,0,0,0,13.007,2.752c7.254.5,10.006-1,10.006-1s-.5-5.5-.5-17.76,3-36.521,7.5-61.285C148.767,145.8,150.02,139.942,151.324,134.341Z" transform="translate(-24.331 -27.771)" fill="none" stroke="#263238" stroke-linecap="round" stroke-linejoin="round" stroke-width="1"/>
          <line id="Línea_888" data-name="Línea 888" x2="1.581" y2="1.829" transform="translate(112.029 147.512)" fill="none" stroke="#263238" stroke-linecap="round" stroke-linejoin="round" stroke-width="1"/>
          <line id="Línea_889" data-name="Línea 889" x2="9.192" y2="10.629" transform="translate(101.613 135.469)" fill="none" stroke="#263238" stroke-linecap="round" stroke-linejoin="round" stroke-width="1"/>
          <line id="Línea_890" data-name="Línea 890" x2="7.124" y2="6.748" transform="translate(105.738 145.967)" fill="none" stroke="#263238" stroke-linecap="round" stroke-linejoin="round" stroke-width="1"/>
          <path id="Trazado_838369" data-name="Trazado 838369" d="M104.422,41.49a5.152,5.152,0,0,1-6.111-2.8c-1.914-4.054,2-4.7,1.779-8.572s-4.131-7.285-2.032-10.906S114.375,6.651,121.215,2.686s16.869-1.816,25.139.785,14.592,5.42,16.724,11.421,1.986,11.33,4.488,15.874,7.151,5.045,4.657,10.334-7.142,4.788-6.05,8.54,3.007,7.805.221,9.856-7.607-.819-9.948,1.065-3.979,3.2-5.881,3-3.16-4.4-7.684-10.019-9.563-10.436-15.811-11.964-11.959-4.068-15.688-3.187a23.655,23.655,0,0,0-6.96,3.1" transform="translate(-20.143 -0.103)" fill="#263238"/>
          <path id="Trazado_838370" data-name="Trazado 838370" d="M104.422,41.49a5.152,5.152,0,0,1-6.111-2.8c-1.914-4.054,2-4.7,1.779-8.572s-4.131-7.285-2.032-10.906S114.375,6.651,121.215,2.686s16.869-1.816,25.139.785,14.592,5.42,16.724,11.421,1.986,11.33,4.488,15.874,7.151,5.045,4.657,10.334-7.142,4.788-6.05,8.54,3.007,7.805.221,9.856-7.607-.819-9.948,1.065-3.979,3.2-5.881,3-3.16-4.4-7.684-10.019-9.563-10.436-15.811-11.964-11.959-4.068-15.688-3.187A23.655,23.655,0,0,0,104.422,41.49Z" transform="translate(-20.143 -0.103)" fill="none" stroke="#263238" stroke-linecap="round" stroke-linejoin="round" stroke-width="1"/>
          <path id="Trazado_838371" data-name="Trazado 838371" d="M170.685,52.956a5.08,5.08,0,0,0,4.812.45" transform="translate(-35.284 -10.947)" fill="none" stroke="gray" stroke-linecap="round" stroke-linejoin="round" stroke-width="1"/>
          <path id="Trazado_838372" data-name="Trazado 838372" d="M109.8,27.26s0,6.41,10.072,6.41,22.209-.687,27.015,3.434c2.776,2.379,5.933,6.513,9.12,9.1" transform="translate(-22.698 -5.635)" fill="none" stroke="gray" stroke-linecap="round" stroke-linejoin="round" stroke-width="1"/>
          <path id="Trazado_838373" data-name="Trazado 838373" d="M144.937,23.906a13.982,13.982,0,0,1,10.128,3.805c6.41,6.181,10.531,13.507,15.339,13.736s6.639-.687,6.639-.687" transform="translate(-29.962 -4.942)" fill="none" stroke="gray" stroke-linecap="round" stroke-linejoin="round" stroke-width="1"/>
          <path id="Trazado_838374" data-name="Trazado 838374" d="M138.368,24.8a15.36,15.36,0,0,1,2.5-.593" transform="translate(-28.604 -5.003)" fill="none" stroke="gray" stroke-linecap="round" stroke-linejoin="round" stroke-width="1"/>
          <path id="Trazado_838375" data-name="Trazado 838375" d="M103.1,37.565s-2.1,9.606,2.028,16.891,4.645,6.486,5.818,13.452,4,10.478,9.673,15.363,9.076,5.04,12.5,3.057,14.912-11.431,15.51-15,1.476-7.75,1.476-7.75,2.832-2.474,3.134-3.3a12.64,12.64,0,0,0,.462-2.3s-3.911,2.572-6.875.328-1.687-6.167-6.787-8.427-12-1.721-14.117-3.873-.059-3.426-5.552-4.018-14.008,1.055-17.265-4.426" transform="translate(-21.201 -7.766)" fill="#fff"/>
          <path id="Trazado_838376" data-name="Trazado 838376" d="M103.1,37.565s-2.1,9.606,2.028,16.891,4.645,6.486,5.818,13.452,4,10.478,9.673,15.363,9.076,5.04,12.5,3.057,14.912-11.431,15.51-15,1.476-7.75,1.476-7.75,2.832-2.474,3.134-3.3a12.64,12.64,0,0,0,.462-2.3s-3.911,2.572-6.875.328-1.687-6.167-6.787-8.427-12-1.721-14.117-3.873-.059-3.426-5.552-4.018S106.353,43.046,103.1,37.565Z" transform="translate(-21.201 -7.766)" fill="none" stroke="#263238" stroke-linecap="round" stroke-linejoin="round" stroke-width="1"/>
          <path id="Trazado_838377" data-name="Trazado 838377" d="M116.928,63.023s3.221,1.844,3.371,4.425-2.556,7.847-1.168,8.851,5.094.336,5.094.336" transform="translate(-24.172 -13.028)" fill="none" stroke="#263238" stroke-linecap="round" stroke-linejoin="round" stroke-width="1"/>
          <path id="Trazado_838378" data-name="Trazado 838378" d="M127.683,85.1a4.225,4.225,0,0,0,5.179-2.435" transform="translate(-26.395 -17.09)" fill="none" stroke="#263238" stroke-linecap="round" stroke-linejoin="round" stroke-width="1"/>
          <path id="Trazado_838379" data-name="Trazado 838379" d="M122.231,55.685s2.009-2.776,7.526-2.4" transform="translate(-25.268 -11.009)" fill="none" stroke="#263238" stroke-linecap="round" stroke-linejoin="round" stroke-width="2"/>
          <path id="Trazado_838380" data-name="Trazado 838380" d="M112.861,59.919s-2.21-1.307-3.42,1.982" transform="translate(-22.624 -12.334)" fill="none" stroke="#263238" stroke-linecap="round" stroke-linejoin="round" stroke-width="2"/>
          <path id="Trazado_838381" data-name="Trazado 838381" d="M130.87,63.3c.548,1.234.558,2.427.021,2.665s-1.415-.568-1.963-1.8-.558-2.427-.021-2.665,1.415.569,1.963,1.8" transform="translate(-26.566 -12.704)" fill="#263238"/>
          <path id="Trazado_838382" data-name="Trazado 838382" d="M114.789,67.5c.548,1.234.557,2.427.021,2.665s-1.416-.568-1.963-1.8-.558-2.427-.021-2.665,1.415.569,1.963,1.8" transform="translate(-23.242 -13.572)" fill="#263238"/>
          <path id="Trazado_838383" data-name="Trazado 838383" d="M96.251,234s6.219,5.047,9.329,4.781,7.351-6.375,7.351-8.5-4.523-2.39-4.523-2.39l-4.806,2.125Z" transform="translate(-19.897 -47.11)" fill="#fff"/>
          <path id="Trazado_838384" data-name="Trazado 838384" d="M96.251,234s6.219,5.047,9.329,4.781,7.351-6.375,7.351-8.5-4.523-2.39-4.523-2.39l-4.806,2.125Z" transform="translate(-19.897 -47.11)" fill="none" stroke="#263238" stroke-linecap="round" stroke-linejoin="round" stroke-width="1"/>
          <path id="Trazado_838385" data-name="Trazado 838385" d="M90.549,237.013s6.219,5.047,9.329,4.781,7.351-6.375,7.351-8.5-4.523-2.39-4.523-2.39L97.9,233.029Z" transform="translate(-18.719 -47.733)" fill="#fff"/>
          <path id="Trazado_838386" data-name="Trazado 838386" d="M90.549,237.013s6.219,5.047,9.329,4.781,7.351-6.375,7.351-8.5-4.523-2.39-4.523-2.39L97.9,233.029Z" transform="translate(-18.719 -47.733)" fill="none" stroke="#263238" stroke-linecap="round" stroke-linejoin="round" stroke-width="1"/>
          <path id="Trazado_838387" data-name="Trazado 838387" d="M84.847,238.352s6.219,5.047,9.329,4.781,7.351-6.375,7.351-8.5S97,232.243,97,232.243L92.2,234.368Z" transform="translate(-17.54 -48.01)" fill="#fff"/>
          <path id="Trazado_838388" data-name="Trazado 838388" d="M84.847,238.352s6.219,5.047,9.329,4.781,7.351-6.375,7.351-8.5S97,232.243,97,232.243L92.2,234.368Z" transform="translate(-17.54 -48.01)" fill="none" stroke="#263238" stroke-linecap="round" stroke-linejoin="round" stroke-width="1"/>
          <path id="Trazado_838389" data-name="Trazado 838389" d="M78.433,239.357s6.219,5.047,9.328,4.781,7.351-6.375,7.351-8.5-4.522-2.39-4.522-2.39l-4.806,2.124Z" transform="translate(-16.214 -48.218)" fill="#fff"/>
          <path id="Trazado_838390" data-name="Trazado 838390" d="M78.433,239.357s6.219,5.047,9.328,4.781,7.351-6.375,7.351-8.5-4.522-2.39-4.522-2.39l-4.806,2.124Z" transform="translate(-16.214 -48.218)" fill="none" stroke="#263238" stroke-linecap="round" stroke-linejoin="round" stroke-width="1"/>
          <path id="Trazado_838391" data-name="Trazado 838391" d="M65.959,226.551s4.806,10.093,6.219,10.89,3.958.8,6.785,1.859,9.612-6.375,9.612-6.375Z" transform="translate(-13.635 -46.833)" fill="#fff"/>
          <path id="Trazado_838392" data-name="Trazado 838392" d="M65.959,226.551s4.806,10.093,6.219,10.89,3.958.8,6.785,1.859,9.612-6.375,9.612-6.375Z" transform="translate(-13.635 -46.833)" fill="none" stroke="#263238" stroke-linecap="round" stroke-linejoin="round" stroke-width="1"/>
          <path id="Trazado_838393" data-name="Trazado 838393" d="M72.421,234.508l55.191-8.25L72.136,207.482l-52.63,9.1Z" transform="translate(-4.032 -42.891)" fill="#fff"/>
          <path id="Trazado_838394" data-name="Trazado 838394" d="M72.421,234.508l55.191-8.25L72.136,207.482l-52.63,9.1Z" transform="translate(-4.032 -42.891)" fill="none" stroke="#263238" stroke-linecap="round" stroke-linejoin="round" stroke-width="1"/>
          <path id="Trazado_838395" data-name="Trazado 838395" d="M71.694,211.481l44.645,14.6-42.927,6.01L27.049,218.063Z" transform="translate(-5.592 -43.718)" fill="#dcdcdc"/>
          <path id="Trazado_838396" data-name="Trazado 838396" d="M15.578,207.986l52.915,17.923L52.276,182.666.5,165.882Z" transform="translate(-0.103 -34.291)" fill="#fff"/>
          <path id="Trazado_838397" data-name="Trazado 838397" d="M15.578,207.986l52.915,17.923L52.276,182.666.5,165.882Z" transform="translate(-0.103 -34.291)" fill="none" stroke="#263238" stroke-linecap="round" stroke-linejoin="round" stroke-width="1"/>
          <path id="Trazado_838398" data-name="Trazado 838398" d="M58.659,195.2a121.809,121.809,0,0,0-22.784,11.12,71.411,71.411,0,0,1-16.24,7.763l52.813,17.888Z" transform="translate(-4.059 -40.352)" fill="#263238"/>
          <path id="Trazado_838399" data-name="Trazado 838399" d="M58.659,195.2a121.809,121.809,0,0,0-22.784,11.12,71.411,71.411,0,0,1-16.24,7.763l52.813,17.888Z" transform="translate(-4.059 -40.352)" fill="none" stroke="#263238" stroke-linecap="round" stroke-linejoin="round" stroke-width="1"/>
          <path id="Trazado_838400" data-name="Trazado 838400" d="M41.7,193.851c1.4,1.874,1.293,4.312-.229,5.447s-3.889.535-5.285-1.339-1.294-4.312.229-5.447,3.888-.535,5.285,1.339" transform="translate(-7.278 -39.678)" fill="#fff"/>
          <path id="Trazado_838401" data-name="Trazado 838401" d="M41.7,193.851c1.4,1.874,1.293,4.312-.229,5.447s-3.889.535-5.285-1.339-1.294-4.312.229-5.447S40.306,191.977,41.7,193.851Z" transform="translate(-7.278 -39.678)" fill="none" stroke="#263238" stroke-linecap="round" stroke-linejoin="round" stroke-width="1"/>
          <path id="Trazado_838402" data-name="Trazado 838402" d="M134.82,201.078s-8.48-.588-9.981-.088-17.69,6.417-19.692,8.418a81.726,81.726,0,0,0-8.417,11.273c-2.556,4.51-1.2,4.51-.451,4.51s2.27-1.1,3.271-2.851,5.5-6.253,5.5-6.253l3.48-1.62s-3.474,6.345-5.475,9.347-3.087,4.726-1.969,5.286c1.8.9,3.909-2.156,4.66-3.157s2.807-3.1,2.807-3.1-2.251,4.5-2,5.252,2.051,1.157,3.5-1c.624-.928,7.285-8.925,7.285-8.925s-3.283,6.924-3.283,7.925,1,1.25,3,0,4.674-7.467,5.674-8.717,3.57-1.561,3.57-1.561,4-1,5-2,3-2.752,3-2.752l5.411,2.254-.4-10.987Z" transform="translate(-19.689 -41.507)" fill="#fff"/>
          <path id="Trazado_838403" data-name="Trazado 838403" d="M134.82,201.078s-8.48-.588-9.981-.088-17.69,6.417-19.692,8.418a81.726,81.726,0,0,0-8.417,11.273c-2.556,4.51-1.2,4.51-.451,4.51s2.27-1.1,3.271-2.851,5.5-6.253,5.5-6.253l3.48-1.62s-3.474,6.345-5.475,9.347-3.087,4.726-1.969,5.286c1.8.9,3.909-2.156,4.66-3.157s2.807-3.1,2.807-3.1-2.251,4.5-2,5.252,2.051,1.157,3.5-1c.624-.928,7.285-8.925,7.285-8.925s-3.283,6.924-3.283,7.925,1,1.25,3,0,4.674-7.467,5.674-8.717,3.57-1.561,3.57-1.561,4-1,5-2,3-2.752,3-2.752l5.411,2.254-.4-10.987Z" transform="translate(-19.689 -41.507)" fill="none" stroke="#263238" stroke-linecap="round" stroke-linejoin="round" stroke-width="1"/>
          <line id="Línea_891" data-name="Línea 891" y1="4.49" x2="2.385" transform="translate(97.653 172.169)" fill="none" stroke="#263238" stroke-linecap="round" stroke-miterlimit="10" stroke-width="1"/>
          <line id="Línea_892" data-name="Línea 892" y1="10.506" x2="6.754" transform="translate(88.867 170.826)" fill="none" stroke="#263238" stroke-linecap="round" stroke-linejoin="round" stroke-width="1"/>
          <line id="Línea_893" data-name="Línea 893" y1="3.752" x2="2.251" transform="translate(88.701 169.342)" fill="none" stroke="#263238" stroke-linecap="round" stroke-linejoin="round" stroke-width="1"/>
          <path id="Trazado_838404" data-name="Trazado 838404" d="M187.4,136.354l1.751,44.275-45.276-1,.25,19.011s32.269,5.253,48.278,4.753,25.514,1,26.765-1-8.16-80.441-8.16-80.441-1.5-12.508-4-13.258-18.1-5.608-18.1-5.608" transform="translate(-29.742 -21.31)" fill="#1fd27a"/>
          <path id="Trazado_838405" data-name="Trazado 838405" d="M187.4,136.354l1.751,44.275-45.276-1,.25,19.011s32.269,5.253,48.278,4.753,25.514,1,26.765-1-8.16-80.441-8.16-80.441-1.5-12.508-4-13.258-18.1-5.608-18.1-5.608" transform="translate(-29.742 -21.31)" fill="none" stroke="#263238" stroke-linecap="round" stroke-linejoin="round" stroke-width="1"/>
          <line id="Línea_894" data-name="Línea 894" x2="2.203" y2="0.063" transform="translate(174.714 159.757)" fill="#fff"/>
          <line id="Línea_895" data-name="Línea 895" x2="2.203" y2="0.063" transform="translate(174.714 159.757)" fill="none" stroke="#263238" stroke-linecap="round" stroke-linejoin="round" stroke-width="1"/>
          <line id="Línea_896" data-name="Línea 896" x2="12.421" y2="0.355" transform="translate(159.407 159.32)" fill="#fff"/>
          <line id="Línea_897" data-name="Línea 897" x2="12.421" y2="0.355" transform="translate(159.407 159.32)" fill="none" stroke="#263238" stroke-linecap="round" stroke-linejoin="round" stroke-width="1"/>
          <path id="Trazado_838406" data-name="Trazado 838406" d="M146.281,351.475c-2.973-13.352-6.138-30.522-6.138-43.121,0,0-3.293-1.241-10.679-9.722" transform="translate(-26.763 -61.734)" fill="none" stroke="gray" stroke-linecap="round" stroke-linejoin="round" stroke-width="1"/>
        </g>
      </g>
    </g>
    <g id="Grupo_1072074" data-name="Grupo 1072074" transform="translate(1266.181 954.252)">
      <g id="Grupo_151704" data-name="Grupo 151704" transform="translate(0 9.699)">
        <path id="Trazado_212295" data-name="Trazado 212295" d="M-11425.02-11468v19.4" transform="translate(11434.719 11467.999)" fill="none" stroke="#0a5e6b" stroke-width="5"/>
        <path id="Trazado_212296" data-name="Trazado 212296" d="M0,0V19.4" transform="translate(19.398 9.699) rotate(90)" fill="none" stroke="#0a5e6b" stroke-width="5"/>
      </g>
      <g id="Grupo_151705" data-name="Grupo 151705" transform="translate(25.218 0)">
        <path id="Trazado_212295-2" data-name="Trazado 212295" d="M-11425.02-11468v19.4" transform="translate(11434.719 11467.999)" fill="none" stroke="#0a5e6b" stroke-width="5"/>
        <path id="Trazado_212296-2" data-name="Trazado 212296" d="M0,0V19.4" transform="translate(19.398 9.699) rotate(90)" fill="none" stroke="#0a5e6b" stroke-width="5"/>
      </g>
      <g id="Grupo_151706" data-name="Grupo 151706" transform="translate(29.421 29.097)">
        <path id="Trazado_212295-3" data-name="Trazado 212295" d="M-11425.02-11468v19.4" transform="translate(11434.719 11467.999)" fill="none" stroke="#0a5e6b" stroke-width="5"/>
        <path id="Trazado_212296-3" data-name="Trazado 212296" d="M0,0V19.4" transform="translate(19.398 9.699) rotate(90)" fill="none" stroke="#0a5e6b" stroke-width="5"/>
      </g>
    </g>
    <g id="Grupo_1072075" data-name="Grupo 1072075" transform="translate(1248.403 1076.268)">
      <g id="Grupo_151688" data-name="Grupo 151688" transform="translate(0 7.064)">
        <path id="Trazado_212295-4" data-name="Trazado 212295" d="M-11425.02-11468v14.128" transform="translate(11432.083 11467.998)" fill="none" stroke="#0a5e6b" stroke-width="4"/>
        <path id="Trazado_212296-4" data-name="Trazado 212296" d="M0,0V14.127" transform="translate(14.127 7.064) rotate(90)" fill="none" stroke="#0a5e6b" stroke-width="4"/>
      </g>
      <g id="Grupo_151689" data-name="Grupo 151689" transform="translate(18.366 0)">
        <path id="Trazado_212295-5" data-name="Trazado 212295" d="M-11425.02-11468v14.128" transform="translate(11432.083 11467.998)" fill="none" stroke="#0a5e6b" stroke-width="4"/>
        <path id="Trazado_212296-5" data-name="Trazado 212296" d="M0,0V14.127" transform="translate(14.127 7.064) rotate(90)" fill="none" stroke="#0a5e6b" stroke-width="4"/>
      </g>
      <g id="Grupo_151690" data-name="Grupo 151690" transform="translate(21.427 21.192)">
        <path id="Trazado_212295-6" data-name="Trazado 212295" d="M-11425.02-11468v14.128" transform="translate(11432.083 11467.998)" fill="none" stroke="#0a5e6b" stroke-width="4"/>
        <path id="Trazado_212296-6" data-name="Trazado 212296" d="M0,0V14.127" transform="translate(14.127 7.064) rotate(90)" fill="none" stroke="#0a5e6b" stroke-width="4"/>
      </g>
    </g>
  </g>
</svg>
