<svg xmlns="http://www.w3.org/2000/svg" xmlns:xlink="http://www.w3.org/1999/xlink" width="119.998" height="119.998" viewBox="0 0 119.998 119.998">
  <defs>
    <clipPath id="clip-path">
      <rect id="Rectángulo_378042" data-name="Rectángulo 378042" width="91.82" height="60.279" fill="#fff"/>
    </clipPath>
  </defs>
  <g id="Grupo_1072199" data-name="Grupo 1072199" transform="translate(-269 -957.52)">
    <path id="Trazado_608971" data-name="Trazado 608971" d="M60,0A60,60,0,1,1,0,60,60,60,0,0,1,60,0Z" transform="translate(269 957.52)" fill="#0a5e6b"/>
    <g id="Grupo_1072384" data-name="Grupo 1072384" transform="translate(283 987.52)">
      <g id="Grupo_1072383" data-name="Grupo 1072383" clip-path="url(#clip-path)">
        <path id="Trazado_838991" data-name="Trazado 838991" d="M45.894,60.273q-19.587,0-39.175.006A6.33,6.33,0,0,1,.7,56.358,7.624,7.624,0,0,1,0,53.379a1.526,1.526,0,0,1,1.7-1.714c.992-.017,1.985,0,2.978,0,1.292,0,2.583-.007,3.874.006.28,0,.313-.075.24-.324a5.152,5.152,0,0,1-.2-1.45q0-22.619,0-45.237A4.344,4.344,0,0,1,11.373.324,5.832,5.832,0,0,1,13.631,0H39.675Q59.011,0,78.347,0A4.926,4.926,0,0,1,81.4.838a4.491,4.491,0,0,1,1.818,3.72q0,.161,0,.323V49.724a5.8,5.8,0,0,1-.2,1.632c-.079.27-.009.312.247.311,2.2-.009,4.4,0,6.6-.005a3.416,3.416,0,0,1,.641.054,1.406,1.406,0,0,1,1.3,1.566,7.384,7.384,0,0,1-2.685,5.681,5.888,5.888,0,0,1-3.995,1.312H45.894m.028-57.4h-32.9c-1.077,0-1.55.474-1.55,1.552v45.7a1.354,1.354,0,0,0,1.544,1.534H78.2c.239,0,.478.01.717.005a1.3,1.3,0,0,0,1.434-1.453q0-22.887,0-45.774c0-1.106-.467-1.566-1.572-1.566H45.921m-.044,51.66H3.689c-.144,0-.287.006-.431,0-.228-.01-.284.1-.19.286.155.309.3.623.488.915a3.264,3.264,0,0,0,2.977,1.684q39.515-.03,79.031-.01a2.707,2.707,0,0,0,.711-.062,3.98,3.98,0,0,0,2.492-2.538c.078-.168-.006-.276-.2-.274-.167,0-.335,0-.5,0H45.877" transform="translate(0 0)" fill="#fff"/>
        <path id="Trazado_838992" data-name="Trazado 838992" d="M138.677,58.435q0,6.942,0,13.884a1.678,1.678,0,0,1-.854,1.687,1.707,1.707,0,0,1-1.224.078c-1.984-.474-3.995-.819-5.986-1.258-2.2-.485-4.417-.908-6.625-1.368-1.377-.287-2.759-.558-4.141-.825-1.429-.276-2.851-.589-4.278-.874-1.45-.289-2.895-.61-4.351-.87a1.571,1.571,0,0,1-1.232-1.528c-.011-.119-.009-.239-.009-.358q0-8.628,0-17.256a2.725,2.725,0,0,1,.058-.569,1.423,1.423,0,0,1,1.257-1.24c1.9-.376,3.8-.737,5.688-1.13q3.557-.738,7.12-1.442c2.131-.416,4.251-.885,6.378-1.323,2.057-.424,4.138-.735,6.169-1.269A1.5,1.5,0,0,1,138.67,44.3c.008.155.007.311.007.466q0,6.834,0,13.668m-8.572-1.424v0q2.617,0,5.233,0c.543,0,.465.049.466-.448q0-5.036,0-10.073c0-.62,0-.633-.629-.5-2.121.455-4.258.829-6.376,1.3-1.36.305-2.737.54-4.108.8-.285.053-.376.177-.374.477q.021,4.014,0,8.029c0,.366.119.424.447.422,1.78-.015,3.561-.007,5.341-.007m-.017,2.829v0c-1.817,0-3.633.005-5.45-.006-.253,0-.317.067-.317.316q.013,4.088,0,8.176a.31.31,0,0,0,.282.364c1.218.294,2.455.492,3.68.747,1.646.342,3.291.687,4.941,1.008.738.144,1.458.366,2.206.466.3.04.381-.029.38-.339-.011-3.466-.007-6.933-.007-10.4,0-.06,0-.12,0-.179.009-.146-.056-.164-.2-.163-1.841.007-3.681.005-5.521.005m-12.939-2.829v0h3.981c.162,0,.33.046.329-.232q-.012-3.874,0-7.748c0-.2-.075-.251-.254-.216-.375.074-.75.144-1.124.218-2.271.444-4.523.981-6.807,1.364-.326.055-.441.171-.437.526.022,1.913.016,3.826,0,5.739,0,.287.085.361.363.358,1.315-.013,2.63-.006,3.945-.006m.017,2.83v0c-1.351,0-2.7,0-4.052,0-.2,0-.272.036-.271.249q.011,2.976,0,5.952c0,.192.065.282.25.314.376.065.751.135,1.125.212q3.45.717,6.9,1.444c.268.057.348.012.345-.278-.014-1.541-.007-3.084-.007-4.625,0-1,0-2.008,0-3.012,0-.13.057-.27-.2-.266-1.362.018-2.725.008-4.087.008" transform="translate(-78.411 -30.442)" fill="#fff"/>
      </g>
    </g>
  </g>
</svg>
