<svg xmlns="http://www.w3.org/2000/svg" width="401.099" height="382" viewBox="0 0 401.099 382">
  <g id="Grupo_1072448" data-name="Grupo 1072448" transform="translate(9223.468 9254)">
    <rect id="Rectángulo_377984" data-name="Rectángulo 377984" width="400" height="382" transform="translate(-9222.467 -9254)" fill="#fff"/>
    <rect id="Rectángulo_377655" data-name="Rectángulo 377655" width="167.377" height="26.164" rx="13.082" transform="translate(-9072.467 -9112.404)" fill="#1fd27a"/>
    <path id="Trazado_839064" data-name="Trazado 839064" d="M3.824,10.992V15H1.48V3.625H5.918a5.134,5.134,0,0,1,2.254.469,3.454,3.454,0,0,1,1.5,1.332,3.714,3.714,0,0,1,.523,1.965,3.266,3.266,0,0,1-1.145,2.637,4.767,4.767,0,0,1-3.168.965Zm0-1.9H5.918a2.059,2.059,0,0,0,1.418-.437,1.591,1.591,0,0,0,.488-1.25,1.876,1.876,0,0,0-.492-1.352,1.839,1.839,0,0,0-1.359-.531H3.824Zm12.188,1.742H14.145V15H11.8V3.625h4.227a4.778,4.778,0,0,1,3.109.9A3.1,3.1,0,0,1,20.23,7.063,3.5,3.5,0,0,1,19.727,9,3.437,3.437,0,0,1,18.2,10.242l2.461,4.648V15H18.145Zm-1.867-1.9h1.891A1.936,1.936,0,0,0,17.4,8.488a1.606,1.606,0,0,0,.484-1.238,1.719,1.719,0,0,0-.457-1.266,1.9,1.9,0,0,0-1.4-.461H14.145Zm17.211.633a6.867,6.867,0,0,1-.594,2.945,4.472,4.472,0,0,1-1.7,1.953A5.021,5.021,0,0,1,24,14.477a4.515,4.515,0,0,1-1.719-1.941,6.67,6.67,0,0,1-.617-2.9V9.07a6.831,6.831,0,0,1,.605-2.957,4.508,4.508,0,0,1,1.711-1.961,5.014,5.014,0,0,1,5.055,0A4.508,4.508,0,0,1,30.75,6.113a6.811,6.811,0,0,1,.605,2.949ZM28.98,9.055a4.787,4.787,0,0,0-.641-2.719,2.263,2.263,0,0,0-3.648-.012,4.732,4.732,0,0,0-.648,2.691V9.57a4.847,4.847,0,0,0,.641,2.7,2.243,2.243,0,0,0,3.656.035,4.819,4.819,0,0,0,.641-2.7ZM33.059,15V3.625h3.984a5.232,5.232,0,0,1,3.141.793,2.712,2.712,0,0,1,1.07,2.324,2.57,2.57,0,0,1-.43,1.473,2.482,2.482,0,0,1-1.2.934,2.4,2.4,0,0,1,1.379.883,2.61,2.61,0,0,1,.5,1.625,3,3,0,0,1-1.047,2.484A4.713,4.713,0,0,1,37.48,15ZM35.4,10.047v3.07H37.41a1.938,1.938,0,0,0,1.293-.395,1.353,1.353,0,0,0,.465-1.09,1.428,1.428,0,0,0-1.617-1.586Zm0-1.656h1.734q1.773-.031,1.773-1.414a1.307,1.307,0,0,0-.449-1.113,2.363,2.363,0,0,0-1.418-.34H35.4Zm10.211,4.727H50.59V15H43.27V3.625h2.344ZM58.777,10.07h-4.5v3.047h5.281V15H51.934V3.625h7.609v1.9H54.277V8.234h4.5ZM64,3.625l2.922,8.25,2.906-8.25H72.9V15H70.551V11.891l.234-5.367L67.715,15H66.105L63.043,6.531l.234,5.359V15H60.934V3.625Zm17.516,9.031H77.4L76.621,15H74.129L78.363,3.625h2.172L84.793,15H82.3Zm-3.477-1.9h2.844L79.449,6.5Zm18.648-.406h-4.5V15H89.84V3.625h7.406v1.9H92.184V8.461h4.5Zm11.266-.781a6.867,6.867,0,0,1-.594,2.945,4.472,4.472,0,0,1-1.7,1.953,5.021,5.021,0,0,1-5.059.008,4.515,4.515,0,0,1-1.719-1.941,6.67,6.67,0,0,1-.617-2.9V9.07a6.831,6.831,0,0,1,.605-2.957,4.508,4.508,0,0,1,1.711-1.961,5.014,5.014,0,0,1,5.055,0,4.508,4.508,0,0,1,1.711,1.961,6.811,6.811,0,0,1,.605,2.949Zm-2.375-.516a4.787,4.787,0,0,0-.641-2.719,2.263,2.263,0,0,0-3.648-.012,4.732,4.732,0,0,0-.648,2.691V9.57a4.847,4.847,0,0,0,.641,2.7,2.243,2.243,0,0,0,3.656.035,4.819,4.819,0,0,0,.641-2.7Zm13.008,2.156a4.025,4.025,0,0,1-1.355,2.891A4.76,4.76,0,0,1,114,15.156a4.28,4.28,0,0,1-3.441-1.473,6.038,6.038,0,0,1-1.254-4.043v-.7a6.819,6.819,0,0,1,.578-2.891,4.332,4.332,0,0,1,1.652-1.918,5.164,5.164,0,0,1,5.668.387A4.326,4.326,0,0,1,118.6,7.484h-2.344a2.376,2.376,0,0,0-.613-1.6,2.271,2.271,0,0,0-1.605-.5,1.991,1.991,0,0,0-1.754.84,4.707,4.707,0,0,0-.6,2.605V9.7a5.038,5.038,0,0,0,.559,2.7,1.954,1.954,0,0,0,1.762.852,2.314,2.314,0,0,0,1.621-.5,2.241,2.241,0,0,0,.613-1.535Zm7.961,1.445h-4.109L121.652,15H119.16l4.234-11.375h2.172L129.824,15h-2.492Zm-3.477-1.9h2.844L124.48,6.5Zm10.164,2.359h4.977V15h-7.32V3.625h2.344Z" transform="translate(-9058.467 -9108.822)" fill="#fff"/>
    <rect id="Rectángulo_377928" data-name="Rectángulo 377928" width="69" height="27" rx="13.5" transform="translate(-9115.467 -9175.175)" fill="#dbe5f3"/>
    <rect id="Rectángulo_377930" data-name="Rectángulo 377930" width="69" height="26" rx="13" transform="translate(-9115.467 -9049.175)" fill="#dbe5f3"/>
    <rect id="Rectángulo_377929" data-name="Rectángulo 377929" width="68" height="27" rx="13.5" transform="translate(-9024.467 -9175.175)" fill="#dbe5f3"/>
    <rect id="Rectángulo_377931" data-name="Rectángulo 377931" width="68" height="26" rx="13" transform="translate(-9024.467 -9049.175)" fill="#dbe5f3"/>
    <rect id="Rectángulo_377932" data-name="Rectángulo 377932" width="69" height="27" rx="13.5" transform="translate(-8934.467 -9175.175)" fill="#dbe5f3"/>
    <g id="Grupo_1072305" data-name="Grupo 1072305" transform="translate(-8982.106 -9238)">
      <rect id="Rectángulo_377681" data-name="Rectángulo 377681" width="68.852" height="26.164" rx="13.082" fill="#dbe5f3"/>
      <rect id="Rectángulo_377682" data-name="Rectángulo 377682" width="68.852" height="26.164" rx="13.082" transform="translate(90.197)" fill="#dbe5f3"/>
    </g>
    <g id="Grupo_1072307" data-name="Grupo 1072307" transform="translate(-9159.812 -8988.065)">
      <rect id="Rectángulo_377681-2" data-name="Rectángulo 377681" width="68.852" height="26.164" rx="13.082" fill="#dbe5f3"/>
      <rect id="Rectángulo_377682-2" data-name="Rectángulo 377682" width="68.852" height="26.164" rx="13.082" transform="translate(90.197)" fill="#dbe5f3"/>
    </g>
    <g id="Grupo_1072308" data-name="Grupo 1072308" transform="translate(-8981.418 -8988.065)">
      <rect id="Rectángulo_377681-3" data-name="Rectángulo 377681" width="68.852" height="26.164" rx="13.082" fill="#dbe5f3"/>
      <rect id="Rectángulo_377682-3" data-name="Rectángulo 377682" width="68.852" height="26.164" rx="13.082" transform="translate(90.197)" fill="#dbe5f3"/>
    </g>
    <g id="Grupo_1072310" data-name="Grupo 1072310" transform="translate(-9071.954 -8924.153)">
      <rect id="Rectángulo_377681-4" data-name="Rectángulo 377681" width="68.852" height="26.164" rx="13.082" transform="translate(0 0)" fill="#dbe5f3"/>
      <rect id="Rectángulo_377682-4" data-name="Rectángulo 377682" width="68.852" height="26.164" rx="13.082" transform="translate(90.197 0)" fill="#dbe5f3"/>
      <rect id="Rectángulo_377683" data-name="Rectángulo 377683" width="68.852" height="26.164" rx="13.082" transform="translate(180.393 0)" fill="#dbe5f3"/>
    </g>
    <rect id="Rectángulo_377933" data-name="Rectángulo 377933" width="69" height="26" rx="13" transform="translate(-8934.467 -9049.175)" fill="#dbe5f3"/>
    <path id="Trazado_838824" data-name="Trazado 838824" d="M-9867.282-9934.5h180.392" transform="translate(786.652 804.135)" fill="none" stroke="#707070" stroke-width="1"/>
    <path id="Trazado_838844" data-name="Trazado 838844" d="M0,0H180.392" transform="translate(-8854.791 -8943.371) rotate(180)" fill="none" stroke="#707070" stroke-width="1"/>
    <path id="Trazado_838828" data-name="Trazado 838828" d="M0,0H180.392" transform="translate(-8899.893 -9067.709) rotate(180)" fill="none" stroke="#707070" stroke-width="1"/>
    <path id="Trazado_838826" data-name="Trazado 838826" d="M-9849-9957.074v33.738" transform="translate(858.91 811.217)" fill="none" stroke="#707070" stroke-width="1"/>
    <path id="Trazado_838843" data-name="Trazado 838843" d="M0,0V37.464" transform="translate(-8945.33 -8924.152) rotate(180)" fill="none" stroke="#707070" stroke-width="1"/>
    <path id="Trazado_838827" data-name="Trazado 838827" d="M0,0V35.8" transform="translate(-8990.09 -9049.463) rotate(180)" fill="none" stroke="#707070" stroke-width="1"/>
    <path id="Trazado_838823" data-name="Trazado 838823" d="M-9849-9957.074v13.058" transform="translate(768.714 813.971)" fill="none" stroke="#707070" stroke-width="1"/>
    <path id="Trazado_838845" data-name="Trazado 838845" d="M0,0V19.538" transform="translate(-8855.134 -8924.153) rotate(180)" fill="none" stroke="#707070" stroke-width="1"/>
    <path id="Trazado_838833" data-name="Trazado 838833" d="M0,0V18.246" transform="translate(-8900.237 -9049.463) rotate(180)" fill="none" stroke="#707070" stroke-width="1"/>
    <path id="Trazado_838829" data-name="Trazado 838829" d="M0,0V18.583" transform="translate(-9080.631 -9049.464) rotate(180)" fill="none" stroke="#707070" stroke-width="1"/>
    <path id="Trazado_838834" data-name="Trazado 838834" d="M-9849-9957.074v13.4" transform="translate(949.107 813.65)" fill="none" stroke="#707070" stroke-width="1"/>
    <path id="Trazado_838846" data-name="Trazado 838846" d="M0,0V19.558" transform="translate(-9035.527 -8924.153) rotate(180)" fill="none" stroke="#707070" stroke-width="1"/>
    <path id="Polígono_70" data-name="Polígono 70" d="M3.5,0,7,6H0Z" transform="translate(-8993.467 -9148.175)" fill="#0a5e6b"/>
    <path id="Polígono_75" data-name="Polígono 75" d="M3.787,0,7.574,6.885H0Z" transform="translate(-8949.117 -8962.306)" fill="#0a5e6b"/>
    <path id="Polígono_71" data-name="Polígono 71" d="M3.5,0,7,7H0Z" transform="translate(-8993.467 -9086.175)" fill="#0a5e6b"/>
    <path id="Polígono_69" data-name="Polígono 69" d="M4,0,8,7H0Z" transform="translate(-9084.467 -9149.175)" fill="#0a5e6b"/>
    <path id="Polígono_73" data-name="Polígono 73" d="M3.787,0,7.574,6.885H0Z" transform="translate(-8903.68 -9149.62)" fill="#0a5e6b"/>
    <path id="Trazado_838830" data-name="Trazado 838830" d="M-9867.282-9934.5h90.875" transform="translate(921.269 741.918)" fill="none" stroke="#707070" stroke-width="1"/>
    <path id="Trazado_838837" data-name="Trazado 838837" d="M0,0H90.875" transform="translate(-9034.51 -9005.055) rotate(180)" fill="none" stroke="#707070" stroke-width="1"/>
    <path id="Trazado_838838" data-name="Trazado 838838" d="M0,0H90.542" transform="translate(-8854.79 -9004.771) rotate(180)" fill="none" stroke="#707070" stroke-width="1"/>
    <path id="Trazado_838835" data-name="Trazado 838835" d="M-9849-9957.074v18.246" transform="translate(949.107 764.492)" fill="none" stroke="#707070" stroke-width="1"/>
    <path id="Trazado_838831" data-name="Trazado 838831" d="M0,0V18.246" transform="translate(-9080.631 -9005.055) rotate(180)" fill="none" stroke="#707070" stroke-width="1"/>
    <path id="Trazado_838836" data-name="Trazado 838836" d="M0,0V18.246" transform="translate(-8900.576 -9004.771) rotate(180)" fill="none" stroke="#707070" stroke-width="1"/>
    <g id="Grupo_1072306" data-name="Grupo 1072306" transform="translate(-8949.467 -9211.836)">
      <path id="Trazado_838568" data-name="Trazado 838568" d="M-9849-9957.074v13.058" transform="translate(9852.787 9963.271)" fill="none" stroke="#707070" stroke-width="1"/>
      <path id="Polígono_14" data-name="Polígono 14" d="M3.787,0,7.574,6.885H0Z" fill="#0a5e6b"/>
    </g>
    <path id="Trazado_838839" data-name="Trazado 838839" d="M0,0V16.989" transform="translate(-9034.844 -8988.066) rotate(180)" fill="none" stroke="#707070" stroke-width="1"/>
    <path id="Trazado_838842" data-name="Trazado 838842" d="M0,0V16.989" transform="translate(-8854.789 -8987.781) rotate(180)" fill="none" stroke="#707070" stroke-width="1"/>
    <g id="Grupo_1072309" data-name="Grupo 1072309" transform="translate(-8859.271 -9211.836)">
      <path id="Trazado_838568-2" data-name="Trazado 838568" d="M-9849-9957.074v13.058" transform="translate(9852.787 9963.271)" fill="none" stroke="#707070" stroke-width="1"/>
      <path id="Polígono_14-2" data-name="Polígono 14" d="M3.787,0,7.574,6.885H0Z" transform="translate(0)" fill="#0a5e6b"/>
    </g>
    <path id="Trazado_838840" data-name="Trazado 838840" d="M0,0V16.989" transform="translate(-9125.041 -8988.066) rotate(180)" fill="none" stroke="#707070" stroke-width="1"/>
    <path id="Trazado_838841" data-name="Trazado 838841" d="M0,0V16.989" transform="translate(-8944.986 -8987.781) rotate(180)" fill="none" stroke="#707070" stroke-width="1"/>
    <path id="Polígono_72" data-name="Polígono 72" d="M3.787,0,7.574,6.885H0Z" transform="translate(-9084.418 -9023.989)" fill="#0a5e6b"/>
    <path id="Polígono_74" data-name="Polígono 74" d="M3.787,0,7.574,6.885H0Z" transform="translate(-8904.363 -9023.705)" fill="#0a5e6b"/>
    <path id="Trazado_838825" data-name="Trazado 838825" d="M-10576-8446h150.513" transform="translate(1353.533 -653.322)" fill="none" stroke="#1fd27a" stroke-linecap="square" stroke-width="2"/>
    <path id="Trazado_838832" data-name="Trazado 838832" d="M-10576-8446h92.918" transform="translate(1659.615 -653.322)" fill="none" stroke="#1fd27a" stroke-linecap="square" stroke-width="2"/>
    <path id="Trazado_839063" data-name="Trazado 839063" d="M12.723,10.07h-4.5v3.047H13.5V15H5.879V3.625h7.609v1.9H8.223V8.234h4.5Zm9,.281h-4.5V15H14.879V3.625h7.406v1.9H17.223V8.461h4.5Zm8.766-.281h-4.5v3.047H31.27V15H23.645V3.625h7.609v1.9H25.989V8.234h4.5Zm11.086,1.141A4.025,4.025,0,0,1,40.219,14.1,4.76,4.76,0,0,1,37,15.156a4.281,4.281,0,0,1-3.441-1.473A6.038,6.038,0,0,1,32.3,9.641v-.7a6.819,6.819,0,0,1,.578-2.891,4.332,4.332,0,0,1,1.652-1.918,5.164,5.164,0,0,1,5.668.387A4.326,4.326,0,0,1,41.59,7.484H39.247a2.376,2.376,0,0,0-.613-1.6,2.271,2.271,0,0,0-1.605-.5,1.991,1.991,0,0,0-1.754.84,4.707,4.707,0,0,0-.6,2.605V9.7a5.038,5.038,0,0,0,.559,2.7A1.954,1.954,0,0,0,37,13.242a2.314,2.314,0,0,0,1.621-.5,2.241,2.241,0,0,0,.613-1.535ZM51.45,5.523H47.965V15H45.622V5.523H42.184v-1.9H51.45ZM61.911,9.57a6.867,6.867,0,0,1-.594,2.945,4.472,4.472,0,0,1-1.7,1.953,5.021,5.021,0,0,1-5.059.008,4.515,4.515,0,0,1-1.719-1.941,6.67,6.67,0,0,1-.617-2.9V9.07a6.831,6.831,0,0,1,.605-2.957A4.508,4.508,0,0,1,54.54,4.152a5.014,5.014,0,0,1,5.055,0,4.508,4.508,0,0,1,1.711,1.961,6.811,6.811,0,0,1,.605,2.949Zm-2.375-.516A4.787,4.787,0,0,0,58.9,6.336a2.263,2.263,0,0,0-3.648-.012A4.732,4.732,0,0,0,54.6,9.016V9.57a4.847,4.847,0,0,0,.641,2.7,2.243,2.243,0,0,0,3.656.035,4.819,4.819,0,0,0,.641-2.7Zm9.977,2.961A1.2,1.2,0,0,0,69.043,11a6.148,6.148,0,0,0-1.687-.75,11.963,11.963,0,0,1-1.93-.777,3.153,3.153,0,0,1-1.937-2.82A2.747,2.747,0,0,1,64.008,5,3.389,3.389,0,0,1,65.5,3.875a5.616,5.616,0,0,1,2.184-.406,5.112,5.112,0,0,1,2.172.441,3.458,3.458,0,0,1,1.48,1.246,3.261,3.261,0,0,1,.527,1.828H69.52a1.534,1.534,0,0,0-.492-1.215,2.023,2.023,0,0,0-1.383-.434,2.162,2.162,0,0,0-1.336.363,1.146,1.146,0,0,0-.477.957,1.1,1.1,0,0,0,.559.93,6.311,6.311,0,0,0,1.645.7A7.106,7.106,0,0,1,70.95,9.781,2.972,2.972,0,0,1,71.864,12a2.737,2.737,0,0,1-1.117,2.316,4.891,4.891,0,0,1-3.008.84,5.808,5.808,0,0,1-2.391-.48A3.783,3.783,0,0,1,63.7,13.359a3.371,3.371,0,0,1-.566-1.937h2.352q0,1.883,2.25,1.883a2.189,2.189,0,0,0,1.3-.34A1.106,1.106,0,0,0,69.512,12.016Z" transform="translate(-9222.467 -9168.175)" fill="#12263f"/>
    <path id="Trazado_839065" data-name="Trazado 839065" d="M9.945,11.211A4.025,4.025,0,0,1,8.59,14.1a4.76,4.76,0,0,1-3.223,1.055,4.28,4.28,0,0,1-3.441-1.473A6.038,6.038,0,0,1,.672,9.641v-.7A6.819,6.819,0,0,1,1.25,6.055,4.332,4.332,0,0,1,2.9,4.137a4.629,4.629,0,0,1,2.5-.668A4.637,4.637,0,0,1,8.57,4.523,4.326,4.326,0,0,1,9.961,7.484H7.617A2.376,2.376,0,0,0,7,5.887a2.271,2.271,0,0,0-1.605-.5,1.991,1.991,0,0,0-1.754.84,4.707,4.707,0,0,0-.6,2.605V9.7a5.038,5.038,0,0,0,.559,2.7,1.954,1.954,0,0,0,1.762.852,2.314,2.314,0,0,0,1.621-.5A2.241,2.241,0,0,0,7.6,11.211Zm7.961,1.445H13.8L13.016,15H10.523L14.758,3.625H16.93L21.188,15H18.7Zm-3.477-1.9h2.844L15.844,6.5Zm16.3-7.133v7.492a3.836,3.836,0,0,1-1.168,2.953,4.5,4.5,0,0,1-3.191,1.086A4.553,4.553,0,0,1,23.2,14.1a3.77,3.77,0,0,1-1.2-2.9V3.625h2.344v7.508a2.167,2.167,0,0,0,.535,1.629,2.054,2.054,0,0,0,1.48.512q1.977,0,2.008-2.078V3.625Zm7.82,8.391A1.2,1.2,0,0,0,38.078,11a6.148,6.148,0,0,0-1.687-.75,11.963,11.963,0,0,1-1.93-.777,3.153,3.153,0,0,1-1.937-2.82A2.747,2.747,0,0,1,33.043,5a3.389,3.389,0,0,1,1.492-1.129,5.616,5.616,0,0,1,2.184-.406,5.112,5.112,0,0,1,2.172.441,3.458,3.458,0,0,1,1.48,1.246A3.261,3.261,0,0,1,40.9,6.984H38.555a1.534,1.534,0,0,0-.492-1.215,2.023,2.023,0,0,0-1.383-.434,2.162,2.162,0,0,0-1.336.363,1.146,1.146,0,0,0-.477.957,1.1,1.1,0,0,0,.559.93,6.311,6.311,0,0,0,1.645.7,7.106,7.106,0,0,1,2.914,1.492A2.972,2.972,0,0,1,40.9,12a2.737,2.737,0,0,1-1.117,2.316,4.891,4.891,0,0,1-3.008.84,5.808,5.808,0,0,1-2.391-.48,3.783,3.783,0,0,1-1.645-1.316,3.371,3.371,0,0,1-.566-1.937h2.352q0,1.883,2.25,1.883a2.189,2.189,0,0,0,1.3-.34A1.106,1.106,0,0,0,38.547,12.016Zm10.359.641H44.8L44.016,15H41.523L45.758,3.625H47.93L52.188,15H49.7Zm-3.477-1.9h2.844L46.844,6.5Zm13.719,1.258A1.2,1.2,0,0,0,58.68,11a6.148,6.148,0,0,0-1.687-.75,11.963,11.963,0,0,1-1.93-.777,3.153,3.153,0,0,1-1.937-2.82A2.747,2.747,0,0,1,53.645,5a3.389,3.389,0,0,1,1.492-1.129,5.616,5.616,0,0,1,2.184-.406,5.112,5.112,0,0,1,2.172.441,3.458,3.458,0,0,1,1.48,1.246A3.261,3.261,0,0,1,61.5,6.984H59.156a1.534,1.534,0,0,0-.492-1.215,2.023,2.023,0,0,0-1.383-.434,2.162,2.162,0,0,0-1.336.363,1.146,1.146,0,0,0-.477.957,1.1,1.1,0,0,0,.559.93,6.311,6.311,0,0,0,1.645.7,7.106,7.106,0,0,1,2.914,1.492A2.972,2.972,0,0,1,61.5,12a2.737,2.737,0,0,1-1.117,2.316,4.891,4.891,0,0,1-3.008.84,5.808,5.808,0,0,1-2.391-.48,3.783,3.783,0,0,1-1.645-1.316,3.371,3.371,0,0,1-.566-1.937h2.352q0,1.883,2.25,1.883a2.189,2.189,0,0,0,1.3-.34A1.106,1.106,0,0,0,59.148,12.016Z" transform="translate(-9222.467 -9049.47)" fill="#12263f"/>
    <g id="Grupo_1072311" data-name="Grupo 1072311" transform="translate(-9688.236 -11848.128)">
      <path id="Polígono_23" data-name="Polígono 23" d="M9.27,0l9.27,16.222H0Z" transform="translate(495 2624)" fill="#1fd27a"/>
      <rect id="Rectángulo_377672" data-name="Rectángulo 377672" width="8.755" height="21.761" transform="translate(499.892 2633.785)" fill="#1fd27a"/>
    </g>
    <g id="Grupo_1072312" data-name="Grupo 1072312" transform="translate(-8679.697 -6358.632) rotate(180)">
      <path id="Polígono_23-2" data-name="Polígono 23" d="M9.27,0l9.27,16.222H0Z" transform="translate(495 2624)" fill="#1fd27a"/>
      <rect id="Rectángulo_377672-2" data-name="Rectángulo 377672" width="8.755" height="21.761" transform="translate(499.892 2633.785)" fill="#1fd27a"/>
    </g>
  </g>
</svg>
