<svg xmlns="http://www.w3.org/2000/svg" xmlns:xlink="http://www.w3.org/1999/xlink" width="190" height="124" viewBox="0 0 190 124">
  <defs>
    <clipPath id="clip-path">
      <rect id="Rect치ngulo_377703" data-name="Rect치ngulo 377703" width="119.383" height="118.714" fill="#1fd27a"/>
    </clipPath>
  </defs>
  <g id="Grupo_1072128" data-name="Grupo 1072128" transform="translate(-180 -5048)">
    <g id="Grupo_1072127" data-name="Grupo 1072127" transform="translate(214.689 5050.731)">
      <g id="Grupo_1072126" data-name="Grupo 1072126" clip-path="url(#clip-path)">
        <path id="Trazado_838625" data-name="Trazado 838625" d="M51.164,45.483a3.836,3.836,0,0,1-4.7-.8,26.424,26.424,0,0,1-3.346-3.494,3.071,3.071,0,0,1,.185-4.366c.581-.646,1.208-1.252,1.836-1.854.721-.692,1.309-1.217.759-2.493A2.047,2.047,0,0,0,43.48,31.1c-.743.047-1.491.019-2.236.005-2.188-.04-3.259-.854-3.515-2.988-.122-1.017-.511-1.2-1.4-1.193q-11.185.036-22.37,0a2.345,2.345,0,0,0-1.8.773Q8.228,31.667,4.246,35.59a2.578,2.578,0,0,0-.785,1.991q.026,24.141-.007,48.281c0,1.3.443,1.736,1.733,1.732q15.378-.052,30.758,0c1.143,0,1.5-.363,1.538-1.476A15.355,15.355,0,0,1,50.02,71.673c1-.191,1.168-.641,1.153-1.495-.035-1.988,0-3.977-.014-5.965-.01-1.248.27-2.314,1.767-2.315,1.54,0,1.717,1.156,1.723,2.352.01,1.926.049,3.854-.011,5.778-.032,1.051.306,1.425,1.393,1.7,10.962,2.785,15.774,14.6,9.64,23.658a14.63,14.63,0,0,1-14.031,6.791c-5.978-.493-10.271-3.655-12.876-9.1-.327-.683-.228-1.83-1.142-1.961a17.343,17.343,0,0,0-3.9.009c-.7.06-.452.781-.455,1.226-.009,1.218-.407,2.109-1.773,2.112a1.6,1.6,0,0,1-1.7-1.971c.122-1.382-.6-1.465-1.676-1.461-7.643.029-15.286.018-22.929.014-3.763,0-5.167-1.408-5.168-5.176C.022,69.777.042,53.683,0,37.59a5.89,5.89,0,0,1,1.916-4.623c2.477-2.351,4.919-4.75,7.236-7.258A6.438,6.438,0,0,1,14.392,23.5c7.144.108,14.291.033,21.437.049,1.031,0,1.827.113,1.977-1.414.164-1.669,1.519-2.482,3.176-2.6a23.52,23.52,0,0,1,2.794-.015,1.781,1.781,0,0,0,2.111-1.247,1.789,1.789,0,0,0-.608-2.367c-3.962-3.6-4.109-4.815.235-8.957a13.711,13.711,0,0,1,1.838-1.57,3.031,3.031,0,0,1,3.941.191A18.682,18.682,0,0,1,53.542,7.8c.731.884,1.4.83,2.418.452,1.09-.4,1.2-1.049,1.14-1.971C56.683-.286,59.02-.051,63.53.021A19.361,19.361,0,0,1,65.764.1,3.131,3.131,0,0,1,68.7,3.345c.032.869.02,1.74.007,2.609-.015,1-.067,1.792,1.223,2.319A2.017,2.017,0,0,0,72.6,7.512c3.864-4.411,5.383-2.96,8.457.083a18.677,18.677,0,0,1,1.728,1.951,3,3,0,0,1-.2,4.35,27.8,27.8,0,0,1-1.976,1.975A1.775,1.775,0,0,0,80,18.231a1.846,1.846,0,0,0,2.113,1.294,16.2,16.2,0,0,1,2.793.016c1.689.171,3.008.876,3.168,2.786.079.947.5,1.308,1.434,1.219,1.233-.117,2.358.142,2.395,1.637.037,1.48-1.021,1.867-2.29,1.739-1.034-.1-1.382.339-1.537,1.327-.334,2.123-1.224,2.813-3.393,2.853a20.488,20.488,0,0,1-2.422-.012,1.89,1.89,0,0,0-2.24,1.377,1.813,1.813,0,0,0,.6,2.383c4.05,3.65,4.113,4.731-.221,8.932a18.621,18.621,0,0,1-1.685,1.467,3.04,3.04,0,0,1-4.224-.164A19.589,19.589,0,0,1,72.5,43.118a1.932,1.932,0,0,0-2.572-.631,1.814,1.814,0,0,0-1.225,2.14c.29,5.1-.123,6.2-6.527,6.143a20.239,20.239,0,0,1-2.216-.251C58,50.28,57.214,49,57.113,47.2c-.066-1.177.028-2.363-.037-3.541s-1.194-1.256-1.925-1.321c-.783-.07-.474.841-.478,1.317-.035,3.169-.018,6.338-.019,9.507,0,.5.006.994,0,1.491-.026,1.255-.189,2.524-1.826,2.451-1.459-.065-1.672-1.215-1.666-2.435.016-2.975.005-5.951.005-9.183M49.244,8.536c-.214.094-.378.159-.536.236-2.464,1.208-2.736,2.851-.8,4.792a18.006,18.006,0,0,1,1.4,1.491,2.5,2.5,0,0,1,.577,2.609c-2.048,4.454-1.112,5.67-6.925,5.424-.248-.01-.5.016-.745,0-.786-.047-1.048.339-1.143,1.1-.4,3.191-.179,3.465,3.038,3.467.435,0,.87.007,1.305,0a3.136,3.136,0,0,1,2.616,1.181c2.578,3.21,2.455,5.757-.406,8.608-1.788,1.782-1.713,1.713,0,3.566,1.169,1.268,2.028,1.253,3.03-.091.4-.542.985-.948,1.437-1.459a2.9,2.9,0,0,1,3.391-.906c4.252,1.817,5.4,1.143,5.192,6.5-.016.434.006.87.02,1.3a.781.781,0,0,0,.624.783c2.481.882,3.936-.1,3.938-2.7,0-.435.015-.87,0-1.3A3.229,3.229,0,0,1,66.535,40.2c3.368-2.479,5.783-2.4,8.589.665,1.326,1.447,2.066,1.258,3.337,0,1.288-1.275,1.544-2.181-.048-3.3a13.3,13.3,0,0,1-1.459-1.435,2.871,2.871,0,0,1-.821-3.245c1.842-4.474,1.253-5.449,6.636-5.234.372.015.746,0,1.119,0s.772-.041.817-.537c.114-1.236.409-2.582-.14-3.669-.409-.808-1.6-.3-2.432-.34-1.6-.069-3.278.211-4.4-1.381C75.3,18.27,75.405,16,78.492,13.135c1.336-1.242,1.34-1.99.022-3.176C76.729,8.354,76.8,8.276,75.076,10c-.44.439-.882.875-1.323,1.313a3.2,3.2,0,0,1-2.85,1.058c-4.166-.637-5.763-2.352-5.595-6.534.079-1.955-.574-2.406-2.388-2.417-1.793-.01-2.524.541-2.263,2.342a10.284,10.284,0,0,1,.006,1.862c-.1,2.59-4.808,5.572-7.237,4.575a3.693,3.693,0,0,1-1.087-.7c-.773-.719-1.5-1.489-2.252-2.228-.262-.256-.553-.482-.841-.73m3.619,66.41A11.827,11.827,0,0,0,40.974,86.9,12,12,0,0,0,52.8,98.8,12.207,12.207,0,0,0,64.868,86.863,11.991,11.991,0,0,0,52.863,74.947" transform="translate(0 0)" fill="#1fd27a"/>
        <path id="Trazado_838626" data-name="Trazado 838626" d="M217.684,203.512q-9.414,0-18.828,0c-3.059,0-3.906-.9-3.969-4.017-.031-1.539.474-3.206-1.146-4.413a1.215,1.215,0,0,1,.029-1.715c1.562-1.074,1.1-2.609,1.118-4.025.042-3.564.872-4.435,4.379-4.438,5.033,0,10.067-.06,15.1.035,1.486.028,1.717-.524,1.718-1.83,0-1.271-.309-1.7-1.648-1.68-5.156.078-10.314.035-15.471.03-3.115,0-4.049-.9-4.062-3.949q-.022-5.406,0-10.812c.016-2.86.973-3.826,3.808-3.834,5.22-.016,10.44-.064,15.658.032,1.491.028,1.715-.52,1.713-1.824,0-1.273-.319-1.709-1.657-1.69-5.218.074-10.438.038-15.658.026-2.819-.006-3.844-1-3.862-3.789q-.036-5.5,0-11c.015-2.8,1.045-3.834,3.792-3.839,5.282-.01,10.564-.037,15.845.022,1.218.013,1.686-.326,1.517-1.565a11.951,11.951,0,0,1,0-2.234,1.658,1.658,0,0,1,1.75-1.774c1.024,0,1.551.66,1.66,1.655.027.247.032.5.041.744.113,3.148.113,3.148,3.363,3.148,4.722,0,9.445-.011,14.167.005,2.558.009,3.593,1.05,3.607,3.632q.03,5.686,0,11.371c-.015,2.548-1.082,3.609-3.647,3.618-5.281.019-10.564.047-15.844-.022-1.316-.017-1.681.4-1.685,1.686,0,1.321.266,1.851,1.738,1.825,5.155-.092,10.314-.043,15.471-.032,3.064.006,3.966.929,3.971,4.036.006,3.666.019,7.332-.005,11-.016,2.515-1.014,3.52-3.485,3.559q-2.33.037-4.66,0c-1.14-.021-1.963-.537-1.946-1.77s.857-1.627,2.007-1.682c1.471-.069,3.409.679,4.3-.319.995-1.119.278-3.086.333-4.681.058-1.676-.055-3.359.035-5.032.066-1.228-.371-1.619-1.589-1.6-4.286.057-8.574.021-12.862.021-7.519,0-15.037.035-22.555-.031-1.388-.012-1.83.359-1.771,1.769.112,2.667.135,5.348-.006,8.012-.086,1.635.531,1.921,2.012,1.908,7.518-.071,15.037-.036,22.556-.026a5.513,5.513,0,0,1,1.837.173,1.494,1.494,0,0,1,.941,1.657,1.592,1.592,0,0,1-1.558,1.569,18.625,18.625,0,0,1-3.35.02c-1.509-.155-1.353.787-1.379,1.748-.028,1.03,0,1.765,1.422,1.745,4.97-.073,9.941-.028,14.912-.027,4.161,0,4.818.669,4.818,4.9,0,3.293.008,6.587,0,9.88-.009,2.87-.939,3.82-3.762,3.823q-9.6.012-19.2,0m.216-3.46c5.9,0,11.8-.028,17.7.023,1.173.01,1.663-.26,1.626-1.535-.084-2.854-.052-5.713-.012-8.57.013-.956-.145-1.464-1.3-1.461q-18.072.053-36.145,0c-1.131,0-1.328.439-1.311,1.424.05,2.856.073,5.715-.009,8.57-.035,1.218.335,1.589,1.563,1.577,5.962-.057,11.924-.026,17.886-.026m-.009-55.771c-5.9,0-11.792.044-17.687-.032-1.405-.018-1.815.385-1.76,1.78.109,2.726.078,5.461.011,8.19-.028,1.148.226,1.624,1.513,1.619q17.873-.07,35.747-.009c1.107,0,1.539-.3,1.507-1.468-.072-2.6-.133-5.219.017-7.817.1-1.759-.377-2.345-2.22-2.306-5.707.12-11.418.044-17.128.044" transform="translate(-121.276 -84.799)" fill="#1fd27a"/>
        <path id="Trazado_838627" data-name="Trazado 838627" d="M234.322,229.586q5.965,0,11.93,0c1.242,0,2.57.085,2.593,1.688.025,1.695-1.32,1.843-2.652,1.842q-11.93-.01-23.86,0a2.4,2.4,0,0,1-2.188-.756,1.688,1.688,0,0,1-.167-1.77c.395-.881,1.209-.991,2.041-.993q6.151-.011,12.3-.008" transform="translate(-137.832 -143.966)" fill="#1fd27a"/>
        <path id="Trazado_838628" data-name="Trazado 838628" d="M49.741,133.046q-5.579,0-11.159,0c-1.134,0-2.147-.226-2.46-1.492-.288-1.164.724-2.028,2.43-2.037,4.712-.025,9.423-.01,14.135-.01l8.742,0c1.215,0,2.339.247,2.344,1.743,0,1.474-1.084,1.789-2.314,1.79q-5.859.005-11.717,0" transform="translate(-22.621 -81.209)" fill="#1fd27a"/>
        <path id="Trazado_838629" data-name="Trazado 838629" d="M50.038,175.014c3.782,0,7.563.019,11.345-.01,1.3-.01,2.5.18,2.477,1.771-.016,1.457-1.136,1.707-2.376,1.705q-11.438-.022-22.876,0c-1.237,0-2.373-.27-2.393-1.7-.022-1.561,1.167-1.787,2.478-1.776,3.781.033,7.563.012,11.345.011" transform="translate(-22.709 -109.738)" fill="#1fd27a"/>
        <path id="Trazado_838630" data-name="Trazado 838630" d="M49.965,155.579c-3.721,0-7.441-.015-11.161.008-1.273.008-2.559-.139-2.566-1.7-.007-1.64,1.309-1.829,2.656-1.826q11.161.025,22.323,0c1.337,0,2.66.114,2.648,1.815-.012,1.6-1.287,1.711-2.553,1.705-3.782-.018-7.565-.006-11.347-.006" transform="translate(-22.724 -95.354)" fill="#1fd27a"/>
        <path id="Trazado_838631" data-name="Trazado 838631" d="M50.039,106.854c3.783,0,7.565.014,11.347-.007,1.295-.007,2.516.194,2.482,1.78-.034,1.555-1.252,1.746-2.545,1.743q-11.254-.027-22.509,0c-1.29,0-2.539-.213-2.581-1.722-.047-1.7,1.312-1.808,2.643-1.8,3.72.021,7.441.007,11.161.007" transform="translate(-22.72 -67)" fill="#1fd27a"/>
        <path id="Trazado_838632" data-name="Trazado 838632" d="M43.271,201.214c-1.612,0-3.224-.011-4.835,0-1.193.011-2.176-.385-2.247-1.68-.074-1.346.921-1.787,2.1-1.792q5.113-.024,10.228.006c1.12.007,1.977.452,1.939,1.735-.036,1.229-.829,1.72-1.98,1.725-1.736.007-3.471,0-5.207,0" transform="translate(-22.691 -123.993)" fill="#1fd27a"/>
        <path id="Trazado_838633" data-name="Trazado 838633" d="M84.162,288.271c-1.609-.051-3.684-2.166-3.644-3.617a1.516,1.516,0,0,1,.889-1.511,1.644,1.644,0,0,1,2.05.324,11.9,11.9,0,0,0,1.906,1.979,1.51,1.51,0,0,1,.307,1.877,1.54,1.54,0,0,1-1.509.949" transform="translate(-50.49 -177.422)" fill="#1fd27a"/>
        <path id="Trazado_838634" data-name="Trazado 838634" d="M256.23,69.763c.043,1.585-.289,2.5-1.549,2.584a1.615,1.615,0,0,1-1.87-1.8,4.824,4.824,0,0,0-.623-1.717,1.659,1.659,0,0,1,.7-2.251,1.683,1.683,0,0,1,2.3.548,4.536,4.536,0,0,1,1.046,2.634" transform="translate(-158.032 -41.594)" fill="#1fd27a"/>
        <path id="Trazado_838635" data-name="Trazado 838635" d="M254.109,115.233c0-.43-.016-.861,0-1.291a1.657,1.657,0,0,1,1.687-1.8c1.111-.033,1.673.672,1.734,1.739.049.857.032,1.72.019,2.58-.018,1.157-.575,1.952-1.767,1.892a1.711,1.711,0,0,1-1.682-2.009c.012-.368,0-.738.006-1.106" transform="translate(-159.339 -70.318)" fill="#1fd27a"/>
        <path id="Trazado_838636" data-name="Trazado 838636" d="M104.188,292.3c-.431,0-.865.028-1.294-.006a1.7,1.7,0,0,1-1.792-1.726c-.024-1.111.691-1.671,1.751-1.746.8-.056,1.6-.035,2.4-.027,1.205.012,2.129.494,2.057,1.817-.069,1.274-.984,1.75-2.2,1.7-.308-.013-.616,0-.925,0Z" transform="translate(-63.398 -181.088)" fill="#1fd27a"/>
        <path id="Trazado_838637" data-name="Trazado 838637" d="M127.415,292.309c-.37,0-.74,0-1.11,0-1.23-.007-2.075-.55-2.049-1.842.024-1.227.916-1.646,2.029-1.665.74-.012,1.481-.016,2.22,0,1.128.032,1.973.511,1.962,1.731-.011,1.179-.787,1.737-1.941,1.768-.37.01-.74,0-1.11,0" transform="translate(-77.916 -181.092)" fill="#1fd27a"/>
        <path id="Trazado_838638" data-name="Trazado 838638" d="M150.476,288.819c.431,0,.865-.025,1.294,0,1.048.073,1.815.565,1.828,1.679.013,1.19-.746,1.762-1.894,1.81-.738.031-1.479,0-2.219.01-1.233.016-2.084-.519-2.1-1.8-.013-1.221.853-1.68,1.979-1.711.37-.01.74,0,1.109,0Z" transform="translate(-92.422 -181.103)" fill="#1fd27a"/>
        <path id="Trazado_838639" data-name="Trazado 838639" d="M254.163,92.066a8.455,8.455,0,0,1,.02-1.667,1.567,1.567,0,0,1,1.749-1.33,1.455,1.455,0,0,1,1.542,1.327,26.685,26.685,0,0,1,.087,2.968c0,1.073-.5,1.858-1.618,1.877a1.667,1.667,0,0,1-1.826-1.872c0-.434,0-.868,0-1.3h.046" transform="translate(-159.348 -55.851)" fill="#1fd27a"/>
        <path id="Trazado_838640" data-name="Trazado 838640" d="M173.562,292.283a8.4,8.4,0,0,1-1.657-.02,1.645,1.645,0,0,1-1.39-1.713,1.508,1.508,0,0,1,1.4-1.659,22.738,22.738,0,0,1,2.949-.065c1.044.033,1.814.536,1.845,1.652.033,1.2-.71,1.766-1.859,1.834-.429.026-.861,0-1.293,0v-.034" transform="translate(-106.925 -181.102)" fill="#1fd27a"/>
        <path id="Trazado_838641" data-name="Trazado 838641" d="M83.282,263.042a14.252,14.252,0,0,1-.009,1.489,1.618,1.618,0,0,1-1.705,1.61,1.58,1.58,0,0,1-1.714-1.591c-.073-.863-.044-1.737-.033-2.605.015-1.137.451-1.96,1.728-1.952,1.243.008,1.742.766,1.745,1.933,0,.373,0,.745,0,1.117Z" transform="translate(-50.044 -163.033)" fill="#1fd27a"/>
        <path id="Trazado_838642" data-name="Trazado 838642" d="M135.852,47.754c.015-8.813,7.9-14.7,15.778-12.342,1.241.371,2.323.914,1.849,2.44-.428,1.378-1.455,1.31-2.715.966a8.872,8.872,0,0,0-11.1,5.879,8.747,8.747,0,0,0,5.843,10.941,8.3,8.3,0,0,0,8.765-2.084,8.449,8.449,0,0,0,2.332-8.71c-.358-1.359-1.264-2.981.842-3.5,2.014-.5,2.254,1.407,2.593,2.7,1.734,6.618-2.279,13.553-8.668,15.128A12.445,12.445,0,0,1,136.032,49.8a11.422,11.422,0,0,1-.18-2.044" transform="translate(-85.189 -21.879)" fill="#1fd27a"/>
        <path id="Trazado_838643" data-name="Trazado 838643" d="M165,58.833a5.271,5.271,0,0,1-5.443,5.371,5.4,5.4,0,0,1-5.367-5.319,5.581,5.581,0,0,1,5.41-5.53,5.392,5.392,0,0,1,5.4,5.478m-7.2.03a1.731,1.731,0,0,0,1.908,1.85,1.782,1.782,0,0,0,1.833-1.931A1.725,1.725,0,0,0,159.6,57a1.677,1.677,0,0,0-1.8,1.866" transform="translate(-96.688 -33.457)" fill="#1fd27a"/>
        <path id="Trazado_838644" data-name="Trazado 838644" d="M127.666,230.212a2.5,2.5,0,0,1-1.6-.839q-2.368-2.365-4.735-4.73c-.857-.86-1.146-1.851-.215-2.769.965-.951,1.917-.507,2.753.336a37.057,37.057,0,0,1,2.611,2.644c.877,1.086,1.462.851,2.294-.061,1.419-1.554,2.953-3.005,4.458-4.479a1.712,1.712,0,0,1,2.631-.123c.874.869.609,1.814-.189,2.62q-3.273,3.3-6.57,6.579a3.009,3.009,0,0,1-1.44.822" transform="translate(-75.588 -137.723)" fill="#1fd27a"/>
        <path id="Trazado_838645" data-name="Trazado 838645" d="M234.409,292.31c-4.029,0-8.057-.015-12.086.009-1.238.007-2.342-.231-2.4-1.686-.06-1.606,1.132-1.844,2.423-1.843q12.086.006,24.172,0c1.207,0,2.38.2,2.4,1.677.024,1.536-1.092,1.864-2.43,1.854-4.028-.029-8.057-.01-12.086-.01" transform="translate(-137.908 -181.091)" fill="#1fd27a"/>
        <path id="Trazado_838646" data-name="Trazado 838646" d="M234.336,173.82q-5.862,0-11.723,0c-1.318,0-2.674-.131-2.661-1.832s1.355-1.8,2.681-1.8q11.909.015,23.819,0c1.232,0,2.371.249,2.479,1.643.131,1.688-1.139,1.988-2.5,1.99q-6.048.007-12.1,0" transform="translate(-137.924 -106.718)" fill="#1fd27a"/>
      </g>
    </g>
    <rect id="Rect치ngulo_377704" data-name="Rect치ngulo 377704" width="190" height="124" transform="translate(180 5048)" fill="none"/>
  </g>
</svg>
