<svg xmlns="http://www.w3.org/2000/svg" xmlns:xlink="http://www.w3.org/1999/xlink" width="295" height="205.5" viewBox="0 0 295 205.5">
  <defs>
    <clipPath id="clip-path">
      <rect id="Rectángulo_378032" data-name="Rectángulo 378032" width="202.329" height="205" fill="none"/>
    </clipPath>
    <clipPath id="clip-path-6">
      <rect id="Rectángulo_378024" data-name="Rectángulo 378024" width="56.839" height="72.064" fill="none"/>
    </clipPath>
  </defs>
  <g id="Grupo_1072366" data-name="Grupo 1072366" transform="translate(-180 -3030.5)">
    <g id="Grupo_1072365" data-name="Grupo 1072365" transform="translate(226 3030.5)">
      <g id="Grupo_1072364" data-name="Grupo 1072364" clip-path="url(#clip-path)">
        <g id="Grupo_1072348" data-name="Grupo 1072348">
          <g id="Grupo_1072347" data-name="Grupo 1072347" clip-path="url(#clip-path)">
            <path id="Trazado_838847" data-name="Trazado 838847" d="M184.593,96.38a63.025,63.025,0,0,0-4.582-11.045c-9.66-17.952-26.6-31.492-45.128-39.492-14.707-6.351-32.9-9.671-48.508-3.951-7.891,2.892-15.319,8.446-19.551,15.825C61.3,67.352,61.83,79.308,57.452,89.434,53.9,97.64,45.076,102.572,38.16,107.611,27.369,115.473,16.742,124.776,13,138.08c-4.993,17.752-3.515,38.863,6.6,54.638,7.544,11.764,20.463,15.3,33.792,15.542,12.58.229,27.953-2.95,39.7,2.789,20,9.768,46.4,20.731,68.775,13,23.065-7.968,34.387-23.484,37.742-43.613s-5.871-36.9-8.807-52.842c-1.854-10.062-3.063-21.182-6.214-31.213" transform="translate(-5.686 -21.66)" fill="#dbe5f3"/>
          </g>
        </g>
        <g id="Grupo_1072350" data-name="Grupo 1072350">
          <g id="Grupo_1072349" data-name="Grupo 1072349" clip-path="url(#clip-path)">
            <path id="Trazado_838848" data-name="Trazado 838848" d="M22.374,288.425c-.115-1.283-.14-2.464-.154-3.51,0-.595.005-1.132.019-1.635a13.146,13.146,0,0,0,2.8-2.941,4.193,4.193,0,0,0,.314-3.522,2.034,2.034,0,0,0-2.862-.929c-1.434.892-1.554,3.955-1.169,5.431.033.127.782,2.066.806,2.047l.028-.023c-.023.483-.041,1-.051,1.569-.008,1.048-.008,2.232.079,3.523.014.215.032.438.048.66.159.244.251.4.251.4-.038-.356-.083-.723-.113-1.065" transform="translate(-11.755 -153.268)" fill="#bababa"/>
            <path id="Trazado_838849" data-name="Trazado 838849" d="M11.535,297.137c-1.927.317-2.174,2.124-.378,3.276a10.364,10.364,0,0,0,4.883,1.045c-.011-.135-.02-.265-.031-.4-.728-1.113-2.893-4.183-4.474-3.924" transform="translate(-5.528 -165.233)" fill="#bababa"/>
            <path id="Trazado_838850" data-name="Trazado 838850" d="M77.785,278.059c-1.7-.055-3.492,2.406-3.981,3.837-.042.124-.48,2.136-.449,2.134l.036,0c-.286.386-.587.8-.908,1.267-.585.86-1.238,1.837-1.877,2.95-.072.126-.145.258-.218.386-.032.309-.058.495-.058.495s-.059-.045-.153-.122a31.908,31.908,0,0,0-1.459,2.931,25.881,25.881,0,0,0-1.5,4.4c0,.018-.006.037-.01.055-.037-.5-.185-1.887-.209-1.992-.331-1.488-1.841-4.182-3.536-4.366a1.975,1.975,0,0,0-2.14,2.062,4.3,4.3,0,0,0,1.895,3.022,14.223,14.223,0,0,0,3.956,1.454,35.344,35.344,0,0,0-.7,4.693c-.079.92-.131,1.849-.17,2.782-.045-.43-.089-.813-.1-.866-.331-1.488-1.842-4.182-3.535-4.366a1.976,1.976,0,0,0-2.14,2.062,4.3,4.3,0,0,0,1.895,3.022,13.566,13.566,0,0,0,3.838,1.426c-.012.358-.027.715-.037,1.073-.048,1.718-.089,3.433-.181,5.113-.032.592-.085,1.174-.136,1.756-.041-.381-.078-.7-.088-.751-.332-1.488-1.842-4.183-3.536-4.366a1.975,1.975,0,0,0-2.14,2.062,4.3,4.3,0,0,0,1.894,3.022,13.043,13.043,0,0,0,3.729,1.4q-.073.613-.156,1.217.387.111.787.192.148-1.162.236-2.353a13.311,13.311,0,0,0,4.011.611,4.124,4.124,0,0,0,3.056-1.737,2.036,2.036,0,0,0-.938-2.86c-1.576-.665-4.144.971-5.119,2.12-.061.072-.667.976-.99,1.48.038-.58.079-1.159.1-1.747.055-1.7.059-3.419.07-5.136,0-.526.012-1.05.02-1.574a14.081,14.081,0,0,0,4.149.649,4.124,4.124,0,0,0,3.057-1.737,2.036,2.036,0,0,0-.938-2.86c-1.576-.665-4.145.971-5.119,2.12-.074.087-.943,1.39-1.147,1.732.016-1.155.044-2.306.116-3.438a35.388,35.388,0,0,1,.569-4.554,14.3,14.3,0,0,0,4.173.656,4.125,4.125,0,0,0,3.056-1.737,2.036,2.036,0,0,0-.938-2.86c-1.576-.665-4.145.971-5.119,2.12-.076.09-1.011,1.492-1.163,1.759.018-.087.026-.179.044-.266a25.672,25.672,0,0,1,1.386-4.372c.317-.784.664-1.515,1.017-2.218a13.691,13.691,0,0,0,3.992,1.072,4.137,4.137,0,0,0,3.235-1.388,2.029,2.029,0,0,0-.621-2.941c-1.5-.833-4.233.508-5.33,1.541-.059.056-.6.7-.99,1.167.164-.315.328-.643.492-.941.611-1.122,1.24-2.111,1.8-2.982.325-.493.629-.931.918-1.339a13.329,13.329,0,0,0,3.987-.879,4.116,4.116,0,0,0,2.207-2.733,2.051,2.051,0,0,0-1.9-2.346" transform="translate(-33.45 -154.632)" fill="#bababa"/>
            <path id="Trazado_838851" data-name="Trazado 838851" d="M26.654,323.5q.171.343.34.686.385-.131.758-.251c-.289-.572-.588-1.142-.9-1.709a12.98,12.98,0,0,0,3.647-1.7,4.134,4.134,0,0,0,1.564-3.152,2.05,2.05,0,0,0-2.352-1.893c-1.667.309-2.884,3.106-3.055,4.612-.011.094-.012,1.191,0,1.794-.289-.51-.574-1.02-.883-1.526-.891-1.462-1.837-2.915-2.775-4.368-.288-.445-.569-.892-.852-1.338a13.731,13.731,0,0,0,3.782-1.743,4.134,4.134,0,0,0,1.564-3.152,2.05,2.05,0,0,0-2.352-1.893c-1.667.309-2.884,3.106-3.055,4.613-.013.114-.012,1.692.008,2.093-.624-.983-1.236-1.968-1.8-2.963a36.091,36.091,0,0,1-2.042-4.153,13.942,13.942,0,0,0,3.805-1.75,4.134,4.134,0,0,0,1.564-3.151,2.051,2.051,0,0,0-2.352-1.894c-1.668.309-2.884,3.106-3.055,4.613-.014.119-.012,1.816.011,2.124-.034-.083-.078-.165-.111-.248a26.276,26.276,0,0,1-1.268-4.451c-.171-.835-.288-1.643-.384-2.431a13.345,13.345,0,0,0,3.886-1.3,4.122,4.122,0,0,0,1.9-2.955,2.051,2.051,0,0,0-2.134-2.137c-1.694.124-3.213,2.765-3.548,4.241-.018.08-.113.918-.174,1.53,0,0-.084,0-.22,0,.083.986.2,2.023.4,3.1a26.6,26.6,0,0,0,1.187,4.533c.007.017.016.035.022.052-.3-.4-1.193-1.488-1.271-1.564-1.094-1.072-3.826-2.509-5.325-1.729a2,2,0,0,0-.629,2.919,4.279,4.279,0,0,0,3.23,1.5,13.849,13.849,0,0,0,4.066-.958,36.3,36.3,0,0,0,2.015,4.339c.442.819.912,1.631,1.394,2.438-.274-.337-.522-.636-.561-.674-1.094-1.072-3.827-2.509-5.326-1.729a2,2,0,0,0-.629,2.919,4.279,4.279,0,0,0,3.23,1.5,13.2,13.2,0,0,0,3.953-.917c.188.308.372.618.562.925.908,1.475,1.82,2.943,2.671,4.409.3.517.577,1.036.856,1.555-.244-.3-.452-.549-.488-.584-1.094-1.072-3.826-2.509-5.325-1.728a2,2,0,0,0-.629,2.919,4.279,4.279,0,0,0,3.23,1.5,12.7,12.7,0,0,0,3.848-.878" transform="translate(-5.662 -163.426)" fill="#bababa"/>
            <path id="Trazado_838852" data-name="Trazado 838852" d="M77.8,288.3c-1.694-.971-3.027.274-2.362,2.3a10.41,10.41,0,0,0,3.145,3.909c.071-.127.141-.249.211-.373.139-1.349.384-5.047-.995-5.838" transform="translate(-41.854 -160.141)" fill="#bababa"/>
            <path id="Trazado_838853" data-name="Trazado 838853" d="M306.105,447.389c-1.872.047-3.688,2.886-4.136,4.5-.024.086-.167.97-.266,1.637.884.08,1.767.145,2.649.19a6.651,6.651,0,0,0,1.734-.686,4.567,4.567,0,0,0,2.255-3.165,2.265,2.265,0,0,0-2.235-2.475" transform="translate(-167.781 -248.799)" fill="#bababa"/>
            <path id="Trazado_838854" data-name="Trazado 838854" d="M272.675,390.788c-2.157.009-2.742,1.938-.984,3.508,1.491,1.331,4.316,1.86,5.145,1.991.011-.149.023-.293.036-.439-.6-1.341-2.428-5.068-4.2-5.06" transform="translate(-150.516 -217.323)" fill="#bababa"/>
            <path id="Trazado_838855" data-name="Trazado 838855" d="M335.584,412.331a2.249,2.249,0,0,0-.525-3.283c-1.6-1-4.69.337-5.954,1.42-.095.082-1.27,1.351-1.554,1.689.219-1.257.45-2.508.727-3.731a38.929,38.929,0,0,1,1.414-4.869A15.785,15.785,0,0,0,334.13,405a4.556,4.556,0,0,0,3.637-1.362,2.25,2.25,0,0,0-.525-3.284c-1.6-1-4.69.337-5.954,1.42-.1.085-1.363,1.452-1.575,1.717.034-.092.059-.191.094-.282a28.291,28.291,0,0,1,2.275-4.528c.482-.8.987-1.537,1.5-2.243a15.117,15.117,0,0,0,4.168,1.866,4.57,4.57,0,0,0,3.77-.949,2.242,2.242,0,0,0-.164-3.317c-1.487-1.169-4.707-.183-6.083.752-.075.051-.778.653-1.283,1.1.234-.315.47-.644.7-.941.863-1.118,1.721-2.086,2.489-2.938.441-.481.849-.906,1.234-1.3a14.71,14.71,0,0,0,4.5-.264,4.547,4.547,0,0,0,2.884-2.6,2.265,2.265,0,0,0-1.665-2.891c-1.845-.357-4.228,2.017-5.011,3.491-.068.128-.9,2.247-.862,2.249l.04,0c-.379.372-.781.775-1.211,1.224-.788.836-1.671,1.788-2.561,2.891-.1.124-.2.256-.305.383-.089.331-.15.53-.15.53s-.056-.059-.146-.159a35.4,35.4,0,0,0-2.1,2.943,28.565,28.565,0,0,0-2.4,4.533c-.008.019-.013.039-.021.058.047-.549.127-2.09.12-2.209-.1-1.681-1.281-4.883-3.1-5.379a2.183,2.183,0,0,0-2.694,1.876,4.747,4.747,0,0,0,1.54,3.627,15.722,15.722,0,0,0,4.062,2.275,39.112,39.112,0,0,0-1.576,5c-.247.99-.465,1.994-.67,3.005.025-.476.044-.9.041-.963-.1-1.681-1.281-4.883-3.1-5.379a2.182,2.182,0,0,0-2.694,1.876,4.744,4.744,0,0,0,1.54,3.627,14.967,14.967,0,0,0,3.938,2.224c-.075.389-.154.776-.227,1.164-.3,1.6-.6,3.184-.926,4.749.266-.035.532-.071.8-.111.273-1.5.526-3,.777-4.513.1-.574.2-1.143.3-1.714a15.572,15.572,0,0,0,4.414,1.432,4.557,4.557,0,0,0,3.637-1.362" transform="translate(-178.685 -214.062)" fill="#bababa"/>
            <path id="Trazado_838856" data-name="Trazado 838856" d="M346.449,392.611c-1.678-1.355-3.35-.229-2.978,2.1.319,1.995,2.212,4.216,2.749,4.813.1-.126.2-.247.3-.371.387-1.448,1.3-5.439-.067-6.541" transform="translate(-190.98 -218.011)" fill="#bababa"/>
            <path id="Trazado_838857" data-name="Trazado 838857" d="M284.925,383.282c.1-1.42.277-2.712.443-3.856.1-.649.2-1.234.305-1.78a14.52,14.52,0,0,0,3.573-2.72,4.63,4.63,0,0,0,.956-3.787,2.247,2.247,0,0,0-2.961-1.512c-1.72.723-2.384,4.044-2.222,5.721.014.145.493,2.39.522,2.373l.034-.02c-.109.524-.22,1.086-.328,1.7-.192,1.142-.4,2.434-.528,3.856-.023.237-.042.484-.063.728.132.294.205.475.205.475.021-.4.035-.8.062-1.182" transform="translate(-158.302 -205.464)" fill="#bababa"/>
            <path id="Trazado_838858" data-name="Trazado 838858" d="M284.763,454.529a2.066,2.066,0,0,0-1.395,1.728c2.292.451,4.588.809,6.879,1.057-1.023-1.359-3.726-3.37-5.484-2.784" transform="translate(-157.585 -252.712)" fill="#bababa"/>
            <path id="Trazado_838859" data-name="Trazado 838859" d="M319.421,452.75a2.182,2.182,0,0,0-2.694,1.876,3.513,3.513,0,0,0,.442,2.1q2.514-.055,5-.335c-.489-1.569-1.455-3.287-2.745-3.639" transform="translate(-176.121 -251.738)" fill="#bababa"/>
            <path id="Trazado_838860" data-name="Trazado 838860" d="M281.881,420.4c-.717-1.75-1.5-3.5-2.266-5.249-.236-.536-.465-1.072-.7-1.608a15.165,15.165,0,0,0,4.43-1.242,4.567,4.567,0,0,0,2.255-3.165,2.265,2.265,0,0,0-2.235-2.475c-1.873.047-3.688,2.886-4.137,4.5-.033.122-.307,1.843-.356,2.285-.509-1.181-1-2.362-1.447-3.546a39.876,39.876,0,0,1-1.5-4.886,15.406,15.406,0,0,0,4.456-1.246,4.566,4.566,0,0,0,2.256-3.165,2.265,2.265,0,0,0-2.235-2.475c-1.873.047-3.688,2.885-4.137,4.5-.035.127-.329,1.979-.358,2.32-.022-.1-.056-.194-.077-.29a29.088,29.088,0,0,1-.607-5.077c-.041-.941-.028-1.843,0-2.719a14.727,14.727,0,0,0,4.466-.74,4.553,4.553,0,0,0,2.591-2.891,2.266,2.266,0,0,0-1.955-2.7c-1.869-.16-3.987,2.456-4.609,4.008-.034.084-.284.982-.456,1.639,0,0-.092-.012-.241-.036-.081,1.09-.131,2.242-.1,3.446a29.34,29.34,0,0,0,.5,5.152c0,.02.011.04.015.06-.262-.489-1.042-1.831-1.113-1.928-1.007-1.36-3.737-3.4-5.508-2.814a2.207,2.207,0,0,0-1.195,3.075,4.728,4.728,0,0,0,3.262,2.2,15.288,15.288,0,0,0,4.6-.336,40.069,40.069,0,0,0,1.441,5.085c.339.97.711,1.938,1.1,2.9-.24-.415-.459-.785-.495-.834-1.006-1.36-3.737-3.4-5.508-2.814a2.207,2.207,0,0,0-1.194,3.075,4.726,4.726,0,0,0,3.262,2.2,14.586,14.586,0,0,0,4.473-.311c.151.369.3.739.451,1.107.733,1.767,1.472,3.527,2.145,5.275.144.372.277.744.408,1.116q.445.047.89.087c-.184-.494-.369-.989-.572-1.483" transform="translate(-148.703 -217.173)" fill="#bababa"/>
          </g>
        </g>
        <g id="Grupo_1072352" data-name="Grupo 1072352">
          <g id="Grupo_1072351" data-name="Grupo 1072351" clip-path="url(#clip-path)">
            <path id="Trazado_838861" data-name="Trazado 838861" d="M288.382,122.247l.292,1.753,1.951.171.589-1.661a7.768,7.768,0,0,0,1.878-.407l1.231,1.251,1.7-.979-.466-1.687a7.835,7.835,0,0,0,1.3-1.42l1.723.317.828-1.775-1.352-1.116a7.809,7.809,0,0,0,.243-1.905l1.606-.732-.34-1.929-1.772-.138a7.771,7.771,0,0,0-.887-1.679l.914-1.543-1.385-1.384-1.555.923a7.738,7.738,0,0,0-2.969-1.212l-.45-1.776H289.5l-.451,1.788a7.723,7.723,0,0,0-1.761.56l-1.4-1.212-1.6,1.123.661,1.732a7.828,7.828,0,0,0-1.125,1.459l-1.844-.19-.67,1.84,1.526,1.036a7.84,7.84,0,0,0-.11,1.3c0,.186.009.368.021.55l-1.606.9.507,1.892,1.818-.024a7.791,7.791,0,0,0,1,1.588l-.785,1.631,1.5,1.258,1.454-1.041m8.14-9.153a4.89,4.89,0,1,1-4.26-2.488,4.96,4.96,0,0,1,.7.05m1.653.554a4.9,4.9,0,0,1,1.033.761" transform="translate(-156.345 -58.57)" fill="none" stroke="#000" stroke-miterlimit="10" stroke-width="1"/>
            <path id="Trazado_838862" data-name="Trazado 838862" d="M298.8,347.487l.292,1.753,1.951.171.589-1.661a7.766,7.766,0,0,0,1.878-.407l1.231,1.251,1.7-.979-.466-1.687a7.836,7.836,0,0,0,1.3-1.42l1.723.317.828-1.775-1.352-1.116a7.788,7.788,0,0,0,.242-1.905l1.606-.732-.34-1.929-1.772-.138a7.77,7.77,0,0,0-.887-1.679l.914-1.543-1.385-1.385-1.555.923a7.737,7.737,0,0,0-2.969-1.212l-.45-1.776h-1.958l-.451,1.788a7.723,7.723,0,0,0-1.761.56l-1.4-1.212-1.6,1.123.661,1.733a7.809,7.809,0,0,0-1.125,1.459l-1.844-.19-.67,1.84,1.526,1.036a7.837,7.837,0,0,0-.11,1.3c0,.186.008.368.021.55l-1.606.9.507,1.892,1.818-.024a7.789,7.789,0,0,0,1,1.588l-.784,1.631,1.5,1.258,1.454-1.041m8.14-9.153a4.888,4.888,0,1,1-3.557-2.438m1.653.554a4.9,4.9,0,0,1,1.033.761" transform="translate(-162.14 -183.829)" fill="none" stroke="#000" stroke-miterlimit="10" stroke-width="1"/>
            <path id="Trazado_838863" data-name="Trazado 838863" d="M324.838,91.914l.256.672q-.192.2-.371.407m-.653.889c-.034.054-.067.109-.1.163l-1.844-.19-.67,1.84,1.527,1.036a7.842,7.842,0,0,0-.11,1.3c0,.185.009.368.021.55l-1.606.9.507,1.892,1.818-.024a7.781,7.781,0,0,0,1,1.588l-.785,1.631,1.5,1.259,1.454-1.041a7.735,7.735,0,0,0,1.751.74l.292,1.754,1.951.17.589-1.661a7.745,7.745,0,0,0,1.878-.407l1.231,1.251,1.7-.979-.466-1.687a7.819,7.819,0,0,0,1.3-1.42l1.723.317.828-1.775L338.2,99.969a7.809,7.809,0,0,0,.243-1.905l1.606-.732-.34-1.929-1.772-.138a7.75,7.75,0,0,0-.887-1.679l.914-1.543-1.385-1.385-1.555.923a7.75,7.75,0,0,0-2.97-1.212l-.45-1.776h-1.958l-.451,1.788a7.706,7.706,0,0,0-1.761.559l-1.4-1.212-1.6,1.123.2.53m10.81,7.656a4.837,4.837,0,0,1-.3.937m-.366.687a4.89,4.89,0,1,1,.768-2.631c0,.119,0,.238-.013.356" transform="translate(-178.672 -49.268)" fill="none" stroke="#000" stroke-miterlimit="10" stroke-width="1"/>
            <path id="Trazado_838864" data-name="Trazado 838864" d="M57.76,198.545l-1.467,3.048,2.8,2.353L61.814,202a14.444,14.444,0,0,0,3.273,1.382l.545,3.278,3.647.319,1.1-3.1a14.469,14.469,0,0,0,3.509-.76l2.3,2.338,3.17-1.83-.87-3.152a14.618,14.618,0,0,0,2.436-2.654l3.22.594,1.547-3.317-2.526-2.086a14.553,14.553,0,0,0,.454-3.561l3-1.368-.636-3.6-3.312-.257a14.508,14.508,0,0,0-1.657-3.138l1.708-2.884L80.134,175.6l-2.907,1.726a14.475,14.475,0,0,0-5.55-2.265l-.84-3.32h-3.66l-.843,3.341a14.439,14.439,0,0,0-3.291,1.046l-2.617-2.265-3,2.1,1.236,3.238a14.606,14.606,0,0,0-2.1,2.728l-3.446-.356-1.252,3.44,2.853,1.935a14.651,14.651,0,0,0-.206,2.429c0,.346.016.688.04,1.028l-3,1.676.947,3.536,3.4-.044a14.529,14.529,0,0,0,1.346,2.287m8.765-17.1a9.149,9.149,0,0,1,1.218-.339m2.257-.176a9.133,9.133,0,1,1-4.131.778" transform="translate(-28.667 -95.51)" fill="none" stroke="#000" stroke-miterlimit="10" stroke-width="1"/>
          </g>
        </g>
        <line id="Línea_898" data-name="Línea 898" x1="3.627" y1="2.345" transform="translate(72.361 90.835)" fill="none" stroke="#263238" stroke-linecap="round" stroke-linejoin="round" stroke-width="3"/>
        <line id="Línea_899" data-name="Línea 899" x1="0.941" y1="0.783" transform="translate(81.357 85.347)" fill="none" stroke="#263238" stroke-linecap="round" stroke-linejoin="round" stroke-width="3"/>
        <line id="Línea_900" data-name="Línea 900" x1="7.515" y1="1.879" transform="translate(64.181 104.918)" fill="none" stroke="#263238" stroke-linecap="round" stroke-linejoin="round" stroke-width="3"/>
        <g id="Grupo_1072357" data-name="Grupo 1072357">
          <g id="Grupo_1072356" data-name="Grupo 1072356" clip-path="url(#clip-path)">
            <path id="Trazado_838865" data-name="Trazado 838865" d="M204.675,254.371a.664.664,0,0,1-.577-.333c-.233-.4-.357-.618,1.518-2.766-4.039,2.472-4.472,2.369-4.706,2.311a.774.774,0,0,1-.458-.338c-.372-.644-.445-.771,7.032-6.89-1.2.78-2.445,1.612-3.554,2.352-6.581,4.39-8.625,5.636-9.532,5.425a.811.811,0,0,1-.526-.384c-.4-.692-.4-.692,8.417-7.074l1.745-1.265c-1.017.682-2.034,1.374-2.966,2.008-6.952,4.729-10.12,6.771-11.3,6.5a.9.9,0,0,1-.587-.423c-.433-.751-.529-.919,12.316-9.648L184.6,253.6a.665.665,0,0,1-.91-.244c-.3-.514-.064-1.144,1.157-2.225-1.946,1.118-3.074,1.569-3.629,1.437a.859.859,0,0,1-.558-.4c-.368-.637-.226-1.23,4.476-4.39-4.849,3.032-6.637,3.927-7.334,3.762a.781.781,0,0,1-.5-.368c-.322-.557-.023-.755,1.093-1.49.576-.379,1.414-.926,2.456-1.6,1.059-.688,2.33-1.51,3.753-2.429-4.138,2.149-4.757,2-5.1,1.917a.876.876,0,0,1-.565-.409.666.666,0,0,1,.237-.906c13.028-7.721,33.141-20.111,37.991-24.21-4.837,2.2-19.287,11.176-27.538,16.3-10.6,6.589-10.651,6.576-11.1,6.462a.692.692,0,0,1-.423-.318c-.36-.624-.342-1.023,3.9-3.651-1.951.919-3.239,1.338-3.808,1.2a.932.932,0,0,1-.6-.431.667.667,0,0,1,.219-.895c13.149-8.375,31.644-20.235,39.189-25.247-2.1,1.07-4.917,2.678-8.05,4.54-2.536,1.63-5.541,3.527-9.094,5.738-4.7,2.924-9.446,5.824-13.4,8.22-9.554,6.025-9.667,6-10.133,5.884a.706.706,0,0,1-.431-.323.666.666,0,0,1,.236-.905c2.876-1.71,6.053-3.616,9.348-5.612l1.73-1.092c-6.9,3.946-10.711,5.671-11.835,5.4a.955.955,0,0,1-.627-.451c-.411-.712.177-1.615,5.04-4.8-3.138,1.915-4.381,2.484-4.91,2.354a.755.755,0,0,1-.484-.356c-.279-.483-.507-.878,2.745-3.245-1.75.879-2.856,1.249-3.385,1.121a.9.9,0,0,1-.577-.42.665.665,0,0,1,.247-.911c14.4-8.191,36.213-21.159,42.856-26.393-7.286,4.02-27.365,15.812-41.378,24.121a.666.666,0,0,1-.917-.24,1.031,1.031,0,0,1-.086-.807,4.015,4.015,0,0,1,1.1-1.456,4.109,4.109,0,0,1-2.123.478.917.917,0,0,1-.586-.427c-.4-.689.364-1.219,1.519-2.022.865-.6,2.141-1.43,3.9-2.531,3.279-2.052,7.781-4.767,12.549-7.642,5.356-3.229,11.724-7.069,16.777-10.249C196.219,209.663,179.182,219.6,171,224.384a.666.666,0,0,1-.913-.242c-.343-.594-.446-.771,5.438-4.471-2.305,1.267-3.759,1.809-4.5,1.637a1.014,1.014,0,0,1-.675-.483c-.44-.762-.44-.762,10.234-6.963,4.94-2.87,10.837-6.3,16.26-9.59,4.553-3.026,8.118-5.332,10.822-6.925a34,34,0,0,0,4.025-3.133c-5.542,2.49-27.437,15.728-41.3,24.338a.666.666,0,0,1-.708-1.127l4.3-2.733c-3.568,1.823-4.87,2.13-5.43,1.99a.917.917,0,0,1-.591-.428.666.666,0,0,1,.218-.894c2.449-1.568,5.763-3.692,9.459-6.064-7.731,4.367-8.356,4.212-8.74,4.117a.765.765,0,0,1-.486-.36.665.665,0,0,1,.226-.9c9.971-6.166,24.134-15.108,32.419-20.687-6.68,3.847-16.415,9.565-23.276,13.595-3.042,1.787-5.7,3.349-7.609,4.464-1.694.99-2.515,1.47-2.955,1.692l-.117.073-.007-.012c-.307.144-.381.124-.512.09a.666.666,0,0,1-.181-1.21c10.574-6.535,26.19-16.394,33.185-21.238-3.723,2.155-9.286,5.7-13.775,8.566-12.545,8-16.357,10.288-17.46,10.015a.793.793,0,0,1-.507-.373c-.278-.482-.477-.826,3.694-3.829a4.417,4.417,0,0,1-2.353.584.951.951,0,0,1-.613-.444.665.665,0,0,1,.222-.9c8.191-5.153,20.635-13.234,24.914-16.574-3.745,1.832-11.919,7.088-16.733,10.183-7.829,5.034-8.133,5.158-8.624,5.039a.715.715,0,0,1-.437-.326c-.352-.609-.663-1.15,7.031-6.442q-1.423.909-2.912,1.871a.706.706,0,0,1-.6.138.666.666,0,0,1-.419-.314c-.475-.822.21-1.528,5.611-5.669a.723.723,0,0,1-.472-.346.666.666,0,0,1,.652-.994,23.687,23.687,0,0,0,2.036-1.343c2.164-1.519,2.778-1.886,3.309-1.768a.748.748,0,0,1,.493.358c.384.664.088,1.066-3.556,3.881,1.009-.629,2.054-1.276,3.1-1.914,10.264-6.279,11.056-6.092,11.53-5.977a.791.791,0,0,1,.509.373.665.665,0,0,1-.224.9c-5,3.125-10.215,6.475-14.57,9.38,10.128-6.469,15-9.3,16.367-8.977a.891.891,0,0,1,.573.417c.424.735.731,1.266-13.283,10.492-.672.442-1.346.884-2.015,1.32,2.82-1.779,5.682-3.637,8.005-5.145,8.992-5.836,10.444-6.69,11.125-6.53a.714.714,0,0,1,.459.34.665.665,0,0,1-.219.894c-8.69,5.537-21.387,13.807-27.661,18.252,3.37-1.991,8.153-5.041,12.314-7.695,13.2-8.417,17.5-10.986,18.72-10.691a.818.818,0,0,1,.524.385c.327.565.558.964-7.161,6.117,10.819-6.278,11.025-6.226,11.371-6.135a.685.685,0,0,1,.413.315c.443.767.763,1.322-19.65,14.374-1.481.947-2.969,1.894-4.426,2.817,8.08-4.778,17.706-10.662,25-15.206a.666.666,0,0,1,.929.232c.318.55-.148.876-.641,1.221-.3.211-.748.514-1.319.894-1.074.717-2.66,1.759-4.712,3.1-3.454,2.252-8.281,5.373-14.345,9.279-5.84,3.76-11.727,7.539-15.76,10.125,5.3-2.8,15.663-8.908,35.664-21.656,2.878-1.834,2.879-1.834,3.172-1.764a.666.666,0,0,1,.419.314c.165.285.258.447-.274.919l0,0-.022.013c-.709.621-2.476,1.773-6.5,4.4,5.709-3.132,6.242-3,6.587-2.914a.764.764,0,0,1,.483.358c.24.414.3.918-.589,1.911a2.363,2.363,0,0,1,1.081-.077,1.045,1.045,0,0,1,.7.5c.442.765.668,1.157-12.52,9.472,13.963-8.084,14.1-8.049,14.436-7.962a.673.673,0,0,1,.408.312c.424.735-.356,1.48-2.265,2.871-1.229.9-2.965,2.061-5.293,3.55,7.758-4.84,9.7-5.844,10.4-5.674a.741.741,0,0,1,.471.349.666.666,0,0,1-.249.912c-4.529,2.566-9.132,5.223-13.581,7.841-1.533.966-3.09,1.953-4.608,2.914-9.057,5.732-15.668,9.858-20.306,12.558-1.47,1-2.728,1.9-3.733,2.671,4.126-2.44,11.16-6.59,18.176-10.7,22.2-12.989,22.53-12.9,22.956-12.787a.7.7,0,0,1,.417.318.965.965,0,0,1,.082.756,2.338,2.338,0,0,1-.722,1.1c1.524-.759,2.477-1.071,2.946-.956a.863.863,0,0,1,.554.4c.354.613-.145.945-1.239,1.671-.662.439-1.641,1.062-2.992,1.9l-.264.164c2.071-.991,3.522-1.454,4.249-1.28a1.092,1.092,0,0,1,.719.514c.613,1.061-.012,1.732-21.659,14.543-9.069,5.367-21.088,12.48-24.362,15.123,1.806-.633,6.307-2.809,17.491-9.576,9.117-5.516,19.16-11.957,23.987-15.052,3.343-2.144,3.342-2.14,3.639-2.068a.667.667,0,0,1,.419.314c.271.469.546.946-3.086,3.664a3.342,3.342,0,0,1,1.644-.284.937.937,0,0,1,.6.434c.39.676.39.676-6.791,5.382-3.535,2.316-8.479,5.517-14.7,9.514-5.99,3.852-12.033,7.717-16.169,10.358,8.378-4.492,24.083-14.452,31.066-18.882,6.2-3.929,6.2-3.93,6.551-3.842a.67.67,0,0,1,.419.315c.475.822-.281,1.993-3.2,4.165a.89.89,0,0,1,.259.019.826.826,0,0,1,.525.386c.467.807.994,1.721-18.707,14.059,5.666-3.489,11.533-7.2,16.288-10.277a.666.666,0,0,1,.938.227c.326.566-.125.887-.872,1.419-.446.317-1.116.776-1.993,1.365s-1.973,1.317-3.29,2.184c1.839-.936,2.972-1.309,3.541-1.171a.929.929,0,0,1,.6.434c.373.646.29.91-4.206,3.791a3.783,3.783,0,0,1,2.047-.45,1,1,0,0,1,.647.465c.523.906.128,1.3-11.9,8.589-3.444,2.086-7.779,4.711-11.29,6.975l23.617-13.635a.665.665,0,0,1,.909.244c.328.569-.138.912-.909,1.479-.466.343-1.149.826-2.089,1.476-1.755,1.213-4.19,2.863-6.769,4.609-3.008,2.037-6.791,4.6-9.888,6.75,1.424-.942,2.907-1.951,4.225-2.847,6.866-4.67,9.778-6.54,10.9-6.289a.875.875,0,0,1,.572.414c.388.671.406.7-7.471,6.407,5.716-3.8,7.582-4.882,8.435-4.691a.812.812,0,0,1,.527.384c.314.544.314.544-3.661,3.788-1.2.977-2.862,2.336-4.365,3.59,1.218-.749,2.559-1.6,3.833-2.428a.665.665,0,0,1,.94.225c.25.435.155.537-.753,1.512q-1.111,1.193-1.914,2.085c4.031-2.4,4.176-2.362,4.46-2.289a.68.68,0,0,1,.415.315.667.667,0,0,1-.455.988c-.589.265-3.871,2.2-6.76,3.947a.67.67,0,0,1-.345.1m6.408-4.363a.653.653,0,0,0,.3.272.664.664,0,0,1-.3-.272m-16.39-6.776c-3.834,2.39-7.608,4.79-10.069,6.5,2.678-1.591,6.564-4.164,10.069-6.5M211.2,231.414c-4.354,2.414-11.4,6.951-16.754,10.409,1.974-1.231,4.218-2.62,6.771-4.192,3.515-2.164,7.3-4.5,9.983-6.217m-.283,3.1c-2.369,1.263-5.957,3.544-9.461,5.839l.366-.222c3.273-1.982,6.826-4.134,9.095-5.617m-21.829-9.959c-2.911,1.831-5.611,3.558-7.819,5.024,2.307-1.452,5.035-3.216,7.819-5.024m31.6-17.462c-1.286.431-4.017,1.689-9.791,5.157-5.725,3.437-12.773,8.019-18.992,12.062-2.71,1.762-4.994,3.241-6.921,4.477,3.739-2.3,8.761-5.3,15.465-9.272,8.188-4.845,17.311-10.244,20.238-12.424m-4.17,13.027-.938.595q-4.663,2.958-8.829,5.571c3.7-2.227,7.2-4.405,9.766-6.166m-29.437-2.964c-4.072,2.461-8.026,4.87-10.629,6.541,1.312-.68,2.931-1.59,4.745-2.65,1.758-1.211,3.751-2.525,5.884-3.891m10.425-11.725c-1.7,1.133-3.386,2.261-4.957,3.315-3.122,2.094-5.865,3.924-8.259,5.493l2.446-1.508c8.987-5.541,21.969-13.544,25.783-16.45a35.32,35.32,0,0,0-4.1,2.168c-1.518,1.06-3.448,2.334-5.893,3.877-1.6,1.007-3.286,2.049-5.023,3.1m-20.2-15.995Z" transform="translate(-92.361 -101.384)" fill="#1fd27a"/>
            <g id="Grupo_1072355" data-name="Grupo 1072355" transform="translate(73.722 80.924)" opacity="0.4">
              <g id="Grupo_1072354" data-name="Grupo 1072354">
                <g id="Grupo_1072353" data-name="Grupo 1072353" clip-path="url(#clip-path-6)">
                  <path id="Trazado_838866" data-name="Trazado 838866" d="M204.675,254.371a.664.664,0,0,1-.577-.333c-.233-.4-.357-.618,1.518-2.766-4.039,2.472-4.472,2.369-4.706,2.311a.774.774,0,0,1-.458-.338c-.372-.644-.445-.771,7.032-6.89-1.2.78-2.445,1.612-3.554,2.352-6.581,4.39-8.625,5.636-9.532,5.425a.811.811,0,0,1-.526-.384c-.4-.692-.4-.692,8.417-7.074l1.745-1.265c-1.017.682-2.034,1.374-2.966,2.008-6.952,4.729-10.12,6.771-11.3,6.5a.9.9,0,0,1-.587-.423c-.433-.751-.529-.919,12.316-9.648L184.6,253.6a.665.665,0,0,1-.91-.244c-.3-.514-.064-1.144,1.157-2.225-1.946,1.118-3.074,1.569-3.629,1.437a.859.859,0,0,1-.558-.4c-.368-.637-.226-1.23,4.476-4.39-4.849,3.032-6.637,3.927-7.334,3.762a.781.781,0,0,1-.5-.368c-.322-.557-.023-.755,1.093-1.49.576-.379,1.414-.926,2.456-1.6,1.059-.688,2.33-1.51,3.753-2.429-4.138,2.149-4.757,2-5.1,1.917a.876.876,0,0,1-.565-.409.666.666,0,0,1,.237-.906c13.028-7.721,33.141-20.111,37.991-24.21-4.837,2.2-19.287,11.176-27.538,16.3-10.6,6.589-10.651,6.576-11.1,6.462a.692.692,0,0,1-.423-.318c-.36-.624-.342-1.023,3.9-3.651-1.951.919-3.239,1.338-3.808,1.2a.932.932,0,0,1-.6-.431.667.667,0,0,1,.219-.895c13.149-8.375,31.644-20.235,39.189-25.247-2.1,1.07-4.917,2.678-8.05,4.54-2.536,1.63-5.541,3.527-9.094,5.738-4.7,2.924-9.446,5.824-13.4,8.22-9.554,6.025-9.667,6-10.133,5.884a.706.706,0,0,1-.431-.323.666.666,0,0,1,.236-.905c2.876-1.71,6.053-3.616,9.348-5.612l1.73-1.092c-6.9,3.946-10.711,5.671-11.835,5.4a.955.955,0,0,1-.627-.451c-.411-.712.177-1.615,5.04-4.8-3.138,1.915-4.381,2.484-4.91,2.354a.755.755,0,0,1-.484-.356c-.279-.483-.507-.878,2.745-3.245-1.75.879-2.856,1.249-3.385,1.121a.9.9,0,0,1-.577-.42.665.665,0,0,1,.247-.911c14.4-8.191,36.213-21.159,42.856-26.393-7.286,4.02-27.365,15.812-41.378,24.121a.666.666,0,0,1-.917-.24,1.031,1.031,0,0,1-.086-.807,4.015,4.015,0,0,1,1.1-1.456,4.109,4.109,0,0,1-2.123.478.917.917,0,0,1-.586-.427c-.4-.689.364-1.219,1.519-2.022.865-.6,2.141-1.43,3.9-2.531,3.279-2.052,7.781-4.767,12.549-7.642,5.356-3.229,11.724-7.069,16.777-10.249C196.219,209.663,179.182,219.6,171,224.384a.666.666,0,0,1-.913-.242c-.343-.594-.446-.771,5.438-4.471-2.305,1.267-3.759,1.809-4.5,1.637a1.014,1.014,0,0,1-.675-.483c-.44-.762-.44-.762,10.234-6.963,4.94-2.87,10.837-6.3,16.26-9.59,4.553-3.026,8.118-5.332,10.822-6.925a34,34,0,0,0,4.025-3.133c-5.542,2.49-27.437,15.728-41.3,24.338a.666.666,0,0,1-.708-1.127l4.3-2.733c-3.568,1.823-4.87,2.13-5.43,1.99a.917.917,0,0,1-.591-.428.666.666,0,0,1,.218-.894c2.449-1.568,5.763-3.692,9.459-6.064-7.731,4.367-8.356,4.212-8.74,4.117a.765.765,0,0,1-.486-.36.665.665,0,0,1,.226-.9c9.971-6.166,24.134-15.108,32.419-20.687-6.68,3.847-16.415,9.565-23.276,13.595-3.042,1.787-5.7,3.349-7.609,4.464-1.694.99-2.515,1.47-2.955,1.692l-.117.073-.007-.012c-.307.144-.381.124-.512.09a.666.666,0,0,1-.181-1.21c10.574-6.535,26.19-16.394,33.185-21.238-3.723,2.155-9.286,5.7-13.775,8.566-12.545,8-16.357,10.288-17.46,10.015a.793.793,0,0,1-.507-.373c-.278-.482-.477-.826,3.694-3.829a4.417,4.417,0,0,1-2.353.584.951.951,0,0,1-.613-.444.665.665,0,0,1,.222-.9c8.191-5.153,20.635-13.234,24.914-16.574-3.745,1.832-11.919,7.088-16.733,10.183-7.829,5.034-8.133,5.158-8.624,5.039a.715.715,0,0,1-.437-.326c-.352-.609-.663-1.15,7.031-6.442q-1.423.909-2.912,1.871a.706.706,0,0,1-.6.138.666.666,0,0,1-.419-.314c-.475-.822.21-1.528,5.611-5.669a.723.723,0,0,1-.472-.346.666.666,0,0,1,.652-.994,23.687,23.687,0,0,0,2.036-1.343c2.164-1.519,2.778-1.886,3.309-1.768a.748.748,0,0,1,.493.358c.384.664.088,1.066-3.556,3.881,1.009-.629,2.054-1.276,3.1-1.914,10.264-6.279,11.056-6.092,11.53-5.977a.791.791,0,0,1,.509.373.665.665,0,0,1-.224.9c-5,3.125-10.215,6.475-14.57,9.38,10.128-6.469,15-9.3,16.367-8.977a.891.891,0,0,1,.573.417c.424.735.731,1.266-13.283,10.492-.672.442-1.346.884-2.015,1.32,2.82-1.779,5.682-3.637,8.005-5.145,8.992-5.836,10.444-6.69,11.125-6.53a.714.714,0,0,1,.459.34.665.665,0,0,1-.219.894c-8.69,5.537-21.387,13.807-27.661,18.252,3.37-1.991,8.153-5.041,12.314-7.695,13.2-8.417,17.5-10.986,18.72-10.691a.818.818,0,0,1,.524.385c.327.565.558.964-7.161,6.117,10.819-6.278,11.025-6.226,11.371-6.135a.685.685,0,0,1,.413.315c.443.767.763,1.322-19.65,14.374-1.481.947-2.969,1.894-4.426,2.817,8.08-4.778,17.706-10.662,25-15.206a.666.666,0,0,1,.929.232c.318.55-.148.876-.641,1.221-.3.211-.748.514-1.319.894-1.074.717-2.66,1.759-4.712,3.1-3.454,2.252-8.281,5.373-14.345,9.279-5.84,3.76-11.727,7.539-15.76,10.125,5.3-2.8,15.663-8.908,35.664-21.656,2.878-1.834,2.879-1.834,3.172-1.764a.666.666,0,0,1,.419.314c.165.285.258.447-.274.919l0,0-.022.013c-.709.621-2.476,1.773-6.5,4.4,5.709-3.132,6.242-3,6.587-2.914a.764.764,0,0,1,.483.358c.24.414.3.918-.589,1.911a2.363,2.363,0,0,1,1.081-.077,1.045,1.045,0,0,1,.7.5c.442.765.668,1.157-12.52,9.472,13.963-8.084,14.1-8.049,14.436-7.962a.673.673,0,0,1,.408.312c.424.735-.356,1.48-2.265,2.871-1.229.9-2.965,2.061-5.293,3.55,7.758-4.84,9.7-5.844,10.4-5.674a.741.741,0,0,1,.471.349.666.666,0,0,1-.249.912c-4.529,2.566-9.132,5.223-13.581,7.841-1.533.966-3.09,1.953-4.608,2.914-9.057,5.732-15.668,9.858-20.306,12.558-1.47,1-2.728,1.9-3.733,2.671,4.126-2.44,11.16-6.59,18.176-10.7,22.2-12.989,22.53-12.9,22.956-12.787a.7.7,0,0,1,.417.318.965.965,0,0,1,.082.756,2.338,2.338,0,0,1-.722,1.1c1.524-.759,2.477-1.071,2.946-.956a.863.863,0,0,1,.554.4c.354.613-.145.945-1.239,1.671-.662.439-1.641,1.062-2.992,1.9l-.264.164c2.071-.991,3.522-1.454,4.249-1.28a1.092,1.092,0,0,1,.719.514c.613,1.061-.012,1.732-21.659,14.543-9.069,5.367-21.088,12.48-24.362,15.123,1.806-.633,6.307-2.809,17.491-9.576,9.117-5.516,19.16-11.957,23.987-15.052,3.343-2.144,3.342-2.14,3.639-2.068a.667.667,0,0,1,.419.314c.271.469.546.946-3.086,3.664a3.342,3.342,0,0,1,1.644-.284.937.937,0,0,1,.6.434c.39.676.39.676-6.791,5.382-3.535,2.316-8.479,5.517-14.7,9.514-5.99,3.852-12.033,7.717-16.169,10.358,8.378-4.492,24.083-14.452,31.066-18.882,6.2-3.929,6.2-3.93,6.551-3.842a.67.67,0,0,1,.419.315c.475.822-.281,1.993-3.2,4.165a.89.89,0,0,1,.259.019.826.826,0,0,1,.525.386c.467.807.994,1.721-18.707,14.059,5.666-3.489,11.533-7.2,16.288-10.277a.666.666,0,0,1,.938.227c.326.566-.125.887-.872,1.419-.446.317-1.116.776-1.993,1.365s-1.973,1.317-3.29,2.184c1.839-.936,2.972-1.309,3.541-1.171a.929.929,0,0,1,.6.434c.373.646.29.91-4.206,3.791a3.783,3.783,0,0,1,2.047-.45,1,1,0,0,1,.647.465c.523.906.128,1.3-11.9,8.589-3.444,2.086-7.779,4.711-11.29,6.975l23.617-13.635a.665.665,0,0,1,.909.244c.328.569-.138.912-.909,1.479-.466.343-1.149.826-2.089,1.476-1.755,1.213-4.19,2.863-6.769,4.609-3.008,2.037-6.791,4.6-9.888,6.75,1.424-.942,2.907-1.951,4.225-2.847,6.866-4.67,9.778-6.54,10.9-6.289a.875.875,0,0,1,.572.414c.388.671.406.7-7.471,6.407,5.716-3.8,7.582-4.882,8.435-4.691a.812.812,0,0,1,.527.384c.314.544.314.544-3.661,3.788-1.2.977-2.862,2.336-4.365,3.59,1.218-.749,2.559-1.6,3.833-2.428a.665.665,0,0,1,.94.225c.25.435.155.537-.753,1.512q-1.111,1.193-1.914,2.085c4.031-2.4,4.176-2.362,4.46-2.289a.68.68,0,0,1,.415.315.667.667,0,0,1-.455.988c-.589.265-3.871,2.2-6.76,3.947a.67.67,0,0,1-.345.1m6.408-4.363a.653.653,0,0,0,.3.272.664.664,0,0,1-.3-.272m-16.39-6.776c-3.834,2.39-7.608,4.79-10.069,6.5,2.678-1.591,6.564-4.164,10.069-6.5M211.2,231.414c-4.354,2.414-11.4,6.951-16.754,10.409,1.974-1.231,4.218-2.62,6.771-4.192,3.515-2.164,7.3-4.5,9.983-6.217m-.283,3.1c-2.369,1.263-5.957,3.544-9.461,5.839l.366-.222c3.273-1.982,6.826-4.134,9.095-5.617m-21.829-9.959c-2.911,1.831-5.611,3.558-7.819,5.024,2.307-1.452,5.035-3.216,7.819-5.024m31.6-17.462c-1.286.431-4.017,1.689-9.791,5.157-5.725,3.437-12.773,8.019-18.992,12.062-2.71,1.762-4.994,3.241-6.921,4.477,3.739-2.3,8.761-5.3,15.465-9.272,8.188-4.845,17.311-10.244,20.238-12.424m-4.17,13.027-.938.595q-4.663,2.958-8.829,5.571c3.7-2.227,7.2-4.405,9.766-6.166m-29.437-2.964c-4.072,2.461-8.026,4.87-10.629,6.541,1.312-.68,2.931-1.59,4.745-2.65,1.758-1.211,3.751-2.525,5.884-3.891m10.425-11.725c-1.7,1.133-3.386,2.261-4.957,3.315-3.122,2.094-5.865,3.924-8.259,5.493l2.446-1.508c8.987-5.541,21.969-13.544,25.783-16.45a35.32,35.32,0,0,0-4.1,2.168c-1.518,1.06-3.448,2.334-5.893,3.877-1.6,1.007-3.286,2.049-5.023,3.1m-20.2-15.995Z" transform="translate(-166.083 -182.308)" fill="#fff"/>
                </g>
              </g>
            </g>
            <path id="Trazado_838867" data-name="Trazado 838867" d="M196.043,184.371v-.007l-.154,0-.144,0v.006c-16.093.3-28.228,12.61-28.228,27.762a27.645,27.645,0,0,0,3.216,12.98c.905,2.107,3.034,7.271,5.165,13.946a73.183,73.183,0,0,1,3,13.3c0,.091,0,.186,0,.285a2.079,2.079,0,0,0,2.075,2.149h28.829a2.079,2.079,0,0,0,2.075-2.149c0-.1,0-.195,0-.285a73.183,73.183,0,0,1,3-13.3c2.13-6.675,4.26-11.839,5.165-13.946a27.774,27.774,0,0,0-23.981-40.741Z" transform="translate(-93.159 -102.527)" fill="none" stroke="#263238" stroke-linecap="round" stroke-linejoin="round" stroke-width="2"/>
            <path id="Trazado_838868" data-name="Trazado 838868" d="M250.6,193.241a22.492,22.492,0,0,0-2.471-.944" transform="translate(-137.987 -106.939)" fill="none" stroke="#263238" stroke-linecap="round" stroke-linejoin="round" stroke-width="3"/>
            <path id="Trazado_838869" data-name="Trazado 838869" d="M265.459,202.73a18.819,18.819,0,0,0-7.238-6.04" transform="translate(-143.6 -109.382)" fill="none" stroke="#263238" stroke-linecap="round" stroke-linejoin="round" stroke-width="3"/>
            <path id="Trazado_838870" data-name="Trazado 838870" d="M219.855,288.14V273.884s1.1-6.943-2.515-6.943-3.333,3.611.833,7.5,10.553.278,11.386-2.777-1.388-4.443-2.777-1.944,0,30.827,0,30.827" transform="translate(-119.467 -148.45)" fill="none" stroke="#263238" stroke-linecap="round" stroke-linejoin="round" stroke-width="3"/>
            <line id="Línea_901" data-name="Línea 901" x2="1.538" y2="4.833" transform="translate(92.666 74.631)" fill="none" stroke="#263238" stroke-linecap="round" stroke-linejoin="round" stroke-width="3"/>
            <line id="Línea_902" data-name="Línea 902" x1="5.052" y2="3.954" transform="translate(125.246 85.174)" fill="none" stroke="#263238" stroke-linecap="round" stroke-linejoin="round" stroke-width="3"/>
            <line id="Línea_903" data-name="Línea 903" x1="1.904" y2="8.363" transform="translate(109.65 71.1)" fill="none" stroke="#263238" stroke-linecap="round" stroke-linejoin="round" stroke-width="3"/>
            <path id="Trazado_838871" data-name="Trazado 838871" d="M225.559,349.5H195.114a.707.707,0,0,1-.707-.707v-.347a.706.706,0,0,1,.707-.706h30.445a.706.706,0,0,1,.706.706v.347a.706.706,0,0,1-.706.707" transform="translate(-108.112 -193.383)" fill="#263238"/>
            <path id="Rectángulo_378025" data-name="Rectángulo 378025" d="M.88,0h30.1a.88.88,0,0,1,.88.88v0a.88.88,0,0,1-.88.88H.879A.879.879,0,0,1,0,.881v0A.88.88,0,0,1,.88,0Z" transform="translate(86.295 154.357)" fill="none" stroke="#263238" stroke-linecap="round" stroke-linejoin="round" stroke-width="1"/>
            <path id="Trazado_838872" data-name="Trazado 838872" d="M225.56,358.438H195.114a.706.706,0,0,1-.706-.707v-.347a.706.706,0,0,1,.706-.706H225.56a.706.706,0,0,1,.707.706v.347a.707.707,0,0,1-.707.707" transform="translate(-108.113 -198.354)" fill="#263238"/>
            <path id="Rectángulo_378026" data-name="Rectángulo 378026" d="M.88,0h30.1a.879.879,0,0,1,.879.879v0a.879.879,0,0,1-.879.879H.88A.88.88,0,0,1,0,.88v0A.88.88,0,0,1,.88,0Z" transform="translate(86.295 158.324)" fill="none" stroke="#263238" stroke-linecap="round" stroke-linejoin="round" stroke-width="1"/>
            <path id="Trazado_838873" data-name="Trazado 838873" d="M225.56,367.376H195.114a.706.706,0,0,1-.706-.707v-.347a.706.706,0,0,1,.706-.706H225.56a.706.706,0,0,1,.707.706v.347a.707.707,0,0,1-.707.707" transform="translate(-108.113 -203.324)" fill="#263238"/>
            <path id="Rectángulo_378027" data-name="Rectángulo 378027" d="M.88,0h30.1a.879.879,0,0,1,.879.879v0a.879.879,0,0,1-.879.879H.88A.88.88,0,0,1,0,.88v0A.88.88,0,0,1,.88,0Z" transform="translate(86.295 162.292)" fill="none" stroke="#263238" stroke-linecap="round" stroke-linejoin="round" stroke-width="1"/>
            <path id="Trazado_838874" data-name="Trazado 838874" d="M212.809,374.348H197.176l4.5,6.195a4.17,4.17,0,0,0,3.374,1.719H218.8a4.169,4.169,0,0,0,3.38-1.728l4.467-6.186Z" transform="translate(-109.652 -208.18)" fill="#263238"/>
            <path id="Trazado_838875" data-name="Trazado 838875" d="M212.809,374.348H197.176l4.5,6.195a4.17,4.17,0,0,0,3.374,1.719H218.8a4.169,4.169,0,0,0,3.38-1.728l4.467-6.186Z" transform="translate(-109.652 -208.18)" fill="none" stroke="#263238" stroke-linecap="round" stroke-linejoin="round" stroke-width="1"/>
          </g>
        </g>
        <g id="Grupo_1072359" data-name="Grupo 1072359">
          <g id="Grupo_1072358" data-name="Grupo 1072358" clip-path="url(#clip-path)">
            <path id="Trazado_838876" data-name="Trazado 838876" d="M298.012,220.91a36.5,36.5,0,0,1-5.168,4.651c-2.326,1.55-3.947,3.6-1.809,4.651,1.282.63,3.1-.258,3.1-.258s-2.843.775-3.36,3.359,5.169,1.55,5.169,1.55-4.135,2.843-2.843,3.876,3.876.259,5.168.259,7.753-4.135,9.3-4.135,4.651,3.359,4.651,5.944,4.135,2.326,4.651-5.685-1.55-14.729-4.91-16.8-13.954,2.584-13.954,2.584" transform="translate(-161.293 -121.119)" fill="#fff"/>
            <path id="Trazado_838877" data-name="Trazado 838877" d="M298.012,220.91a36.5,36.5,0,0,1-5.168,4.651c-2.326,1.55-3.947,3.6-1.809,4.651,1.282.63,3.1-.258,3.1-.258s-2.843.775-3.36,3.359,5.169,1.55,5.169,1.55-4.135,2.843-2.843,3.876,3.876.259,5.168.259,7.753-4.135,9.3-4.135,4.651,3.359,4.651,5.944,4.135,2.326,4.651-5.685-1.55-14.729-4.91-16.8S298.012,220.91,298.012,220.91Z" transform="translate(-161.293 -121.119)" fill="none" stroke="#263238" stroke-linecap="round" stroke-miterlimit="10" stroke-width="1"/>
            <path id="Trazado_838878" data-name="Trazado 838878" d="M304.511,239.687l10.314-3.853s4.527-.984,7.776,4.37" transform="translate(-169.343 -131.111)" fill="none" stroke="#263238" stroke-linecap="round" stroke-miterlimit="10" stroke-width="1"/>
            <path id="Trazado_838879" data-name="Trazado 838879" d="M308.586,249.645l9.3-1.551s4.134-.258,6.719,4.651" transform="translate(-171.609 -137.967)" fill="none" stroke="#263238" stroke-linecap="round" stroke-miterlimit="10" stroke-width="1"/>
            <path id="Trazado_838880" data-name="Trazado 838880" d="M316.035,234.783l-6.977,1.55,4.134,16.538s3.618,7.236,4.651,10.337,11.629,13.438,11.629,13.438l12.4-11.887s-5.685-6.719-5.943-8.269-1.292-19.64-1.292-22.224-5.168-8.786-5.168-8.786a23.559,23.559,0,0,1-3.155-8.21c-1.033-5.168-5.78-7.292-8.365-7.034s-9.671,1.031-12.513,3.1-5.426,4.651-2.841,5.427c4.291,1.286,11.315-4.434,14.7-.481,1.55,1.809,3.384,9.784,3.642,10.817,0,0-1.292,4.91-4.91,5.685h0" transform="translate(-167.687 -116.904)" fill="#fff"/>
            <path id="Trazado_838881" data-name="Trazado 838881" d="M316.035,234.783l-6.977,1.55,4.134,16.538s3.618,7.236,4.651,10.337,11.629,13.438,11.629,13.438l12.4-11.887s-5.685-6.719-5.943-8.269-1.292-19.64-1.292-22.224-5.168-8.786-5.168-8.786a23.559,23.559,0,0,1-3.155-8.21c-1.033-5.168-5.78-7.292-8.365-7.034s-9.671,1.031-12.513,3.1-5.426,4.651-2.841,5.427c4.291,1.286,11.315-4.434,14.7-.481,1.55,1.809,3.384,9.784,3.642,10.817,0,0-1.292,4.91-4.91,5.685h0" transform="translate(-167.687 -116.904)" fill="none" stroke="#263238" stroke-linecap="round" stroke-miterlimit="10" stroke-width="1"/>
            <path id="Trazado_838882" data-name="Trazado 838882" d="M275.417,211.263a.479.479,0,0,1,.623-.065l1.059.736a.479.479,0,0,1-.547.787l-1.059-.736a.48.48,0,0,1-.076-.721" transform="translate(-153.091 -117.402)" fill="#263238"/>
            <path id="Trazado_838883" data-name="Trazado 838883" d="M275.417,211.263a.479.479,0,0,1,.623-.065l1.059.736a.479.479,0,0,1-.547.787l-1.059-.736a.48.48,0,0,1-.076-.721Z" transform="translate(-153.091 -117.402)" fill="none" stroke="#263238" stroke-linecap="round" stroke-miterlimit="10" stroke-width="1"/>
            <path id="Trazado_838884" data-name="Trazado 838884" d="M277.947,212.94a1.1,1.1,0,0,1,1.424-.15l3.31,1.708,32.508,21.385a2.57,2.57,0,1,1-2.935,4.22L280.7,216.829l-2.582-2.24a1.1,1.1,0,0,1-.274-1.524,1.154,1.154,0,0,1,.1-.124" transform="translate(-154.405 -118.227)" fill="#1fd27a"/>
            <path id="Trazado_838885" data-name="Trazado 838885" d="M277.947,212.94a1.1,1.1,0,0,1,1.424-.15l3.31,1.708,32.508,21.385a2.57,2.57,0,1,1-2.935,4.22L280.7,216.829l-2.582-2.24a1.1,1.1,0,0,1-.274-1.524A1.154,1.154,0,0,1,277.947,212.94Z" transform="translate(-154.405 -118.227)" fill="none" stroke="#263238" stroke-linecap="round" stroke-miterlimit="10" stroke-width="1"/>
            <path id="Trazado_838886" data-name="Trazado 838886" d="M347.256,257.329l-9.381-6.171a3.563,3.563,0,0,0-2.563,3.322,3.18,3.18,0,0,0,.035.448l8.975,6.621a2.57,2.57,0,1,0,2.934-4.22" transform="translate(-186.472 -139.672)" fill="#263238"/>
            <path id="Trazado_838887" data-name="Trazado 838887" d="M347.256,257.329l-9.381-6.171a3.563,3.563,0,0,0-2.563,3.322,3.18,3.18,0,0,0,.035.448l8.975,6.621a2.57,2.57,0,1,0,2.934-4.22Z" transform="translate(-186.472 -139.672)" fill="none" stroke="#263238" stroke-linecap="round" stroke-miterlimit="10" stroke-width="1"/>
            <path id="Trazado_838888" data-name="Trazado 838888" d="M315.938,275.057c-2.843-4.135-6.46-14.729-8.011-16.8s-5.707-6.639-7.258-11.291-2.562-8.349-2.562-12.225,3.33-4.546,5.914-.412,5.714,10.49,5.714,10.49a6.44,6.44,0,0,0,6.2,1.809" transform="translate(-165.782 -128.752)" fill="#fff"/>
            <path id="Trazado_838889" data-name="Trazado 838889" d="M315.938,275.057c-2.843-4.135-6.46-14.729-8.011-16.8s-5.707-6.639-7.258-11.291-2.562-8.349-2.562-12.225,3.33-4.546,5.914-.412,5.714,10.49,5.714,10.49a6.44,6.44,0,0,0,6.2,1.809" transform="translate(-165.782 -128.752)" fill="none" stroke="#263238" stroke-linecap="round" stroke-miterlimit="10" stroke-width="1"/>
            <path id="Trazado_838890" data-name="Trazado 838890" d="M301.192,233.861l.864,1.727a6.424,6.424,0,0,0-1.574.787,5.631,5.631,0,0,0-2.012,1.947s-1.334-3.719-.153-4.9a1.874,1.874,0,0,1,1.073-.563,1.775,1.775,0,0,1,1.8,1" transform="translate(-165.626 -129.488)" fill="#fff"/>
            <path id="Trazado_838891" data-name="Trazado 838891" d="M301.192,233.861l.864,1.727a6.424,6.424,0,0,0-1.574.787,5.631,5.631,0,0,0-2.012,1.947s-1.334-3.719-.153-4.9a1.874,1.874,0,0,1,1.073-.563A1.775,1.775,0,0,1,301.192,233.861Z" transform="translate(-165.626 -129.488)" fill="none" stroke="#263238" stroke-linecap="round" stroke-miterlimit="10" stroke-width="1"/>
            <path id="Trazado_838892" data-name="Trazado 838892" d="M365.07,321.185s-6.844,2.028-10.392,5.577a81.383,81.383,0,0,0-6.59,7.6l6.337,7.351a90.752,90.752,0,0,1,8.871-8.871,68.476,68.476,0,0,1,7.6-5.069Z" transform="translate(-193.576 -178.615)" fill="#fff"/>
            <path id="Trazado_838893" data-name="Trazado 838893" d="M365.07,321.185s-6.844,2.028-10.392,5.577a81.383,81.383,0,0,0-6.59,7.6l6.337,7.351a90.752,90.752,0,0,1,8.871-8.871,68.476,68.476,0,0,1,7.6-5.069Z" transform="translate(-193.576 -178.615)" fill="none" stroke="#263238" stroke-linecap="round" stroke-miterlimit="10" stroke-width="1"/>
            <path id="Trazado_838894" data-name="Trazado 838894" d="M375.535,381.019l-20.024-32.191s5.069-7.6,9.378-11.407a22.952,22.952,0,0,1,9.885-4.816l25.037,24.028" transform="translate(-197.705 -184.967)" fill="#263238"/>
            <path id="Trazado_838895" data-name="Trazado 838895" d="M375.535,381.019l-20.024-32.191s5.069-7.6,9.378-11.407a22.952,22.952,0,0,1,9.885-4.816l25.037,24.028" transform="translate(-197.705 -184.967)" fill="none" stroke="#263238" stroke-linecap="round" stroke-miterlimit="10" stroke-width="1"/>
            <path id="Trazado_838896" data-name="Trazado 838896" d="M313.717,256.263c.135-.017.275-.034.419-.048" transform="translate(-174.462 -142.485)" fill="none" stroke="#263238" stroke-linecap="round" stroke-miterlimit="10" stroke-width="1"/>
            <path id="Trazado_838897" data-name="Trazado 838897" d="M305,258.637s.236-1.415,3.08-2.011" transform="translate(-169.616 -142.713)" fill="none" stroke="#263238" stroke-linecap="round" stroke-miterlimit="10" stroke-width="1"/>
            <path id="Trazado_838898" data-name="Trazado 838898" d="M309.218,258.91s-.2.6-2.194,1.4" transform="translate(-170.74 -143.983)" fill="none" stroke="#263238" stroke-linecap="round" stroke-miterlimit="10" stroke-width="1"/>
            <path id="Trazado_838899" data-name="Trazado 838899" d="M308.312,254.639a6.578,6.578,0,0,0-2.767,1.124" transform="translate(-169.918 -141.608)" fill="none" stroke="#263238" stroke-linecap="round" stroke-miterlimit="10" stroke-width="1"/>
          </g>
        </g>
        <g id="Grupo_1072361" data-name="Grupo 1072361">
          <g id="Grupo_1072360" data-name="Grupo 1072360" clip-path="url(#clip-path)">
            <path id="Trazado_838900" data-name="Trazado 838900" d="M157.744,122.654a36.491,36.491,0,0,1,6.845,1.225c2.651.884,5.265.906,4.782-1.428-.29-1.4-2.108-2.289-2.108-2.289s2.357,1.768,4.715.589-1.949-5.031-1.949-5.031,4.782,1.519,4.805-.136-2.175-3.219-2.969-4.238-8.023-3.582-8.974-4.806-.2-5.734,1.836-7.321-.7-4.691-7.343-.182-10.676,10.266-10.246,14.187,10.607,9.429,10.607,9.429" transform="translate(-81.808 -53.773)" fill="#fff"/>
            <path id="Trazado_838901" data-name="Trazado 838901" d="M157.744,122.654a36.491,36.491,0,0,1,6.845,1.225c2.651.884,5.265.906,4.782-1.428-.29-1.4-2.108-2.289-2.108-2.289s2.357,1.768,4.715.589-1.949-5.031-1.949-5.031,4.782,1.519,4.805-.136-2.175-3.219-2.969-4.238-8.023-3.582-8.974-4.806-.2-5.734,1.836-7.321-.7-4.691-7.343-.182-10.676,10.266-10.246,14.187S157.744,122.654,157.744,122.654Z" transform="translate(-81.808 -53.773)" fill="none" stroke="#263238" stroke-linecap="round" stroke-miterlimit="10" stroke-width="1"/>
            <path id="Trazado_838902" data-name="Trazado 838902" d="M174.518,127.5l-9.374-5.776s-3.556-2.969-1.323-8.82" transform="translate(-90.694 -62.786)" fill="none" stroke="#263238" stroke-linecap="round" stroke-miterlimit="10" stroke-width="1"/>
            <path id="Trazado_838903" data-name="Trazado 838903" d="M181.456,120.048l-6.935-6.392s-2.742-3.105-.452-8.16" transform="translate(-96.295 -58.668)" fill="none" stroke="#263238" stroke-linecap="round" stroke-miterlimit="10" stroke-width="1"/>
            <path id="Trazado_838904" data-name="Trazado 838904" d="M159.61,66.323l5.507,4.556,10.518-13.416s6.792-3.052,8.581-5.787,3.314-17.459,3.314-17.459l-17.02-2.343s-1.737,8.628-2.792,9.793-17.9,8.7-19.938,10.286-3.763,9.473-3.763,9.473a56.84,56.84,0,0,1-3.559,9.307c-3.886,7.865-3.193,7.262-1.4,9.144s6.144,5.711,9.52,6.686,7.577,4.465,6.635.2c-.967-4.375-10.446-6.21-9.406-11.312.476-2.334,5.646-8.677,6.3-9.516,0,0,4.669-1.994,7.5.386h0" transform="translate(-76.532 -17.725)" fill="#fff"/>
            <path id="Trazado_838905" data-name="Trazado 838905" d="M159.61,66.323l5.507,4.556,10.518-13.416s6.792-3.052,8.581-5.787,3.314-17.459,3.314-17.459l-17.02-2.343s-1.737,8.628-2.792,9.793-17.9,8.7-19.938,10.286-3.763,9.473-3.763,9.473a56.84,56.84,0,0,1-3.559,9.307c-3.886,7.865-3.193,7.262-1.4,9.144s6.144,5.711,9.52,6.686,7.577,4.465,6.635.2c-.967-4.375-10.446-6.21-9.406-11.312.476-2.334,5.646-8.677,6.3-9.516,0,0,4.669-1.994,7.5.386h0" transform="translate(-76.532 -17.725)" fill="none" stroke="#263238" stroke-linecap="round" stroke-miterlimit="10" stroke-width="1"/>
            <path id="Trazado_838906" data-name="Trazado 838906" d="M179.8,186.165a.478.478,0,0,1-.434-.451l-.069-1.288a.479.479,0,0,1,.957-.051l.069,1.287a.479.479,0,0,1-.453.5.465.465,0,0,1-.07,0" transform="translate(-99.709 -102.281)" fill="#263238"/>
            <path id="Trazado_838907" data-name="Trazado 838907" d="M179.8,186.165a.478.478,0,0,1-.434-.451l-.069-1.288a.479.479,0,0,1,.957-.051l.069,1.287a.479.479,0,0,1-.453.5A.465.465,0,0,1,179.8,186.165Z" transform="translate(-99.709 -102.281)" fill="none" stroke="#263238" stroke-linecap="round" stroke-miterlimit="10" stroke-width="1"/>
            <path id="Trazado_838908" data-name="Trazado 838908" d="M174.309,127.763a1.1,1.1,0,0,1-.992-1.032l-.683-3.661-3.074-38.79a2.57,2.57,0,0,1,5.133-.274l.994,39.2-.183,3.413a1.1,1.1,0,0,1-1.035,1.152,1.128,1.128,0,0,1-.16,0" transform="translate(-94.292 -45.363)" fill="#1fd27a"/>
            <path id="Trazado_838909" data-name="Trazado 838909" d="M174.309,127.763a1.1,1.1,0,0,1-.992-1.032l-.683-3.661-3.074-38.79a2.57,2.57,0,0,1,5.133-.274l.994,39.2-.183,3.413a1.1,1.1,0,0,1-1.035,1.152A1.128,1.128,0,0,1,174.309,127.763Z" transform="translate(-94.292 -45.363)" fill="none" stroke="#263238" stroke-linecap="round" stroke-miterlimit="10" stroke-width="1"/>
            <path id="Trazado_838910" data-name="Trazado 838910" d="M169.56,84.281l.887,11.193a3.562,3.562,0,0,0,4.2-.016,3.274,3.274,0,0,0,.332-.3l-.283-11.149a2.57,2.57,0,0,0-5.133.274" transform="translate(-94.293 -45.364)" fill="#263238"/>
            <path id="Trazado_838911" data-name="Trazado 838911" d="M169.56,84.281l.887,11.193a3.562,3.562,0,0,0,4.2-.016,3.274,3.274,0,0,0,.332-.3l-.283-11.149a2.57,2.57,0,0,0-5.133.274Z" transform="translate(-94.293 -45.364)" fill="none" stroke="#263238" stroke-linecap="round" stroke-miterlimit="10" stroke-width="1"/>
            <path id="Trazado_838912" data-name="Trazado 838912" d="M206.711,76.483c-1.476,4.8-7.884,11.395-9.015,13.718a115.736,115.736,0,0,1-8.683,15.177c-1.1,1.654-2.3,1.891-3.026,2.486-1.064.871-1.611,1.8-3.43,3.212-3.06,2.38-5.633.162-3.956-4.416s4.773-10.95,4.773-10.95A6.439,6.439,0,0,0,181,89.7" transform="translate(-99.028 -42.533)" fill="#fff"/>
            <path id="Trazado_838913" data-name="Trazado 838913" d="M206.711,76.483c-1.476,4.8-7.884,11.395-9.015,13.718a115.736,115.736,0,0,1-8.683,15.177c-1.1,1.654-2.3,1.891-3.026,2.486-1.064.871-1.611,1.8-3.43,3.212-3.06,2.38-5.633.162-3.956-4.416s4.773-10.95,4.773-10.95A6.439,6.439,0,0,0,181,89.7" transform="translate(-99.028 -42.533)" fill="none" stroke="#263238" stroke-linecap="round" stroke-miterlimit="10" stroke-width="1"/>
            <path id="Trazado_838914" data-name="Trazado 838914" d="M180.583,148.708l.834-1.742a6.432,6.432,0,0,0,1.588.76,5.635,5.635,0,0,0,2.773.393s-2.117,3.335-3.774,3.128a1.872,1.872,0,0,1-1.1-.5,1.774,1.774,0,0,1-.316-2.037" transform="translate(-100.322 -81.73)" fill="#fff"/>
            <path id="Trazado_838915" data-name="Trazado 838915" d="M180.583,148.708l.834-1.742a6.432,6.432,0,0,0,1.588.76,5.635,5.635,0,0,0,2.773.393s-2.117,3.335-3.774,3.128a1.872,1.872,0,0,1-1.1-.5A1.774,1.774,0,0,1,180.583,148.708Z" transform="translate(-100.322 -81.73)" fill="none" stroke="#263238" stroke-linecap="round" stroke-miterlimit="10" stroke-width="1"/>
            <path id="Trazado_838916" data-name="Trazado 838916" d="M204.05.5l-3.528,22.916a22.954,22.954,0,0,0,9.913,4.759C216.09,29.192,226.4,30.71,226.4,30.71L235.442.5" transform="translate(-111.513 -0.278)" fill="#263238"/>
            <path id="Trazado_838917" data-name="Trazado 838917" d="M204.05.5l-3.528,22.916a22.954,22.954,0,0,0,9.913,4.759C216.09,29.192,226.4,30.71,226.4,30.71L235.442.5" transform="translate(-111.513 -0.278)" fill="none" stroke="#263238" stroke-linecap="round" stroke-miterlimit="10" stroke-width="1"/>
            <path id="Trazado_838918" data-name="Trazado 838918" d="M250.383,54.818a1.744,1.744,0,1,1-1.744-1.744,1.744,1.744,0,0,1,1.744,1.744" transform="translate(-137.302 -29.515)" fill="#fff"/>
            <circle id="Elipse_5883" data-name="Elipse 5883" cx="1.744" cy="1.744" r="1.744" transform="matrix(0.526, -0.851, 0.851, 0.526, 108.937, 25.869)" fill="none" stroke="#263238" stroke-linecap="round" stroke-linejoin="round" stroke-width="2"/>
            <path id="Trazado_838919" data-name="Trazado 838919" d="M189.149,137.762q-.146-.143-.3-.3" transform="translate(-105.024 -76.444)" fill="none" stroke="#263238" stroke-linecap="round" stroke-miterlimit="10" stroke-width="1"/>
            <path id="Trazado_838920" data-name="Trazado 838920" d="M194.327,140.554s-1.262.682-3.478-1.2" transform="translate(-106.134 -77.498)" fill="none" stroke="#263238" stroke-linecap="round" stroke-miterlimit="10" stroke-width="1"/>
            <path id="Trazado_838921" data-name="Trazado 838921" d="M192.637,137.915s.595-.21,2.449.875" transform="translate(-107.128 -76.687)" fill="none" stroke="#263238" stroke-linecap="round" stroke-miterlimit="10" stroke-width="1"/>
            <path id="Trazado_838922" data-name="Trazado 838922" d="M189.38,140.705a6.578,6.578,0,0,0,2.586,1.494" transform="translate(-105.317 -78.248)" fill="none" stroke="#263238" stroke-linecap="round" stroke-miterlimit="10" stroke-width="1"/>
          </g>
        </g>
        <g id="Grupo_1072363" data-name="Grupo 1072363">
          <g id="Grupo_1072362" data-name="Grupo 1072362" clip-path="url(#clip-path)">
            <path id="Trazado_838923" data-name="Trazado 838923" d="M159.835,295.858a36.5,36.5,0,0,0,1.326,6.826c.923,2.638.984,5.252-1.356,4.8-1.4-.269-2.321-2.073-2.321-2.073s1.8,2.33.66,4.705-5.06-1.874-5.06-1.874,1.59,4.759-.064,4.806-3.25-2.128-4.282-2.905-3.7-7.969-4.938-8.9-5.736-.118-7.293,1.945-4.7-.633-.291-7.34,10.106-10.827,14.033-10.455,9.586,10.465,9.586,10.465" transform="translate(-74.497 -158.698)" fill="#fff"/>
            <path id="Trazado_838924" data-name="Trazado 838924" d="M159.835,295.858a36.5,36.5,0,0,0,1.326,6.826c.923,2.638.984,5.252-1.356,4.8-1.4-.269-2.321-2.073-2.321-2.073s1.8,2.33.66,4.705-5.06-1.874-5.06-1.874,1.59,4.759-.064,4.806-3.25-2.128-4.282-2.905-3.7-7.969-4.938-8.9-5.736-.118-7.293,1.945-4.7-.633-.291-7.34,10.106-10.827,14.033-10.455S159.835,295.858,159.835,295.858Z" transform="translate(-74.497 -158.698)" fill="none" stroke="#263238" stroke-linecap="round" stroke-miterlimit="10" stroke-width="1"/>
            <path id="Trazado_838925" data-name="Trazado 838925" d="M164.641,312.785l-5.915-9.287s-3.022-3.511-8.839-1.192" transform="translate(-83.354 -167.676)" fill="none" stroke="#263238" stroke-linecap="round" stroke-miterlimit="10" stroke-width="1"/>
            <path id="Trazado_838926" data-name="Trazado 838926" d="M157.3,319.83l-6.494-6.839s-3.146-2.7-8.165-.332" transform="translate(-79.324 -173.334)" fill="none" stroke="#263238" stroke-linecap="round" stroke-miterlimit="10" stroke-width="1"/>
            <path id="Trazado_838927" data-name="Trazado 838927" d="M98.34,297.644l4.637,5.439L89.718,313.8s-7.245,3.6-9.937,5.453-17.375,3.728-17.375,3.728l-2.747-16.96s8.584-1.942,9.724-3.024,12.856-14.9,14.412-16.966,9.417-3.9,9.417-3.9a23.555,23.555,0,0,0,7.462-4.655c3.937-3.5,9.006-2.342,10.913-.58s7.1,6.645,8.126,10.007,1.532,6.981-1,6.044c-4.2-1.558-6.364-10.353-11.45-9.237-2.327.511-8.592,5.774-9.421,6.444,0,0-1.925,4.7.5,7.5h0" transform="translate(-33.177 -153.042)" fill="#fff"/>
            <path id="Trazado_838928" data-name="Trazado 838928" d="M98.34,297.644l4.637,5.439L89.718,313.8s-7.245,3.6-9.937,5.453-17.375,3.728-17.375,3.728l-2.747-16.96s8.584-1.942,9.724-3.024,12.856-14.9,14.412-16.966,9.417-3.9,9.417-3.9a23.555,23.555,0,0,0,7.462-4.655c3.937-3.5,9.006-2.342,10.913-.58s7.1,6.645,8.126,10.007,1.532,6.981-1,6.044c-4.2-1.558-6.364-10.353-11.45-9.237-2.327.511-8.592,5.774-9.421,6.444,0,0-1.925,4.7.5,7.5h0" transform="translate(-33.177 -153.042)" fill="none" stroke="#263238" stroke-linecap="round" stroke-miterlimit="10" stroke-width="1"/>
            <path id="Trazado_838929" data-name="Trazado 838929" d="M223.375,317.257a.479.479,0,0,0-.458-.427l-1.288-.05a.479.479,0,1,0-.037.957l1.288.05a.479.479,0,0,0,.5-.46.526.526,0,0,0,0-.07" transform="translate(-122.974 -176.166)" fill="#263238"/>
            <path id="Trazado_838930" data-name="Trazado 838930" d="M223.375,317.257a.479.479,0,0,0-.458-.427l-1.288-.05a.479.479,0,1,0-.037.957l1.288.05a.479.479,0,0,0,.5-.46A.526.526,0,0,0,223.375,317.257Z" transform="translate(-122.974 -176.166)" fill="none" stroke="#263238" stroke-linecap="round" stroke-miterlimit="10" stroke-width="1"/>
            <path id="Trazado_838931" data-name="Trazado 838931" d="M164.937,312.594a1.1,1.1,0,0,0-1.047-.977l-3.671-.629-38.832-2.5a2.57,2.57,0,1,0-.2,5.137l39.206.412,3.41-.233a1.1,1.1,0,0,0,1.136-1.052,1.063,1.063,0,0,0-.005-.16" transform="translate(-66.021 -171.555)" fill="#1fd27a"/>
            <path id="Trazado_838932" data-name="Trazado 838932" d="M164.937,312.594a1.1,1.1,0,0,0-1.047-.977l-3.671-.629-38.832-2.5a2.57,2.57,0,1,0-.2,5.137l39.206.412,3.41-.233a1.1,1.1,0,0,0,1.136-1.052A1.063,1.063,0,0,0,164.937,312.594Z" transform="translate(-66.021 -171.555)" fill="none" stroke="#263238" stroke-linecap="round" stroke-miterlimit="10" stroke-width="1"/>
            <path id="Trazado_838933" data-name="Trazado 838933" d="M121.389,308.491l11.205.721a3.563,3.563,0,0,1,.046,4.2,3.288,3.288,0,0,1-.3.337l-11.152-.117a2.57,2.57,0,0,1,.2-5.137" transform="translate(-66.021 -171.555)" fill="#263238"/>
            <path id="Trazado_838934" data-name="Trazado 838934" d="M121.389,308.491l11.205.721a3.563,3.563,0,0,1,.046,4.2,3.288,3.288,0,0,1-.3.337l-11.152-.117a2.57,2.57,0,0,1,.2-5.137Z" transform="translate(-66.021 -171.555)" fill="none" stroke="#263238" stroke-linecap="round" stroke-miterlimit="10" stroke-width="1"/>
            <path id="Trazado_838935" data-name="Trazado 838935" d="M104.991,341.978c4.758-1.59,14.026-7.871,16.509-8.588s8.554-1.864,12.592-4.645,7.073-5.123,9.406-8.219.079-5.635-4.474-3.89-10.878,4.935-10.878,4.935a6.44,6.44,0,0,1-6.041-2.29" transform="translate(-58.387 -175.769)" fill="#fff"/>
            <path id="Trazado_838936" data-name="Trazado 838936" d="M104.991,341.978c4.758-1.59,14.026-7.871,16.509-8.588s8.554-1.864,12.592-4.645,7.073-5.123,9.406-8.219.079-5.635-4.474-3.89-10.878,4.935-10.878,4.935a6.44,6.44,0,0,1-6.041-2.29" transform="translate(-58.387 -175.769)" fill="none" stroke="#263238" stroke-linecap="round" stroke-miterlimit="10" stroke-width="1"/>
            <path id="Trazado_838937" data-name="Trazado 838937" d="M185.944,318.558l-1.729.859a6.413,6.413,0,0,1,.783,1.576,5.636,5.636,0,0,1,.434,2.766s3.3-2.166,3.072-3.82a1.877,1.877,0,0,0-.518-1.1,1.774,1.774,0,0,0-2.041-.286" transform="translate(-102.444 -177.044)" fill="#fff"/>
            <path id="Trazado_838938" data-name="Trazado 838938" d="M185.944,318.558l-1.729.859a6.413,6.413,0,0,1,.783,1.576,5.636,5.636,0,0,1,.434,2.766s3.3-2.166,3.072-3.82a1.877,1.877,0,0,0-.518-1.1A1.774,1.774,0,0,0,185.944,318.558Z" transform="translate(-102.444 -177.044)" fill="none" stroke="#263238" stroke-linecap="round" stroke-miterlimit="10" stroke-width="1"/>
            <path id="Trazado_838939" data-name="Trazado 838939" d="M64.343,336.4s4.244,5.739,4.94,10.709a81.322,81.322,0,0,1,.684,10.039l-12.953,3.11a90.657,90.657,0,0,0-1.742-12.425,68.508,68.508,0,0,0-3.019-8.626Z" transform="translate(-29.058 -187.077)" fill="#fff"/>
            <path id="Trazado_838940" data-name="Trazado 838940" d="M64.343,336.4s4.244,5.739,4.94,10.709a81.322,81.322,0,0,1,.684,10.039l-12.953,3.11a90.657,90.657,0,0,0-1.742-12.425,68.508,68.508,0,0,0-3.019-8.626Z" transform="translate(-29.058 -187.077)" fill="none" stroke="#263238" stroke-linecap="round" stroke-miterlimit="10" stroke-width="1"/>
            <path id="Trazado_838941" data-name="Trazado 838941" d="M36.153,346.686a22.952,22.952,0,0,0-4.993-9.8L.5,341.768v34.638L36.774,361.44s.531-9.124-.621-14.754" transform="translate(-0.278 -187.349)" fill="#263238"/>
            <path id="Trazado_838942" data-name="Trazado 838942" d="M36.153,346.686a22.952,22.952,0,0,0-4.993-9.8L.5,341.768v34.638L36.774,361.44S37.3,352.316,36.153,346.686Z" transform="translate(-0.278 -187.349)" fill="none" stroke="#263238" stroke-linecap="round" stroke-miterlimit="10" stroke-width="1"/>
            <path id="Trazado_838943" data-name="Trazado 838943" d="M58.921,391.156a1.359,1.359,0,1,1-1.359-1.359,1.359,1.359,0,0,1,1.359,1.359" transform="translate(-31.256 -216.771)" fill="#fff"/>
            <path id="Trazado_838944" data-name="Trazado 838944" d="M67.491,387.483a1.359,1.359,0,1,1-1.359-1.359,1.359,1.359,0,0,1,1.359,1.359" transform="translate(-36.022 -214.729)" fill="#fff"/>
            <path id="Trazado_838945" data-name="Trazado 838945" d="M168.335,330.355q-.146-.143-.305-.291" transform="translate(-93.444 -183.553)" fill="none" stroke="#263238" stroke-linecap="round" stroke-miterlimit="10" stroke-width="1"/>
            <path id="Trazado_838946" data-name="Trazado 838946" d="M171.2,335.491s.664-1.272-1.248-3.46" transform="translate(-94.514 -184.647)" fill="none" stroke="#263238" stroke-linecap="round" stroke-miterlimit="10" stroke-width="1"/>
            <path id="Trazado_838947" data-name="Trazado 838947" d="M168.541,333.839s-.2.6.911,2.436" transform="translate(-93.72 -185.652)" fill="none" stroke="#263238" stroke-linecap="round" stroke-miterlimit="10" stroke-width="1"/>
            <path id="Trazado_838948" data-name="Trazado 838948" d="M171.281,330.542a6.577,6.577,0,0,1,1.532,2.563" transform="translate(-95.252 -183.819)" fill="none" stroke="#263238" stroke-linecap="round" stroke-miterlimit="10" stroke-width="1"/>
          </g>
        </g>
      </g>
    </g>
    <rect id="Rectángulo_378033" data-name="Rectángulo 378033" width="295" height="205" transform="translate(180 3031)" fill="none"/>
  </g>
</svg>
