<svg xmlns="http://www.w3.org/2000/svg" xmlns:xlink="http://www.w3.org/1999/xlink" width="190" height="201.3" viewBox="0 0 190 201.3">
  <defs>
    <clipPath id="clip-path">
      <rect id="Rect치ngulo_378041" data-name="Rect치ngulo 378041" width="161.145" height="201.3" fill="#1fd27a"/>
    </clipPath>
  </defs>
  <g id="Grupo_1072382" data-name="Grupo 1072382" transform="translate(-180 -9630)">
    <rect id="Rect치ngulo_377804" data-name="Rect치ngulo 377804" width="190" height="201" transform="translate(180 9630)" fill="none"/>
    <g id="Grupo_1072381" data-name="Grupo 1072381" transform="translate(194 9630)">
      <g id="Grupo_1072380" data-name="Grupo 1072380" clip-path="url(#clip-path)">
        <path id="Trazado_838989" data-name="Trazado 838989" d="M118.49,144.905c-1.958,1.948-3.8,3.776-5.639,5.612q-4.488,4.486-8.964,8.984a3.547,3.547,0,0,1-3.938.955c-3.152-.99-6.406-1.631-9.55-2.661-.451-.148-.7-.116-.529.5,1.332,4.9,2.629,9.81,3.952,14.714,1.187,4.4,2.4,8.788,3.588,13.185.519,1.919,1.012,3.845,1.513,5.77.039.152.032.359.194.4.284.072.4-.2.554-.364,3.14-3.429,6.383-6.772,9.379-10.322a4.817,4.817,0,0,1,6.08-1.6c3.865,1.417,7.826,2.574,11.75,3.828a9.818,9.818,0,0,0,2.187.47c-.273-1.075-.522-2.1-.8-3.126-.83-3.084-1.583-6.193-2.538-9.238a3.017,3.017,0,0,1,3.588-3.76,2.716,2.716,0,0,1,2.011,2.127q2.416,8.865,4.724,17.757c.593,2.3-1.029,3.942-3.391,3.534a51.877,51.877,0,0,1-5.643-1.716c-3.071-.9-6.11-1.907-9.16-2.877-1.274-.406-2.525-.878-3.819-1.23a1.085,1.085,0,0,0-1.281.373q-6.062,6.685-12.161,13.336c-.266.291-.522.593-.811.86a2.9,2.9,0,0,1-4.917-1.379c-.8-2.875-1.539-5.768-2.319-8.648-1.218-4.5-2.462-8.99-3.67-13.492-1.221-4.551-2.4-9.114-3.618-13.667-.621-2.327-1.281-4.644-1.922-6.966a.558.558,0,0,0-.39-.443,8.308,8.308,0,0,0-4.813.056c-.261.072-.308.258-.362.457q-2.076,7.7-4.15,15.4c-1.26,4.649-2.548,9.291-3.8,13.942-.912,3.389-1.783,6.788-2.674,10.182-.292,1.113-.659,2.2-.934,3.324a2.886,2.886,0,0,1-4.3,1.688,5.91,5.91,0,0,1-1.218-1.113q-6.24-6.842-12.47-13.692a.86.86,0,0,0-1.05-.21c-3.079.965-6.151,1.956-9.238,2.894-3.162.961-6.254,2.158-9.475,2.906-2.36.548-3.9-1.087-3.414-3.463.513-2.49,1.318-4.9,1.958-7.362,1.241-4.763,2.528-9.514,3.809-14.266,1.219-4.527,2.458-9.048,3.682-13.574.786-2.907,1.548-5.819,2.349-8.722.146-.529.038-.723-.512-.864-4.371-1.118-8.732-2.278-13.1-3.411a3.116,3.116,0,0,1-2.336-2.321c-.639-2.241-1.246-4.491-1.857-6.74-.877-3.234-1.734-6.474-2.625-9.7a17.688,17.688,0,0,1-.634-2.672,1.644,1.644,0,0,0-.557-1c-3.054-3.041-6.116-6.073-9.139-9.143a2.864,2.864,0,0,1,1.02-4.727,2.269,2.269,0,0,1,2.321.223,11.167,11.167,0,0,1,1.332,1.1q4.428,4.378,8.837,8.777a5.624,5.624,0,0,1,1.535,2.675c1.218,4.661,2.538,9.294,3.8,13.942a33.917,33.917,0,0,0,1.094,3.932.779.779,0,0,0,.569.558q6.129,1.612,12.249,3.254c2.229.6,4.447,1.243,6.669,1.872a2.756,2.756,0,0,1,1.175.769q6.709,6.67,13.4,13.353a1.156,1.156,0,0,0,1.305.355c5.167-1.4,10.342-2.768,15.515-4.148a6.906,6.906,0,0,0,.747-.249,8.388,8.388,0,0,1,5.836-.079c3.377,1.058,6.841,1.838,10.263,2.754,2,.536,4,1.082,5.985,1.686a1.181,1.181,0,0,0,1.386-.318c4.016-4.047,8.1-8.028,12.067-12.122a9.83,9.83,0,0,1,4.806-2.784q8.05-2.047,16.057-4.256a1.7,1.7,0,0,0,1.392-1.38q1.363-5.164,2.726-10.33,1.02-3.834,2.073-7.658a4.827,4.827,0,0,1,1.449-2.028q5.071-5.074,10.155-10.134c.837-.835,1.649-1.7,2.52-2.5a1.447,1.447,0,0,0,.476-1.611c-.7-2.525-1.367-5.056-2.052-7.583q-1.376-5.079-2.765-10.155a4.852,4.852,0,0,1-.009-2.632c1.334-4.929,2.638-9.865,3.966-14.795.272-1.01.611-2,.853-3.023a1.377,1.377,0,0,0-.441-1.459c-4.244-4.191-8.462-8.409-12.7-12.6a6.311,6.311,0,0,1-1.761-2.993c-1.307-5.017-2.7-10.011-4.037-15.02a23.1,23.1,0,0,0-.878-2.931.639.639,0,0,0-.541-.469c-2.176-.38-4.273-1.075-6.407-1.626-3.53-.911-7.049-1.866-10.583-2.763a7.453,7.453,0,0,1-3.634-1.913c-4.09-4.122-8.242-8.183-12.3-12.335a2.03,2.03,0,0,0-2.376-.669C94.069,7.835,88.9,9.147,83.775,10.581a11.77,11.77,0,0,1-6.729-.069c-3.62-1.073-7.3-1.956-10.946-2.928-1.7-.452-3.393-.92-5.087-1.387a.715.715,0,0,0-.839.159c-2.95,2.994-5.925,5.963-8.89,8.942q-2.113,2.123-4.214,4.258A6.249,6.249,0,0,1,44,21.228c-3.874.952-7.717,2.018-11.56,3.088-1.718.479-3.444.954-5.192,1.3a1.868,1.868,0,0,0-1.627,1.545q-.69,2.741-1.418,5.473c-.973,3.642-2.059,7.259-2.9,10.931a8.72,8.72,0,0,1-2.688,4.392c-4.05,3.975-8.038,8.013-12.08,12a1.288,1.288,0,0,0-.258,1.435c.456,1.775.942,3.542,1.425,5.31q1.759,6.439,3.526,12.876a2.945,2.945,0,0,1,0,1.558c-1.186,4.4-2.368,8.8-3.6,13.185a2.839,2.839,0,0,1-3.166,2.087A2.745,2.745,0,0,1,2.1,93.234a8.178,8.178,0,0,1,.275-1.464c.919-3.413,1.84-6.825,2.791-10.229a4,4,0,0,0,.011-2.232q-2.417-8.7-4.8-17.416c-.028-.1-.039-.207-.074-.306A4.125,4.125,0,0,1,1.57,56.8c4.5-4.341,8.881-8.806,13.32-13.212a3.5,3.5,0,0,0,.919-1.7q1.354-5.248,2.754-10.483c.7-2.656,1.459-5.3,2.118-7.968a3.66,3.66,0,0,1,3.01-2.842c5.977-1.415,11.852-3.217,17.815-4.68a5.253,5.253,0,0,0,2.544-1.6C47.395,10.909,50.8,7.549,54.178,4.168c.947-.947,1.9-1.891,2.829-2.855A3.509,3.509,0,0,1,60.7.17c2.479.68,4.974,1.3,7.459,1.964q5.972,1.59,11.939,3.2a1.458,1.458,0,0,0,.779-.012c4.325-1.2,8.686-2.255,13-3.5C96.016,1.2,98.194.7,100.349.129a3.2,3.2,0,0,1,3.3.956c4.145,4.142,8.349,8.226,12.43,12.43a9.2,9.2,0,0,0,4.761,2.652c3.729.87,7.4,1.995,11.11,2.945,1.83.468,3.626,1.06,5.483,1.437a3.407,3.407,0,0,1,2.871,2.661c1.3,5.018,2.684,10.014,4.034,15.02.354,1.314.811,2.6,1.041,3.947A2.01,2.01,0,0,0,146,43.249c3.542,3.518,7.051,7.068,10.64,10.537,1.151,1.112,2.264,2.263,3.435,3.353a3.112,3.112,0,0,1,.94,3.29c-.837,3.191-1.7,6.376-2.549,9.563a47.836,47.836,0,0,1-1.831,6.572c-1.421,3.3-.266,6.294.568,9.375q1.377,5.078,2.759,10.155c.343,1.263.7,2.522,1.024,3.79a3.467,3.467,0,0,1-1.035,3.628c-4.654,4.561-9.235,9.2-13.852,13.794a2.754,2.754,0,0,0-.741,1.344q-1.295,5.1-2.65,10.186c-.79,2.959-1.622,5.907-2.425,8.861a3.141,3.141,0,0,1-2.477,2.265c-3.445.928-6.885,1.873-10.33,2.8-.912.245-1.83.474-2.756.658-.517.1-.609.272-.466.8q1.817,6.628,3.563,13.275a2.752,2.752,0,0,1-1.91,3.456,2.824,2.824,0,0,1-3.61-1.936c-.791-2.8-1.5-5.616-2.258-8.424-.493-1.84-1-3.677-1.545-5.684M71.357,158c-.065-.417-.374-.262-.585-.187-3.192,1.141-6.542,1.725-9.766,2.755a3.027,3.027,0,0,1-3.269-.726c-.283-.274-.57-.544-.849-.822q-6.821-6.779-13.642-13.558c-.582-.578-.654-.556-.86.215q-1.187,4.436-2.367,8.875-1.475,5.5-2.959,11c-.743,2.756-1.5,5.509-2.227,8.268-.885,3.341-1.733,6.691-2.644,10.025-.165.6.039.557.464.479a37.579,37.579,0,0,0,4.291-1.3c3.584-1.112,7.154-2.265,10.739-3.372a3.02,3.02,0,0,1,3.413.939q4.938,5.521,9.959,10.967c.285.311.505.933.966.806.407-.113.21-.741.32-1.131.763-2.7,1.487-5.4,2.22-8.1q1.5-5.534,2.995-11.068c.938-3.462,1.871-6.925,2.821-10.383a32.763,32.763,0,0,1,.98-3.671" transform="translate(0 0)" fill="#1fd27a"/>
        <path id="Trazado_838990" data-name="Trazado 838990" d="M51.861,130.932c.455.416.912.829,1.364,1.247a55.4,55.4,0,0,0,20.011,11.951,47.383,47.383,0,0,0,12.618,2.591c2.548.142,5.085.383,7.642.285a54.938,54.938,0,0,0,15.784-2.733A56.689,56.689,0,0,0,127.7,133.882a55.82,55.82,0,0,0,15.522-21.026A52.757,52.757,0,0,0,147.033,98.8a54.008,54.008,0,0,0,.467-11.528c-1.317-15.325-7.574-28.189-19.185-38.4a13.259,13.259,0,0,1-1.366-1.3,2.8,2.8,0,0,1,.059-3.737,2.547,2.547,0,0,1,3.789-.349,58.776,58.776,0,0,1,10.484,10.96,60.992,60.992,0,0,1,9.362,18.421,63.379,63.379,0,0,1,2.62,22.682,56.286,56.286,0,0,1-3.721,16.976,61.617,61.617,0,0,1-25.111,30.831,58.65,58.65,0,0,1-15.586,7.058,60.247,60.247,0,0,1-14.33,2.459,57.141,57.141,0,0,1-10.7-.392c-2.532-.388-5.06-.851-7.565-1.48a60.142,60.142,0,0,1-18.39-8.013,61.52,61.52,0,0,1-24.382-30.076,56.031,56.031,0,0,1-3.927-20.733A61.4,61.4,0,0,1,30.2,81.514a67.171,67.171,0,0,1,3.179-11.981,63.234,63.234,0,0,1,9.18-16.328,61.811,61.811,0,0,1,22.6-17.984A59.951,59.951,0,0,1,76.94,31.063,59.229,59.229,0,0,1,95.4,29.387,67.593,67.593,0,0,1,105.742,31a69.325,69.325,0,0,1,10.736,3.591,4.739,4.739,0,0,1,2.266,1.638,2.288,2.288,0,0,1,.009,2.847,2.846,2.846,0,0,1-3.009,1.423,4.226,4.226,0,0,1-1.11-.384,48.336,48.336,0,0,0-10.951-3.666,58.4,58.4,0,0,0-18.047-1.033,55.156,55.156,0,0,0-17.766,4.869,55.937,55.937,0,0,0-23.066,19.6,49.219,49.219,0,0,0-5.682,10.929,11.369,11.369,0,0,1-.7,1.581c-.277.508-.134.608.391.6,2.026-.02,4.052-.008,6.078-.008,8.131,0,16.261.021,24.391-.017a3.089,3.089,0,0,1,3.285,2.139c.229.628.4.626.934.2,2.979-2.373,6.019-4.671,9.015-7.024a16.839,16.839,0,0,0,6.005-7.913,20.064,20.064,0,0,0,.94-7.291c-.145-3.027.688-5.668,3.173-7.583a8.217,8.217,0,0,1,13.038,4.391,58.778,58.778,0,0,1,1.907,8.337c.589,5.387.777,10.784-.772,16.078-.2.674.191.6.6.6q8.17,0,16.339,0a9.881,9.881,0,0,1,5.386,1.211,8.924,8.924,0,0,1,4.6,8,8.721,8.721,0,0,1-3,6.38.765.765,0,0,0-.219,1.11c2.217,4.3,1.159,8.151-2.016,11.117-.332.31-.287.485-.088.836a8.7,8.7,0,0,1-2.307,11.534c-.28.22-.278.341-.129.625a8.859,8.859,0,0,1-3.586,12.309,8.6,8.6,0,0,1-4.41,1c-10.525.028-21.05.013-31.575.015a11.019,11.019,0,0,1-6.939-2.151,12.8,12.8,0,0,0-6.069-2.443c-.62-.088-.716.15-.694.678a13.416,13.416,0,0,1,0,2.9,3.091,3.091,0,0,1-3.161,2.718c-5.5.012-11,0-16.5,0H51.909Zm20.845-29.891h.063q0,8.069,0,16.137c0,1.231-.021,1.253,1.223,1.483a20.968,20.968,0,0,1,8.9,3.6,5.586,5.586,0,0,0,3.392,1.1q15.786-.02,31.572-.011a4.31,4.31,0,0,0,1.014-.119,3.159,3.159,0,0,0,2.536-3.317,3.074,3.074,0,0,0-3.274-2.829c-.921,0-1.842.016-2.762,0a3.325,3.325,0,0,1-3.079-2.868,3.162,3.162,0,0,1,2.618-3,11.19,11.19,0,0,1,1.809-.093,31.446,31.446,0,0,0,4.648-.105,2.707,2.707,0,0,0,2.3-2.262c.173-2-.336-3.011-1.793-3.6a4.109,4.109,0,0,0-1.55-.218,22.191,22.191,0,0,1-3.623-.126,2.877,2.877,0,0,1,.554-5.7c1.92-.024,3.841-.008,5.758-.09a2.751,2.751,0,0,0,2.621-2.059,2.947,2.947,0,0,0-.962-3.411,2.563,2.563,0,0,0-1.507-.579c-2.05-.082-4.106.1-6.152-.131a3.27,3.27,0,0,1-2.655-2.379,2.931,2.931,0,0,1,1.393-2.951,4.162,4.162,0,0,1,2.392-.662c2.394.008,4.788-.01,7.182.011a2.235,2.235,0,0,0,1.562-.625,3.162,3.162,0,0,0-1.937-5.5,13.415,13.415,0,0,0-2.2-.131q-9.55.01-19.1.043a12.326,12.326,0,0,1-1.416-.069,2.743,2.743,0,0,1-2.28-3.8A35.034,35.034,0,0,0,102.191,65.1a43.1,43.1,0,0,0-.763-8.21,24.5,24.5,0,0,0-1.6-6.052,2.229,2.229,0,0,0-2.791-1.154,2.284,2.284,0,0,0-1.794,2.268c0,1.207.036,2.415-.007,3.62a20.935,20.935,0,0,1-5.381,13.605,55.457,55.457,0,0,1-8.56,7.3,78.424,78.424,0,0,0-7.975,6.67,1.917,1.917,0,0,0-.625,1.518c.018,5.458.01,10.915.01,16.373m-5.885.768V87.957q0-4.289,0-8.578c0-.316.121-.635-.48-.635-8.627.008-17.255-.022-25.882-.032-1.077,0-2.155.06-3.233.088-.376.01-.638.095-.71.549a77.577,77.577,0,0,0-1.223,10.3,58.5,58.5,0,0,0,1.97,16.251,54.84,54.84,0,0,0,8.361,17.671,2.339,2.339,0,0,0,2.533,1.211,10.1,10.1,0,0,1,1.655-.032c5.392-.009,10.784-.029,16.177-.006.721,0,.851-.23.849-.9-.025-7.345-.015-14.691-.015-22.036" transform="translate(-10.888 -10.772)" fill="#1fd27a"/>
      </g>
    </g>
  </g>
</svg>
