<svg xmlns="http://www.w3.org/2000/svg" width="1030" height="533" viewBox="0 0 1030 533">
  <g id="Grupo_1072447" data-name="Grupo 1072447" transform="translate(-285 -2397)">
    <path id="Trazado_839017" data-name="Trazado 839017" d="M0,0H1030V533H0Z" transform="translate(285 2397)" fill="#f5fdf9"/>
    <g id="Grupo_1072107" data-name="Grupo 1072107" transform="translate(-90 -210.018)">
      <path id="Polígono_23" data-name="Polígono 23" d="M23.5,0,47,41H0Z" transform="translate(495 2624.431)" fill="#1fd27a"/>
      <rect id="Rectángulo_377672" data-name="Rectángulo 377672" width="23" height="89" transform="translate(507 2648.431)" fill="#1fd27a"/>
    </g>
    <g id="Grupo_1072108" data-name="Grupo 1072108" transform="translate(-87 81.982)">
      <path id="Polígono_23-2" data-name="Polígono 23" d="M23.5,0,47,41H0Z" transform="translate(495 2624.431)" fill="#1fd27a"/>
      <rect id="Rectángulo_377672-2" data-name="Rectángulo 377672" width="23" height="89" transform="translate(507 2648.431)" fill="#1fd27a"/>
    </g>
    <rect id="Rectángulo_377655" data-name="Rectángulo 377655" width="190" height="38" rx="15" transform="translate(737 2596.413)" fill="#1fd27a"/>
    <path id="Trazado_839061" data-name="Trazado 839061" d="M4.324,10.992V15H1.98V3.625H6.418a5.134,5.134,0,0,1,2.254.469,3.454,3.454,0,0,1,1.5,1.332,3.714,3.714,0,0,1,.523,1.965,3.266,3.266,0,0,1-1.145,2.637,4.767,4.767,0,0,1-3.168.965Zm0-1.9H6.418a2.059,2.059,0,0,0,1.418-.437,1.591,1.591,0,0,0,.488-1.25,1.876,1.876,0,0,0-.492-1.352,1.839,1.839,0,0,0-1.359-.531H4.324Zm12.188,1.742H14.645V15H12.3V3.625h4.227a4.778,4.778,0,0,1,3.109.9A3.1,3.1,0,0,1,20.73,7.063,3.5,3.5,0,0,1,20.227,9,3.437,3.437,0,0,1,18.7,10.242l2.461,4.648V15H18.645Zm-1.867-1.9h1.891A1.936,1.936,0,0,0,17.9,8.488a1.606,1.606,0,0,0,.484-1.238,1.719,1.719,0,0,0-.457-1.266,1.9,1.9,0,0,0-1.4-.461H14.645Zm17.211.633a6.867,6.867,0,0,1-.594,2.945,4.472,4.472,0,0,1-1.7,1.953,5.021,5.021,0,0,1-5.059.008,4.515,4.515,0,0,1-1.719-1.941,6.67,6.67,0,0,1-.617-2.9V9.07a6.831,6.831,0,0,1,.605-2.957,4.508,4.508,0,0,1,1.711-1.961,5.014,5.014,0,0,1,5.055,0A4.508,4.508,0,0,1,31.25,6.113a6.811,6.811,0,0,1,.605,2.949ZM29.48,9.055a4.787,4.787,0,0,0-.641-2.719,2.263,2.263,0,0,0-3.648-.012,4.732,4.732,0,0,0-.648,2.691V9.57a4.847,4.847,0,0,0,.641,2.7,2.243,2.243,0,0,0,3.656.035,4.819,4.819,0,0,0,.641-2.7ZM33.559,15V3.625h3.984a5.232,5.232,0,0,1,3.141.793,2.712,2.712,0,0,1,1.07,2.324,2.57,2.57,0,0,1-.43,1.473,2.482,2.482,0,0,1-1.2.934,2.4,2.4,0,0,1,1.379.883,2.61,2.61,0,0,1,.5,1.625,3,3,0,0,1-1.047,2.484A4.713,4.713,0,0,1,37.98,15ZM35.9,10.047v3.07H37.91a1.938,1.938,0,0,0,1.293-.395,1.353,1.353,0,0,0,.465-1.09,1.428,1.428,0,0,0-1.617-1.586Zm0-1.656h1.734q1.773-.031,1.773-1.414a1.307,1.307,0,0,0-.449-1.113,2.363,2.363,0,0,0-1.418-.34H35.9Zm10.211,4.727H51.09V15H43.77V3.625h2.344ZM59.277,10.07h-4.5v3.047h5.281V15H52.434V3.625h7.609v1.9H54.777V8.234h4.5ZM64.5,3.625l2.922,8.25,2.906-8.25H73.4V15H71.051V11.891l.234-5.367L68.215,15H66.605L63.543,6.531l.234,5.359V15H61.434V3.625Zm17.516,9.031H77.9L77.121,15H74.629L78.863,3.625h2.172L85.293,15H82.8Zm-3.477-1.9h2.844L79.949,6.5Zm18.648-.406h-4.5V15H90.34V3.625h7.406v1.9H92.684V8.461h4.5Zm11.266-.781a6.867,6.867,0,0,1-.594,2.945,4.472,4.472,0,0,1-1.7,1.953,5.021,5.021,0,0,1-5.059.008,4.515,4.515,0,0,1-1.719-1.941,6.67,6.67,0,0,1-.617-2.9V9.07a6.831,6.831,0,0,1,.605-2.957,4.508,4.508,0,0,1,1.711-1.961,5.014,5.014,0,0,1,5.055,0,4.508,4.508,0,0,1,1.711,1.961,6.811,6.811,0,0,1,.605,2.949Zm-2.375-.516a4.787,4.787,0,0,0-.641-2.719,2.263,2.263,0,0,0-3.648-.012,4.732,4.732,0,0,0-.648,2.691V9.57a4.847,4.847,0,0,0,.641,2.7,2.243,2.243,0,0,0,3.656.035,4.819,4.819,0,0,0,.641-2.7Zm13.008,2.156a4.025,4.025,0,0,1-1.355,2.891,4.76,4.76,0,0,1-3.223,1.055,4.28,4.28,0,0,1-3.441-1.473,6.038,6.038,0,0,1-1.254-4.043v-.7a6.819,6.819,0,0,1,.578-2.891,4.332,4.332,0,0,1,1.652-1.918,5.164,5.164,0,0,1,5.668.387A4.326,4.326,0,0,1,119.1,7.484h-2.344a2.376,2.376,0,0,0-.613-1.6,2.271,2.271,0,0,0-1.605-.5,1.991,1.991,0,0,0-1.754.84,4.707,4.707,0,0,0-.6,2.605V9.7a5.038,5.038,0,0,0,.559,2.7,1.954,1.954,0,0,0,1.762.852,2.314,2.314,0,0,0,1.621-.5,2.241,2.241,0,0,0,.613-1.535Zm7.961,1.445h-4.109L122.152,15H119.66l4.234-11.375h2.172L130.324,15h-2.492Zm-3.477-1.9h2.844L124.98,6.5Zm10.164,2.359h4.977V15h-7.32V3.625h2.344Z" transform="translate(768 2606.413)" fill="#fff"/>
    <rect id="Rectángulo_377674" data-name="Rectángulo 377674" width="100" height="38" rx="15" transform="translate(651 2505.826)" fill="#dbe5f3"/>
    <rect id="Rectángulo_377677" data-name="Rectángulo 377677" width="100" height="38" rx="15" transform="translate(651 2687.826)" fill="#dbe5f3"/>
    <rect id="Rectángulo_377675" data-name="Rectángulo 377675" width="100" height="38" rx="15" transform="translate(782 2505.826)" fill="#dbe5f3"/>
    <rect id="Rectángulo_377678" data-name="Rectángulo 377678" width="100" height="38" rx="15" transform="translate(782 2687.826)" fill="#dbe5f3"/>
    <rect id="Rectángulo_377676" data-name="Rectángulo 377676" width="100" height="38" rx="15" transform="translate(913 2505.826)" fill="#dbe5f3"/>
    <g id="Grupo_1072101" data-name="Grupo 1072101" transform="translate(57 -638.587)">
      <rect id="Rectángulo_377681" data-name="Rectángulo 377681" width="100" height="38" rx="15" transform="translate(790 3052.587)" fill="#dbe5f3"/>
      <rect id="Rectángulo_377682" data-name="Rectángulo 377682" width="100" height="38" rx="15" transform="translate(921 3052.587)" fill="#dbe5f3"/>
    </g>
    <g id="Grupo_1072102" data-name="Grupo 1072102" transform="translate(-204 -275.587)">
      <rect id="Rectángulo_377681-2" data-name="Rectángulo 377681" width="100" height="38" rx="15" transform="translate(790 3052.587)" fill="#dbe5f3"/>
      <rect id="Rectángulo_377682-2" data-name="Rectángulo 377682" width="100" height="38" rx="15" transform="translate(921 3052.587)" fill="#dbe5f3"/>
    </g>
    <g id="Grupo_1072103" data-name="Grupo 1072103" transform="translate(58 -275.587)">
      <rect id="Rectángulo_377681-3" data-name="Rectángulo 377681" width="100" height="38" rx="15" transform="translate(790 3052.587)" fill="#dbe5f3"/>
      <rect id="Rectángulo_377682-3" data-name="Rectángulo 377682" width="100" height="38" rx="15" transform="translate(921 3052.587)" fill="#dbe5f3"/>
      <rect id="Rectángulo_377683" data-name="Rectángulo 377683" width="100" height="38" rx="15" transform="translate(1052 3052.587)" fill="#dbe5f3"/>
    </g>
    <g id="Grupo_1072104" data-name="Grupo 1072104" transform="translate(-73.493 -182.762)">
      <rect id="Rectángulo_377681-4" data-name="Rectángulo 377681" width="100" height="38" rx="15" transform="translate(790 3052.587)" fill="#dbe5f3"/>
      <rect id="Rectángulo_377682-4" data-name="Rectángulo 377682" width="100" height="38" rx="15" transform="translate(921 3052.587)" fill="#dbe5f3"/>
      <rect id="Rectángulo_377683-2" data-name="Rectángulo 377683" width="100" height="38" rx="15" transform="translate(1052 3052.587)" fill="#dbe5f3"/>
    </g>
    <rect id="Rectángulo_377679" data-name="Rectángulo 377679" width="100" height="38" rx="15" transform="translate(913 2687.826)" fill="#dbe5f3"/>
    <path id="Trazado_838595" data-name="Trazado 838595" d="M-9867.282-9934.5h262" transform="translate(10568.283 12504.826)" fill="none" stroke="#707070" stroke-width="1"/>
    <path id="Trazado_838613" data-name="Trazado 838613" d="M-9867.282-9934.5h262" transform="translate(-8838.277 -7092.586) rotate(180)" fill="none" stroke="#707070" stroke-width="1"/>
    <path id="Trazado_838599" data-name="Trazado 838599" d="M-9867.282-9934.5h262" transform="translate(-8903.781 -7273.172) rotate(180)" fill="none" stroke="#707070" stroke-width="1"/>
    <path id="Trazado_838596" data-name="Trazado 838596" d="M-9849-9957.074v49" transform="translate(10681.5 12504.9)" fill="none" stroke="#707070" stroke-width="1"/>
    <path id="Trazado_838612" data-name="Trazado 838612" d="M-9849-9957.075v54.412" transform="translate(-8951.492 -7087.25) rotate(180)" fill="none" stroke="#707070" stroke-width="1"/>
    <path id="Trazado_838597" data-name="Trazado 838597" d="M-9849-9957.074v52" transform="translate(-9016.5 -7269.246) rotate(180)" fill="none" stroke="#707070" stroke-width="1"/>
    <path id="Trazado_838594" data-name="Trazado 838594" d="M-9849-9957.074v18.965" transform="translate(10550.5 12508.9)" fill="none" stroke="#707070" stroke-width="1"/>
    <path id="Trazado_838611" data-name="Trazado 838611" d="M-9849-9957.074v28.377" transform="translate(-8820.492 -7087.25) rotate(180)" fill="none" stroke="#707070" stroke-width="1"/>
    <path id="Trazado_838600" data-name="Trazado 838600" d="M-9849-9957.074v26.5" transform="translate(-8886 -7269.246) rotate(180)" fill="none" stroke="#707070" stroke-width="1"/>
    <path id="Trazado_838601" data-name="Trazado 838601" d="M-9849-9957.073v26.99" transform="translate(-9148 -7269.246) rotate(180)" fill="none" stroke="#707070" stroke-width="1"/>
    <path id="Trazado_838598" data-name="Trazado 838598" d="M-9849-9957.074v19.459" transform="translate(10812.5 12508.436)" fill="none" stroke="#707070" stroke-width="1"/>
    <path id="Trazado_838614" data-name="Trazado 838614" d="M-9849-9957.074v28.406" transform="translate(-9082.492 -7087.25) rotate(180)" fill="none" stroke="#707070" stroke-width="1"/>
    <path id="Polígono_25" data-name="Polígono 25" d="M5.5,0,11,10H0Z" transform="translate(827 2543.826)" fill="#0a5e6b"/>
    <path id="Polígono_32" data-name="Polígono 32" d="M5.5,0,11,10H0Z" transform="translate(892.008 2814.413)" fill="#0a5e6b"/>
    <path id="Polígono_26" data-name="Polígono 26" d="M5.5,0,11,10H0Z" transform="translate(827 2634.826)" fill="#0a5e6b"/>
    <path id="Polígono_24" data-name="Polígono 24" d="M5.5,0,11,10H0Z" transform="translate(696 2542.826)" fill="#0a5e6b"/>
    <path id="Polígono_27" data-name="Polígono 27" d="M5.5,0,11,10H0Z" transform="translate(958 2542.361)" fill="#0a5e6b"/>
    <path id="Trazado_838602" data-name="Trazado 838602" d="M-9867.282-9934.5H-9735.3" transform="translate(10763.797 12414.465)" fill="none" stroke="#707070" stroke-width="1"/>
    <path id="Trazado_838604" data-name="Trazado 838604" d="M-9867.282-9934.5H-9735.3" transform="translate(-9099.297 -7182.176) rotate(180)" fill="none" stroke="#707070" stroke-width="1"/>
    <path id="Trazado_838606" data-name="Trazado 838606" d="M-9867.28-9934.5h263" transform="translate(-8706.777 -7181.762) rotate(180)" fill="none" stroke="#707070" stroke-width="1"/>
    <path id="Trazado_838603" data-name="Trazado 838603" d="M-9849-9957.074v26.5" transform="translate(10812.5 12437.039)" fill="none" stroke="#707070" stroke-width="1"/>
    <path id="Trazado_838605" data-name="Trazado 838605" d="M-9849-9957.074v26.5" transform="translate(-9148 -7204.75) rotate(180)" fill="none" stroke="#707070" stroke-width="1"/>
    <path id="Trazado_838608" data-name="Trazado 838608" d="M-9849-9957.074v26.5" transform="translate(-8886.492 -7204.336) rotate(180)" fill="none" stroke="#707070" stroke-width="1"/>
    <g id="Grupo_1072105" data-name="Grupo 1072105" transform="translate(-21.5 803)">
      <path id="Trazado_838568" data-name="Trazado 838568" d="M-9849-9957.074v18.965" transform="translate(10767.5 11615.074)" fill="none" stroke="#707070" stroke-width="1"/>
      <path id="Polígono_14" data-name="Polígono 14" d="M5.5,0,11,10H0Z" transform="translate(913 1649)" fill="#0a5e6b"/>
    </g>
    <path id="Trazado_838568-2" data-name="Trazado 838568" d="M-9849-9957.074v24.675" transform="translate(-9081.5 -7180.074) rotate(180)" fill="none" stroke="#707070" stroke-width="1"/>
    <path id="Trazado_838609" data-name="Trazado 838609" d="M-9849-9957.074v24.675" transform="translate(-8819.992 -7179.66) rotate(180)" fill="none" stroke="#707070" stroke-width="1"/>
    <path id="Trazado_838610" data-name="Trazado 838610" d="M-9849-9957.074v24.675" transform="translate(-8688.992 -7179.66) rotate(180)" fill="none" stroke="#707070" stroke-width="1"/>
    <g id="Grupo_1072106" data-name="Grupo 1072106" transform="translate(109.5 803)">
      <path id="Trazado_838568-3" data-name="Trazado 838568" d="M-9849-9957.074v18.965" transform="translate(10767.5 11615.074)" fill="none" stroke="#707070" stroke-width="1"/>
      <path id="Polígono_14-2" data-name="Polígono 14" d="M5.5,0,11,10H0Z" transform="translate(913 1649)" fill="#0a5e6b"/>
    </g>
    <path id="Trazado_838568-4" data-name="Trazado 838568" d="M-9849-9957.074v24.675" transform="translate(-9212.5 -7180.074) rotate(180)" fill="none" stroke="#707070" stroke-width="1"/>
    <path id="Trazado_838607" data-name="Trazado 838607" d="M-9849-9957.074v24.675" transform="translate(-8950.992 -7179.66) rotate(180)" fill="none" stroke="#707070" stroke-width="1"/>
    <path id="Polígono_14-3" data-name="Polígono 14" d="M5.5,0,11,10H0Z" transform="translate(695.5 2724.825)" fill="#0a5e6b"/>
    <path id="Polígono_28" data-name="Polígono 28" d="M5.5,0,11,10H0Z" transform="translate(957.008 2725.238)" fill="#0a5e6b"/>
    <path id="Trazado_838615" data-name="Trazado 838615" d="M-10576-8446h315" transform="translate(10966 11061.413)" fill="none" stroke="#1fd27a" stroke-linecap="square" stroke-width="2"/>
    <path id="Trazado_838616" data-name="Trazado 838616" d="M-10576-8446h269" transform="translate(11517 11061.413)" fill="none" stroke="#1fd27a" stroke-linecap="square" stroke-width="2"/>
    <path id="Trazado_839062" data-name="Trazado 839062" d="M16.574,10.07h-4.5v3.047h5.281V15H9.73V3.625H17.34v1.9H12.074V8.234h4.5Zm9,.281h-4.5V15H18.73V3.625h7.406v1.9H21.074V8.461h4.5Zm8.766-.281h-4.5v3.047h5.281V15H27.5V3.625h7.609v1.9H29.84V8.234h4.5Zm11.086,1.141A4.025,4.025,0,0,1,44.07,14.1a4.76,4.76,0,0,1-3.223,1.055,4.281,4.281,0,0,1-3.441-1.473,6.038,6.038,0,0,1-1.254-4.043v-.7a6.819,6.819,0,0,1,.578-2.891,4.332,4.332,0,0,1,1.652-1.918,5.164,5.164,0,0,1,5.668.387,4.326,4.326,0,0,1,1.391,2.961H43.1a2.376,2.376,0,0,0-.613-1.6,2.271,2.271,0,0,0-1.605-.5,1.991,1.991,0,0,0-1.754.84,4.707,4.707,0,0,0-.6,2.605V9.7a5.038,5.038,0,0,0,.559,2.7,1.954,1.954,0,0,0,1.762.852,2.314,2.314,0,0,0,1.621-.5,2.241,2.241,0,0,0,.613-1.535ZM55.3,5.523H51.816V15H49.473V5.523H46.035v-1.9H55.3ZM65.762,9.57a6.867,6.867,0,0,1-.594,2.945,4.472,4.472,0,0,1-1.7,1.953,5.021,5.021,0,0,1-5.059.008,4.515,4.515,0,0,1-1.719-1.941,6.67,6.67,0,0,1-.617-2.9V9.07a6.831,6.831,0,0,1,.605-2.957,4.508,4.508,0,0,1,1.711-1.961,5.014,5.014,0,0,1,5.055,0,4.508,4.508,0,0,1,1.711,1.961,6.811,6.811,0,0,1,.605,2.949Zm-2.375-.516a4.787,4.787,0,0,0-.641-2.719A2.263,2.263,0,0,0,59.1,6.324a4.732,4.732,0,0,0-.648,2.691V9.57a4.847,4.847,0,0,0,.641,2.7,2.243,2.243,0,0,0,3.656.035,4.819,4.819,0,0,0,.641-2.7Zm9.977,2.961A1.2,1.2,0,0,0,72.895,11a6.148,6.148,0,0,0-1.687-.75,11.963,11.963,0,0,1-1.93-.777,3.153,3.153,0,0,1-1.937-2.82A2.747,2.747,0,0,1,67.859,5a3.389,3.389,0,0,1,1.492-1.129,5.616,5.616,0,0,1,2.184-.406,5.112,5.112,0,0,1,2.172.441,3.458,3.458,0,0,1,1.48,1.246,3.261,3.261,0,0,1,.527,1.828H73.371a1.534,1.534,0,0,0-.492-1.215A2.023,2.023,0,0,0,71.5,5.336,2.162,2.162,0,0,0,70.16,5.7a1.146,1.146,0,0,0-.477.957,1.1,1.1,0,0,0,.559.93,6.311,6.311,0,0,0,1.645.7A7.106,7.106,0,0,1,74.8,9.781,2.972,2.972,0,0,1,75.715,12,2.737,2.737,0,0,1,74.6,14.316a4.891,4.891,0,0,1-3.008.84,5.808,5.808,0,0,1-2.391-.48,3.783,3.783,0,0,1-1.645-1.316,3.371,3.371,0,0,1-.566-1.937H69.34q0,1.883,2.25,1.883a2.189,2.189,0,0,0,1.3-.34A1.106,1.106,0,0,0,73.363,12.016Z" transform="translate(487 2508.413)" fill="#12263f"/>
    <path id="Trazado_839060" data-name="Trazado 839060" d="M21.41,11.211A4.025,4.025,0,0,1,20.055,14.1a4.76,4.76,0,0,1-3.223,1.055,4.28,4.28,0,0,1-3.441-1.473,6.038,6.038,0,0,1-1.254-4.043v-.7a6.819,6.819,0,0,1,.578-2.891,4.332,4.332,0,0,1,1.652-1.918,4.629,4.629,0,0,1,2.5-.668,4.637,4.637,0,0,1,3.172,1.055,4.326,4.326,0,0,1,1.391,2.961H19.082a2.376,2.376,0,0,0-.613-1.6,2.271,2.271,0,0,0-1.605-.5,1.991,1.991,0,0,0-1.754.84,4.707,4.707,0,0,0-.6,2.605V9.7a5.038,5.038,0,0,0,.559,2.7,1.954,1.954,0,0,0,1.762.852,2.314,2.314,0,0,0,1.621-.5,2.241,2.241,0,0,0,.613-1.535Zm7.961,1.445H25.262L24.48,15H21.988L26.223,3.625h2.172L32.652,15H30.16Zm-3.477-1.9h2.844L27.309,6.5Zm16.3-7.133v7.492a3.836,3.836,0,0,1-1.168,2.953,4.5,4.5,0,0,1-3.191,1.086A4.553,4.553,0,0,1,34.668,14.1a3.77,3.77,0,0,1-1.2-2.9V3.625h2.344v7.508a2.167,2.167,0,0,0,.535,1.629,2.054,2.054,0,0,0,1.48.512q1.977,0,2.008-2.078V3.625Zm7.82,8.391A1.2,1.2,0,0,0,49.543,11a6.148,6.148,0,0,0-1.687-.75,11.963,11.963,0,0,1-1.93-.777,3.153,3.153,0,0,1-1.937-2.82A2.747,2.747,0,0,1,44.508,5,3.389,3.389,0,0,1,46,3.875a5.616,5.616,0,0,1,2.184-.406,5.112,5.112,0,0,1,2.172.441,3.458,3.458,0,0,1,1.48,1.246,3.261,3.261,0,0,1,.527,1.828H50.02a1.534,1.534,0,0,0-.492-1.215,2.023,2.023,0,0,0-1.383-.434,2.162,2.162,0,0,0-1.336.363,1.146,1.146,0,0,0-.477.957,1.1,1.1,0,0,0,.559.93,6.311,6.311,0,0,0,1.645.7,7.106,7.106,0,0,1,2.914,1.492A2.972,2.972,0,0,1,52.363,12a2.737,2.737,0,0,1-1.117,2.316,4.891,4.891,0,0,1-3.008.84,5.808,5.808,0,0,1-2.391-.48A3.783,3.783,0,0,1,44.2,13.359a3.371,3.371,0,0,1-.566-1.937h2.352q0,1.883,2.25,1.883a2.189,2.189,0,0,0,1.3-.34A1.106,1.106,0,0,0,50.012,12.016Zm10.359.641H56.262L55.48,15H52.988L57.223,3.625h2.172L63.652,15H61.16Zm-3.477-1.9h2.844L58.309,6.5Zm13.719,1.258A1.2,1.2,0,0,0,70.145,11a6.148,6.148,0,0,0-1.687-.75,11.963,11.963,0,0,1-1.93-.777,3.153,3.153,0,0,1-1.937-2.82A2.747,2.747,0,0,1,65.109,5,3.389,3.389,0,0,1,66.6,3.875a5.616,5.616,0,0,1,2.184-.406,5.112,5.112,0,0,1,2.172.441,3.458,3.458,0,0,1,1.48,1.246,3.261,3.261,0,0,1,.527,1.828H70.621a1.534,1.534,0,0,0-.492-1.215,2.023,2.023,0,0,0-1.383-.434A2.162,2.162,0,0,0,67.41,5.7a1.146,1.146,0,0,0-.477.957,1.1,1.1,0,0,0,.559.93,6.311,6.311,0,0,0,1.645.7,7.106,7.106,0,0,1,2.914,1.492A2.972,2.972,0,0,1,72.965,12a2.737,2.737,0,0,1-1.117,2.316,4.891,4.891,0,0,1-3.008.84,5.808,5.808,0,0,1-2.391-.48A3.783,3.783,0,0,1,64.8,13.359a3.371,3.371,0,0,1-.566-1.937H66.59q0,1.883,2.25,1.883a2.189,2.189,0,0,0,1.3-.34A1.106,1.106,0,0,0,70.613,12.016Z" transform="translate(484 2703.413)" fill="#12263f"/>
  </g>
</svg>
