<svg xmlns="http://www.w3.org/2000/svg" width="401" height="456" viewBox="0 0 401 456">
  <g id="Grupo_1072457" data-name="Grupo 1072457" transform="translate(9221 4252)">
    <rect id="Rectángulo_377981" data-name="Rectángulo 377981" width="400" height="456" transform="translate(-9220 -4252)" fill="#fff"/>
    <rect id="Rectángulo_377945" data-name="Rectángulo 377945" width="114" height="75" transform="translate(-9221 -4236)" fill="#1fd27a"/>
    <rect id="Rectángulo_377946" data-name="Rectángulo 377946" width="114" height="62" transform="translate(-9221 -4142)" fill="#dbe5f3"/>
    <rect id="Rectángulo_377947" data-name="Rectángulo 377947" width="129" height="62" transform="translate(-9085 -4142)" fill="#dbe5f3"/>
    <rect id="Rectángulo_377951" data-name="Rectángulo 377951" width="114" height="62" transform="translate(-8934 -4142)" fill="#dbe5f3"/>
    <rect id="Rectángulo_377949" data-name="Rectángulo 377949" width="114" height="85" transform="translate(-9221 -4060)" fill="#dbe5f3"/>
    <rect id="Rectángulo_377950" data-name="Rectángulo 377950" width="129" height="85" transform="translate(-9085 -4060)" fill="#dbe5f3"/>
    <rect id="Rectángulo_377952" data-name="Rectángulo 377952" width="114" height="85" transform="translate(-8934 -4060)" fill="#dbe5f3"/>
    <rect id="Rectángulo_377953" data-name="Rectángulo 377953" width="114" height="62" transform="translate(-9221 -3955)" fill="#dbe5f3"/>
    <rect id="Rectángulo_377954" data-name="Rectángulo 377954" width="129" height="62" transform="translate(-9085 -3955)" fill="#dbe5f3"/>
    <rect id="Rectángulo_377955" data-name="Rectángulo 377955" width="114" height="62" transform="translate(-8934 -3955)" fill="#dbe5f3"/>
    <rect id="Rectángulo_377957" data-name="Rectángulo 377957" width="114" height="62" transform="translate(-9221 -3873)" fill="#dbe5f3"/>
    <rect id="Rectángulo_377958" data-name="Rectángulo 377958" width="129" height="62" transform="translate(-9085 -3873)" fill="#dbe5f3"/>
    <rect id="Rectángulo_377959" data-name="Rectángulo 377959" width="114" height="62" transform="translate(-8934 -3873)" fill="#dbe5f3"/>
    <rect id="Rectángulo_377948" data-name="Rectángulo 377948" width="129" height="76" transform="translate(-9085 -4237)" fill="#1fd27a"/>
    <rect id="Rectángulo_377956" data-name="Rectángulo 377956" width="114" height="75" transform="translate(-8934 -4236)" fill="#1fd27a"/>
    <path id="Trazado_839144" data-name="Trazado 839144" d="M22.8,12.656H18.688L17.906,15H15.414L19.648,3.625H21.82L26.078,15H23.586Zm-3.477-1.9h2.844L20.734,6.5Zm1.9-10.18H23.68L21.516,3H19.68ZM31.352,10.836H29.484V15H27.141V3.625h4.227a4.778,4.778,0,0,1,3.109.9A3.1,3.1,0,0,1,35.57,7.063,3.5,3.5,0,0,1,35.066,9a3.437,3.437,0,0,1-1.527,1.238L36,14.891V15H33.484Zm-1.867-1.9h1.891a1.936,1.936,0,0,0,1.367-.449,1.606,1.606,0,0,0,.484-1.238,1.719,1.719,0,0,0-.457-1.266,1.9,1.9,0,0,0-1.4-.461H29.484ZM37.352,15V3.625h3.984a5.232,5.232,0,0,1,3.141.793,2.712,2.712,0,0,1,1.07,2.324,2.57,2.57,0,0,1-.43,1.473,2.482,2.482,0,0,1-1.2.934,2.4,2.4,0,0,1,1.379.883,2.61,2.61,0,0,1,.5,1.625,3,3,0,0,1-1.047,2.484A4.713,4.713,0,0,1,41.773,15ZM39.7,10.047v3.07H41.7A1.938,1.938,0,0,0,43,12.723a1.353,1.353,0,0,0,.465-1.09,1.428,1.428,0,0,0-1.617-1.586Zm0-1.656H41.43Q43.2,8.359,43.2,6.977a1.307,1.307,0,0,0-.449-1.113,2.363,2.363,0,0,0-1.418-.34H39.7ZM56.906,9.57a6.867,6.867,0,0,1-.594,2.945,4.472,4.472,0,0,1-1.7,1.953,5.021,5.021,0,0,1-5.059.008,4.515,4.515,0,0,1-1.719-1.941,6.67,6.67,0,0,1-.617-2.9V9.07a6.831,6.831,0,0,1,.605-2.957,4.508,4.508,0,0,1,1.711-1.961,5.014,5.014,0,0,1,5.055,0A4.508,4.508,0,0,1,56.3,6.113a6.811,6.811,0,0,1,.605,2.949Zm-2.375-.516a4.787,4.787,0,0,0-.641-2.719,2.263,2.263,0,0,0-3.648-.012,4.732,4.732,0,0,0-.648,2.691V9.57a4.847,4.847,0,0,0,.641,2.7,2.243,2.243,0,0,0,3.656.035,4.819,4.819,0,0,0,.641-2.7Zm6.422,4.063H65.93V15h-7.32V3.625h2.344ZM71.258,15V3.625h3.5a5.315,5.315,0,0,1,2.684.676,4.712,4.712,0,0,1,1.848,1.922,5.928,5.928,0,0,1,.664,2.832v.523A5.945,5.945,0,0,1,79.3,12.4a4.672,4.672,0,0,1-1.84,1.914,5.355,5.355,0,0,1-2.68.688ZM73.6,5.523v7.594h1.133a2.545,2.545,0,0,0,2.1-.9,4.06,4.06,0,0,0,.742-2.57v-.6a4.124,4.124,0,0,0-.719-2.629,2.537,2.537,0,0,0-2.1-.895ZM88.5,10.07H84v3.047h5.281V15H81.656V3.625h7.609v1.9H84V8.234h4.5ZM8.754,34.992V39H6.41V27.625h4.438a5.134,5.134,0,0,1,2.254.469,3.454,3.454,0,0,1,1.5,1.332,3.714,3.714,0,0,1,.523,1.965,3.266,3.266,0,0,1-1.145,2.637,4.767,4.767,0,0,1-3.168.965Zm0-1.9h2.094a2.059,2.059,0,0,0,1.418-.437,1.591,1.591,0,0,0,.488-1.25,1.876,1.876,0,0,0-.492-1.352,1.839,1.839,0,0,0-1.359-.531H8.754Zm12.188,1.742H19.074V39H16.73V27.625h4.227a4.778,4.778,0,0,1,3.109.9,3.1,3.1,0,0,1,1.094,2.539,3.5,3.5,0,0,1-.5,1.941,3.437,3.437,0,0,1-1.527,1.238l2.461,4.648V39H23.074Zm-1.867-1.9h1.891a1.936,1.936,0,0,0,1.367-.449,1.606,1.606,0,0,0,.484-1.238,1.719,1.719,0,0,0-.457-1.266,1.9,1.9,0,0,0-1.4-.461H19.074Zm17.211.633a6.867,6.867,0,0,1-.594,2.945,4.472,4.472,0,0,1-1.7,1.953,5.021,5.021,0,0,1-5.059.008,4.515,4.515,0,0,1-1.719-1.941,6.67,6.67,0,0,1-.617-2.9V33.07a6.831,6.831,0,0,1,.605-2.957,4.508,4.508,0,0,1,1.711-1.961,5.014,5.014,0,0,1,5.055,0,4.508,4.508,0,0,1,1.711,1.961,6.811,6.811,0,0,1,.605,2.949Zm-2.375-.516a4.787,4.787,0,0,0-.641-2.719,2.263,2.263,0,0,0-3.648-.012,4.732,4.732,0,0,0-.648,2.691v.555a4.847,4.847,0,0,0,.641,2.7,2.243,2.243,0,0,0,3.656.035,4.819,4.819,0,0,0,.641-2.7ZM37.988,39V27.625h3.984a5.232,5.232,0,0,1,3.141.793,2.712,2.712,0,0,1,1.07,2.324,2.57,2.57,0,0,1-.43,1.473,2.482,2.482,0,0,1-1.2.934,2.4,2.4,0,0,1,1.379.883,2.61,2.61,0,0,1,.5,1.625,3,3,0,0,1-1.047,2.484A4.713,4.713,0,0,1,42.41,39Zm2.344-4.953v3.07H42.34a1.938,1.938,0,0,0,1.293-.395,1.353,1.353,0,0,0,.465-1.09,1.428,1.428,0,0,0-1.617-1.586Zm0-1.656h1.734q1.773-.031,1.773-1.414a1.307,1.307,0,0,0-.449-1.113,2.363,2.363,0,0,0-1.418-.34H40.332Zm10.211,4.727H55.52V39H48.2V27.625h2.344ZM63.707,34.07h-4.5v3.047h5.281V39H56.863V27.625h7.609v1.9H59.207v2.711h4.5Zm5.219-6.445,2.922,8.25,2.906-8.25h3.078V39H75.48V35.891l.234-5.367L72.645,39H71.035l-3.062-8.469.234,5.359V39H65.863V27.625Zm17.516,9.031H82.332L81.551,39H79.059l4.234-11.375h2.172L89.723,39H87.23Zm-3.477-1.9h2.844L84.379,30.5Zm13.719,1.258A1.2,1.2,0,0,0,96.215,35a6.148,6.148,0,0,0-1.687-.75,11.963,11.963,0,0,1-1.93-.777,3.153,3.153,0,0,1-1.937-2.82A2.747,2.747,0,0,1,91.18,29a3.389,3.389,0,0,1,1.492-1.129,5.616,5.616,0,0,1,2.184-.406,5.112,5.112,0,0,1,2.172.441,3.458,3.458,0,0,1,1.48,1.246,3.261,3.261,0,0,1,.527,1.828H96.691A1.534,1.534,0,0,0,96.2,29.77a2.023,2.023,0,0,0-1.383-.434,2.162,2.162,0,0,0-1.336.363,1.146,1.146,0,0,0-.477.957,1.1,1.1,0,0,0,.559.93,6.311,6.311,0,0,0,1.645.7,7.106,7.106,0,0,1,2.914,1.492A2.972,2.972,0,0,1,99.035,36a2.737,2.737,0,0,1-1.117,2.316,4.891,4.891,0,0,1-3.008.84,5.808,5.808,0,0,1-2.391-.48,3.783,3.783,0,0,1-1.645-1.316,3.371,3.371,0,0,1-.566-1.937H92.66q0,1.883,2.25,1.883a2.189,2.189,0,0,0,1.3-.34A1.106,1.106,0,0,0,96.684,36.016Z" transform="translate(-9216 -4221)" fill="#12263f"/>
    <path id="Trazado_839143" data-name="Trazado 839143" d="M27.8,12.656H23.688L22.906,15H20.414L24.648,3.625H26.82L31.078,15H28.586Zm-3.477-1.9h2.844L25.734,6.5Zm1.9-10.18H28.68L26.516,3H24.68ZM36.352,10.836H34.484V15H32.141V3.625h4.227a4.778,4.778,0,0,1,3.109.9A3.1,3.1,0,0,1,40.57,7.063,3.5,3.5,0,0,1,40.066,9a3.437,3.437,0,0,1-1.527,1.238L41,14.891V15H38.484Zm-1.867-1.9h1.891a1.936,1.936,0,0,0,1.367-.449,1.606,1.606,0,0,0,.484-1.238,1.719,1.719,0,0,0-.457-1.266,1.9,1.9,0,0,0-1.4-.461H34.484ZM42.352,15V3.625h3.984a5.232,5.232,0,0,1,3.141.793,2.712,2.712,0,0,1,1.07,2.324,2.57,2.57,0,0,1-.43,1.473,2.482,2.482,0,0,1-1.2.934,2.4,2.4,0,0,1,1.379.883,2.61,2.61,0,0,1,.5,1.625,3,3,0,0,1-1.047,2.484A4.713,4.713,0,0,1,46.773,15ZM44.7,10.047v3.07H46.7A1.938,1.938,0,0,0,48,12.723a1.353,1.353,0,0,0,.465-1.09,1.428,1.428,0,0,0-1.617-1.586Zm0-1.656H46.43Q48.2,8.359,48.2,6.977a1.307,1.307,0,0,0-.449-1.113,2.363,2.363,0,0,0-1.418-.34H44.7ZM61.906,9.57a6.867,6.867,0,0,1-.594,2.945,4.472,4.472,0,0,1-1.7,1.953,5.021,5.021,0,0,1-5.059.008,4.515,4.515,0,0,1-1.719-1.941,6.67,6.67,0,0,1-.617-2.9V9.07a6.831,6.831,0,0,1,.605-2.957,4.508,4.508,0,0,1,1.711-1.961,5.014,5.014,0,0,1,5.055,0A4.508,4.508,0,0,1,61.3,6.113a6.811,6.811,0,0,1,.605,2.949Zm-2.375-.516a4.787,4.787,0,0,0-.641-2.719,2.263,2.263,0,0,0-3.648-.012,4.732,4.732,0,0,0-.648,2.691V9.57a4.847,4.847,0,0,0,.641,2.7,2.243,2.243,0,0,0,3.656.035,4.819,4.819,0,0,0,.641-2.7Zm6.422,4.063H70.93V15h-7.32V3.625h2.344ZM76.258,15V3.625h3.5a5.315,5.315,0,0,1,2.684.676,4.712,4.712,0,0,1,1.848,1.922,5.928,5.928,0,0,1,.664,2.832v.523A5.945,5.945,0,0,1,84.3,12.4a4.672,4.672,0,0,1-1.84,1.914,5.355,5.355,0,0,1-2.68.688ZM78.6,5.523v7.594h1.133a2.545,2.545,0,0,0,2.1-.9,4.06,4.06,0,0,0,.742-2.57v-.6a4.124,4.124,0,0,0-.719-2.629,2.537,2.537,0,0,0-2.1-.895ZM93.5,10.07H89v3.047h5.281V15H86.656V3.625h7.609v1.9H89V8.234h4.5ZM8.316,36.656H4.207L3.426,39H.934L5.168,27.625H7.34L11.6,39H9.105Zm-3.477-1.9H7.684L6.254,30.5ZM15,37.117H19.98V39H12.66V27.625H15Zm13.281-7.594H24.8V39H22.457V29.523H19.02v-1.9h9.266Zm8.18,4.547h-4.5v3.047h5.281V39H29.621V27.625H37.23v1.9H31.965v2.711h4.5Zm6.367.766H40.965V39H38.621V27.625h4.227a4.778,4.778,0,0,1,3.109.9,3.1,3.1,0,0,1,1.094,2.539,3.5,3.5,0,0,1-.5,1.941,3.437,3.437,0,0,1-1.527,1.238l2.461,4.648V39H44.965Zm-1.867-1.9h1.891a1.936,1.936,0,0,0,1.367-.449,1.606,1.606,0,0,0,.484-1.238,1.719,1.719,0,0,0-.457-1.266,1.9,1.9,0,0,0-1.4-.461H40.965ZM58.082,39H55.738l-4.562-7.484V39H48.832V27.625h2.344l4.57,7.5v-7.5h2.336Zm8.609-2.344H62.582L61.8,39H59.309l4.234-11.375h2.172L69.973,39H67.48Zm-3.477-1.9h2.844L64.629,30.5ZM78.66,29.523H75.176V39H72.832V29.523H69.395v-1.9H78.66ZM82.488,39H80.145V27.625h2.344Zm6.375-2.82,2.578-8.555h2.609L90.09,39H87.645L83.7,27.625h2.6Zm12.094.477H96.848L96.066,39H93.574l4.234-11.375H99.98L104.238,39h-2.492Zm-3.477-1.9h2.844L98.895,30.5ZM111.2,36.016A1.2,1.2,0,0,0,110.73,35a6.148,6.148,0,0,0-1.687-.75,11.963,11.963,0,0,1-1.93-.777,3.153,3.153,0,0,1-1.937-2.82A2.747,2.747,0,0,1,105.7,29a3.389,3.389,0,0,1,1.492-1.129,5.616,5.616,0,0,1,2.184-.406,5.112,5.112,0,0,1,2.172.441,3.458,3.458,0,0,1,1.48,1.246,3.261,3.261,0,0,1,.527,1.828h-2.344a1.534,1.534,0,0,0-.492-1.215,2.023,2.023,0,0,0-1.383-.434A2.162,2.162,0,0,0,108,29.7a1.146,1.146,0,0,0-.477.957,1.1,1.1,0,0,0,.559.93,6.311,6.311,0,0,0,1.645.7,7.106,7.106,0,0,1,2.914,1.492A2.972,2.972,0,0,1,113.551,36a2.737,2.737,0,0,1-1.117,2.316,4.891,4.891,0,0,1-3.008.84,5.808,5.808,0,0,1-2.391-.48,3.783,3.783,0,0,1-1.645-1.316,3.371,3.371,0,0,1-.566-1.937h2.352q0,1.883,2.25,1.883a2.189,2.189,0,0,0,1.3-.34A1.106,1.106,0,0,0,111.2,36.016Z" transform="translate(-9078 -4221)" fill="#12263f"/>
    <path id="Trazado_839145" data-name="Trazado 839145" d="M11.551,10.547V15h-1.5V3.625h4.2a4.215,4.215,0,0,1,2.926.953A3.231,3.231,0,0,1,18.23,7.1,3.189,3.189,0,0,1,17.2,9.652a4.4,4.4,0,0,1-2.965.895Zm0-1.227h2.7a2.7,2.7,0,0,0,1.844-.567,2.075,2.075,0,0,0,.641-1.64,2.143,2.143,0,0,0-.641-1.628,2.525,2.525,0,0,0-1.758-.634H11.551ZM24,7.844a4.331,4.331,0,0,0-.711-.055A1.9,1.9,0,0,0,21.363,9v6H19.918V6.547h1.406l.023.977a2.251,2.251,0,0,1,2.016-1.133A1.477,1.477,0,0,1,24,6.5Zm.789,2.852a4.993,4.993,0,0,1,.488-2.234A3.643,3.643,0,0,1,26.641,6.93a3.7,3.7,0,0,1,1.988-.539,3.565,3.565,0,0,1,2.793,1.2,4.6,4.6,0,0,1,1.066,3.18v.1a5.036,5.036,0,0,1-.473,2.215,3.589,3.589,0,0,1-1.352,1.527,3.743,3.743,0,0,1-2.02.547,3.556,3.556,0,0,1-2.785-1.2A4.575,4.575,0,0,1,24.793,10.8Zm1.453.172a3.616,3.616,0,0,0,.652,2.258,2.211,2.211,0,0,0,3.5-.012,3.955,3.955,0,0,0,.648-2.418,3.61,3.61,0,0,0-.66-2.254,2.1,2.1,0,0,0-1.754-.863A2.075,2.075,0,0,0,26.9,8.43,3.925,3.925,0,0,0,26.246,10.867Zm15.211,0a5.026,5.026,0,0,1-.891,3.113,2.846,2.846,0,0,1-2.391,1.176A2.947,2.947,0,0,1,35.7,14.023l-.07.977H34.3V3h1.445V7.477A2.93,2.93,0,0,1,38.16,6.391a2.863,2.863,0,0,1,2.418,1.164,5.177,5.177,0,0,1,.879,3.188ZM40.012,10.7a3.906,3.906,0,0,0-.57-2.281,1.888,1.888,0,0,0-1.641-.8,2.122,2.122,0,0,0-2.055,1.328V12.6a2.181,2.181,0,0,0,2.07,1.328,1.878,1.878,0,0,0,1.617-.8A4.153,4.153,0,0,0,40.012,10.7ZM44.848,15H43.4V3h1.445Zm5.82.156a3.693,3.693,0,0,1-2.8-1.129,4.19,4.19,0,0,1-1.078-3.02v-.266a5.073,5.073,0,0,1,.48-2.246,3.748,3.748,0,0,1,1.344-1.547,3.378,3.378,0,0,1,1.871-.559,3.166,3.166,0,0,1,2.563,1.086,4.7,4.7,0,0,1,.914,3.109v.6H48.238a3,3,0,0,0,.73,2.02,2.3,2.3,0,0,0,1.777.77,2.517,2.517,0,0,0,1.3-.312,3.259,3.259,0,0,0,.93-.828l.883.688A3.55,3.55,0,0,1,50.668,15.156Zm-.18-7.578a1.928,1.928,0,0,0-1.469.637A3.1,3.1,0,0,0,48.285,10H52.52V9.891a2.753,2.753,0,0,0-.594-1.707A1.815,1.815,0,0,0,50.488,7.578ZM57,6.547l.039.938a3.122,3.122,0,0,1,2.508-1.094A2.417,2.417,0,0,1,61.957,7.75a3.2,3.2,0,0,1,1.1-.984,3.242,3.242,0,0,1,1.6-.375q2.781,0,2.828,2.945V15H66.035V9.422a1.941,1.941,0,0,0-.414-1.355,1.823,1.823,0,0,0-1.391-.449,1.917,1.917,0,0,0-1.336.48,1.949,1.949,0,0,0-.617,1.293V15H60.824V9.461a1.613,1.613,0,0,0-1.8-1.844,1.934,1.934,0,0,0-1.945,1.211V15H55.629V6.547ZM74.879,15a3.036,3.036,0,0,1-.2-.891,3.225,3.225,0,0,1-2.406,1.047,2.984,2.984,0,0,1-2.051-.707,2.288,2.288,0,0,1-.8-1.793,2.39,2.39,0,0,1,1-2.051,4.733,4.733,0,0,1,2.824-.73h1.406V9.211A1.623,1.623,0,0,0,74.2,8a1.821,1.821,0,0,0-1.336-.449,2.108,2.108,0,0,0-1.3.391,1.151,1.151,0,0,0-.523.945H69.59a2,2,0,0,1,.449-1.223,3.066,3.066,0,0,1,1.219-.934,4.1,4.1,0,0,1,1.691-.344,3.342,3.342,0,0,1,2.289.73A2.635,2.635,0,0,1,76.1,9.133v3.891a4.757,4.757,0,0,0,.3,1.852V15Zm-2.4-1.1a2.54,2.54,0,0,0,1.289-.352,2.127,2.127,0,0,0,.883-.914V10.9H73.52q-2.656,0-2.656,1.555a1.316,1.316,0,0,0,.453,1.063A1.742,1.742,0,0,0,72.48,13.9ZM20.773,34.867a5.062,5.062,0,0,1-.883,3.109,2.829,2.829,0,0,1-2.391,1.18,3.1,3.1,0,0,1-2.422-.977v4.07H13.633v-11.7h1.32l.07.938a2.977,2.977,0,0,1,2.453-1.094,2.882,2.882,0,0,1,2.41,1.148,5.117,5.117,0,0,1,.887,3.2ZM19.328,34.7a3.735,3.735,0,0,0-.609-2.258,1.963,1.963,0,0,0-1.672-.828,2.125,2.125,0,0,0-1.969,1.164V36.82a2.129,2.129,0,0,0,1.984,1.156,1.954,1.954,0,0,0,1.652-.824A4.077,4.077,0,0,0,19.328,34.7ZM26.7,31.844a4.331,4.331,0,0,0-.711-.055A1.9,1.9,0,0,0,24.055,33v6H22.609V30.547h1.406l.023.977a2.251,2.251,0,0,1,2.016-1.133,1.477,1.477,0,0,1,.641.109ZM29.594,39H28.148V30.547h1.445ZM28.031,28.3a.863.863,0,0,1,.215-.594.807.807,0,0,1,.637-.242.819.819,0,0,1,.641.242.854.854,0,0,1,.219.594.826.826,0,0,1-.219.586.834.834,0,0,1-.641.234.821.821,0,0,1-.637-.234A.834.834,0,0,1,28.031,28.3Zm5.242,2.242.047,1.063a3.08,3.08,0,0,1,2.531-1.219q2.68,0,2.7,3.023V39H37.109V33.406a1.946,1.946,0,0,0-.418-1.352,1.675,1.675,0,0,0-1.277-.437,2.086,2.086,0,0,0-1.234.375,2.546,2.546,0,0,0-.828.984V39H31.906V30.547Zm10.852,7.43a2.082,2.082,0,0,0,1.352-.469,1.649,1.649,0,0,0,.641-1.172h1.367a2.621,2.621,0,0,1-.5,1.383,3.293,3.293,0,0,1-1.23,1.047,3.55,3.55,0,0,1-1.629.391A3.482,3.482,0,0,1,41.379,38a4.59,4.59,0,0,1-1.02-3.152v-.242a5.089,5.089,0,0,1,.453-2.2,3.451,3.451,0,0,1,1.3-1.492,3.7,3.7,0,0,1,2-.531,3.39,3.39,0,0,1,2.363.852,3.043,3.043,0,0,1,1,2.211H46.117a1.992,1.992,0,0,0-.621-1.348,1.932,1.932,0,0,0-1.379-.527,2.023,2.023,0,0,0-1.707.793,3.724,3.724,0,0,0-.605,2.293v.273a3.65,3.65,0,0,0,.6,2.25A2.033,2.033,0,0,0,44.125,37.977ZM50.68,39H49.234V30.547H50.68ZM49.117,28.3a.863.863,0,0,1,.215-.594.807.807,0,0,1,.637-.242.819.819,0,0,1,.641.242.854.854,0,0,1,.219.594.826.826,0,0,1-.219.586.834.834,0,0,1-.641.234.821.821,0,0,1-.637-.234A.834.834,0,0,1,49.117,28.3Zm11.016,6.563a5.062,5.062,0,0,1-.883,3.109,2.829,2.829,0,0,1-2.391,1.18,3.1,3.1,0,0,1-2.422-.977v4.07H52.992v-11.7h1.32l.07.938a2.977,2.977,0,0,1,2.453-1.094,2.882,2.882,0,0,1,2.41,1.148,5.117,5.117,0,0,1,.887,3.2ZM58.688,34.7a3.735,3.735,0,0,0-.609-2.258,1.963,1.963,0,0,0-1.672-.828,2.125,2.125,0,0,0-1.969,1.164V36.82a2.129,2.129,0,0,0,1.984,1.156,1.954,1.954,0,0,0,1.652-.824A4.077,4.077,0,0,0,58.688,34.7Zm8.5,4.3a3.036,3.036,0,0,1-.2-.891,3.225,3.225,0,0,1-2.406,1.047,2.984,2.984,0,0,1-2.051-.707,2.287,2.287,0,0,1-.8-1.793,2.39,2.39,0,0,1,1-2.051,4.733,4.733,0,0,1,2.824-.73h1.406v-.664A1.623,1.623,0,0,0,66.508,32a1.821,1.821,0,0,0-1.336-.449,2.108,2.108,0,0,0-1.3.391,1.151,1.151,0,0,0-.523.945H61.9a2,2,0,0,1,.449-1.223,3.066,3.066,0,0,1,1.219-.934,4.1,4.1,0,0,1,1.691-.344,3.342,3.342,0,0,1,2.289.73,2.635,2.635,0,0,1,.859,2.012v3.891a4.757,4.757,0,0,0,.3,1.852V39Zm-2.4-1.1a2.54,2.54,0,0,0,1.289-.352,2.127,2.127,0,0,0,.883-.914V34.9H65.828q-2.656,0-2.656,1.555a1.316,1.316,0,0,0,.453,1.063A1.742,1.742,0,0,0,64.789,37.9ZM72.242,39H70.8V27h1.445Z" transform="translate(-9207 -4134)" fill="#12263f"/>
    <path id="Trazado_839146" data-name="Trazado 839146" d="M12.867,10.547V15h-1.5V3.625h4.2a4.215,4.215,0,0,1,2.926.953A3.231,3.231,0,0,1,19.547,7.1a3.189,3.189,0,0,1-1.035,2.551,4.4,4.4,0,0,1-2.965.895Zm0-1.227h2.7a2.7,2.7,0,0,0,1.844-.567,2.075,2.075,0,0,0,.641-1.64,2.143,2.143,0,0,0-.641-1.628,2.525,2.525,0,0,0-1.758-.634H12.867ZM25.32,7.844a4.331,4.331,0,0,0-.711-.055A1.9,1.9,0,0,0,22.68,9v6H21.234V6.547h1.406l.023.977A2.251,2.251,0,0,1,24.68,6.391a1.477,1.477,0,0,1,.641.109Zm.789,2.852A4.993,4.993,0,0,1,26.6,8.461,3.643,3.643,0,0,1,27.957,6.93a3.7,3.7,0,0,1,1.988-.539,3.565,3.565,0,0,1,2.793,1.2,4.6,4.6,0,0,1,1.066,3.18v.1a5.036,5.036,0,0,1-.473,2.215,3.589,3.589,0,0,1-1.352,1.527,3.743,3.743,0,0,1-2.02.547,3.556,3.556,0,0,1-2.785-1.2A4.575,4.575,0,0,1,26.109,10.8Zm1.453.172a3.616,3.616,0,0,0,.652,2.258,2.211,2.211,0,0,0,3.5-.012,3.955,3.955,0,0,0,.648-2.418,3.61,3.61,0,0,0-.66-2.254,2.1,2.1,0,0,0-1.754-.863,2.075,2.075,0,0,0-1.727.852A3.925,3.925,0,0,0,27.563,10.867Zm15.2,0a5.062,5.062,0,0,1-.883,3.109,2.829,2.829,0,0,1-2.391,1.18,3.1,3.1,0,0,1-2.422-.977v4.07H35.617V6.547h1.32l.07.938a2.977,2.977,0,0,1,2.453-1.094,2.882,2.882,0,0,1,2.41,1.148,5.117,5.117,0,0,1,.887,3.2ZM41.313,10.7A3.735,3.735,0,0,0,40.7,8.445a1.963,1.963,0,0,0-1.672-.828,2.125,2.125,0,0,0-1.969,1.164V12.82a2.129,2.129,0,0,0,1.984,1.156,1.954,1.954,0,0,0,1.652-.824A4.077,4.077,0,0,0,41.313,10.7Zm2.9-.008A4.993,4.993,0,0,1,44.7,8.461,3.643,3.643,0,0,1,46.059,6.93a3.7,3.7,0,0,1,1.988-.539,3.565,3.565,0,0,1,2.793,1.2,4.6,4.6,0,0,1,1.066,3.18v.1a5.036,5.036,0,0,1-.473,2.215,3.589,3.589,0,0,1-1.352,1.527,3.743,3.743,0,0,1-2.02.547,3.556,3.556,0,0,1-2.785-1.2A4.575,4.575,0,0,1,44.211,10.8Zm1.453.172a3.616,3.616,0,0,0,.652,2.258,2.211,2.211,0,0,0,3.5-.012,3.955,3.955,0,0,0,.648-2.418,3.61,3.61,0,0,0-.66-2.254,2.1,2.1,0,0,0-1.754-.863,2.075,2.075,0,0,0-1.727.852A3.925,3.925,0,0,0,45.664,10.867ZM48.7,3h1.75L48.359,5.3l-1.164,0Zm9.938,9.758a1.064,1.064,0,0,0-.441-.91,4.249,4.249,0,0,0-1.539-.559,7.277,7.277,0,0,1-1.742-.562,2.479,2.479,0,0,1-.953-.781,1.869,1.869,0,0,1-.309-1.078,2.193,2.193,0,0,1,.879-1.758,3.432,3.432,0,0,1,2.246-.719,3.532,3.532,0,0,1,2.332.742,2.357,2.357,0,0,1,.895,1.9H58.555a1.3,1.3,0,0,0-.5-1.023,1.888,1.888,0,0,0-1.27-.43,1.976,1.976,0,0,0-1.234.344,1.082,1.082,0,0,0-.445.9.877.877,0,0,0,.414.789,5.1,5.1,0,0,0,1.5.508,7.8,7.8,0,0,1,1.754.578,2.558,2.558,0,0,1,1,.809,1.988,1.988,0,0,1,.324,1.152,2.163,2.163,0,0,1-.906,1.816,3.8,3.8,0,0,1-2.352.684,4.257,4.257,0,0,1-1.8-.359,2.922,2.922,0,0,1-1.223-1,2.42,2.42,0,0,1-.441-1.395h1.445a1.5,1.5,0,0,0,.582,1.152,2.258,2.258,0,0,0,1.434.426,2.331,2.331,0,0,0,1.316-.332A1.02,1.02,0,0,0,58.641,12.758ZM63.539,15H62.094V6.547h1.445ZM61.977,4.3a.863.863,0,0,1,.215-.594.807.807,0,0,1,.637-.242.819.819,0,0,1,.641.242.854.854,0,0,1,.219.594.826.826,0,0,1-.219.586.834.834,0,0,1-.641.234.821.821,0,0,1-.637-.234A.834.834,0,0,1,61.977,4.3Zm5.836.2V6.547h1.578V7.664H67.813v5.249a1.173,1.173,0,0,0,.211.763.888.888,0,0,0,.719.254,3.5,3.5,0,0,0,.688-.094V15a4.215,4.215,0,0,1-1.109.155,1.8,1.8,0,0,1-1.461-.586,2.517,2.517,0,0,1-.492-1.664V7.664H64.828V6.547h1.539V4.5Zm2.727,6.2a4.993,4.993,0,0,1,.488-2.234A3.643,3.643,0,0,1,72.387,6.93a3.7,3.7,0,0,1,1.988-.539,3.565,3.565,0,0,1,2.793,1.2,4.6,4.6,0,0,1,1.066,3.18v.1a5.036,5.036,0,0,1-.473,2.215,3.589,3.589,0,0,1-1.352,1.527,3.743,3.743,0,0,1-2.02.547,3.556,3.556,0,0,1-2.785-1.2A4.575,4.575,0,0,1,70.539,10.8Zm1.453.172a3.616,3.616,0,0,0,.652,2.258,2.211,2.211,0,0,0,3.5-.012,3.955,3.955,0,0,0,.648-2.418,3.61,3.61,0,0,0-.66-2.254,2.1,2.1,0,0,0-1.754-.863,2.075,2.075,0,0,0-1.727.852A3.925,3.925,0,0,0,71.992,10.867Z" transform="translate(-9065 -4122)" fill="#12263f"/>
    <path id="Trazado_839147" data-name="Trazado 839147" d="M13.5,9.68a7.037,7.037,0,0,1-.562,2.918,4.261,4.261,0,0,1-1.594,1.9,4.385,4.385,0,0,1-2.406.656,4.244,4.244,0,0,1-4-2.543,6.752,6.752,0,0,1-.59-2.832v-.82a6.953,6.953,0,0,1,.57-2.9,4.218,4.218,0,0,1,4-2.594,4.41,4.41,0,0,1,2.41.66,4.253,4.253,0,0,1,1.605,1.914A7.071,7.071,0,0,1,13.5,8.961Zm-1.492-.734A5.1,5.1,0,0,0,11.2,5.84,2.68,2.68,0,0,0,8.922,4.758,2.651,2.651,0,0,0,6.684,5.84a5,5,0,0,0-.84,3V9.68a5.107,5.107,0,0,0,.824,3.082,2.662,2.662,0,0,0,2.27,1.121,2.652,2.652,0,0,0,2.25-1.059,5.079,5.079,0,0,0,.82-3.035ZM22.68,10.867a5.026,5.026,0,0,1-.891,3.113A2.846,2.846,0,0,1,19.4,15.156a2.947,2.947,0,0,1-2.477-1.133l-.07.977H15.523V3h1.445V7.477a2.93,2.93,0,0,1,2.414-1.086A2.863,2.863,0,0,1,21.8,7.555a5.177,5.177,0,0,1,.879,3.188ZM21.234,10.7a3.906,3.906,0,0,0-.57-2.281,1.888,1.888,0,0,0-1.641-.8,2.122,2.122,0,0,0-2.055,1.328V12.6a2.181,2.181,0,0,0,2.07,1.328,1.878,1.878,0,0,0,1.617-.8A4.153,4.153,0,0,0,21.234,10.7Zm4.758-4.156v9.43q0,2.438-2.211,2.438a2.7,2.7,0,0,1-.883-.14V17.125a2.794,2.794,0,0,0,.656.063.982.982,0,0,0,.738-.262,1.3,1.3,0,0,0,.254-.911V6.547ZM24.4,4.3a.867.867,0,0,1,.215-.59.79.79,0,0,1,.629-.246.819.819,0,0,1,.641.242A.854.854,0,0,1,26.1,4.3a.826.826,0,0,1-.219.586.834.834,0,0,1-.641.234.808.808,0,0,1-.633-.234A.843.843,0,0,1,24.4,4.3Zm7.43,10.852a3.693,3.693,0,0,1-2.8-1.129,4.19,4.19,0,0,1-1.078-3.02v-.266a5.073,5.073,0,0,1,.48-2.246,3.748,3.748,0,0,1,1.344-1.547,3.378,3.378,0,0,1,1.871-.559,3.166,3.166,0,0,1,2.563,1.086,4.7,4.7,0,0,1,.914,3.109v.6H29.4a3,3,0,0,0,.73,2.02,2.3,2.3,0,0,0,1.777.77,2.517,2.517,0,0,0,1.3-.312,3.259,3.259,0,0,0,.93-.828l.883.688A3.55,3.55,0,0,1,31.828,15.156Zm-.18-7.578a1.928,1.928,0,0,0-1.469.637A3.1,3.1,0,0,0,29.445,10H33.68V9.891a2.753,2.753,0,0,0-.594-1.707A1.815,1.815,0,0,0,31.648,7.578ZM38.758,4.5V6.547h1.578V7.664H38.758v5.249a1.173,1.173,0,0,0,.211.763.888.888,0,0,0,.719.254,3.5,3.5,0,0,0,.688-.094V15a4.215,4.215,0,0,1-1.109.155A1.8,1.8,0,0,1,37.8,14.57a2.517,2.517,0,0,1-.492-1.664V7.664H35.773V6.547h1.539V4.5ZM43.594,15H42.148V6.547h1.445ZM42.031,4.3a.863.863,0,0,1,.215-.594.807.807,0,0,1,.637-.242.819.819,0,0,1,.641.242.854.854,0,0,1,.219.594.826.826,0,0,1-.219.586.834.834,0,0,1-.641.234.821.821,0,0,1-.637-.234A.834.834,0,0,1,42.031,4.3ZM48.7,13.039l2.094-6.492h1.477L49.234,15h-1.1L45.07,6.547h1.477ZM53.156,10.7a4.993,4.993,0,0,1,.488-2.234A3.643,3.643,0,0,1,55,6.93a3.7,3.7,0,0,1,1.988-.539,3.565,3.565,0,0,1,2.793,1.2,4.6,4.6,0,0,1,1.066,3.18v.1a5.036,5.036,0,0,1-.473,2.215,3.589,3.589,0,0,1-1.352,1.527,3.743,3.743,0,0,1-2.02.547,3.556,3.556,0,0,1-2.785-1.2A4.575,4.575,0,0,1,53.156,10.8Zm1.453.172a3.616,3.616,0,0,0,.652,2.258,2.211,2.211,0,0,0,3.5-.012,3.955,3.955,0,0,0,.648-2.418,3.61,3.61,0,0,0-.66-2.254,2.1,2.1,0,0,0-1.754-.863,2.075,2.075,0,0,0-1.727.852A3.925,3.925,0,0,0,54.609,10.867ZM7.027,34.7a4.968,4.968,0,0,1,.914-3.145,2.923,2.923,0,0,1,2.422-1.168,2.908,2.908,0,0,1,2.414,1.094l.07-.937h1.32V38.8a3.439,3.439,0,0,1-.973,2.586,3.589,3.589,0,0,1-2.613.945,4.348,4.348,0,0,1-1.789-.391,3.08,3.08,0,0,1-1.336-1.07L8.207,40a2.826,2.826,0,0,0,2.273,1.148,2.214,2.214,0,0,0,1.645-.594,2.269,2.269,0,0,0,.59-1.672v-.727a2.971,2.971,0,0,1-2.367,1,2.887,2.887,0,0,1-2.4-1.2A5.224,5.224,0,0,1,7.027,34.7Zm1.453.164a3.79,3.79,0,0,0,.586,2.246,1.9,1.9,0,0,0,1.641.816,2.117,2.117,0,0,0,2.008-1.242V32.828a2.142,2.142,0,0,0-1.992-1.211,1.921,1.921,0,0,0-1.648.82A4.128,4.128,0,0,0,8.48,34.867Zm11.375,4.289a3.693,3.693,0,0,1-2.8-1.129,4.19,4.19,0,0,1-1.078-3.02v-.266a5.073,5.073,0,0,1,.48-2.246A3.748,3.748,0,0,1,17.8,30.949a3.378,3.378,0,0,1,1.871-.559,3.166,3.166,0,0,1,2.563,1.086,4.7,4.7,0,0,1,.914,3.109v.6H17.426a3,3,0,0,0,.73,2.02,2.3,2.3,0,0,0,1.777.77,2.517,2.517,0,0,0,1.3-.312,3.259,3.259,0,0,0,.93-.828l.883.688A3.55,3.55,0,0,1,19.855,39.156Zm-.18-7.578a1.928,1.928,0,0,0-1.469.637A3.1,3.1,0,0,0,17.473,34h4.234v-.109a2.753,2.753,0,0,0-.594-1.707A1.815,1.815,0,0,0,19.676,31.578Zm6.516-1.031.047,1.063a3.08,3.08,0,0,1,2.531-1.219q2.68,0,2.7,3.023V39H30.027V33.406a1.946,1.946,0,0,0-.418-1.352,1.675,1.675,0,0,0-1.277-.437,2.086,2.086,0,0,0-1.234.375,2.546,2.546,0,0,0-.828.984V39H24.824V30.547ZM37.16,39.156a3.693,3.693,0,0,1-2.8-1.129,4.19,4.19,0,0,1-1.078-3.02v-.266a5.073,5.073,0,0,1,.48-2.246,3.748,3.748,0,0,1,1.344-1.547,3.378,3.378,0,0,1,1.871-.559,3.166,3.166,0,0,1,2.563,1.086,4.7,4.7,0,0,1,.914,3.109v.6H34.73a3,3,0,0,0,.73,2.02,2.3,2.3,0,0,0,1.777.77,2.517,2.517,0,0,0,1.3-.312,3.258,3.258,0,0,0,.93-.828l.883.688A3.55,3.55,0,0,1,37.16,39.156Zm-.18-7.578a1.928,1.928,0,0,0-1.469.637A3.1,3.1,0,0,0,34.777,34h4.234v-.109a2.753,2.753,0,0,0-.594-1.707A1.815,1.815,0,0,0,36.98,31.578Zm9.234.266a4.331,4.331,0,0,0-.711-.055A1.9,1.9,0,0,0,43.574,33v6H42.129V30.547h1.406l.023.977a2.251,2.251,0,0,1,2.016-1.133,1.477,1.477,0,0,1,.641.109ZM52.449,39a3.036,3.036,0,0,1-.2-.891,3.225,3.225,0,0,1-2.406,1.047,2.984,2.984,0,0,1-2.051-.707,2.287,2.287,0,0,1-.8-1.793,2.39,2.39,0,0,1,1-2.051,4.733,4.733,0,0,1,2.824-.73h1.406v-.664A1.623,1.623,0,0,0,51.77,32a1.821,1.821,0,0,0-1.336-.449,2.107,2.107,0,0,0-1.3.391,1.151,1.151,0,0,0-.523.945H47.16a2,2,0,0,1,.449-1.223,3.066,3.066,0,0,1,1.219-.934,4.1,4.1,0,0,1,1.691-.344,3.342,3.342,0,0,1,2.289.73,2.635,2.635,0,0,1,.859,2.012v3.891a4.757,4.757,0,0,0,.3,1.852V39Zm-2.4-1.1a2.54,2.54,0,0,0,1.289-.352,2.127,2.127,0,0,0,.883-.914V34.9H51.09q-2.656,0-2.656,1.555a1.316,1.316,0,0,0,.453,1.063A1.742,1.742,0,0,0,50.051,37.9ZM57.5,39H56.059V27H57.5Z" transform="translate(-8909 -4134)" fill="#12263f"/>
    <path id="Trazado_839150" data-name="Trazado 839150" d="M17.242,11.391a4.185,4.185,0,0,1-1.332,2.785,4.365,4.365,0,0,1-2.98.98A4.008,4.008,0,0,1,9.7,13.711,5.815,5.815,0,0,1,8.484,9.844V8.75a6.481,6.481,0,0,1,.566-2.789,4.231,4.231,0,0,1,1.605-1.848,4.47,4.47,0,0,1,2.406-.645A4.11,4.11,0,0,1,15.969,4.48a4.235,4.235,0,0,1,1.273,2.8H15.734a3.268,3.268,0,0,0-.848-1.975A2.565,2.565,0,0,0,13.063,4.7a2.684,2.684,0,0,0-2.254,1.063,4.882,4.882,0,0,0-.816,3.026v1.1a5.018,5.018,0,0,0,.773,2.948A2.5,2.5,0,0,0,12.93,13.93a2.886,2.886,0,0,0,1.918-.566,3.143,3.143,0,0,0,.887-1.973ZM24.281,15a3.036,3.036,0,0,1-.2-.891,3.225,3.225,0,0,1-2.406,1.047,2.984,2.984,0,0,1-2.051-.707,2.287,2.287,0,0,1-.8-1.793,2.39,2.39,0,0,1,1-2.051,4.733,4.733,0,0,1,2.824-.73h1.406V9.211A1.623,1.623,0,0,0,23.6,8a1.821,1.821,0,0,0-1.336-.449,2.108,2.108,0,0,0-1.3.391,1.151,1.151,0,0,0-.523.945H18.992a2,2,0,0,1,.449-1.223,3.066,3.066,0,0,1,1.219-.934,4.1,4.1,0,0,1,1.691-.344,3.342,3.342,0,0,1,2.289.73A2.635,2.635,0,0,1,25.5,9.133v3.891a4.757,4.757,0,0,0,.3,1.852V15Zm-2.4-1.1a2.54,2.54,0,0,0,1.289-.352,2.127,2.127,0,0,0,.883-.914V10.9H22.922q-2.656,0-2.656,1.555a1.316,1.316,0,0,0,.453,1.063A1.742,1.742,0,0,0,21.883,13.9Zm11.1.266a3.07,3.07,0,0,1-2.477.992,2.628,2.628,0,0,1-2.059-.785,3.4,3.4,0,0,1-.715-2.324v-5.5H29.18v5.461q0,1.922,1.563,1.922a2.163,2.163,0,0,0,2.2-1.234V6.547h1.445V15H33.016Zm8.523-1.406a1.064,1.064,0,0,0-.441-.91,4.249,4.249,0,0,0-1.539-.559,7.277,7.277,0,0,1-1.742-.562,2.479,2.479,0,0,1-.953-.781,1.869,1.869,0,0,1-.309-1.078A2.193,2.193,0,0,1,37.4,7.109a3.432,3.432,0,0,1,2.246-.719,3.532,3.532,0,0,1,2.332.742,2.357,2.357,0,0,1,.895,1.9H41.422a1.3,1.3,0,0,0-.5-1.023,1.888,1.888,0,0,0-1.27-.43,1.976,1.976,0,0,0-1.234.344,1.082,1.082,0,0,0-.445.9.877.877,0,0,0,.414.789,5.1,5.1,0,0,0,1.5.508,7.8,7.8,0,0,1,1.754.578,2.558,2.558,0,0,1,1,.809,1.988,1.988,0,0,1,.324,1.152,2.163,2.163,0,0,1-.906,1.816,3.8,3.8,0,0,1-2.352.684,4.257,4.257,0,0,1-1.8-.359,2.922,2.922,0,0,1-1.223-1,2.42,2.42,0,0,1-.441-1.395H37.68a1.5,1.5,0,0,0,.582,1.152,2.258,2.258,0,0,0,1.434.426,2.331,2.331,0,0,0,1.316-.332A1.02,1.02,0,0,0,41.508,12.758ZM50.055,15a3.036,3.036,0,0,1-.2-.891,3.225,3.225,0,0,1-2.406,1.047,2.984,2.984,0,0,1-2.051-.707,2.287,2.287,0,0,1-.8-1.793,2.39,2.39,0,0,1,1-2.051,4.733,4.733,0,0,1,2.824-.73h1.406V9.211A1.623,1.623,0,0,0,49.375,8a1.821,1.821,0,0,0-1.336-.449,2.107,2.107,0,0,0-1.3.391,1.151,1.151,0,0,0-.523.945H44.766a2,2,0,0,1,.449-1.223,3.066,3.066,0,0,1,1.219-.934,4.1,4.1,0,0,1,1.691-.344,3.342,3.342,0,0,1,2.289.73,2.635,2.635,0,0,1,.859,2.012v3.891a4.757,4.757,0,0,0,.3,1.852V15Zm-2.4-1.1a2.54,2.54,0,0,0,1.289-.352,2.127,2.127,0,0,0,.883-.914V10.9H48.7q-2.656,0-2.656,1.555a1.316,1.316,0,0,0,.453,1.063A1.742,1.742,0,0,0,47.656,13.9ZM9.629,30.547l.047,1.063a3.08,3.08,0,0,1,2.531-1.219q2.68,0,2.7,3.023V39H13.465V33.406a1.946,1.946,0,0,0-.418-1.352,1.675,1.675,0,0,0-1.277-.437,2.086,2.086,0,0,0-1.234.375,2.546,2.546,0,0,0-.828.984V39H8.262V30.547ZM18.66,39H17.215V30.547H18.66ZM17.1,28.3a.863.863,0,0,1,.215-.594.807.807,0,0,1,.637-.242.819.819,0,0,1,.641.242.854.854,0,0,1,.219.594.826.826,0,0,1-.219.586.834.834,0,0,1-.641.234.821.821,0,0,1-.637-.234A.834.834,0,0,1,17.1,28.3Zm6.664,8.734,2.094-6.492h1.477L24.3,39H23.2l-3.062-8.453h1.477Zm8.367,2.117a3.693,3.693,0,0,1-2.8-1.129,4.19,4.19,0,0,1-1.078-3.02v-.266a5.073,5.073,0,0,1,.48-2.246,3.748,3.748,0,0,1,1.344-1.547,3.378,3.378,0,0,1,1.871-.559,3.166,3.166,0,0,1,2.563,1.086,4.7,4.7,0,0,1,.914,3.109v.6H29.7a3,3,0,0,0,.73,2.02,2.3,2.3,0,0,0,1.777.77,2.517,2.517,0,0,0,1.3-.312,3.258,3.258,0,0,0,.93-.828l.883.688A3.55,3.55,0,0,1,32.129,39.156Zm-.18-7.578a1.928,1.928,0,0,0-1.469.637A3.1,3.1,0,0,0,29.746,34H33.98v-.109a2.753,2.753,0,0,0-.594-1.707A1.815,1.815,0,0,0,31.949,31.578ZM38.668,39H37.223V27h1.445Zm10.875,0H48.09V29.367l-2.914,1.07V29.125l4.141-1.555h.227Z" transform="translate(-9194 -4040)" fill="#12263f"/>
    <path id="Trazado_839149" data-name="Trazado 839149" d="M12.977,9.742H8.047v4.031h5.727V15H6.547V3.625H13.7V4.852H8.047V8.516h4.93ZM15.984,15V7.664H14.648V6.547h1.336V5.68a2.878,2.878,0,0,1,.727-2.1,2.745,2.745,0,0,1,2.055-.742,3.816,3.816,0,0,1,.992.132L19.68,4.133a4.151,4.151,0,0,0-.781-.07,1.41,1.41,0,0,0-1.086.411,1.669,1.669,0,0,0-.383,1.18v.893h1.8V7.664h-1.8V15Zm8.164.156a3.693,3.693,0,0,1-2.8-1.129,4.19,4.19,0,0,1-1.078-3.02v-.266a5.073,5.073,0,0,1,.48-2.246A3.748,3.748,0,0,1,22.1,6.949a3.378,3.378,0,0,1,1.871-.559,3.166,3.166,0,0,1,2.563,1.086,4.7,4.7,0,0,1,.914,3.109v.6H21.719a3,3,0,0,0,.73,2.02,2.3,2.3,0,0,0,1.777.77,2.517,2.517,0,0,0,1.3-.312,3.259,3.259,0,0,0,.93-.828l.883.688A3.55,3.55,0,0,1,24.148,15.156Zm-.18-7.578a1.928,1.928,0,0,0-1.469.637A3.1,3.1,0,0,0,21.766,10H26V9.891a2.753,2.753,0,0,0-.594-1.707A1.815,1.815,0,0,0,23.969,7.578Zm8.539,6.4a2.082,2.082,0,0,0,1.352-.469,1.649,1.649,0,0,0,.641-1.172h1.367a2.621,2.621,0,0,1-.5,1.383,3.293,3.293,0,0,1-1.23,1.047,3.55,3.55,0,0,1-1.629.391A3.482,3.482,0,0,1,29.762,14a4.59,4.59,0,0,1-1.02-3.152v-.242a5.089,5.089,0,0,1,.453-2.2,3.451,3.451,0,0,1,1.3-1.492,3.7,3.7,0,0,1,2-.531,3.39,3.39,0,0,1,2.363.852,3.043,3.043,0,0,1,1,2.211H34.5a1.992,1.992,0,0,0-.621-1.348A1.932,1.932,0,0,0,32.5,7.578a2.023,2.023,0,0,0-1.707.793,3.724,3.724,0,0,0-.605,2.293v.273a3.65,3.65,0,0,0,.6,2.25A2.033,2.033,0,0,0,32.508,13.977ZM39.453,4.5V6.547h1.578V7.664H39.453v5.249a1.173,1.173,0,0,0,.211.763.888.888,0,0,0,.719.254,3.5,3.5,0,0,0,.688-.094V15a4.215,4.215,0,0,1-1.109.155A1.8,1.8,0,0,1,38.5,14.57a2.517,2.517,0,0,1-.492-1.664V7.664H36.469V6.547h1.539V4.5Zm2.727,6.2a4.993,4.993,0,0,1,.488-2.234A3.643,3.643,0,0,1,44.027,6.93a3.7,3.7,0,0,1,1.988-.539,3.565,3.565,0,0,1,2.793,1.2,4.6,4.6,0,0,1,1.066,3.18v.1a5.036,5.036,0,0,1-.473,2.215,3.589,3.589,0,0,1-1.352,1.527,3.743,3.743,0,0,1-2.02.547,3.556,3.556,0,0,1-2.785-1.2A4.575,4.575,0,0,1,42.18,10.8Zm1.453.172a3.616,3.616,0,0,0,.652,2.258,2.211,2.211,0,0,0,3.5-.012A3.955,3.955,0,0,0,48.43,10.7a3.61,3.61,0,0,0-.66-2.254,2.1,2.1,0,0,0-1.754-.863,2.075,2.075,0,0,0-1.727.852A3.925,3.925,0,0,0,43.633,10.867ZM55.3,10.7a4.952,4.952,0,0,1,.922-3.129,3.137,3.137,0,0,1,4.766-.168V3H62.43V15H61.1l-.07-.906a2.943,2.943,0,0,1-2.414,1.063,2.887,2.887,0,0,1-2.395-1.2,5.008,5.008,0,0,1-.926-3.141Zm1.445.164a3.749,3.749,0,0,0,.594,2.25,1.92,1.92,0,0,0,1.641.813A2.108,2.108,0,0,0,60.984,12.7V8.813a2.125,2.125,0,0,0-1.992-1.2,1.929,1.929,0,0,0-1.656.82A4.128,4.128,0,0,0,56.742,10.867ZM66.242,15H64.8V6.547h1.445ZM64.68,4.3a.863.863,0,0,1,.215-.594.807.807,0,0,1,.637-.242.819.819,0,0,1,.641.242.854.854,0,0,1,.219.594.826.826,0,0,1-.219.586.834.834,0,0,1-.641.234.821.821,0,0,1-.637-.234A.834.834,0,0,1,64.68,4.3Zm7.961,3.539a4.331,4.331,0,0,0-.711-.055A1.9,1.9,0,0,0,70,9v6H68.555V6.547h1.406l.023.977A2.251,2.251,0,0,1,72,6.391a1.477,1.477,0,0,1,.641.109Zm4.688,7.313a3.693,3.693,0,0,1-2.8-1.129,4.19,4.19,0,0,1-1.078-3.02v-.266a5.073,5.073,0,0,1,.48-2.246,3.748,3.748,0,0,1,1.344-1.547,3.378,3.378,0,0,1,1.871-.559,3.166,3.166,0,0,1,2.563,1.086,4.7,4.7,0,0,1,.914,3.109v.6H74.9a3,3,0,0,0,.73,2.02,2.3,2.3,0,0,0,1.777.77,2.517,2.517,0,0,0,1.3-.312,3.259,3.259,0,0,0,.93-.828l.883.688A3.55,3.55,0,0,1,77.328,15.156Zm-.18-7.578a1.928,1.928,0,0,0-1.469.637A3.1,3.1,0,0,0,74.945,10H79.18V9.891a2.753,2.753,0,0,0-.594-1.707A1.815,1.815,0,0,0,77.148,7.578Zm8.539,6.4a2.082,2.082,0,0,0,1.352-.469,1.649,1.649,0,0,0,.641-1.172h1.367a2.621,2.621,0,0,1-.5,1.383,3.293,3.293,0,0,1-1.23,1.047,3.55,3.55,0,0,1-1.629.391A3.482,3.482,0,0,1,82.941,14a4.59,4.59,0,0,1-1.02-3.152v-.242a5.089,5.089,0,0,1,.453-2.2,3.451,3.451,0,0,1,1.3-1.492,3.7,3.7,0,0,1,2-.531,3.39,3.39,0,0,1,2.363.852,3.043,3.043,0,0,1,1,2.211H87.68a1.992,1.992,0,0,0-.621-1.348,1.932,1.932,0,0,0-1.379-.527,2.023,2.023,0,0,0-1.707.793,3.724,3.724,0,0,0-.605,2.293v.273a3.65,3.65,0,0,0,.6,2.25A2.033,2.033,0,0,0,85.688,13.977ZM92.633,4.5V6.547h1.578V7.664H92.633v5.249a1.173,1.173,0,0,0,.211.763.888.888,0,0,0,.719.254,3.5,3.5,0,0,0,.688-.094V15a4.215,4.215,0,0,1-1.109.155,1.8,1.8,0,0,1-1.461-.586,2.517,2.517,0,0,1-.492-1.664V7.664H89.648V6.547h1.539V4.5Zm2.727,6.2a4.993,4.993,0,0,1,.488-2.234A3.643,3.643,0,0,1,97.207,6.93,3.7,3.7,0,0,1,99.2,6.391a3.565,3.565,0,0,1,2.793,1.2,4.6,4.6,0,0,1,1.066,3.18v.1a5.036,5.036,0,0,1-.473,2.215,3.589,3.589,0,0,1-1.352,1.527,3.743,3.743,0,0,1-2.02.547,3.556,3.556,0,0,1-2.785-1.2A4.575,4.575,0,0,1,95.359,10.8Zm1.453.172a3.616,3.616,0,0,0,.652,2.258,2.211,2.211,0,0,0,3.5-.012,3.955,3.955,0,0,0,.648-2.418,3.61,3.61,0,0,0-.66-2.254A2.1,2.1,0,0,0,99.2,7.578a2.075,2.075,0,0,0-1.727.852A3.925,3.925,0,0,0,96.813,10.867Z" transform="translate(-9075 -4029)" fill="#12263f"/>
    <path id="Trazado_839148" data-name="Trazado 839148" d="M4.477,10.547V15h-1.5V3.625h4.2a4.215,4.215,0,0,1,2.926.953A3.231,3.231,0,0,1,11.156,7.1a3.189,3.189,0,0,1-1.035,2.551,4.4,4.4,0,0,1-2.965.895Zm0-1.227h2.7a2.7,2.7,0,0,0,1.844-.567,2.075,2.075,0,0,0,.641-1.64,2.143,2.143,0,0,0-.641-1.628,2.525,2.525,0,0,0-1.758-.634H4.477ZM16.93,7.844a4.331,4.331,0,0,0-.711-.055A1.9,1.9,0,0,0,14.289,9v6H12.844V6.547H14.25l.023.977a2.251,2.251,0,0,1,2.016-1.133,1.477,1.477,0,0,1,.641.109Zm.789,2.852a4.993,4.993,0,0,1,.488-2.234A3.643,3.643,0,0,1,19.566,6.93a3.7,3.7,0,0,1,1.988-.539,3.565,3.565,0,0,1,2.793,1.2,4.6,4.6,0,0,1,1.066,3.18v.1a5.036,5.036,0,0,1-.473,2.215,3.589,3.589,0,0,1-1.352,1.527,3.743,3.743,0,0,1-2.02.547,3.556,3.556,0,0,1-2.785-1.2A4.575,4.575,0,0,1,17.719,10.8Zm1.453.172a3.616,3.616,0,0,0,.652,2.258,2.211,2.211,0,0,0,3.5-.012,3.955,3.955,0,0,0,.648-2.418,3.61,3.61,0,0,0-.66-2.254,2.1,2.1,0,0,0-1.754-.863,2.075,2.075,0,0,0-1.727.852A3.925,3.925,0,0,0,19.172,10.867Zm15.2,0a5.062,5.062,0,0,1-.883,3.109,2.829,2.829,0,0,1-2.391,1.18,3.1,3.1,0,0,1-2.422-.977v4.07H27.227V6.547h1.32l.07.938A2.977,2.977,0,0,1,31.07,6.391a2.882,2.882,0,0,1,2.41,1.148,5.117,5.117,0,0,1,.887,3.2ZM32.922,10.7a3.735,3.735,0,0,0-.609-2.258,1.963,1.963,0,0,0-1.672-.828,2.125,2.125,0,0,0-1.969,1.164V12.82a2.129,2.129,0,0,0,1.984,1.156,1.954,1.954,0,0,0,1.652-.824A4.077,4.077,0,0,0,32.922,10.7Zm2.9-.008a4.993,4.993,0,0,1,.488-2.234A3.643,3.643,0,0,1,37.668,6.93a3.7,3.7,0,0,1,1.988-.539,3.565,3.565,0,0,1,2.793,1.2,4.6,4.6,0,0,1,1.066,3.18v.1a5.036,5.036,0,0,1-.473,2.215,3.589,3.589,0,0,1-1.352,1.527,3.743,3.743,0,0,1-2.02.547,3.556,3.556,0,0,1-2.785-1.2A4.575,4.575,0,0,1,35.82,10.8Zm1.453.172a3.616,3.616,0,0,0,.652,2.258,2.211,2.211,0,0,0,3.5-.012A3.955,3.955,0,0,0,42.07,10.7a3.61,3.61,0,0,0-.66-2.254,2.1,2.1,0,0,0-1.754-.863,2.075,2.075,0,0,0-1.727.852A3.925,3.925,0,0,0,37.273,10.867ZM40.313,3h1.75L39.969,5.3l-1.164,0Zm9.938,9.758a1.064,1.064,0,0,0-.441-.91,4.249,4.249,0,0,0-1.539-.559,7.277,7.277,0,0,1-1.742-.562,2.479,2.479,0,0,1-.953-.781,1.869,1.869,0,0,1-.309-1.078,2.193,2.193,0,0,1,.879-1.758,3.432,3.432,0,0,1,2.246-.719,3.532,3.532,0,0,1,2.332.742,2.357,2.357,0,0,1,.895,1.9H50.164a1.3,1.3,0,0,0-.5-1.023,1.888,1.888,0,0,0-1.27-.43,1.976,1.976,0,0,0-1.234.344,1.082,1.082,0,0,0-.445.9.877.877,0,0,0,.414.789,5.1,5.1,0,0,0,1.5.508,7.8,7.8,0,0,1,1.754.578,2.558,2.558,0,0,1,1,.809,1.988,1.988,0,0,1,.324,1.152,2.163,2.163,0,0,1-.906,1.816,3.8,3.8,0,0,1-2.352.684,4.257,4.257,0,0,1-1.8-.359,2.922,2.922,0,0,1-1.223-1,2.42,2.42,0,0,1-.441-1.395h1.445A1.5,1.5,0,0,0,47,13.551a2.258,2.258,0,0,0,1.434.426,2.331,2.331,0,0,0,1.316-.332A1.02,1.02,0,0,0,50.25,12.758ZM55.148,15H53.7V6.547h1.445ZM53.586,4.3a.863.863,0,0,1,.215-.594.807.807,0,0,1,.637-.242.819.819,0,0,1,.641.242A.854.854,0,0,1,55.3,4.3a.826.826,0,0,1-.219.586.834.834,0,0,1-.641.234.821.821,0,0,1-.637-.234A.834.834,0,0,1,53.586,4.3Zm5.836.2V6.547H61V7.664H59.422v5.249a1.173,1.173,0,0,0,.211.763.888.888,0,0,0,.719.254,3.5,3.5,0,0,0,.688-.094V15a4.215,4.215,0,0,1-1.109.155,1.8,1.8,0,0,1-1.461-.586,2.517,2.517,0,0,1-.492-1.664V7.664H56.438V6.547h1.539V4.5Zm2.727,6.2a4.993,4.993,0,0,1,.488-2.234A3.643,3.643,0,0,1,64,6.93a3.7,3.7,0,0,1,1.988-.539,3.565,3.565,0,0,1,2.793,1.2,4.6,4.6,0,0,1,1.066,3.18v.1a5.036,5.036,0,0,1-.473,2.215,3.589,3.589,0,0,1-1.352,1.527,3.743,3.743,0,0,1-2.02.547,3.556,3.556,0,0,1-2.785-1.2A4.575,4.575,0,0,1,62.148,10.8Zm1.453.172a3.616,3.616,0,0,0,.652,2.258,2.211,2.211,0,0,0,3.5-.012A3.955,3.955,0,0,0,68.4,10.7a3.61,3.61,0,0,0-.66-2.254,2.1,2.1,0,0,0-1.754-.863,2.075,2.075,0,0,0-1.727.852A3.925,3.925,0,0,0,63.6,10.867Zm17.234,3.3a3.07,3.07,0,0,1-2.477.992,2.628,2.628,0,0,1-2.059-.785,3.4,3.4,0,0,1-.715-2.324v-5.5h1.445v5.461q0,1.922,1.563,1.922A2.163,2.163,0,0,0,80.8,12.7V6.547h1.445V15H80.867ZM10.953,34.7a4.993,4.993,0,0,1,.488-2.234A3.643,3.643,0,0,1,12.8,30.93a3.7,3.7,0,0,1,1.988-.539,3.565,3.565,0,0,1,2.793,1.2,4.6,4.6,0,0,1,1.066,3.18v.1a5.036,5.036,0,0,1-.473,2.215,3.589,3.589,0,0,1-1.352,1.527,3.743,3.743,0,0,1-2.02.547,3.556,3.556,0,0,1-2.785-1.2A4.575,4.575,0,0,1,10.953,34.8Zm1.453.172a3.616,3.616,0,0,0,.652,2.258,2.211,2.211,0,0,0,3.5-.012A3.955,3.955,0,0,0,17.2,34.7a3.61,3.61,0,0,0-.66-2.254,2.1,2.1,0,0,0-1.754-.863,2.075,2.075,0,0,0-1.727.852A3.925,3.925,0,0,0,12.406,34.867Zm15.211,0a5.026,5.026,0,0,1-.891,3.113,2.846,2.846,0,0,1-2.391,1.176,2.947,2.947,0,0,1-2.477-1.133l-.07.977H20.461V27h1.445v4.477a2.93,2.93,0,0,1,2.414-1.086,2.863,2.863,0,0,1,2.418,1.164,5.177,5.177,0,0,1,.879,3.188ZM26.172,34.7a3.906,3.906,0,0,0-.57-2.281,1.888,1.888,0,0,0-1.641-.8,2.122,2.122,0,0,0-2.055,1.328V36.6a2.181,2.181,0,0,0,2.07,1.328,1.878,1.878,0,0,0,1.617-.8A4.153,4.153,0,0,0,26.172,34.7Zm4.758-4.156v9.43q0,2.438-2.211,2.438a2.7,2.7,0,0,1-.883-.14V41.125a2.794,2.794,0,0,0,.656.063.982.982,0,0,0,.738-.262,1.3,1.3,0,0,0,.254-.911V30.547ZM29.336,28.3a.867.867,0,0,1,.215-.59.79.79,0,0,1,.629-.246.819.819,0,0,1,.641.242.854.854,0,0,1,.219.594.826.826,0,0,1-.219.586.834.834,0,0,1-.641.234.808.808,0,0,1-.633-.234A.843.843,0,0,1,29.336,28.3Zm7.43,10.852a3.693,3.693,0,0,1-2.8-1.129,4.19,4.19,0,0,1-1.078-3.02v-.266a5.073,5.073,0,0,1,.48-2.246,3.748,3.748,0,0,1,1.344-1.547,3.378,3.378,0,0,1,1.871-.559,3.166,3.166,0,0,1,2.563,1.086,4.7,4.7,0,0,1,.914,3.109v.6H34.336a3,3,0,0,0,.73,2.02,2.3,2.3,0,0,0,1.777.77,2.517,2.517,0,0,0,1.3-.312,3.258,3.258,0,0,0,.93-.828l.883.688A3.55,3.55,0,0,1,36.766,39.156Zm-.18-7.578a1.928,1.928,0,0,0-1.469.637A3.1,3.1,0,0,0,34.383,34h4.234v-.109a2.753,2.753,0,0,0-.594-1.707A1.815,1.815,0,0,0,36.586,31.578ZM43.7,28.5v2.047h1.578v1.117H43.7v5.249a1.173,1.173,0,0,0,.211.763.888.888,0,0,0,.719.254,3.5,3.5,0,0,0,.688-.094V39a4.215,4.215,0,0,1-1.109.155,1.8,1.8,0,0,1-1.461-.586,2.517,2.517,0,0,1-.492-1.664V31.664H40.711V30.547H42.25V28.5ZM48.531,39H47.086V30.547h1.445ZM46.969,28.3a.863.863,0,0,1,.215-.594.807.807,0,0,1,.637-.242.819.819,0,0,1,.641.242.854.854,0,0,1,.219.594.826.826,0,0,1-.219.586.834.834,0,0,1-.641.234.821.821,0,0,1-.637-.234A.834.834,0,0,1,46.969,28.3Zm6.664,8.734,2.094-6.492H57.2L54.172,39h-1.1l-3.062-8.453h1.477ZM58.094,34.7a4.993,4.993,0,0,1,.488-2.234,3.643,3.643,0,0,1,1.359-1.531,3.7,3.7,0,0,1,1.988-.539,3.565,3.565,0,0,1,2.793,1.2,4.6,4.6,0,0,1,1.066,3.18v.1a5.036,5.036,0,0,1-.473,2.215,3.589,3.589,0,0,1-1.352,1.527,3.743,3.743,0,0,1-2.02.547,3.556,3.556,0,0,1-2.785-1.2A4.575,4.575,0,0,1,58.094,34.8Zm1.453.172a3.616,3.616,0,0,0,.652,2.258,2.211,2.211,0,0,0,3.5-.012,3.955,3.955,0,0,0,.648-2.418,3.61,3.61,0,0,0-.66-2.254,2.1,2.1,0,0,0-1.754-.863,2.075,2.075,0,0,0-1.727.852A3.925,3.925,0,0,0,59.547,34.867Zm12.977,1.891a1.064,1.064,0,0,0-.441-.91,4.249,4.249,0,0,0-1.539-.559,7.277,7.277,0,0,1-1.742-.562,2.479,2.479,0,0,1-.953-.781,1.869,1.869,0,0,1-.309-1.078,2.193,2.193,0,0,1,.879-1.758,3.432,3.432,0,0,1,2.246-.719A3.532,3.532,0,0,1,73,31.133a2.357,2.357,0,0,1,.895,1.9H72.438a1.3,1.3,0,0,0-.5-1.023,1.888,1.888,0,0,0-1.27-.43,1.976,1.976,0,0,0-1.234.344,1.082,1.082,0,0,0-.445.9.877.877,0,0,0,.414.789,5.1,5.1,0,0,0,1.5.508,7.8,7.8,0,0,1,1.754.578,2.558,2.558,0,0,1,1,.809,1.988,1.988,0,0,1,.324,1.152,2.163,2.163,0,0,1-.906,1.816,3.8,3.8,0,0,1-2.352.684,4.257,4.257,0,0,1-1.8-.359,2.922,2.922,0,0,1-1.223-1A2.42,2.42,0,0,1,67.25,36.4H68.7a1.5,1.5,0,0,0,.582,1.152,2.258,2.258,0,0,0,1.434.426,2.331,2.331,0,0,0,1.316-.332A1.02,1.02,0,0,0,72.523,36.758Zm-65.98,26.4a3.693,3.693,0,0,1-2.8-1.129,4.19,4.19,0,0,1-1.078-3.02v-.266a5.073,5.073,0,0,1,.48-2.246,3.748,3.748,0,0,1,1.344-1.547,3.378,3.378,0,0,1,1.871-.559,3.166,3.166,0,0,1,2.563,1.086,4.7,4.7,0,0,1,.914,3.109v.6H4.113a3,3,0,0,0,.73,2.02,2.3,2.3,0,0,0,1.777.77,2.517,2.517,0,0,0,1.3-.312,3.258,3.258,0,0,0,.93-.828l.883.688A3.55,3.55,0,0,1,6.543,63.156Zm-.18-7.578a1.928,1.928,0,0,0-1.469.637A3.1,3.1,0,0,0,4.16,58H8.395v-.109A2.753,2.753,0,0,0,7.8,56.184,1.815,1.815,0,0,0,6.363,55.578Zm10.07,5.18a1.064,1.064,0,0,0-.441-.91,4.249,4.249,0,0,0-1.539-.559,7.277,7.277,0,0,1-1.742-.562,2.479,2.479,0,0,1-.953-.781,1.869,1.869,0,0,1-.309-1.078,2.193,2.193,0,0,1,.879-1.758,3.432,3.432,0,0,1,2.246-.719,3.532,3.532,0,0,1,2.332.742,2.357,2.357,0,0,1,.895,1.9H16.348a1.3,1.3,0,0,0-.5-1.023,1.888,1.888,0,0,0-1.27-.43,1.976,1.976,0,0,0-1.234.344,1.082,1.082,0,0,0-.445.9.877.877,0,0,0,.414.789,5.1,5.1,0,0,0,1.5.508,7.8,7.8,0,0,1,1.754.578,2.558,2.558,0,0,1,1,.809,1.988,1.988,0,0,1,.324,1.152,2.163,2.163,0,0,1-.906,1.816,3.8,3.8,0,0,1-2.352.684,4.257,4.257,0,0,1-1.8-.359,2.922,2.922,0,0,1-1.223-1A2.42,2.42,0,0,1,11.16,60.4h1.445a1.5,1.5,0,0,0,.582,1.152,2.258,2.258,0,0,0,1.434.426,2.331,2.331,0,0,0,1.316-.332A1.02,1.02,0,0,0,16.434,60.758ZM26.9,58.867a5.062,5.062,0,0,1-.883,3.109,2.829,2.829,0,0,1-2.391,1.18,3.1,3.1,0,0,1-2.422-.977v4.07H19.762v-11.7h1.32l.07.938a2.977,2.977,0,0,1,2.453-1.094,2.882,2.882,0,0,1,2.41,1.148,5.117,5.117,0,0,1,.887,3.2ZM25.457,58.7a3.735,3.735,0,0,0-.609-2.258,1.963,1.963,0,0,0-1.672-.828,2.125,2.125,0,0,0-1.969,1.164V60.82a2.129,2.129,0,0,0,1.984,1.156,1.954,1.954,0,0,0,1.652-.824A4.077,4.077,0,0,0,25.457,58.7Zm6.789,4.453a3.693,3.693,0,0,1-2.8-1.129,4.19,4.19,0,0,1-1.078-3.02v-.266a5.073,5.073,0,0,1,.48-2.246A3.748,3.748,0,0,1,30.2,54.949a3.378,3.378,0,0,1,1.871-.559,3.166,3.166,0,0,1,2.563,1.086,4.7,4.7,0,0,1,.914,3.109v.6H29.816a3,3,0,0,0,.73,2.02,2.3,2.3,0,0,0,1.777.77,2.517,2.517,0,0,0,1.3-.312,3.258,3.258,0,0,0,.93-.828l.883.688A3.55,3.55,0,0,1,32.246,63.156Zm-.18-7.578a1.928,1.928,0,0,0-1.469.637A3.1,3.1,0,0,0,29.863,58H34.1v-.109a2.753,2.753,0,0,0-.594-1.707A1.815,1.815,0,0,0,32.066,55.578Zm8.539,6.4a2.082,2.082,0,0,0,1.352-.469,1.649,1.649,0,0,0,.641-1.172h1.367a2.621,2.621,0,0,1-.5,1.383,3.293,3.293,0,0,1-1.23,1.047,3.55,3.55,0,0,1-1.629.391A3.482,3.482,0,0,1,37.859,62a4.59,4.59,0,0,1-1.02-3.152v-.242a5.089,5.089,0,0,1,.453-2.2,3.451,3.451,0,0,1,1.3-1.492,3.7,3.7,0,0,1,2-.531,3.39,3.39,0,0,1,2.363.852,3.043,3.043,0,0,1,1,2.211H42.6a1.992,1.992,0,0,0-.621-1.348,1.932,1.932,0,0,0-1.379-.527,2.023,2.023,0,0,0-1.707.793,3.724,3.724,0,0,0-.605,2.293v.273a3.65,3.65,0,0,0,.6,2.25A2.033,2.033,0,0,0,40.605,61.977ZM47.16,63H45.707V54.547H47.16Zm.016-11.992h1.75l-2.094,2.3-1.164,0ZM50.027,63V55.664H48.691V54.547h1.336v-.719a2.937,2.937,0,0,1,.809-2.2,3.136,3.136,0,0,1,2.285-.789,6.881,6.881,0,0,1,2.211.477l-.242,1.219a5.008,5.008,0,0,0-1.859-.391,1.819,1.819,0,0,0-1.34.418,1.723,1.723,0,0,0-.41,1.254v.734h1.727v1.117H51.48V63Zm6.023,0H54.6V54.547h1.453Zm5.742-1.023a2.082,2.082,0,0,0,1.352-.469,1.649,1.649,0,0,0,.641-1.172h1.367a2.621,2.621,0,0,1-.5,1.383,3.293,3.293,0,0,1-1.23,1.047,3.55,3.55,0,0,1-1.629.391A3.482,3.482,0,0,1,59.047,62a4.59,4.59,0,0,1-1.02-3.152v-.242a5.089,5.089,0,0,1,.453-2.2,3.451,3.451,0,0,1,1.3-1.492,3.7,3.7,0,0,1,2-.531,3.39,3.39,0,0,1,2.363.852,3.043,3.043,0,0,1,1,2.211H63.785a1.992,1.992,0,0,0-.621-1.348,1.932,1.932,0,0,0-1.379-.527,2.023,2.023,0,0,0-1.707.793,3.724,3.724,0,0,0-.605,2.293v.273a3.65,3.65,0,0,0,.6,2.25A2.033,2.033,0,0,0,61.793,61.977Zm4.6-3.281a4.993,4.993,0,0,1,.488-2.234,3.643,3.643,0,0,1,1.359-1.531,3.7,3.7,0,0,1,1.988-.539,3.565,3.565,0,0,1,2.793,1.2,4.6,4.6,0,0,1,1.066,3.18v.1a5.036,5.036,0,0,1-.473,2.215,3.589,3.589,0,0,1-1.352,1.527,3.743,3.743,0,0,1-2.02.547,3.556,3.556,0,0,1-2.785-1.2A4.575,4.575,0,0,1,66.395,58.8Zm1.453.172a3.616,3.616,0,0,0,.652,2.258,2.211,2.211,0,0,0,3.5-.012,3.955,3.955,0,0,0,.648-2.418,3.61,3.61,0,0,0-.66-2.254,2.1,2.1,0,0,0-1.754-.863,2.075,2.075,0,0,0-1.727.852A3.925,3.925,0,0,0,67.848,58.867Zm12.977,1.891a1.064,1.064,0,0,0-.441-.91,4.249,4.249,0,0,0-1.539-.559,7.277,7.277,0,0,1-1.742-.562,2.479,2.479,0,0,1-.953-.781,1.869,1.869,0,0,1-.309-1.078,2.193,2.193,0,0,1,.879-1.758,3.432,3.432,0,0,1,2.246-.719,3.532,3.532,0,0,1,2.332.742,2.357,2.357,0,0,1,.895,1.9H80.738a1.3,1.3,0,0,0-.5-1.023,1.888,1.888,0,0,0-1.27-.43,1.976,1.976,0,0,0-1.234.344,1.082,1.082,0,0,0-.445.9.877.877,0,0,0,.414.789,5.1,5.1,0,0,0,1.5.508,7.8,7.8,0,0,1,1.754.578,2.558,2.558,0,0,1,1,.809,1.988,1.988,0,0,1,.324,1.152,2.163,2.163,0,0,1-.906,1.816,3.8,3.8,0,0,1-2.352.684,4.257,4.257,0,0,1-1.8-.359,2.922,2.922,0,0,1-1.223-1,2.42,2.42,0,0,1-.441-1.395H77a1.5,1.5,0,0,0,.582,1.152,2.258,2.258,0,0,0,1.434.426,2.331,2.331,0,0,0,1.316-.332A1.02,1.02,0,0,0,80.824,60.758Z" transform="translate(-8919 -4052)" fill="#12263f"/>
    <path id="Trazado_839151" data-name="Trazado 839151" d="M11.742,11.391a4.185,4.185,0,0,1-1.332,2.785,4.365,4.365,0,0,1-2.98.98A4.008,4.008,0,0,1,4.2,13.711,5.815,5.815,0,0,1,2.984,9.844V8.75a6.481,6.481,0,0,1,.566-2.789A4.231,4.231,0,0,1,5.156,4.113a4.47,4.47,0,0,1,2.406-.645A4.11,4.11,0,0,1,10.469,4.48a4.235,4.235,0,0,1,1.273,2.8H10.234a3.268,3.268,0,0,0-.848-1.975A2.565,2.565,0,0,0,7.563,4.7,2.684,2.684,0,0,0,5.309,5.759a4.882,4.882,0,0,0-.816,3.026v1.1a5.018,5.018,0,0,0,.773,2.948A2.5,2.5,0,0,0,7.43,13.93a2.886,2.886,0,0,0,1.918-.566,3.143,3.143,0,0,0,.887-1.973ZM18.781,15a3.036,3.036,0,0,1-.2-.891,3.225,3.225,0,0,1-2.406,1.047,2.984,2.984,0,0,1-2.051-.707,2.287,2.287,0,0,1-.8-1.793,2.39,2.39,0,0,1,1-2.051,4.733,4.733,0,0,1,2.824-.73h1.406V9.211A1.623,1.623,0,0,0,18.1,8a1.821,1.821,0,0,0-1.336-.449,2.107,2.107,0,0,0-1.3.391,1.151,1.151,0,0,0-.523.945H13.492a2,2,0,0,1,.449-1.223,3.066,3.066,0,0,1,1.219-.934,4.1,4.1,0,0,1,1.691-.344,3.342,3.342,0,0,1,2.289.73A2.635,2.635,0,0,1,20,9.133v3.891a4.757,4.757,0,0,0,.3,1.852V15Zm-2.4-1.1a2.54,2.54,0,0,0,1.289-.352,2.127,2.127,0,0,0,.883-.914V10.9H17.422q-2.656,0-2.656,1.555a1.316,1.316,0,0,0,.453,1.063A1.742,1.742,0,0,0,16.383,13.9Zm11.1.266a3.07,3.07,0,0,1-2.477.992,2.628,2.628,0,0,1-2.059-.785,3.4,3.4,0,0,1-.715-2.324v-5.5H23.68v5.461q0,1.922,1.563,1.922a2.163,2.163,0,0,0,2.2-1.234V6.547h1.445V15H27.516Zm8.523-1.406a1.064,1.064,0,0,0-.441-.91,4.249,4.249,0,0,0-1.539-.559,7.277,7.277,0,0,1-1.742-.562,2.479,2.479,0,0,1-.953-.781,1.869,1.869,0,0,1-.309-1.078A2.193,2.193,0,0,1,31.9,7.109a3.432,3.432,0,0,1,2.246-.719,3.532,3.532,0,0,1,2.332.742,2.357,2.357,0,0,1,.895,1.9H35.922a1.3,1.3,0,0,0-.5-1.023,1.888,1.888,0,0,0-1.27-.43,1.976,1.976,0,0,0-1.234.344,1.082,1.082,0,0,0-.445.9.877.877,0,0,0,.414.789,5.1,5.1,0,0,0,1.5.508,7.8,7.8,0,0,1,1.754.578,2.558,2.558,0,0,1,1,.809,1.988,1.988,0,0,1,.324,1.152,2.163,2.163,0,0,1-.906,1.816,3.8,3.8,0,0,1-2.352.684,4.257,4.257,0,0,1-1.8-.359,2.922,2.922,0,0,1-1.223-1,2.42,2.42,0,0,1-.441-1.395H32.18a1.5,1.5,0,0,0,.582,1.152,2.258,2.258,0,0,0,1.434.426,2.331,2.331,0,0,0,1.316-.332A1.02,1.02,0,0,0,36.008,12.758ZM44.555,15a3.036,3.036,0,0,1-.2-.891,3.225,3.225,0,0,1-2.406,1.047,2.984,2.984,0,0,1-2.051-.707,2.287,2.287,0,0,1-.8-1.793,2.39,2.39,0,0,1,1-2.051,4.733,4.733,0,0,1,2.824-.73h1.406V9.211A1.623,1.623,0,0,0,43.875,8a1.821,1.821,0,0,0-1.336-.449,2.107,2.107,0,0,0-1.3.391,1.151,1.151,0,0,0-.523.945H39.266a2,2,0,0,1,.449-1.223,3.066,3.066,0,0,1,1.219-.934,4.1,4.1,0,0,1,1.691-.344,3.342,3.342,0,0,1,2.289.73,2.635,2.635,0,0,1,.859,2.012v3.891a4.757,4.757,0,0,0,.3,1.852V15Zm-2.4-1.1a2.54,2.54,0,0,0,1.289-.352,2.127,2.127,0,0,0,.883-.914V10.9H43.2q-2.656,0-2.656,1.555a1.316,1.316,0,0,0,.453,1.063A1.742,1.742,0,0,0,42.156,13.9ZM4.129,30.547l.047,1.063a3.08,3.08,0,0,1,2.531-1.219q2.68,0,2.7,3.023V39H7.965V33.406a1.946,1.946,0,0,0-.418-1.352,1.675,1.675,0,0,0-1.277-.437,2.086,2.086,0,0,0-1.234.375,2.546,2.546,0,0,0-.828.984V39H2.762V30.547ZM13.16,39H11.715V30.547H13.16ZM11.6,28.3a.863.863,0,0,1,.215-.594.807.807,0,0,1,.637-.242.819.819,0,0,1,.641.242.854.854,0,0,1,.219.594.826.826,0,0,1-.219.586.834.834,0,0,1-.641.234.821.821,0,0,1-.637-.234A.834.834,0,0,1,11.6,28.3Zm6.664,8.734,2.094-6.492h1.477L18.8,39H17.7l-3.062-8.453h1.477Zm8.367,2.117a3.693,3.693,0,0,1-2.8-1.129,4.19,4.19,0,0,1-1.078-3.02v-.266a5.073,5.073,0,0,1,.48-2.246,3.748,3.748,0,0,1,1.344-1.547,3.378,3.378,0,0,1,1.871-.559,3.166,3.166,0,0,1,2.563,1.086,4.7,4.7,0,0,1,.914,3.109v.6H24.2a3,3,0,0,0,.73,2.02,2.3,2.3,0,0,0,1.777.77,2.517,2.517,0,0,0,1.3-.312,3.259,3.259,0,0,0,.93-.828l.883.688A3.55,3.55,0,0,1,26.629,39.156Zm-.18-7.578a1.928,1.928,0,0,0-1.469.637A3.1,3.1,0,0,0,24.246,34H28.48v-.109a2.753,2.753,0,0,0-.594-1.707A1.815,1.815,0,0,0,26.449,31.578ZM33.168,39H31.723V27h1.445Zm13.578,0H39.293V37.961l3.938-4.375a9.355,9.355,0,0,0,1.207-1.613,2.693,2.693,0,0,0,.332-1.285,2.041,2.041,0,0,0-.539-1.461,1.885,1.885,0,0,0-1.437-.57,2.232,2.232,0,0,0-1.676.613,2.343,2.343,0,0,0-.6,1.707H39.074a3.355,3.355,0,0,1,1.012-2.539,3.751,3.751,0,0,1,2.707-.969A3.6,3.6,0,0,1,45.3,28.3a2.838,2.838,0,0,1,.922,2.215q0,1.68-2.141,4l-3.047,3.3h5.711Z" transform="translate(-9188 -3948)" fill="#12263f"/>
    <path id="Trazado_839152" data-name="Trazado 839152" d="M10.25,10.547V15H8.75V3.625h4.2a4.215,4.215,0,0,1,2.926.953A3.231,3.231,0,0,1,16.93,7.1a3.189,3.189,0,0,1-1.035,2.551,4.4,4.4,0,0,1-2.965.895Zm0-1.227h2.7a2.7,2.7,0,0,0,1.844-.567,2.075,2.075,0,0,0,.641-1.64,2.143,2.143,0,0,0-.641-1.628,2.525,2.525,0,0,0-1.758-.634H10.25ZM22.7,7.844a4.331,4.331,0,0,0-.711-.055A1.9,1.9,0,0,0,20.063,9v6H18.617V6.547h1.406l.023.977a2.251,2.251,0,0,1,2.016-1.133A1.477,1.477,0,0,1,22.7,6.5Zm.789,2.852a4.993,4.993,0,0,1,.488-2.234A3.643,3.643,0,0,1,25.34,6.93a3.7,3.7,0,0,1,1.988-.539,3.565,3.565,0,0,1,2.793,1.2,4.6,4.6,0,0,1,1.066,3.18v.1a5.036,5.036,0,0,1-.473,2.215,3.589,3.589,0,0,1-1.352,1.527,3.743,3.743,0,0,1-2.02.547,3.556,3.556,0,0,1-2.785-1.2A4.575,4.575,0,0,1,23.492,10.8Zm1.453.172a3.616,3.616,0,0,0,.652,2.258,2.211,2.211,0,0,0,3.5-.012,3.955,3.955,0,0,0,.648-2.418,3.61,3.61,0,0,0-.66-2.254,2.1,2.1,0,0,0-1.754-.863A2.075,2.075,0,0,0,25.6,8.43,3.925,3.925,0,0,0,24.945,10.867Zm7.7-.164a4.952,4.952,0,0,1,.922-3.129,3.137,3.137,0,0,1,4.766-.168V3h1.445V15H38.453l-.07-.906a2.943,2.943,0,0,1-2.414,1.063,2.887,2.887,0,0,1-2.395-1.2,5.008,5.008,0,0,1-.926-3.141Zm1.445.164a3.749,3.749,0,0,0,.594,2.25,1.92,1.92,0,0,0,1.641.813A2.108,2.108,0,0,0,38.336,12.7V8.813a2.125,2.125,0,0,0-1.992-1.2,1.929,1.929,0,0,0-1.656.82A4.128,4.128,0,0,0,34.094,10.867Zm13.148,3.3a3.07,3.07,0,0,1-2.477.992,2.628,2.628,0,0,1-2.059-.785,3.4,3.4,0,0,1-.715-2.324v-5.5h1.445v5.461q0,1.922,1.563,1.922A2.163,2.163,0,0,0,47.2,12.7V6.547h1.445V15H47.273Zm6.992-.187a2.082,2.082,0,0,0,1.352-.469,1.649,1.649,0,0,0,.641-1.172h1.367a2.621,2.621,0,0,1-.5,1.383,3.293,3.293,0,0,1-1.23,1.047,3.55,3.55,0,0,1-1.629.391A3.482,3.482,0,0,1,51.488,14a4.59,4.59,0,0,1-1.02-3.152v-.242a5.089,5.089,0,0,1,.453-2.2,3.451,3.451,0,0,1,1.3-1.492,3.7,3.7,0,0,1,2-.531,3.39,3.39,0,0,1,2.363.852,3.043,3.043,0,0,1,1,2.211H56.227a1.992,1.992,0,0,0-.621-1.348,1.932,1.932,0,0,0-1.379-.527,2.023,2.023,0,0,0-1.707.793,3.724,3.724,0,0,0-.605,2.293v.273a3.65,3.65,0,0,0,.6,2.25A2.033,2.033,0,0,0,54.234,13.977ZM61.18,4.5V6.547h1.578V7.664H61.18v5.249a1.173,1.173,0,0,0,.211.763.888.888,0,0,0,.719.254,3.5,3.5,0,0,0,.688-.094V15a4.215,4.215,0,0,1-1.109.155,1.8,1.8,0,0,1-1.461-.586,2.517,2.517,0,0,1-.492-1.664V7.664H58.2V6.547h1.539V4.5Zm2.727,6.2a4.993,4.993,0,0,1,.488-2.234A3.643,3.643,0,0,1,65.754,6.93a3.7,3.7,0,0,1,1.988-.539,3.565,3.565,0,0,1,2.793,1.2,4.6,4.6,0,0,1,1.066,3.18v.1a5.036,5.036,0,0,1-.473,2.215,3.589,3.589,0,0,1-1.352,1.527,3.743,3.743,0,0,1-2.02.547,3.556,3.556,0,0,1-2.785-1.2A4.575,4.575,0,0,1,63.906,10.8Zm1.453.172a3.616,3.616,0,0,0,.652,2.258,2.211,2.211,0,0,0,3.5-.012,3.955,3.955,0,0,0,.648-2.418,3.61,3.61,0,0,0-.66-2.254,2.1,2.1,0,0,0-1.754-.863,2.075,2.075,0,0,0-1.727.852A3.925,3.925,0,0,0,65.359,10.867Zm12.977,1.891a1.064,1.064,0,0,0-.441-.91,4.249,4.249,0,0,0-1.539-.559,7.277,7.277,0,0,1-1.742-.562,2.479,2.479,0,0,1-.953-.781,1.869,1.869,0,0,1-.309-1.078,2.193,2.193,0,0,1,.879-1.758,3.432,3.432,0,0,1,2.246-.719,3.532,3.532,0,0,1,2.332.742,2.357,2.357,0,0,1,.895,1.9H78.25a1.3,1.3,0,0,0-.5-1.023,1.888,1.888,0,0,0-1.27-.43,1.976,1.976,0,0,0-1.234.344,1.082,1.082,0,0,0-.445.9.877.877,0,0,0,.414.789,5.1,5.1,0,0,0,1.5.508,7.8,7.8,0,0,1,1.754.578,2.558,2.558,0,0,1,1,.809,1.988,1.988,0,0,1,.324,1.152,2.163,2.163,0,0,1-.906,1.816,3.8,3.8,0,0,1-2.352.684,4.257,4.257,0,0,1-1.8-.359,2.922,2.922,0,0,1-1.223-1,2.42,2.42,0,0,1-.441-1.395h1.445a1.5,1.5,0,0,0,.582,1.152,2.258,2.258,0,0,0,1.434.426,2.331,2.331,0,0,0,1.316-.332A1.02,1.02,0,0,0,78.336,12.758Z" transform="translate(-9064 -3935)" fill="#12263f"/>
    <path id="Trazado_839153" data-name="Trazado 839153" d="M12.313,11.391a4.185,4.185,0,0,1-1.332,2.785,4.365,4.365,0,0,1-2.98.98,4.008,4.008,0,0,1-3.23-1.445A5.815,5.815,0,0,1,3.555,9.844V8.75a6.481,6.481,0,0,1,.566-2.789A4.231,4.231,0,0,1,5.727,4.113a4.47,4.47,0,0,1,2.406-.645A4.11,4.11,0,0,1,11.039,4.48a4.235,4.235,0,0,1,1.273,2.8H10.8a3.268,3.268,0,0,0-.848-1.975A2.565,2.565,0,0,0,8.133,4.7,2.684,2.684,0,0,0,5.879,5.759a4.882,4.882,0,0,0-.816,3.026v1.1a5.018,5.018,0,0,0,.773,2.948A2.5,2.5,0,0,0,8,13.93a2.886,2.886,0,0,0,1.918-.566,3.143,3.143,0,0,0,.887-1.973Zm1.438-.7a4.993,4.993,0,0,1,.488-2.234A3.643,3.643,0,0,1,15.6,6.93a3.7,3.7,0,0,1,1.988-.539,3.565,3.565,0,0,1,2.793,1.2,4.6,4.6,0,0,1,1.066,3.18v.1a5.036,5.036,0,0,1-.473,2.215,3.589,3.589,0,0,1-1.352,1.527,3.743,3.743,0,0,1-2.02.547,3.556,3.556,0,0,1-2.785-1.2A4.575,4.575,0,0,1,13.75,10.8Zm1.453.172a3.616,3.616,0,0,0,.652,2.258,2.211,2.211,0,0,0,3.5-.012A3.955,3.955,0,0,0,20,10.7a3.61,3.61,0,0,0-.66-2.254,2.1,2.1,0,0,0-1.754-.863,2.075,2.075,0,0,0-1.727.852A3.925,3.925,0,0,0,15.2,10.867Zm9.414-4.32.039.938a3.122,3.122,0,0,1,2.508-1.094A2.417,2.417,0,0,1,29.578,7.75a3.2,3.2,0,0,1,1.1-.984,3.242,3.242,0,0,1,1.6-.375q2.781,0,2.828,2.945V15H33.656V9.422a1.941,1.941,0,0,0-.414-1.355,1.823,1.823,0,0,0-1.391-.449,1.916,1.916,0,0,0-1.336.48A1.949,1.949,0,0,0,29.9,9.391V15H28.445V9.461a1.613,1.613,0,0,0-1.8-1.844A1.934,1.934,0,0,0,24.7,8.828V15H23.25V6.547Zm19.8,4.32a5.062,5.062,0,0,1-.883,3.109,2.829,2.829,0,0,1-2.391,1.18,3.1,3.1,0,0,1-2.422-.977v4.07H37.281V6.547H38.6l.07.938a2.977,2.977,0,0,1,2.453-1.094,2.882,2.882,0,0,1,2.41,1.148,5.117,5.117,0,0,1,.887,3.2ZM42.977,10.7a3.735,3.735,0,0,0-.609-2.258A1.963,1.963,0,0,0,40.7,7.617a2.125,2.125,0,0,0-1.969,1.164V12.82a2.129,2.129,0,0,0,1.984,1.156,1.954,1.954,0,0,0,1.652-.824A4.077,4.077,0,0,0,42.977,10.7Zm2.9-.008a4.993,4.993,0,0,1,.488-2.234A3.643,3.643,0,0,1,47.723,6.93a3.7,3.7,0,0,1,1.988-.539,3.565,3.565,0,0,1,2.793,1.2,4.6,4.6,0,0,1,1.066,3.18v.1a5.036,5.036,0,0,1-.473,2.215,3.589,3.589,0,0,1-1.352,1.527,3.743,3.743,0,0,1-2.02.547,3.556,3.556,0,0,1-2.785-1.2A4.575,4.575,0,0,1,45.875,10.8Zm1.453.172a3.616,3.616,0,0,0,.652,2.258,2.211,2.211,0,0,0,3.5-.012,3.955,3.955,0,0,0,.648-2.418,3.61,3.61,0,0,0-.66-2.254,2.1,2.1,0,0,0-1.754-.863,2.075,2.075,0,0,0-1.727.852A3.925,3.925,0,0,0,47.328,10.867Zm9.422-4.32L56.8,7.609a3.08,3.08,0,0,1,2.531-1.219q2.68,0,2.7,3.023V15H60.586V9.406a1.946,1.946,0,0,0-.418-1.352,1.675,1.675,0,0,0-1.277-.437,2.086,2.086,0,0,0-1.234.375,2.546,2.546,0,0,0-.828.984V15H55.383V6.547Zm10.969,8.609a3.693,3.693,0,0,1-2.8-1.129,4.19,4.19,0,0,1-1.078-3.02v-.266a5.073,5.073,0,0,1,.48-2.246,3.748,3.748,0,0,1,1.344-1.547,3.378,3.378,0,0,1,1.871-.559A3.166,3.166,0,0,1,70.1,7.477a4.7,4.7,0,0,1,.914,3.109v.6H65.289a3,3,0,0,0,.73,2.02,2.3,2.3,0,0,0,1.777.77,2.517,2.517,0,0,0,1.3-.312,3.259,3.259,0,0,0,.93-.828l.883.688A3.55,3.55,0,0,1,67.719,15.156Zm-.18-7.578a1.928,1.928,0,0,0-1.469.637A3.1,3.1,0,0,0,65.336,10H69.57V9.891a2.753,2.753,0,0,0-.594-1.707A1.815,1.815,0,0,0,67.539,7.578Zm6.516-1.031L74.1,7.609a3.08,3.08,0,0,1,2.531-1.219q2.68,0,2.7,3.023V15H77.891V9.406a1.946,1.946,0,0,0-.418-1.352A1.675,1.675,0,0,0,76.2,7.617a2.086,2.086,0,0,0-1.234.375,2.546,2.546,0,0,0-.828.984V15H72.688V6.547ZM83.477,4.5V6.547h1.578V7.664H83.477v5.249a1.173,1.173,0,0,0,.211.763.888.888,0,0,0,.719.254,3.5,3.5,0,0,0,.688-.094V15a4.215,4.215,0,0,1-1.109.155,1.8,1.8,0,0,1-1.461-.586,2.517,2.517,0,0,1-.492-1.664V7.664H80.492V6.547h1.539V4.5ZM90.25,15.156a3.693,3.693,0,0,1-2.8-1.129,4.19,4.19,0,0,1-1.078-3.02v-.266a5.073,5.073,0,0,1,.48-2.246A3.748,3.748,0,0,1,88.2,6.949a3.378,3.378,0,0,1,1.871-.559,3.166,3.166,0,0,1,2.563,1.086,4.7,4.7,0,0,1,.914,3.109v.6H87.82a3,3,0,0,0,.73,2.02,2.3,2.3,0,0,0,1.777.77,2.517,2.517,0,0,0,1.3-.312,3.259,3.259,0,0,0,.93-.828l.883.688A3.55,3.55,0,0,1,90.25,15.156Zm-.18-7.578a1.928,1.928,0,0,0-1.469.637A3.1,3.1,0,0,0,87.867,10H92.1V9.891a2.753,2.753,0,0,0-.594-1.707A1.815,1.815,0,0,0,90.07,7.578Zm10.07,5.18a1.064,1.064,0,0,0-.441-.91,4.249,4.249,0,0,0-1.539-.559,7.277,7.277,0,0,1-1.742-.562,2.479,2.479,0,0,1-.953-.781,1.869,1.869,0,0,1-.309-1.078,2.193,2.193,0,0,1,.879-1.758,3.432,3.432,0,0,1,2.246-.719,3.532,3.532,0,0,1,2.332.742,2.357,2.357,0,0,1,.895,1.9h-1.453a1.3,1.3,0,0,0-.5-1.023,1.888,1.888,0,0,0-1.27-.43,1.976,1.976,0,0,0-1.234.344,1.082,1.082,0,0,0-.445.9.877.877,0,0,0,.414.789,5.1,5.1,0,0,0,1.5.508,7.8,7.8,0,0,1,1.754.578,2.558,2.558,0,0,1,1,.809,1.988,1.988,0,0,1,.324,1.152,2.163,2.163,0,0,1-.906,1.816,3.8,3.8,0,0,1-2.352.684,4.257,4.257,0,0,1-1.8-.359,2.922,2.922,0,0,1-1.223-1,2.42,2.42,0,0,1-.441-1.395h1.445a1.5,1.5,0,0,0,.582,1.152,2.258,2.258,0,0,0,1.434.426,2.331,2.331,0,0,0,1.316-.332A1.02,1.02,0,0,0,100.141,12.758Z" transform="translate(-8929 -3935)" fill="#12263f"/>
    <path id="Trazado_839156" data-name="Trazado 839156" d="M19.242,11.391a4.185,4.185,0,0,1-1.332,2.785,4.365,4.365,0,0,1-2.98.98,4.008,4.008,0,0,1-3.23-1.445,5.815,5.815,0,0,1-1.215-3.867V8.75a6.481,6.481,0,0,1,.566-2.789,4.231,4.231,0,0,1,1.605-1.848,4.47,4.47,0,0,1,2.406-.645A4.11,4.11,0,0,1,17.969,4.48a4.235,4.235,0,0,1,1.273,2.8H17.734a3.268,3.268,0,0,0-.848-1.975A2.565,2.565,0,0,0,15.063,4.7a2.684,2.684,0,0,0-2.254,1.063,4.882,4.882,0,0,0-.816,3.026v1.1a5.018,5.018,0,0,0,.773,2.948A2.5,2.5,0,0,0,14.93,13.93a2.886,2.886,0,0,0,1.918-.566,3.143,3.143,0,0,0,.887-1.973ZM26.281,15a3.036,3.036,0,0,1-.2-.891,3.225,3.225,0,0,1-2.406,1.047,2.984,2.984,0,0,1-2.051-.707,2.287,2.287,0,0,1-.8-1.793,2.39,2.39,0,0,1,1-2.051,4.733,4.733,0,0,1,2.824-.73h1.406V9.211A1.623,1.623,0,0,0,25.6,8a1.821,1.821,0,0,0-1.336-.449,2.108,2.108,0,0,0-1.3.391,1.151,1.151,0,0,0-.523.945H20.992a2,2,0,0,1,.449-1.223,3.066,3.066,0,0,1,1.219-.934,4.1,4.1,0,0,1,1.691-.344,3.342,3.342,0,0,1,2.289.73A2.635,2.635,0,0,1,27.5,9.133v3.891a4.757,4.757,0,0,0,.3,1.852V15Zm-2.4-1.1a2.54,2.54,0,0,0,1.289-.352,2.127,2.127,0,0,0,.883-.914V10.9H24.922q-2.656,0-2.656,1.555a1.316,1.316,0,0,0,.453,1.063A1.742,1.742,0,0,0,23.883,13.9Zm11.1.266a3.07,3.07,0,0,1-2.477.992,2.628,2.628,0,0,1-2.059-.785,3.4,3.4,0,0,1-.715-2.324v-5.5H31.18v5.461q0,1.922,1.563,1.922a2.163,2.163,0,0,0,2.2-1.234V6.547h1.445V15H35.016Zm8.523-1.406a1.064,1.064,0,0,0-.441-.91,4.249,4.249,0,0,0-1.539-.559,7.277,7.277,0,0,1-1.742-.562,2.479,2.479,0,0,1-.953-.781,1.869,1.869,0,0,1-.309-1.078A2.193,2.193,0,0,1,39.4,7.109a3.432,3.432,0,0,1,2.246-.719,3.532,3.532,0,0,1,2.332.742,2.357,2.357,0,0,1,.895,1.9H43.422a1.3,1.3,0,0,0-.5-1.023,1.888,1.888,0,0,0-1.27-.43,1.976,1.976,0,0,0-1.234.344,1.082,1.082,0,0,0-.445.9.877.877,0,0,0,.414.789,5.1,5.1,0,0,0,1.5.508,7.8,7.8,0,0,1,1.754.578,2.558,2.558,0,0,1,1,.809,1.988,1.988,0,0,1,.324,1.152,2.163,2.163,0,0,1-.906,1.816,3.8,3.8,0,0,1-2.352.684,4.257,4.257,0,0,1-1.8-.359,2.922,2.922,0,0,1-1.223-1,2.42,2.42,0,0,1-.441-1.395H39.68a1.5,1.5,0,0,0,.582,1.152,2.258,2.258,0,0,0,1.434.426,2.331,2.331,0,0,0,1.316-.332A1.02,1.02,0,0,0,43.508,12.758ZM52.055,15a3.036,3.036,0,0,1-.2-.891,3.225,3.225,0,0,1-2.406,1.047,2.984,2.984,0,0,1-2.051-.707,2.287,2.287,0,0,1-.8-1.793,2.39,2.39,0,0,1,1-2.051,4.733,4.733,0,0,1,2.824-.73h1.406V9.211A1.623,1.623,0,0,0,51.375,8a1.821,1.821,0,0,0-1.336-.449,2.107,2.107,0,0,0-1.3.391,1.151,1.151,0,0,0-.523.945H46.766a2,2,0,0,1,.449-1.223,3.066,3.066,0,0,1,1.219-.934,4.1,4.1,0,0,1,1.691-.344,3.342,3.342,0,0,1,2.289.73,2.635,2.635,0,0,1,.859,2.012v3.891a4.757,4.757,0,0,0,.3,1.852V15Zm-2.4-1.1a2.54,2.54,0,0,0,1.289-.352,2.127,2.127,0,0,0,.883-.914V10.9H50.7q-2.656,0-2.656,1.555a1.316,1.316,0,0,0,.453,1.063A1.742,1.742,0,0,0,49.656,13.9ZM11.629,30.547l.047,1.063a3.08,3.08,0,0,1,2.531-1.219q2.68,0,2.7,3.023V39H15.465V33.406a1.946,1.946,0,0,0-.418-1.352,1.675,1.675,0,0,0-1.277-.437,2.086,2.086,0,0,0-1.234.375,2.546,2.546,0,0,0-.828.984V39H10.262V30.547ZM20.66,39H19.215V30.547H20.66ZM19.1,28.3a.863.863,0,0,1,.215-.594.807.807,0,0,1,.637-.242.819.819,0,0,1,.641.242.854.854,0,0,1,.219.594.826.826,0,0,1-.219.586.834.834,0,0,1-.641.234.821.821,0,0,1-.637-.234A.834.834,0,0,1,19.1,28.3Zm6.664,8.734,2.094-6.492h1.477L26.3,39H25.2l-3.062-8.453h1.477Zm8.367,2.117a3.693,3.693,0,0,1-2.8-1.129,4.19,4.19,0,0,1-1.078-3.02v-.266a5.073,5.073,0,0,1,.48-2.246,3.748,3.748,0,0,1,1.344-1.547,3.378,3.378,0,0,1,1.871-.559,3.166,3.166,0,0,1,2.563,1.086,4.7,4.7,0,0,1,.914,3.109v.6H31.7a3,3,0,0,0,.73,2.02,2.3,2.3,0,0,0,1.777.77,2.517,2.517,0,0,0,1.3-.312,3.258,3.258,0,0,0,.93-.828l.883.688A3.55,3.55,0,0,1,34.129,39.156Zm-.18-7.578a1.928,1.928,0,0,0-1.469.637A3.1,3.1,0,0,0,31.746,34H35.98v-.109a2.753,2.753,0,0,0-.594-1.707A1.815,1.815,0,0,0,33.949,31.578ZM40.668,39H39.223V27h1.445Zm8.227-6.391H49.98a2.387,2.387,0,0,0,1.609-.539,1.8,1.8,0,0,0,.586-1.414,1.764,1.764,0,0,0-1.992-2,2.072,2.072,0,0,0-1.5.535,1.873,1.873,0,0,0-.559,1.418H46.684a2.9,2.9,0,0,1,.988-2.246,3.6,3.6,0,0,1,2.512-.895,3.558,3.558,0,0,1,2.523.852,3.076,3.076,0,0,1,.914,2.367,2.5,2.5,0,0,1-.48,1.438,2.9,2.9,0,0,1-1.309,1.039,2.8,2.8,0,0,1,1.449.984,2.734,2.734,0,0,1,.512,1.68,3.1,3.1,0,0,1-1,2.43,3.745,3.745,0,0,1-2.6.9,3.844,3.844,0,0,1-2.605-.867,2.877,2.877,0,0,1-1-2.289h1.453a1.859,1.859,0,0,0,.586,1.438,2.229,2.229,0,0,0,1.57.539,2.187,2.187,0,0,0,1.6-.547,2.108,2.108,0,0,0,.555-1.57,1.912,1.912,0,0,0-.609-1.523,2.655,2.655,0,0,0-1.758-.547H48.895Z" transform="translate(-9196 -3865)" fill="#12263f"/>
    <path id="Trazado_839155" data-name="Trazado 839155" d="M12.086,12.023H7.32L6.25,15H4.7L9.047,3.625h1.313L14.711,15H13.172ZM7.773,10.8h3.867L9.7,5.477Zm11.633,3.18a2.082,2.082,0,0,0,1.352-.469,1.649,1.649,0,0,0,.641-1.172h1.367a2.621,2.621,0,0,1-.5,1.383,3.293,3.293,0,0,1-1.23,1.047,3.55,3.55,0,0,1-1.629.391A3.482,3.482,0,0,1,16.66,14a4.59,4.59,0,0,1-1.02-3.152v-.242a5.089,5.089,0,0,1,.453-2.2,3.451,3.451,0,0,1,1.3-1.492,3.7,3.7,0,0,1,2-.531,3.39,3.39,0,0,1,2.363.852,3.043,3.043,0,0,1,1,2.211H21.4a1.992,1.992,0,0,0-.621-1.348A1.932,1.932,0,0,0,19.4,7.578a2.023,2.023,0,0,0-1.707.793,3.724,3.724,0,0,0-.605,2.293v.273a3.65,3.65,0,0,0,.6,2.25A2.033,2.033,0,0,0,19.406,13.977ZM26.352,4.5V6.547H27.93V7.664H26.352v5.249a1.173,1.173,0,0,0,.211.763.888.888,0,0,0,.719.254,3.5,3.5,0,0,0,.688-.094V15a4.215,4.215,0,0,1-1.109.155A1.8,1.8,0,0,1,25.4,14.57a2.517,2.517,0,0,1-.492-1.664V7.664H23.367V6.547h1.539V4.5ZM31.188,15H29.742V6.547h1.445ZM29.625,4.3a.863.863,0,0,1,.215-.594.807.807,0,0,1,.637-.242.819.819,0,0,1,.641.242.854.854,0,0,1,.219.594.826.826,0,0,1-.219.586.834.834,0,0,1-.641.234.821.821,0,0,1-.637-.234A.834.834,0,0,1,29.625,4.3Zm6.664,8.734,2.094-6.492h1.477L36.828,15h-1.1L32.664,6.547h1.477ZM42.82,15H41.375V6.547H42.82ZM41.258,4.3a.863.863,0,0,1,.215-.594.807.807,0,0,1,.637-.242.819.819,0,0,1,.641.242.854.854,0,0,1,.219.594.826.826,0,0,1-.219.586.834.834,0,0,1-.641.234.821.821,0,0,1-.637-.234A.834.834,0,0,1,41.258,4.3Zm3.523,6.4A4.952,4.952,0,0,1,45.7,7.574a3.137,3.137,0,0,1,4.766-.168V3h1.445V15H50.586l-.07-.906A2.943,2.943,0,0,1,48.1,15.156a2.887,2.887,0,0,1-2.395-1.2,5.008,5.008,0,0,1-.926-3.141Zm1.445.164a3.749,3.749,0,0,0,.594,2.25,1.92,1.92,0,0,0,1.641.813A2.108,2.108,0,0,0,50.469,12.7V8.813a2.125,2.125,0,0,0-1.992-1.2,1.929,1.929,0,0,0-1.656.82A4.128,4.128,0,0,0,46.227,10.867ZM59.375,15a3.036,3.036,0,0,1-.2-.891,3.225,3.225,0,0,1-2.406,1.047,2.984,2.984,0,0,1-2.051-.707,2.287,2.287,0,0,1-.8-1.793,2.39,2.39,0,0,1,1-2.051,4.733,4.733,0,0,1,2.824-.73h1.406V9.211A1.623,1.623,0,0,0,58.7,8a1.821,1.821,0,0,0-1.336-.449,2.107,2.107,0,0,0-1.3.391,1.151,1.151,0,0,0-.523.945H54.086a2,2,0,0,1,.449-1.223,3.066,3.066,0,0,1,1.219-.934,4.1,4.1,0,0,1,1.691-.344,3.342,3.342,0,0,1,2.289.73,2.635,2.635,0,0,1,.859,2.012v3.891a4.757,4.757,0,0,0,.3,1.852V15Zm-2.4-1.1a2.54,2.54,0,0,0,1.289-.352,2.127,2.127,0,0,0,.883-.914V10.9H58.016q-2.656,0-2.656,1.555a1.316,1.316,0,0,0,.453,1.063A1.742,1.742,0,0,0,56.977,13.9Zm5.531-3.2a4.952,4.952,0,0,1,.922-3.129A3.137,3.137,0,0,1,68.2,7.406V3h1.445V15H68.313l-.07-.906a2.943,2.943,0,0,1-2.414,1.063,2.887,2.887,0,0,1-2.395-1.2,5.008,5.008,0,0,1-.926-3.141Zm1.445.164a3.749,3.749,0,0,0,.594,2.25,1.92,1.92,0,0,0,1.641.813A2.108,2.108,0,0,0,68.2,12.7V8.813a2.125,2.125,0,0,0-1.992-1.2,1.929,1.929,0,0,0-1.656.82A4.128,4.128,0,0,0,63.953,10.867Zm11.438,4.289a3.693,3.693,0,0,1-2.8-1.129,4.19,4.19,0,0,1-1.078-3.02v-.266A5.073,5.073,0,0,1,72,8.5,3.748,3.748,0,0,1,73.34,6.949a3.378,3.378,0,0,1,1.871-.559,3.166,3.166,0,0,1,2.563,1.086,4.7,4.7,0,0,1,.914,3.109v.6H72.961a3,3,0,0,0,.73,2.02,2.3,2.3,0,0,0,1.777.77,2.517,2.517,0,0,0,1.3-.312,3.259,3.259,0,0,0,.93-.828l.883.688A3.55,3.55,0,0,1,75.391,15.156Zm-.18-7.578a1.928,1.928,0,0,0-1.469.637A3.1,3.1,0,0,0,73.008,10h4.234V9.891a2.753,2.753,0,0,0-.594-1.707A1.815,1.815,0,0,0,75.211,7.578Zm10.07,5.18a1.064,1.064,0,0,0-.441-.91,4.249,4.249,0,0,0-1.539-.559,7.277,7.277,0,0,1-1.742-.562,2.479,2.479,0,0,1-.953-.781A1.869,1.869,0,0,1,80.3,8.867a2.193,2.193,0,0,1,.879-1.758,3.432,3.432,0,0,1,2.246-.719,3.532,3.532,0,0,1,2.332.742,2.357,2.357,0,0,1,.895,1.9H85.2a1.3,1.3,0,0,0-.5-1.023,1.888,1.888,0,0,0-1.27-.43,1.976,1.976,0,0,0-1.234.344,1.082,1.082,0,0,0-.445.9.877.877,0,0,0,.414.789,5.1,5.1,0,0,0,1.5.508,7.8,7.8,0,0,1,1.754.578,2.558,2.558,0,0,1,1,.809,1.988,1.988,0,0,1,.324,1.152,2.163,2.163,0,0,1-.906,1.816,3.8,3.8,0,0,1-2.352.684,4.257,4.257,0,0,1-1.8-.359,2.922,2.922,0,0,1-1.223-1,2.42,2.42,0,0,1-.441-1.395h1.445a1.5,1.5,0,0,0,.582,1.152,2.258,2.258,0,0,0,1.434.426,2.331,2.331,0,0,0,1.316-.332A1.02,1.02,0,0,0,85.281,12.758Z" transform="translate(-9066 -3853)" fill="#12263f"/>
    <path id="Trazado_839154" data-name="Trazado 839154" d="M9.086,12.023H4.32L3.25,15H1.7L6.047,3.625H7.359L11.711,15H10.172ZM4.773,10.8H8.641L6.7,5.477Zm11.633,3.18a2.082,2.082,0,0,0,1.352-.469,1.649,1.649,0,0,0,.641-1.172h1.367a2.621,2.621,0,0,1-.5,1.383,3.293,3.293,0,0,1-1.23,1.047,3.55,3.55,0,0,1-1.629.391A3.482,3.482,0,0,1,13.66,14a4.59,4.59,0,0,1-1.02-3.152v-.242a5.089,5.089,0,0,1,.453-2.2,3.451,3.451,0,0,1,1.3-1.492,3.7,3.7,0,0,1,2-.531,3.39,3.39,0,0,1,2.363.852,3.043,3.043,0,0,1,1,2.211H18.4a1.992,1.992,0,0,0-.621-1.348A1.932,1.932,0,0,0,16.4,7.578a2.023,2.023,0,0,0-1.707.793,3.724,3.724,0,0,0-.605,2.293v.273a3.65,3.65,0,0,0,.6,2.25A2.033,2.033,0,0,0,16.406,13.977ZM23.352,4.5V6.547H24.93V7.664H23.352v5.249a1.173,1.173,0,0,0,.211.763.888.888,0,0,0,.719.254,3.5,3.5,0,0,0,.688-.094V15a4.215,4.215,0,0,1-1.109.155A1.8,1.8,0,0,1,22.4,14.57a2.517,2.517,0,0,1-.492-1.664V7.664H20.367V6.547h1.539V4.5ZM28.188,15H26.742V6.547h1.445ZM26.625,4.3a.863.863,0,0,1,.215-.594.807.807,0,0,1,.637-.242.819.819,0,0,1,.641.242.854.854,0,0,1,.219.594.826.826,0,0,1-.219.586.834.834,0,0,1-.641.234.821.821,0,0,1-.637-.234A.834.834,0,0,1,26.625,4.3Zm6.664,8.734,2.094-6.492h1.477L33.828,15h-1.1L29.664,6.547h1.477ZM39.82,15H38.375V6.547H39.82ZM38.258,4.3a.863.863,0,0,1,.215-.594.807.807,0,0,1,.637-.242.819.819,0,0,1,.641.242.854.854,0,0,1,.219.594.826.826,0,0,1-.219.586.834.834,0,0,1-.641.234.821.821,0,0,1-.637-.234A.834.834,0,0,1,38.258,4.3Zm3.523,6.4A4.952,4.952,0,0,1,42.7,7.574a3.137,3.137,0,0,1,4.766-.168V3h1.445V15H47.586l-.07-.906A2.943,2.943,0,0,1,45.1,15.156a2.887,2.887,0,0,1-2.395-1.2,5.008,5.008,0,0,1-.926-3.141Zm1.445.164a3.749,3.749,0,0,0,.594,2.25,1.92,1.92,0,0,0,1.641.813A2.108,2.108,0,0,0,47.469,12.7V8.813a2.125,2.125,0,0,0-1.992-1.2,1.929,1.929,0,0,0-1.656.82A4.128,4.128,0,0,0,43.227,10.867ZM56.375,15a3.036,3.036,0,0,1-.2-.891,3.225,3.225,0,0,1-2.406,1.047,2.984,2.984,0,0,1-2.051-.707,2.287,2.287,0,0,1-.8-1.793,2.39,2.39,0,0,1,1-2.051,4.733,4.733,0,0,1,2.824-.73h1.406V9.211A1.623,1.623,0,0,0,55.7,8a1.821,1.821,0,0,0-1.336-.449,2.107,2.107,0,0,0-1.3.391,1.151,1.151,0,0,0-.523.945H51.086a2,2,0,0,1,.449-1.223,3.066,3.066,0,0,1,1.219-.934,4.1,4.1,0,0,1,1.691-.344,3.342,3.342,0,0,1,2.289.73,2.635,2.635,0,0,1,.859,2.012v3.891a4.757,4.757,0,0,0,.3,1.852V15Zm-2.4-1.1a2.54,2.54,0,0,0,1.289-.352,2.127,2.127,0,0,0,.883-.914V10.9H55.016q-2.656,0-2.656,1.555a1.316,1.316,0,0,0,.453,1.063A1.742,1.742,0,0,0,53.977,13.9Zm5.531-3.2a4.952,4.952,0,0,1,.922-3.129A3.137,3.137,0,0,1,65.2,7.406V3h1.445V15H65.313l-.07-.906a2.943,2.943,0,0,1-2.414,1.063,2.887,2.887,0,0,1-2.395-1.2,5.008,5.008,0,0,1-.926-3.141Zm1.445.164a3.749,3.749,0,0,0,.594,2.25,1.92,1.92,0,0,0,1.641.813A2.108,2.108,0,0,0,65.2,12.7V8.813a2.125,2.125,0,0,0-1.992-1.2,1.929,1.929,0,0,0-1.656.82A4.128,4.128,0,0,0,60.953,10.867Zm11.438,4.289a3.693,3.693,0,0,1-2.8-1.129,4.19,4.19,0,0,1-1.078-3.02v-.266A5.073,5.073,0,0,1,69,8.5,3.748,3.748,0,0,1,70.34,6.949a3.378,3.378,0,0,1,1.871-.559,3.166,3.166,0,0,1,2.563,1.086,4.7,4.7,0,0,1,.914,3.109v.6H69.961a3,3,0,0,0,.73,2.02,2.3,2.3,0,0,0,1.777.77,2.517,2.517,0,0,0,1.3-.312,3.259,3.259,0,0,0,.93-.828l.883.688A3.55,3.55,0,0,1,72.391,15.156Zm-.18-7.578a1.928,1.928,0,0,0-1.469.637A3.1,3.1,0,0,0,70.008,10h4.234V9.891a2.753,2.753,0,0,0-.594-1.707A1.815,1.815,0,0,0,72.211,7.578Zm10.07,5.18a1.064,1.064,0,0,0-.441-.91,4.249,4.249,0,0,0-1.539-.559,7.277,7.277,0,0,1-1.742-.562,2.479,2.479,0,0,1-.953-.781A1.869,1.869,0,0,1,77.3,8.867a2.193,2.193,0,0,1,.879-1.758,3.432,3.432,0,0,1,2.246-.719,3.532,3.532,0,0,1,2.332.742,2.357,2.357,0,0,1,.895,1.9H82.2a1.3,1.3,0,0,0-.5-1.023,1.888,1.888,0,0,0-1.27-.43,1.976,1.976,0,0,0-1.234.344,1.082,1.082,0,0,0-.445.9.877.877,0,0,0,.414.789,5.1,5.1,0,0,0,1.5.508,7.8,7.8,0,0,1,1.754.578,2.558,2.558,0,0,1,1,.809,1.988,1.988,0,0,1,.324,1.152,2.163,2.163,0,0,1-.906,1.816,3.8,3.8,0,0,1-2.352.684,4.257,4.257,0,0,1-1.8-.359,2.922,2.922,0,0,1-1.223-1,2.42,2.42,0,0,1-.441-1.395h1.445a1.5,1.5,0,0,0,.582,1.152,2.258,2.258,0,0,0,1.434.426,2.331,2.331,0,0,0,1.316-.332A1.02,1.02,0,0,0,82.281,12.758Z" transform="translate(-8920 -3853)" fill="#12263f"/>
    <path id="Trazado_839142" data-name="Trazado 839142" d="M20.16,3.625l2.922,8.25,2.906-8.25h3.078V15H26.715V11.891l.234-5.367L23.879,15H22.27L19.207,6.531l.234,5.359V15H17.1V3.625Zm17.516,9.031H33.566L32.785,15H30.293L34.527,3.625H36.7L40.957,15H38.465Zm-3.477-1.9h2.844L35.613,6.5ZM49.645,5.523H46.16V15H43.816V5.523H40.379v-1.9h9.266Zm5.547,5.313H53.324V15H50.98V3.625h4.227a4.778,4.778,0,0,1,3.109.9A3.1,3.1,0,0,1,59.41,7.063,3.5,3.5,0,0,1,58.906,9a3.437,3.437,0,0,1-1.527,1.238l2.461,4.648V15H57.324Zm-1.867-1.9h1.891a1.936,1.936,0,0,0,1.367-.449,1.606,1.606,0,0,0,.484-1.238,1.719,1.719,0,0,0-.457-1.266,1.9,1.9,0,0,0-1.4-.461H53.324ZM63.684,15H61.34V3.625h2.344Zm4.656-1.883h5.734V15H65.41V13.625l5.625-8.1H65.418v-1.9h8.531V4.969ZM79.535,15V3.625h3.5a5.315,5.315,0,0,1,2.684.676,4.712,4.712,0,0,1,1.848,1.922,5.928,5.928,0,0,1,.664,2.832v.523a5.945,5.945,0,0,1-.652,2.82,4.672,4.672,0,0,1-1.84,1.914,5.355,5.355,0,0,1-2.68.688Zm2.344-9.477v7.594h1.133a2.545,2.545,0,0,0,2.1-.9,4.06,4.06,0,0,0,.742-2.57v-.6a4.124,4.124,0,0,0-.719-2.629,2.537,2.537,0,0,0-2.1-.895Zm14.9,4.547h-4.5v3.047h5.281V15H89.934V3.625h7.609v1.9H92.277V8.234h4.5ZM32.754,27.625l2.922,8.25,2.906-8.25H41.66V39H39.309V35.891l.234-5.367L36.473,39H34.863L31.8,30.531l.234,5.359V39H29.691V27.625ZM50.27,36.656H46.16L45.379,39H42.887l4.234-11.375h2.172L53.551,39H51.059Zm-3.477-1.9h2.844L48.207,30.5Zm12.031.078H56.957V39H54.613V27.625H58.84a4.778,4.778,0,0,1,3.109.9,3.1,3.1,0,0,1,1.094,2.539,3.5,3.5,0,0,1-.5,1.941,3.437,3.437,0,0,1-1.527,1.238l2.461,4.648V39H60.957Zm-1.867-1.9h1.891a1.936,1.936,0,0,0,1.367-.449A1.606,1.606,0,0,0,60.7,31.25a1.719,1.719,0,0,0-.457-1.266,1.9,1.9,0,0,0-1.4-.461H56.957Zm16.8,2.273A4.025,4.025,0,0,1,72.4,38.1a4.76,4.76,0,0,1-3.223,1.055,4.28,4.28,0,0,1-3.441-1.473,6.038,6.038,0,0,1-1.254-4.043v-.7a6.819,6.819,0,0,1,.578-2.891,4.332,4.332,0,0,1,1.652-1.918,5.164,5.164,0,0,1,5.668.387,4.326,4.326,0,0,1,1.391,2.961H71.426a2.376,2.376,0,0,0-.613-1.6,2.271,2.271,0,0,0-1.605-.5,1.991,1.991,0,0,0-1.754.84,4.707,4.707,0,0,0-.6,2.605V33.7a5.038,5.038,0,0,0,.559,2.7,1.954,1.954,0,0,0,1.762.852,2.314,2.314,0,0,0,1.621-.5,2.241,2.241,0,0,0,.613-1.535ZM84.637,33.57a6.867,6.867,0,0,1-.594,2.945,4.472,4.472,0,0,1-1.7,1.953,5.021,5.021,0,0,1-5.059.008,4.515,4.515,0,0,1-1.719-1.941,6.67,6.67,0,0,1-.617-2.9V33.07a6.831,6.831,0,0,1,.605-2.957,4.508,4.508,0,0,1,1.711-1.961,5.014,5.014,0,0,1,5.055,0,4.508,4.508,0,0,1,1.711,1.961,6.811,6.811,0,0,1,.605,2.949Zm-2.375-.516a4.787,4.787,0,0,0-.641-2.719,2.263,2.263,0,0,0-3.648-.012,4.732,4.732,0,0,0-.648,2.691v.555a4.847,4.847,0,0,0,.641,2.7,2.243,2.243,0,0,0,3.656.035,4.819,4.819,0,0,0,.641-2.7ZM32.215,61.117h4.977V63h-7.32V51.625h2.344ZM47.379,57.57a6.867,6.867,0,0,1-.594,2.945,4.472,4.472,0,0,1-1.7,1.953,5.021,5.021,0,0,1-5.059.008,4.515,4.515,0,0,1-1.719-1.941,6.67,6.67,0,0,1-.617-2.9V57.07a6.831,6.831,0,0,1,.605-2.957,4.508,4.508,0,0,1,1.711-1.961,5.014,5.014,0,0,1,5.055,0,4.508,4.508,0,0,1,1.711,1.961,6.811,6.811,0,0,1,.605,2.949ZM45,57.055a4.787,4.787,0,0,0-.641-2.719,2.263,2.263,0,0,0-3.648-.012,4.732,4.732,0,0,0-.648,2.691v.555a4.847,4.847,0,0,0,.641,2.7,2.243,2.243,0,0,0,3.656.035,4.819,4.819,0,0,0,.641-2.7Zm-2.016-8.477h2.461L43.285,51H41.449ZM58.082,61.563a4.068,4.068,0,0,1-1.789,1.176,7.492,7.492,0,0,1-2.562.418,5.076,5.076,0,0,1-2.59-.645,4.3,4.3,0,0,1-1.719-1.871,6.585,6.585,0,0,1-.621-2.883v-.773a6.994,6.994,0,0,1,.574-2.949,4.248,4.248,0,0,1,1.656-1.906,5.453,5.453,0,0,1,5.7.3,4.123,4.123,0,0,1,1.352,2.809H55.8a2.268,2.268,0,0,0-.691-1.43,2.208,2.208,0,0,0-1.473-.453,2.078,2.078,0,0,0-1.82.9,4.724,4.724,0,0,0-.633,2.672v.727a4.5,4.5,0,0,0,.68,2.7,2.327,2.327,0,0,0,1.992.914,2.6,2.6,0,0,0,1.883-.562V58.75H53.605V57.023h4.477ZM62.473,63H60.129V51.625h2.344Zm11.1-3.789A4.025,4.025,0,0,1,72.219,62.1,4.76,4.76,0,0,1,69,63.156a4.28,4.28,0,0,1-3.441-1.473A6.038,6.038,0,0,1,64.3,57.641v-.7a6.819,6.819,0,0,1,.578-2.891,4.332,4.332,0,0,1,1.652-1.918,5.164,5.164,0,0,1,5.668.387,4.326,4.326,0,0,1,1.391,2.961H71.246a2.376,2.376,0,0,0-.613-1.6,2.271,2.271,0,0,0-1.605-.5,1.991,1.991,0,0,0-1.754.84,4.707,4.707,0,0,0-.6,2.605V57.7a5.038,5.038,0,0,0,.559,2.7A1.954,1.954,0,0,0,69,61.242a2.314,2.314,0,0,0,1.621-.5,2.241,2.241,0,0,0,.613-1.535ZM84.457,57.57a6.867,6.867,0,0,1-.594,2.945,4.472,4.472,0,0,1-1.7,1.953,5.021,5.021,0,0,1-5.059.008,4.515,4.515,0,0,1-1.719-1.941,6.67,6.67,0,0,1-.617-2.9V57.07a6.831,6.831,0,0,1,.605-2.957,4.508,4.508,0,0,1,1.711-1.961,5.014,5.014,0,0,1,5.055,0,4.508,4.508,0,0,1,1.711,1.961,6.811,6.811,0,0,1,.605,2.949Zm-2.375-.516a4.787,4.787,0,0,0-.641-2.719,2.263,2.263,0,0,0-3.648-.012,4.732,4.732,0,0,0-.648,2.691v.555a4.847,4.847,0,0,0,.641,2.7,2.243,2.243,0,0,0,3.656.035,4.819,4.819,0,0,0,.641-2.7Z" transform="translate(-8934 -4233)" fill="#12263f"/>
    <rect id="Rectángulo_377960" data-name="Rectángulo 377960" width="12" height="5" transform="translate(-8944 -3839) rotate(180)" fill="#0a5e6b"/>
    <rect id="Rectángulo_377965" data-name="Rectángulo 377965" width="12" height="5" transform="translate(-8944 -3921) rotate(180)" fill="#0a5e6b"/>
    <rect id="Rectángulo_377966" data-name="Rectángulo 377966" width="12" height="5" transform="translate(-8944 -4015) rotate(180)" fill="#0a5e6b"/>
    <rect id="Rectángulo_377967" data-name="Rectángulo 377967" width="12" height="5" transform="translate(-8944 -4108) rotate(180)" fill="#0a5e6b"/>
    <rect id="Rectángulo_377961" data-name="Rectángulo 377961" width="12" height="5" transform="translate(-9095 -3839) rotate(180)" fill="#0a5e6b"/>
    <rect id="Rectángulo_377962" data-name="Rectángulo 377962" width="12" height="5" transform="translate(-9095 -3921) rotate(180)" fill="#0a5e6b"/>
    <rect id="Rectángulo_377963" data-name="Rectángulo 377963" width="12" height="5" transform="translate(-9095 -4014) rotate(180)" fill="#0a5e6b"/>
    <rect id="Rectángulo_377964" data-name="Rectángulo 377964" width="12" height="5" transform="translate(-9095 -4108) rotate(180)" fill="#0a5e6b"/>
    <path id="Polígono_81" data-name="Polígono 81" d="M5.5,0,11,11H0Z" transform="translate(-8934 -3847) rotate(90)" fill="#0a5e6b"/>
    <path id="Polígono_86" data-name="Polígono 86" d="M5.5,0,11,11H0Z" transform="translate(-8934 -3929) rotate(90)" fill="#0a5e6b"/>
    <path id="Polígono_87" data-name="Polígono 87" d="M5.5,0,11,11H0Z" transform="translate(-8934 -4023) rotate(90)" fill="#0a5e6b"/>
    <path id="Polígono_88" data-name="Polígono 88" d="M5.5,0,11,11H0Z" transform="translate(-8934 -4116) rotate(90)" fill="#0a5e6b"/>
    <path id="Polígono_82" data-name="Polígono 82" d="M5.5,0,11,11H0Z" transform="translate(-9085 -3847) rotate(90)" fill="#0a5e6b"/>
    <path id="Polígono_83" data-name="Polígono 83" d="M5.5,0,11,11H0Z" transform="translate(-9085 -3929) rotate(90)" fill="#0a5e6b"/>
    <path id="Polígono_84" data-name="Polígono 84" d="M5.5,0,11,11H0Z" transform="translate(-9085 -4022) rotate(90)" fill="#0a5e6b"/>
    <path id="Polígono_85" data-name="Polígono 85" d="M5.5,0,11,11H0Z" transform="translate(-9085 -4116) rotate(90)" fill="#0a5e6b"/>
  </g>
</svg>
