<svg id="Grupo_1072429" data-name="Grupo 1072429" xmlns="http://www.w3.org/2000/svg" xmlns:xlink="http://www.w3.org/1999/xlink" width="104.093" height="119.686" viewBox="0 0 104.093 119.686">
  <defs>
    <clipPath id="clip-path">
      <rect id="Rectángulo_378050" data-name="Rectángulo 378050" width="104.093" height="119.686" fill="#0a5e6b"/>
    </clipPath>
  </defs>
  <g id="Grupo_1072428" data-name="Grupo 1072428" clip-path="url(#clip-path)">
    <path id="Trazado_839007" data-name="Trazado 839007" d="M.055,68.053q0-21.319,0-42.639a1.748,1.748,0,0,1,.366-1.265A1.639,1.639,0,0,1,2.2,23.535a1.86,1.86,0,0,1,1.251,1.648c.019.358,0,.717,0,1.075q0,41.4,0,82.8a7.2,7.2,0,0,0,.09,1.537,2.1,2.1,0,0,0,2,1.715c.28.015.561.014.841.014H57.107c.639,0,1.278.006,1.916,0,.087,0,.2.023.243-.088s-.07-.156-.127-.224a21.2,21.2,0,0,1-4.376-8.765,25.178,25.178,0,0,1-.424-7.011,14.418,14.418,0,0,1,.774-3.692,22.033,22.033,0,0,1,2.327-5.128,1.692,1.692,0,0,1,3.1,1.33,3.366,3.366,0,0,1-.381.8,16.886,16.886,0,0,0-2.4,7.625,17.753,17.753,0,0,0,.28,5.069,17.716,17.716,0,0,0,13.065,13.475,17.6,17.6,0,0,0,8.831-.111,17.27,17.27,0,0,0,9.728-6.774,16.72,16.72,0,0,0,3.125-7.857A17.59,17.59,0,0,0,80.906,81.848a17.9,17.9,0,0,0-9.215-.537,16.4,16.4,0,0,0-5.719,2.3,2.007,2.007,0,0,1-2.065.28,1.643,1.643,0,0,1-.49-2.6,10.226,10.226,0,0,1,2.773-1.705,21.93,21.93,0,0,1,6.17-1.913,26.241,26.241,0,0,1,4.618-.129c.321.006.436-.053.434-.4-.006-1.152.035-2.305.035-3.458q0-18.514-.009-37.028c0-.607-.031-1.215-.027-1.823,0-.259-.072-.341-.345-.346-5.67-.108-11.342-.071-17.012-.021a5.869,5.869,0,0,1-5.583-3.966,2.756,2.756,0,0,1-.168-.867c-.007-.872-.03-1.744-.022-2.616,0-.229-.059-.311-.28-.307-.451.01-.9.012-1.355.012q-12.527,0-25.054-.013a7.344,7.344,0,0,1-1.4-.1,3.674,3.674,0,0,1-2.974-3.671c0-1.2.035-2.4,0-3.6a3.774,3.774,0,0,1,3.522-3.828c.465-.037.933-.06,1.4-.06q12.691,0,25.382.008c.14,0,.28-.009.42,0,.22.007.294-.092.294-.31,0-1.2.007-2.4.031-3.6.007-.308-.16-.322-.379-.321H51.138l-45.014,0a3.052,3.052,0,0,0-1.715.349,2.181,2.181,0,0,0-.943,1.977c-.01,1.137.007,2.275-.009,3.413a1.608,1.608,0,0,1-1.194,1.695A1.684,1.684,0,0,1,.085,17.234a27.074,27.074,0,0,1,.049-4.855A5.348,5.348,0,0,1,3.1,8.408,4.967,4.967,0,0,1,5.559,7.8c1.869.006,3.739-.025,5.609-.009.408,0,.489-.121.478-.5a11.549,11.549,0,0,1,.163-3.024A5.647,5.647,0,0,1,16.617.095,18.665,18.665,0,0,1,18.483,0Q50.363,0,82.242,0A6.382,6.382,0,0,1,86.31,1.111a5.7,5.7,0,0,1,2.323,4.8q-.033,12.763-.012,25.527,0,24.9-.018,49.792a2.009,2.009,0,0,0,.751,1.7A20.615,20.615,0,0,1,95.818,93.7a20.144,20.144,0,0,1-1.438,13.792,20.725,20.725,0,0,1-10.5,10.321,20.154,20.154,0,0,1-11.527,1.644,21.026,21.026,0,0,1-8.6-3.292,1.771,1.771,0,0,0-1.307-.357,7.48,7.48,0,0,1-1.12.022q-27.2,0-54.41,0a13.25,13.25,0,0,1-2.1-.12,5.614,5.614,0,0,1-4.631-4.091,5.055,5.055,0,0,1-.131-1.67q0-17.182,0-34.364,0-3.763,0-7.527ZM85.2,79.976c0-.207,0-.36,0-.513q0-10.028,0-20.055,0-26.6.012-53.2c0-1.948-.755-2.729-2.707-2.741-2.337-.015-4.674,0-7.011,0q-27.646,0-55.292,0c-.966,0-1.932-.026-2.9-.009a2.221,2.221,0,0,0-2.249,2.3q0,.608,0,1.216c0,.821,0,.821.84.82,12.947,0,25.894.017,38.841-.03a4.233,4.233,0,0,1,3.306,1.39C63.72,14.911,69.456,20.61,75.173,26.329q2.462,2.462,4.923,4.926a2.4,2.4,0,0,1,.829,1.8c-.03,4.737-.023,9.474-.022,14.212q0,15.333,0,30.666a.378.378,0,0,0,.328.42A22.9,22.9,0,0,1,85.2,79.976m-10.434-49L57.62,13.885c.092-.073.074-.045.074-.016,0,5.048-.015,10.1,0,15.144a1.978,1.978,0,0,0,1.833,1.958,11.657,11.657,0,0,0,1.54.006q6.075,0,12.15,0h1.552m-34.269-12v0h-.421c-4.253,0-8.507.008-12.76-.011-.485,0-.654.125-.636.615q.06,1.611.038,3.224c-.006.4.125.491.507.489,3.023-.014,6.045-.005,9.068-.005q8.741,0,17.481.007c.374,0,.488-.107.484-.471-.014-1.075.011-2.15,0-3.225-.007-.624-.025-.626-.672-.626H40.5" transform="translate(0 0)" fill="#0a5e6b"/>
    <path id="Trazado_839008" data-name="Trazado 839008" d="M258.983,63.649q0,13.623.01,27.246a3.256,3.256,0,0,1-.876,2.292,22.012,22.012,0,0,1-2.717,2.626.477.477,0,0,0-.185.441c0,.732.006,1.465,0,2.2a1.811,1.811,0,0,1-1.676,1.8,1.7,1.7,0,0,1-1.809-1.524A17.6,17.6,0,0,1,251.7,96.3a.627.627,0,0,0-.28-.533,21.577,21.577,0,0,1-2.849-2.822,3.788,3.788,0,0,1-.73-2.548q.014-10.843.006-21.687,0-15.8-.011-31.6a5.855,5.855,0,0,1,2.344-4.995,5.534,5.534,0,0,1,8.814,4.565q-.029,13.484-.011,26.967Zm-7.644.974h.012q0,8.763,0,17.527c0,.28-.015.56-.018.841,0,.219.069.326.33.321,1.043-.019,2.087-.009,3.13-.013.783,0,.789-.006.789-.793q0-17.294,0-34.587c0-.483-.015-.966,0-1.449.008-.274-.068-.387-.366-.382-1.184.016-2.368.014-3.551,0-.265,0-.336.075-.336.349q.015,9.091.007,18.181m0-25.255c0,.966.009,1.932-.005,2.9,0,.274.061.391.36.387,1.168-.015,2.336-.015,3.5-.007.267,0,.394-.057.392-.36-.015-1.885,0-3.77-.027-5.654a2.159,2.159,0,0,0-1.367-2,2.137,2.137,0,0,0-2.469.707,2.379,2.379,0,0,0-.384,1.554c-.01.825,0,1.651,0,2.476m0,49.49h-.027c0,.544.006,1.089,0,1.633a.9.9,0,0,0,.235.727c.515.5,1.032.992,1.532,1.5a.445.445,0,0,0,.743-.007c.489-.5.992-.988,1.484-1.486a.847.847,0,0,0,.285-.616q-.009-1.774,0-3.548c0-.211-.061-.307-.291-.309-1.213-.012-2.426-.058-3.639,0-.275.012-.331.125-.322.379.02.575.006,1.151.006,1.726" transform="translate(-154.899 -19.359)" fill="#0a5e6b"/>
    <path id="Trazado_839009" data-name="Trazado 839009" d="M37.2,250.107q-3.81,0-7.619,0a3.764,3.764,0,0,1-3.764-3.49c-.046-.621-.065-1.245-.066-1.867q0-6.4.008-12.81a7.768,7.768,0,0,1,.192-1.994,3.7,3.7,0,0,1,3.494-2.733c5.111-.007,10.221.016,15.332-.011a3.759,3.759,0,0,1,3.8,3.484c0,.264.034.529.034.793,0,4.862-.009,9.724.01,14.587a3.846,3.846,0,0,1-3.8,4.044c-2.54-.006-5.079,0-7.619,0m-7.922-11.442h-.006c0,2.477.011,4.954-.012,7.43,0,.359.037.483.425.482q7.453-.022,14.9-.01c.408,0,.523-.114.522-.529-.015-4.876-.01-9.752-.011-14.628,0-.66,0-.66-.637-.685-.3-.012-.591-.03-.887-.03-4.626,0-9.251,0-13.877-.013-.372,0-.43.129-.429.458.012,2.508.007,5.016.007,7.524" transform="translate(-16.093 -142.006)" fill="#0a5e6b"/>
    <path id="Trazado_839010" data-name="Trazado 839010" d="M171.546,238.957a3.111,3.111,0,0,1,1.935.541c.979.642,1.843,1.433,2.767,2.147a.476.476,0,0,0,.74-.017c2.062-1.831,4.145-3.637,6.21-5.463a3.693,3.693,0,0,1,3.2-.911,3.265,3.265,0,0,1,1.883,1.05c.924.991,1.808,2.018,2.728,3.013a3.606,3.606,0,0,1-.321,5.11q-2.587,2.295-5.175,4.588-3.447,3.05-6.9,6.1a2.835,2.835,0,0,1-2.979.661,2.2,2.2,0,0,1-.719-.421q-4.085-3.455-8.168-6.911a4.128,4.128,0,0,1-1.321-1.936,3.208,3.208,0,0,1,.573-3.124c.955-1.187,2.014-2.294,3.073-3.392a3.087,3.087,0,0,1,2.472-1.035m16.966,2.716c-.07-.086-.145-.185-.227-.277-.61-.687-1.215-1.379-1.834-2.057-.834-.913-.555-1.005-1.617-.084-2.105,1.827-4.18,3.689-6.277,5.525a2.591,2.591,0,0,1-3.607.15c-.995-.749-1.97-1.524-2.931-2.317-.33-.272-.527-.3-.826.049-.729.851-1.476,1.69-2.268,2.482-.31.31-.284.438.023.7q3.645,3.068,7.265,6.167c.309.265.493.274.8,0,1.593-1.442,3.208-2.86,4.817-4.284q3.182-2.818,6.367-5.635c.125-.111.283-.2.314-.411" transform="translate(-103.286 -147.002)" fill="#0a5e6b"/>
    <path id="Trazado_839011" data-name="Trazado 839011" d="M59.965,123.954q13.438,0,26.876,0a1.724,1.724,0,0,1,1.872,1.848,1.789,1.789,0,0,1-1.512,1.611,5.449,5.449,0,0,1-1.163.08q-25.824,0-51.649-.008a9.118,9.118,0,0,1-1.772-.063,1.731,1.731,0,0,1-1.484-1.417,1.644,1.644,0,0,1,.784-1.8,2.54,2.54,0,0,1,1.36-.247l20.893,0h5.8Z" transform="translate(-19.437 -77.474)" fill="#0a5e6b"/>
    <path id="Trazado_839012" data-name="Trazado 839012" d="M59.843,106.774q-13.391,0-26.782,0c-.8,0-1.541-.1-1.888-.966a1.7,1.7,0,0,1,1.4-2.446,4.884,4.884,0,0,1,.744-.048q26.5,0,53.005,0a5.127,5.127,0,0,1,.837.068,1.683,1.683,0,0,1,1.5,1.826,1.6,1.6,0,0,1-1.708,1.546c-3.49.016-6.979.006-10.469.005H59.843Z" transform="translate(-19.384 -64.575)" fill="#0a5e6b"/>
    <path id="Trazado_839013" data-name="Trazado 839013" d="M59.848,148.033q-12.455,0-24.91,0c-.654,0-1.308.023-1.963.024a1.633,1.633,0,0,1-1.834-1.661,1.61,1.61,0,0,1,1.742-1.758c.124-.007.249,0,.374,0q26.616,0,53.232,0a3.224,3.224,0,0,1,1.1.156,1.667,1.667,0,0,1-.358,3.253c-.7.041-1.4-.007-2.1-.007H59.848Z" transform="translate(-19.464 -90.4)" fill="#0a5e6b"/>
    <path id="Trazado_839014" data-name="Trazado 839014" d="M40.467,199.73c-2.538,0-5.075,0-7.614,0a1.725,1.725,0,0,1-1.576-2.665,1.785,1.785,0,0,1,1.74-.778c1.447-.031,2.9,0,4.343,0q5.114,0,10.229-.01a9.292,9.292,0,0,1,.929.063,1.667,1.667,0,0,1,1.446,1.762,1.784,1.784,0,0,1-1.745,1.624c-1.386.015-2.771,0-4.157,0h-3.6" transform="translate(-19.383 -122.674)" fill="#0a5e6b"/>
    <path id="Trazado_839015" data-name="Trazado 839015" d="M92.239,165.373q3.715,0,7.43,0a1.955,1.955,0,0,1,1.247.3,1.754,1.754,0,0,1,.665,1.9,1.851,1.851,0,0,1-1.707,1.233c-.155.015-.312.009-.467.009q-7.22,0-14.44,0a3.4,3.4,0,0,1-.879-.094,1.631,1.631,0,0,1-1.3-1.71,1.605,1.605,0,0,1,1.414-1.6,4.473,4.473,0,0,1,.744-.047q3.645-.005,7.29,0Z" transform="translate(-51.746 -103.354)" fill="#0a5e6b"/>
    <path id="Trazado_839016" data-name="Trazado 839016" d="M41.384,253.688a1.655,1.655,0,0,1,.954-1.587q3.707-1.866,7.421-3.716a1.9,1.9,0,0,1,2-.055,1.666,1.666,0,0,1-.148,2.939q-3.07,1.572-6.168,3.087a9.837,9.837,0,0,1-1.939.9,1.608,1.608,0,0,1-2.118-1.569" transform="translate(-25.866 -155.049)" fill="#0a5e6b"/>
  </g>
</svg>
