<svg xmlns="http://www.w3.org/2000/svg" xmlns:xlink="http://www.w3.org/1999/xlink" width="119.998" height="119.998" viewBox="0 0 119.998 119.998">
  <defs>
    <clipPath id="clip-path">
      <rect id="Rectángulo_378043" data-name="Rectángulo 378043" width="56.899" height="72.82" fill="#fff"/>
    </clipPath>
  </defs>
  <g id="Grupo_1072200" data-name="Grupo 1072200" transform="translate(-269 -958)">
    <path id="Trazado_608971" data-name="Trazado 608971" d="M60,0A60,60,0,1,1,0,60,60,60,0,0,1,60,0Z" transform="translate(269 958)" fill="#0a5e6b"/>
    <g id="Grupo_1072386" data-name="Grupo 1072386" transform="translate(300.549 981.589)">
      <g id="Grupo_1072385" data-name="Grupo 1072385" clip-path="url(#clip-path)">
        <path id="Trazado_838993" data-name="Trazado 838993" d="M0,36.38Q0,18.959,0,1.537a2.89,2.89,0,0,1,.01-.369C.108.411.362.149,1.121.03A3.312,3.312,0,0,1,1.631,0H55.275c.085,0,.171,0,.256,0,.95.043,1.356.457,1.358,1.408,0,1.849,0,3.7,0,5.546,0,.616.008,1.233,0,1.849a1.276,1.276,0,0,1-.323.942,1,1,0,0,1-1.12.262.957.957,0,0,1-.657-.911c-.023-.54-.038-1.08-.039-1.62q-.006-2.574,0-5.148c0-.2-.071-.208-.233-.208q-7.381,0-14.762,0-18.673,0-37.346-.01c-.283,0-.283.107-.283.331q.015,7.068.013,14.136,0,26.481,0,52.962c0,.313,0,.626-.021.938-.011.177.045.234.221.23.483-.013.967-.013,1.45-.013l38.057,0c.476,0,.476,0,.476-.472q0-5.291,0-10.581a1.281,1.281,0,0,1,1.4-1.39q5.347,0,10.695.006c.258,0,.329-.059.329-.326q-.011-21.347-.005-42.694c0-.379.017-.758.045-1.136a1.049,1.049,0,0,1,.953-.966,1.029,1.029,0,0,1,1.088.841,3.222,3.222,0,0,1,.063.678q0,22.058.008,44.116a2.2,2.2,0,0,1-.712,1.68q-5.071,5.024-10.107,10.085c-.59.59-1.187,1.173-1.762,1.777a1.674,1.674,0,0,1-1.224.5c-.076,0-.152,0-.228,0H1.624a3.261,3.261,0,0,1-.538-.032A1.112,1.112,0,0,1,0,71.536c0-.114,0-.228,0-.341V36.38M44.481,69.1l8.654-8.659c-.073-.045-.19-.017-.3-.017-2.691,0-5.381.01-8.072.006-.236,0-.279.084-.278.3q.005,3.88,0,7.759c0,.216,0,.432,0,.614" transform="translate(0 0)" fill="#fff"/>
        <path id="Trazado_838994" data-name="Trazado 838994" d="M47.779,51.961H26.759a4.4,4.4,0,0,1-.794-.042,1.022,1.022,0,0,1-.9-.918,5.634,5.634,0,0,1-.056-.793q0-6.727,0-13.454a3.582,3.582,0,0,1,.113-.984.941.941,0,0,1,.776-.7,3.438,3.438,0,0,1,.707-.061l42.237,0a4.479,4.479,0,0,1,.651.037.982.982,0,0,1,.965,1,7.766,7.766,0,0,1,.044.852q0,6.713,0,13.426a6.02,6.02,0,0,1-.038.681.966.966,0,0,1-.838.906,4.3,4.3,0,0,1-.907.049q-10.468,0-20.935,0Zm-.02-14.815h-4.92q-7.693,0-15.387,0c-.234,0-.3.058-.3.3q.008,5.845,0,11.689c0,.721,0,.722.715.722q20.079,0,40.159,0c.274,0,.344-.072.343-.344q-.015-6.015,0-12.031c0-.256-.026-.392-.327-.341a3.113,3.113,0,0,1-.511,0H47.759" transform="translate(-19.313 -27.039)" fill="#fff"/>
        <path id="Trazado_838995" data-name="Trazado 838995" d="M46.537,135.038q0,6.327,0,12.654c0,.369,0,.74-.033,1.108a.963.963,0,0,1-.928.937,4.723,4.723,0,0,1-.511.025H26.469c-1.07,0-1.4-.3-1.454-1.36-.012-.217-.013-.436-.013-.654q0-12.825,0-25.65a5.465,5.465,0,0,1,.059-.906.961.961,0,0,1,.876-.868,4.061,4.061,0,0,1,.566-.042q9.328,0,18.655,0a2.8,2.8,0,0,1,.537.046.955.955,0,0,1,.808.867c.029.311.036.625.036.937q0,6.455,0,12.91Zm-2.124,0h0q0-6.128,0-12.257c0-.382,0-.382-.381-.382H28.3c-.313,0-.626.006-.938,0-.159,0-.216.051-.211.215.009.312-.007.625-.007.938q0,11.233,0,22.465c0,.455.008.91-.011,1.365-.009.208.033.275.259.274q7.65-.012,15.3-.007c.483,0,.967-.013,1.45,0,.2,0,.276-.037.275-.265q-.012-6.171-.006-12.342" transform="translate(-19.312 -92.908)" fill="#fff"/>
        <path id="Trazado_838996" data-name="Trazado 838996" d="M141.145,120.272h9.385c.9,0,1.26.33,1.327,1.221.011.142.013.284.013.426q0,5.062,0,10.124a7.138,7.138,0,0,1-.041.823.943.943,0,0,1-.852.887,3.185,3.185,0,0,1-.537.045q-9.271,0-18.542,0c-1.162,0-1.524-.326-1.536-1.5-.022-2.322-.012-4.645-.014-6.967q0-1.706,0-3.413a6.544,6.544,0,0,1,.035-.681,1.013,1.013,0,0,1,.867-.919,4.427,4.427,0,0,1,.793-.05h9.1Zm-.068,11.393v0c2.778,0,5.555,0,8.333.007.264,0,.328-.062.327-.322q-.015-4.337,0-8.674c0-.23-.063-.285-.286-.285q-8.376.006-16.751,0c-.186,0-.235.045-.234.239.009,2.787.005,5.574.01,8.361,0,.223-.124.506.036.654s.435.025.659.025q3.953.006,7.906,0" transform="translate(-100.685 -92.904)" fill="#fff"/>
        <path id="Trazado_838997" data-name="Trazado 838997" d="M141.108,203.939q-4.677,0-9.354,0a3.473,3.473,0,0,1-.482-.027.971.971,0,0,1-.888-.949c-.026-.34-.036-.682-.036-1.023q0-4.791,0-9.583c0-.284.014-.568.033-.852a1.044,1.044,0,0,1,1.064-1.068c.217-.017.436-.02.653-.02q9.1,0,18.2,0a3.084,3.084,0,0,1,.763.057.949.949,0,0,1,.757.822,3.392,3.392,0,0,1,.046.566c0,3.545.006,7.09-.008,10.635,0,1.13-.325,1.431-1.45,1.433q-4.649.009-9.3,0Zm-.011-11.41q-4.179,0-8.358,0c-.212,0-.288.033-.286.276.028,2.937.037,5.875,0,8.812,0,.168.05.216.208.213.36-.008.72,0,1.08,0q7.847,0,15.693,0c.26,0,.306-.078.305-.319q-.011-4.35,0-8.7c0-.234-.065-.282-.287-.281q-4.179.011-8.358,0" transform="translate(-100.685 -147.087)" fill="#fff"/>
      </g>
    </g>
  </g>
</svg>
