<svg xmlns="http://www.w3.org/2000/svg" xmlns:xlink="http://www.w3.org/1999/xlink" width="400" height="2586" viewBox="0 0 400 2586">
  <defs>
    <clipPath id="clip-path">
      <rect id="Rectángulo_377812" data-name="Rectángulo 377812" width="250.287" height="11.188" fill="#1fd27a"/>
    </clipPath>
    <clipPath id="clip-path-2">
      <rect id="Rectángulo_377812-2" data-name="Rectángulo 377812" width="498.9" height="11.188" fill="#1fd27a"/>
    </clipPath>
    <clipPath id="clip-path-4">
      <rect id="Rectángulo_377815" data-name="Rectángulo 377815" width="507.047" height="11.188" fill="#0a5e6b"/>
    </clipPath>
    <clipPath id="clip-path-6">
      <path id="Trazado_838727" data-name="Trazado 838727" d="M27.514,249.994a26.411,26.411,0,1,0,26.411-26.411,26.415,26.415,0,0,0-26.411,26.411" transform="translate(-27.514 -223.583)" fill="#1fd27a"/>
    </clipPath>
    <clipPath id="clip-path-9">
      <path id="Trazado_838731" data-name="Trazado 838731" d="M105.594,249.994a26.411,26.411,0,1,0,26.411-26.411,26.412,26.412,0,0,0-26.411,26.411" transform="translate(-105.594 -223.583)" fill="#0a5e6b"/>
    </clipPath>
    <clipPath id="clip-path-11">
      <rect id="Rectángulo_378045" data-name="Rectángulo 378045" width="231" height="501" transform="translate(285 12584)" fill="#fff" stroke="#707070" stroke-width="1"/>
    </clipPath>
    <clipPath id="clip-path-12">
      <path id="Trazado_838750" data-name="Trazado 838750" d="M115.586,0C51.75,0,0,45.46,0,101.537V501.065H86.569l29.017,74.913L144.6,501.065h86.569V101.537C231.172,45.46,179.422,0,115.586,0Z" fill="#1fd27a"/>
    </clipPath>
    <clipPath id="clip-path-13">
      <path id="Trazado_838998" data-name="Trazado 838998" d="M11.049,90.964A79.776,79.776,0,1,0,90.825,11.192,79.773,79.773,0,0,0,11.049,90.964" transform="translate(-11.049 -11.192)" fill="none"/>
    </clipPath>
    <linearGradient id="linear-gradient" x1="-0.012" y1="3.431" x2="0.002" y2="3.431" gradientUnits="objectBoundingBox">
      <stop offset="0" stop-color="#eee"/>
      <stop offset="1" stop-color="#fff"/>
    </linearGradient>
    <clipPath id="clip-path-14">
      <rect id="Rectángulo_378036" data-name="Rectángulo 378036" width="106.365" height="107.426" fill="#1fd27a"/>
    </clipPath>
    <clipPath id="clip-path-15">
      <rect id="Rectángulo_378046" data-name="Rectángulo 378046" width="231" height="503" transform="translate(349 12970)" fill="#fff" stroke="#707070" stroke-width="1"/>
    </clipPath>
    <clipPath id="clip-path-16">
      <path id="Trazado_838747" data-name="Trazado 838747" d="M193.666,0C129.83,0,78.08,45.46,78.08,101.537V501.065h86.572l29.014,74.913,29.017-74.913h86.569V101.537C309.252,45.46,257.5,0,193.666,0Z" transform="translate(-78.08)" fill="#0a5e6b"/>
    </clipPath>
    <clipPath id="clip-path-17">
      <path id="Trazado_838748" data-name="Trazado 838748" d="M89.13,90.964A79.774,79.774,0,1,0,168.9,11.192,79.771,79.771,0,0,0,89.13,90.964" transform="translate(-89.13 -11.192)" fill="none"/>
    </clipPath>
    <linearGradient id="linear-gradient-2" x1="-1.134" y1="3.431" x2="-1.119" y2="3.431" xlink:href="#linear-gradient"/>
    <clipPath id="clip-path-18">
      <rect id="Rectángulo_378037" data-name="Rectángulo 378037" width="97.77" height="97.644" fill="#0a5e6b"/>
    </clipPath>
    <clipPath id="clip-path-19">
      <rect id="Rectángulo_378047" data-name="Rectángulo 378047" width="231" height="503" transform="translate(349 13490)" fill="#fff" stroke="#707070" stroke-width="1"/>
    </clipPath>
    <clipPath id="clip-path-20">
      <path id="Trazado_838741" data-name="Trazado 838741" d="M271.746,0C207.91,0,156.16,45.46,156.16,101.537V501.065h86.569l29.017,74.913,29.017-74.913h86.569V101.537C387.332,45.46,335.582,0,271.746,0Z" transform="translate(-156.16)" fill="#b8ead1"/>
    </clipPath>
    <clipPath id="clip-path-21">
      <path id="Trazado_838742" data-name="Trazado 838742" d="M167.209,90.964a79.774,79.774,0,1,0,79.776-79.772,79.775,79.775,0,0,0-79.776,79.772" transform="translate(-167.209 -11.192)" fill="none"/>
    </clipPath>
    <linearGradient id="linear-gradient-3" x1="-2.255" y1="3.431" x2="-2.241" y2="3.431" xlink:href="#linear-gradient"/>
    <clipPath id="clip-path-22">
      <rect id="Rectángulo_378038" data-name="Rectángulo 378038" width="112.82" height="112.541" fill="#1fd27a"/>
    </clipPath>
    <clipPath id="clip-path-23">
      <rect id="Rectángulo_378048" data-name="Rectángulo 378048" width="231" height="500" transform="translate(349 14013)" fill="#fff" stroke="#707070" stroke-width="1"/>
    </clipPath>
    <clipPath id="clip-path-24">
      <path id="Trazado_838735" data-name="Trazado 838735" d="M349.826,0C285.99,0,234.24,45.46,234.24,101.537V501.065h86.572l29.014,74.913,29.017-74.913h86.569V101.537C465.412,45.46,413.662,0,349.826,0Z" transform="translate(-234.24)" fill="none" stroke="#dbe5f3" stroke-width="1"/>
    </clipPath>
    <clipPath id="clip-path-25">
      <path id="Trazado_838736" data-name="Trazado 838736" d="M245.29,90.964a79.774,79.774,0,1,0,79.772-79.772A79.771,79.771,0,0,0,245.29,90.964" transform="translate(-245.29 -11.192)" fill="none"/>
    </clipPath>
    <linearGradient id="linear-gradient-4" x1="-3.377" y1="3.431" x2="-3.363" y2="3.431" xlink:href="#linear-gradient"/>
    <clipPath id="clip-path-26">
      <rect id="Rectángulo_378039" data-name="Rectángulo 378039" width="105" height="100.765" fill="#0a5e6b"/>
    </clipPath>
    <clipPath id="clip-path-27">
      <rect id="Rectángulo_378049" data-name="Rectángulo 378049" width="231" height="502" transform="translate(349 14533)" fill="#fff" stroke="#707070" stroke-width="1"/>
    </clipPath>
    <clipPath id="clip-path-28">
      <path id="Trazado_838738" data-name="Trazado 838738" d="M426.852,0C363.013,0,311.263,45.46,311.263,101.537V501.065h86.569l29.021,74.913,29.014-74.913h86.569V101.537C542.435,45.46,490.685,0,426.852,0Z" transform="translate(-311.263)" fill="#b8ead1"/>
    </clipPath>
    <clipPath id="clip-path-29">
      <path id="Trazado_838739" data-name="Trazado 838739" d="M322.312,90.964a79.776,79.776,0,1,0,79.779-79.772,79.776,79.776,0,0,0-79.779,79.772" transform="translate(-322.312 -11.192)" fill="none"/>
    </clipPath>
    <linearGradient id="linear-gradient-5" x1="-4.483" y1="3.431" x2="-4.469" y2="3.431" xlink:href="#linear-gradient"/>
    <clipPath id="clip-path-30">
      <rect id="Rectángulo_378040" data-name="Rectángulo 378040" width="96.865" height="101.421" fill="#1fd27a"/>
    </clipPath>
  </defs>
  <g id="Grupo_1072461" data-name="Grupo 1072461" transform="translate(12020 3196)">
    <g id="Grupo_1072408" data-name="Grupo 1072408" transform="translate(-11987.994 -3196) rotate(90)">
      <g id="Grupo_1072209" data-name="Grupo 1072209" clip-path="url(#clip-path)">
        <rect id="Rectángulo_377811" data-name="Rectángulo 377811" width="250.287" height="11.188" transform="translate(0)" fill="#1fd27a"/>
      </g>
    </g>
    <g id="Grupo_1072418" data-name="Grupo 1072418" transform="translate(-11987.994 -2403.613) rotate(90)">
      <g id="Grupo_1072209-2" data-name="Grupo 1072209" clip-path="url(#clip-path-2)">
        <rect id="Rectángulo_377811-2" data-name="Rectángulo 377811" width="498.9" height="11.188" transform="translate(0)" fill="#1fd27a"/>
      </g>
    </g>
    <g id="Grupo_1072424" data-name="Grupo 1072424" transform="translate(-11987.994 -1363.547) rotate(90)">
      <g id="Grupo_1072209-3" data-name="Grupo 1072209" clip-path="url(#clip-path-2)">
        <rect id="Rectángulo_377811-3" data-name="Rectángulo 377811" width="498.9" height="11.188" transform="translate(0)" fill="#1fd27a"/>
      </g>
    </g>
    <g id="Grupo_1072409" data-name="Grupo 1072409" transform="translate(-11987.994 -2945.714) rotate(90)">
      <g id="Grupo_1072213" data-name="Grupo 1072213" clip-path="url(#clip-path-4)">
        <rect id="Rectángulo_377814" data-name="Rectángulo 377814" width="507.047" height="11.188" transform="translate(0)" fill="#0a5e6b"/>
      </g>
    </g>
    <g id="Grupo_1072422" data-name="Grupo 1072422" transform="translate(-11987.994 -1903.5) rotate(90)">
      <g id="Grupo_1072213-2" data-name="Grupo 1072213" clip-path="url(#clip-path-4)">
        <rect id="Rectángulo_377814-2" data-name="Rectángulo 377814" width="507.047" height="11.188" transform="translate(0)" fill="#0a5e6b"/>
      </g>
    </g>
    <g id="Grupo_1072403" data-name="Grupo 1072403" transform="translate(-11967.174 -2972.125) rotate(90)">
      <g id="Grupo_1072215" data-name="Grupo 1072215" clip-path="url(#clip-path-6)">
        <rect id="Rectángulo_377816" data-name="Rectángulo 377816" width="52.823" height="52.826" transform="translate(0 0)" fill="#1fd27a"/>
      </g>
    </g>
    <g id="Grupo_1072419" data-name="Grupo 1072419" transform="translate(-11967.174 -1929.911) rotate(90)">
      <g id="Grupo_1072215-2" data-name="Grupo 1072215" clip-path="url(#clip-path-6)">
        <rect id="Rectángulo_377816-2" data-name="Rectángulo 377816" width="52.823" height="52.826" transform="translate(0 0)" fill="#1fd27a"/>
      </g>
    </g>
    <g id="Grupo_1072425" data-name="Grupo 1072425" transform="translate(-11967.174 -889.846) rotate(90)">
      <g id="Grupo_1072215-3" data-name="Grupo 1072215" clip-path="url(#clip-path-6)">
        <rect id="Rectángulo_377816-3" data-name="Rectángulo 377816" width="52.823" height="52.826" transform="translate(0 0)" fill="#1fd27a"/>
      </g>
    </g>
    <path id="Trazado_839000" data-name="Trazado 839000" d="M54.584,239.467A11.187,11.187,0,1,1,43.4,228.282a11.185,11.185,0,0,1,11.185,11.185" transform="translate(-11754.122 -2989.112) rotate(90)" fill="#fff"/>
    <path id="Trazado_839004" data-name="Trazado 839004" d="M54.584,239.467A11.187,11.187,0,1,1,43.4,228.282a11.185,11.185,0,0,1,11.185,11.185" transform="translate(-11754.122 -1946.898) rotate(90)" fill="#fff"/>
    <path id="Trazado_839006" data-name="Trazado 839006" d="M54.584,239.467A11.187,11.187,0,1,1,43.4,228.282a11.185,11.185,0,0,1,11.185,11.185" transform="translate(-11754.122 -906.832) rotate(90)" fill="#fff"/>
    <g id="Grupo_1072405" data-name="Grupo 1072405" transform="translate(-11967.174 -2449.911) rotate(90)">
      <g id="Grupo_1072227" data-name="Grupo 1072227" clip-path="url(#clip-path-9)">
        <rect id="Rectángulo_377824" data-name="Rectángulo 377824" width="52.823" height="52.826" transform="translate(0 0)" fill="#0a5e6b"/>
      </g>
    </g>
    <g id="Grupo_1072421" data-name="Grupo 1072421" transform="translate(-11967.174 -1407.697) rotate(90)">
      <g id="Grupo_1072227-2" data-name="Grupo 1072227" clip-path="url(#clip-path-9)">
        <rect id="Rectángulo_377824-2" data-name="Rectángulo 377824" width="52.823" height="52.826" transform="translate(0 0)" fill="#0a5e6b"/>
      </g>
    </g>
    <path id="Trazado_839003" data-name="Trazado 839003" d="M54.584,239.467A11.187,11.187,0,1,1,43.4,228.282a11.185,11.185,0,0,1,11.185,11.185" transform="translate(-11754.119 -2466.896) rotate(90)" fill="#fff"/>
    <g id="Enmascarar_grupo_87" data-name="Enmascarar grupo 87" transform="translate(-12136 -15780)" clip-path="url(#clip-path-11)">
      <g id="Grupo_1072412" data-name="Grupo 1072412">
        <g id="Grupo_1072387" data-name="Grupo 1072387" transform="translate(285.002 12583.7)">
          <g id="Grupo_1072265" data-name="Grupo 1072265" clip-path="url(#clip-path-12)">
            <rect id="Rectángulo_377843" data-name="Rectángulo 377843" width="231.172" height="575.979" transform="translate(0)" fill="#b8ead1"/>
          </g>
        </g>
        <g id="Grupo_1072388" data-name="Grupo 1072388" transform="translate(320.813 12619.974)" clip-path="url(#clip-path-13)">
          <rect id="Rectángulo_378044" data-name="Rectángulo 378044" width="225.637" height="225.637" transform="translate(-79.774 79.774) rotate(-45)" fill="url(#linear-gradient)"/>
        </g>
        <text id="_1._Estructurar_el_resumen_narrativo_del_proyecto_a_través_de_la_herramienta_Matriz_de_Marco_Lógico_MML_usando_los_insumos_de_la_etapa_de_análisis._Plantear_el_fin_objetivo_central_componentes_y_actividades_del_proyecto." data-name="1. Estructurar el resumen narrativo del proyecto a través de la herramienta “Matriz de Marco Lógico” (MML), usando los insumos de la etapa de análisis. Plantear el fin, objetivo central, componentes y actividades del proyecto." transform="translate(305 12803.304)" fill="#12263f" font-size="16" font-family="Roboto-Bold, Roboto" font-weight="700"><tspan x="5.672" y="15">1.</tspan><tspan y="15" xml:space="preserve" font-family="Roboto-Regular, Roboto" font-weight="400"> Estructurar el resumen </tspan><tspan x="11.828" y="39" font-family="Roboto-Regular, Roboto" font-weight="400">narrativo del proyecto a </tspan><tspan x="9.547" y="63" font-family="Roboto-Regular, Roboto" font-weight="400">través de la herramienta </tspan><tspan x="34.18" y="87" font-family="Roboto-Regular, Roboto" font-weight="400">“Matriz de Marco </tspan><tspan x="0.324" y="111" font-family="Roboto-Regular, Roboto" font-weight="400">Lógico” (MML), usando los </tspan><tspan x="12.652" y="135" font-family="Roboto-Regular, Roboto" font-weight="400">insumos de la etapa de </tspan><tspan x="13.504" y="159" font-family="Roboto-Regular, Roboto" font-weight="400">análisis. Plantear el fin, </tspan><tspan x="39.02" y="183" font-family="Roboto-Regular, Roboto" font-weight="400">objetivo central, </tspan><tspan x="40.379" y="207" font-family="Roboto-Regular, Roboto" font-weight="400">componentes y </tspan><tspan x="6.715" y="231" font-family="Roboto-Regular, Roboto" font-weight="400">actividades del proyecto.</tspan></text>
        <g id="Grupo_1072389" data-name="Grupo 1072389" transform="translate(347.406 12650)">
          <g id="Grupo_1072370" data-name="Grupo 1072370" clip-path="url(#clip-path-14)">
            <path id="Trazado_838957" data-name="Trazado 838957" d="M0,47.11Q0,26.736,0,6.361C0,3.783.274,3.513,2.874,3.513q36.138,0,72.277.017A4.952,4.952,0,0,0,77.9,2.758,18.685,18.685,0,0,1,102.441,30.1a10.229,10.229,0,0,0-2.529,5.947,4.7,4.7,0,0,1-5.05,4.358c-5.454-.122-10.918.4-16.367-.268-1.075-.131-.592.865-.6,1.319-.039,5.655-.025,11.309-.025,16.963a10.132,10.132,0,0,1-.006,1.105,10.837,10.837,0,0,0,2.237,7.991,21.018,21.018,0,0,1,3.705,14.323,2.062,2.062,0,0,0,1.214,2.32c3.226,1.773,6.4,3.642,9.576,5.507a9.4,9.4,0,0,1-3.385,17.672,9.164,9.164,0,0,1-5.989-1.364c-3.2-1.825-6.395-3.654-9.56-5.536a1.951,1.951,0,0,0-2.446,0,24.047,24.047,0,0,1-34.561-8.18,2.389,2.389,0,0,0-2.468-1.33c-10.94.034-21.879.021-32.819.02C.075,90.947,0,90.87,0,87.489Q0,67.3,0,47.11M72.665,7.338a7.772,7.772,0,0,0-.887-.126Q38.417,7.205,5.056,7.18c-1.229,0-1.38.494-1.379,1.524q.032,38.522-.008,77.043c0,1.224.382,1.54,1.566,1.534q14.837-.062,29.674.008c1.394.008,1.5-.5,1.209-1.6a20.889,20.889,0,0,1-.184-9.858c.32-1.491-.106-1.625-1.35-1.616-5.591.042-11.181.015-16.772.019-1.425,0-2.943-.1-2.949-1.938-.006-1.8,1.492-1.777,2.834-1.774,5.222.01,10.45-.139,15.665.061,2.814.108,4.84-.3,6.033-3.254.874-2.162,2.822-3.725,4.582-5.428a4.155,4.155,0,0,0-2.23-.287q-12.257-.021-24.514-.017c-1.283,0-2.434-.353-2.384-1.9.046-1.4,1.134-1.756,2.342-1.8.491-.017.983-.007,1.474-.007q15.114,0,30.228,0a10.087,10.087,0,0,0,3.071-.458A24.066,24.066,0,0,1,72.646,59.9c.434.267.786.811,1.534.608q0-13.981.007-27.979a1.892,1.892,0,0,0-.552-1.316c-5.756-6.407-6.466-16.018-.969-23.873m7.547,73.044a20.513,20.513,0,1,0-20.468,20.491A20.418,20.418,0,0,0,80.212,80.383m7.459-43.645c2.273,0,4.547-.016,6.82.007.99.01,1.8-.3,1.794-1.376-.008-3.105,1.592-5.419,3.391-7.747A14.971,14.971,0,0,0,85.638,3.848a14.4,14.4,0,0,0-11.908,9.241,14.305,14.305,0,0,0,2.223,15.056A11.728,11.728,0,0,1,78.933,35.1c.042,1.292.742,1.665,1.918,1.644,2.273-.039,4.546-.011,6.819-.011M95.905,98a5.456,5.456,0,0,0-2.615-4.774c-3.087-1.869-6.24-3.631-9.35-5.463-.644-.379-1.024-.476-1.316.406a23.024,23.024,0,0,1-4.756,8.2c-.413.461-.506.814.1,1.154,3.462,1.952,6.809,4.158,10.417,5.785,3.536,1.6,7.519-1.413,7.523-5.3" transform="translate(0 0)" fill="#1fd27a"/>
            <path id="Trazado_838958" data-name="Trazado 838958" d="M221.744,116.447c2.332,0,4.664.027,6.995-.01,1.324-.021,2.256.566,2.24,1.857s-.98,1.853-2.283,1.848q-6.995-.027-13.99,0c-1.292.007-2.287-.51-2.324-1.8-.04-1.427.992-1.933,2.368-1.907,2.331.044,4.663.012,6.995.013" transform="translate(-134.061 -73.496)" fill="#1fd27a"/>
            <path id="Trazado_838959" data-name="Trazado 838959" d="M226.736,133.258c1.469,0,2.938-.021,4.406.007a1.825,1.825,0,1,1,.014,3.647q-4.5.075-9,0a1.746,1.746,0,0,1-1.894-1.828c.013-1.246.84-1.828,2.063-1.833,1.469-.006,2.938,0,4.407,0v.008" transform="translate(-139.039 -84.11)" fill="#1fd27a"/>
            <path id="Trazado_838960" data-name="Trazado 838960" d="M64.2,58.544q-10.592,0-21.183.006c-1.379,0-2.787-.088-2.723-1.883.056-1.583,1.35-1.83,2.685-1.829q21.367.009,42.734.01c1.918,0,2.909.871,2.617,2.224-.308,1.429-1.416,1.479-2.579,1.477q-10.776-.016-21.551-.005" transform="translate(-25.436 -34.615)" fill="#1fd27a"/>
            <path id="Trazado_838961" data-name="Trazado 838961" d="M64.341,126.707q-10.407,0-20.814,0a11.265,11.265,0,0,1-1.835-.087,1.783,1.783,0,0,1-.034-3.5A8.821,8.821,0,0,1,43.489,123q20.814-.008,41.628,0c.246,0,.492.008.737,0,1.316-.038,2.445.368,2.458,1.845s-1.086,1.876-2.419,1.872c-4.912-.019-9.824-.006-14.735-.006H64.341" transform="translate(-25.39 -77.637)" fill="#1fd27a"/>
            <path id="Trazado_838962" data-name="Trazado 838962" d="M64.157,92.718q-10.218,0-20.437,0a13.168,13.168,0,0,1-1.835-.085,1.777,1.777,0,0,1-.034-3.544,12.577,12.577,0,0,1,1.835-.078q20.622-.006,41.243,0c1.445,0,3.34-.292,3.355,1.83s-1.87,1.868-3.323,1.871q-10.4.019-20.806.006" transform="translate(-25.39 -56.178)" fill="#1fd27a"/>
            <path id="Trazado_838963" data-name="Trazado 838963" d="M175.586,190.362c.054,1.287-.246,2.408-1.764,2.5-1.438.089-1.888-.94-1.932-2.164a12.055,12.055,0,0,0-11.156-11.624c-1.241-.059-2.225-.659-2.093-2.03.131-1.343,1.145-1.7,2.42-1.658,7.549.272,14.211,7.122,14.524,14.974" transform="translate(-100.132 -110.708)" fill="#1fd27a"/>
            <path id="Trazado_838964" data-name="Trazado 838964" d="M204.2,28.888c-.072-4.09,4.665-9.719,8.791-10.455a1.766,1.766,0,0,1,2.218,1.141,1.638,1.638,0,0,1-.976,2.271,9.267,9.267,0,0,0-6.486,7.7,1.606,1.606,0,0,1-1.958,1.27,1.771,1.771,0,0,1-1.59-1.928" transform="translate(-128.897 -11.604)" fill="#1fd27a"/>
          </g>
        </g>
      </g>
    </g>
    <path id="Polígono_97" data-name="Polígono 97" d="M53.5,0,107,93H0Z" transform="translate(-11935 -2892) rotate(-90)" fill="#b8ead1"/>
    <path id="Polígono_99" data-name="Polígono 99" d="M53.5,0,107,93H0Z" transform="translate(-11943 -1850) rotate(-90)" fill="#b8ead1"/>
    <path id="Polígono_101" data-name="Polígono 101" d="M53.5,0,107,93H0Z" transform="translate(-11943 -807) rotate(-90)" fill="#b8ead1"/>
    <path id="Polígono_98" data-name="Polígono 98" d="M53.5,0,107,93H0Z" transform="translate(-11944 -2370) rotate(-90)" fill="#dbe5f3"/>
    <path id="Polígono_100" data-name="Polígono 100" d="M53.5,0,107,93H0Z" transform="translate(-11943 -1328) rotate(-90)" fill="#dbe5f3"/>
    <g id="Enmascarar_grupo_88" data-name="Enmascarar grupo 88" transform="translate(-12200 -15645)" clip-path="url(#clip-path-15)">
      <g id="Grupo_1072413" data-name="Grupo 1072413">
        <g id="Grupo_1072390" data-name="Grupo 1072390" transform="translate(348.828 12971.35)">
          <g id="Grupo_1072259" data-name="Grupo 1072259" transform="translate(0)" clip-path="url(#clip-path-16)">
            <path id="Trazado_838754" data-name="Trazado 838754" d="M0,0H231.172V575.979H0Z" fill="#dbe5f3"/>
          </g>
        </g>
        <g id="Grupo_1072391" data-name="Grupo 1072391" transform="translate(384.642 13007.623)">
          <g id="Grupo_1072261" data-name="Grupo 1072261" transform="translate(0)" clip-path="url(#clip-path-17)">
            <rect id="Rectángulo_377841" data-name="Rectángulo 377841" width="225.635" height="225.635" transform="translate(-79.774 79.774) rotate(-45)" fill="url(#linear-gradient-2)"/>
          </g>
        </g>
        <text id="_2._Diseñar_los_indicadores_del_proyecto_para_cada_uno_de_los_niveles_de_la_MML_aplicando_los_criterios_para_la_selección_los_cuales_deben_medir_en_cualquier_momento_de_ejecución_del_proyecto_el_avance_de_la_actividad_componente_resultado_u_objetivo." data-name="2. Diseñar los indicadores del proyecto para cada uno de los niveles de la MML aplicando los criterios para la selección los cuales deben medir en cualquier momento de ejecución del proyecto el avance de la actividad, componente, resultado u objetivo." transform="translate(364.074 13190.953)" fill="#12263f" font-size="16" font-family="Roboto-Bold, Roboto" font-weight="700"><tspan x="6.574" y="15">2.</tspan><tspan y="15" xml:space="preserve" font-family="Roboto-Regular, Roboto" font-weight="400"> Diseñar los indicadores </tspan><tspan x="2.477" y="39" font-family="Roboto-Regular, Roboto" font-weight="400">del proyecto para cada uno </tspan><tspan x="11.18" y="63" font-family="Roboto-Regular, Roboto" font-weight="400">de los niveles de la MML </tspan><tspan x="2.414" y="87" font-family="Roboto-Regular, Roboto" font-weight="400">aplicando los criterios para </tspan><tspan x="18.547" y="111" font-family="Roboto-Regular, Roboto" font-weight="400">la selección los cuales </tspan><tspan x="8.871" y="135" font-family="Roboto-Regular, Roboto" font-weight="400">deben medir en cualquier </tspan><tspan x="4.691" y="159" font-family="Roboto-Regular, Roboto" font-weight="400">momento de ejecución del </tspan><tspan x="13.176" y="183" font-family="Roboto-Regular, Roboto" font-weight="400">proyecto el avance de la </tspan><tspan x="16.363" y="207" font-family="Roboto-Regular, Roboto" font-weight="400">actividad, componente, </tspan><tspan x="26.504" y="231" font-family="Roboto-Regular, Roboto" font-weight="400">resultado u objetivo.</tspan></text>
        <g id="Grupo_1072392" data-name="Grupo 1072392" transform="translate(417.994 13038.575)">
          <g id="Grupo_1072372" data-name="Grupo 1072372" clip-path="url(#clip-path-18)">
            <path id="Trazado_838965" data-name="Trazado 838965" d="M61.461,86.641a4.917,4.917,0,0,1-3.073,4.38c-.578.241-.7.725-.939,1.181a9.241,9.241,0,0,1-8.711,5.428A9.113,9.113,0,0,1,40.2,92.212a3.316,3.316,0,0,0-1.508-1.47A4.515,4.515,0,0,1,36.828,84.4a1.48,1.48,0,0,0-.006-1.824,4.842,4.842,0,0,1-.653-2.724c-.594-.057-.805.443-1.119.746a35.816,35.816,0,0,0-3,3.013A27.605,27.605,0,0,1,18.4,92.6C14.3,93.87,10.345,95.578,6.353,97.158c-1.882.744-3.617.732-5.1-.732s-1.523-3.2-.787-5.087c2.414-6.2,4.78-12.41,7.152-18.622a5.749,5.749,0,0,1,1.372-2.071c4.061-4.03,8.085-8.1,12.159-12.113a1.753,1.753,0,0,0,.574-2.165A21.222,21.222,0,0,1,20.69,45.684c.173-1.206-.082-1.637-1.4-1.6-3.2.1-6.4.058-9.606.025A9.407,9.407,0,0,1,.255,36.836,9.272,9.272,0,0,1,5.728,26.013c.844-.39.879-.843.782-1.579A15.693,15.693,0,0,1,16.564,7.274c6.882-2.592,14.43-.043,18.706,6.386a1.537,1.537,0,0,0,1.793.789c5.346-.89,9.57.966,12.711,5.327a1.909,1.909,0,0,0,1.54.873,21.53,21.53,0,0,1,5.541,1.06c.887.314,1.341-.257,1.868-.785Q67.237,12.4,75.771,3.9a12.709,12.709,0,1,1,18.06,17.883C88.2,27.509,82.5,33.168,76.8,38.817a2.173,2.173,0,0,0-.693,2.6,14.09,14.09,0,0,1,.817,4.47c.008,1.025.381,1.593,1.494,1.371,1.637-.327,2.164.407,1.9,1.944a6.083,6.083,0,0,0-.008.944,3.013,3.013,0,0,0,1.915,3.127,3.1,3.1,0,0,0,3.572-.861c2.077-2.009,2.093-1.994,4.158.069,1.262,1.261,2.487,2.563,3.8,3.774.68.628.653,1.055-.021,1.625a15.342,15.342,0,0,0-1.553,1.562,2.884,2.884,0,0,0-.564,3.214,2.991,2.991,0,0,0,2.651,1.92c.052.006.105,0,.157.007,1.027.112,2.385-.477,3.007.259.647.766.177,2.112.2,3.2.034,1.627-.041,3.257.028,4.881.038.917-.287,1.207-1.166,1.132a13.975,13.975,0,0,0-2.2.005,2.9,2.9,0,0,0-2.665,1.886,3.052,3.052,0,0,0,.528,3.233c.683.877,2.248,1.457,2,2.542-.221.962-1.477,1.69-2.288,2.51-1.107,1.12-2.247,2.208-3.328,3.352-.517.547-.892.577-1.4-.006a18.109,18.109,0,0,0-1.674-1.664,2.88,2.88,0,0,0-3.211-.574,2.989,2.989,0,0,0-1.928,2.644c-.006.052,0,.105-.007.158-.108,1.028.472,2.383-.253,3.011-.76.658-2.109.182-3.2.205-1.679.036-3.361-.022-5.039.022-.756.02-1.033-.241-.982-.991a20.5,20.5,0,0,0,0-2.2,3.083,3.083,0,0,0-5.23-2.2c-.155.142-.3.295-.449.441-1.732,1.691-1.732,1.691-3.7.212M30.6,40.96q10.153,0,20.306,0a12.811,12.811,0,0,0,1.572-.039,4.711,4.711,0,0,0,.369-9.309c-2.195-.454-4.779.805-5.227,2.988-.349,1.7-1.216,1.674-2.482,1.674-.988,0-1.144-.373-.981-1.222A7.235,7.235,0,0,1,47.3,29.988a3.118,3.118,0,0,0,1.489-2.87A9.453,9.453,0,0,0,30.3,24.04c-.246.832-.234,1.436.759,1.875a5.91,5.91,0,0,1,3.47,4.561c.062.323.293.871-.17.947a10.419,10.419,0,0,1-2.5.058c-.633-.051-.442-.742-.624-1.132a3.086,3.086,0,0,0-2.8-1.958,2.567,2.567,0,0,0-2.793,1.636c-.436,1.637-1.461,1.507-2.674,1.515-.972.006-1-.436-.838-1.166a6.208,6.208,0,0,1,3.681-4.594c.581-.259,1.075-.492,1.2-1.263a11.875,11.875,0,0,1,5.1-7.989c.728-.517.772-.887.273-1.623a12.608,12.608,0,0,0-22.929,8.24c.124,1.416.53,2.139,2.123,2.4a9.183,9.183,0,0,1,7.246,8.1c.025.335.22.881-.243.947a8.4,8.4,0,0,1-2.5.018c-.663-.109-.406-.877-.519-1.333A6.278,6.278,0,1,0,3.406,36.413a6.21,6.21,0,0,0,6.1,4.533c7.031.036,14.062.011,21.094.014M50.7,59.868v.007c-2.676,0-5.352-.01-8.027.005a1.494,1.494,0,0,0-1.69,1.485c-.038,1.084.655,1.6,1.7,1.634.891.027,1.784,0,2.676.014a4.736,4.736,0,0,1,5.024,5.036c.03,2.1.066,4.2-.018,6.3-.043,1.073.344,1.33,1.338,1.285,1.623-.072,3.254-.065,4.878,0a1.37,1.37,0,0,0,1.521-.982,21.981,21.981,0,0,1,4.3-6.161c1.919-2.009,3.926-3.935,5.855-5.936a18.92,18.92,0,0,0,5.4-9.764c2.291-12.641-6.495-25.684-19.13-28.461-.81-.178-1.737-.741-2.438-.321-.959.573.084,1.586-.128,2.412-.387,1.5.322,1.96,1.786,2.231a7.611,7.611,0,0,1,6.079,7.578,7.828,7.828,0,0,1-6.051,7.645,25.369,25.369,0,0,1-5.644.232c-4.116.037-4.116.012-4.041,4.057.032,1.761.485,2.235,2.246,2.242,3.883.015,7.766-.02,11.648.014a4.717,4.717,0,0,1,4.992,4.74c-.012,2.709-2.083,4.666-5.034,4.7-2.413.03-4.827.006-7.241.006m-.524-3.158c2.466,0,4.931-.014,7.4.006,1.162.009,2.226-.215,2.2-1.61s-1.127-1.58-2.267-1.539c-.367.013-.734,0-1.1,0-3.462,0-6.925.022-10.386-.008-3.172-.027-5.043-1.936-5.086-5.129-.015-1.1-.035-2.2.008-3.3.027-.71-.154-1.028-.949-1.023-4.983.03-9.967.022-14.95.006-.677,0-1.024.153-1.138.921-.907,6.126.222,11.692,4.468,16.393,1.439,1.594,2.964,3.112,4.487,4.627,2.647,2.634,5.211,5.333,6.751,8.8a1.187,1.187,0,0,0,1.337.772,42.854,42.854,0,0,1,4.718.014c1.392.119,1.691-.425,1.589-1.677-.106-1.3-.024-2.621-.024-3.932,0-3.853,0-3.853-3.775-3.863-.21,0-.42,0-.629,0-2.952-.061-5.02-1.995-5.032-4.706a4.724,4.724,0,0,1,4.987-4.743c2.465-.033,4.931-.007,7.4-.008M64.539,70.883a19.01,19.01,0,0,0-3.851,5.7,1.177,1.177,0,0,0-.064,1.193,5.373,5.373,0,0,1,.718,3.464c-.1,1.089,1.05,1.458,1.626,2.159.407.495.73.01,1.057-.2,4.18-2.728,8.936-.832,9.873,4.058.249,1.3.992.945,1.674.94s1.434.382,1.684-.932c.932-4.887,5.727-6.839,9.844-4.036,1,.681,1.33.009,1.745-.489s1.431-.709.667-1.851c-2.8-4.183-.9-8.951,3.96-9.881,1.256-.24.993-.925.993-1.644,0-.768.279-1.5-1.058-1.748-4.751-.886-6.711-5.786-3.941-9.785.755-1.09-.081-1.375-.551-1.87-.485-.511-.813-1.258-1.874-.512a6.171,6.171,0,0,1-9.518-2.752c-.111-.252.023-.678-.553-.72A27.677,27.677,0,0,1,75.3,58.188c6.893.782,11.149,4.9,11.294,10.806a11.025,11.025,0,0,1-9.587,11.249c-5.647.869-10.442-2.662-12.466-9.36m21.1-67.7a10.751,10.751,0,0,0-8.5,3.766c-.7.736-.742,1.142,0,1.867C80.626,12.229,84.051,15.7,87.5,19.144c2.384,2.382,2.425,2.411,4.579-.132A9.1,9.1,0,0,0,93.566,8.751a9.038,9.038,0,0,0-7.925-5.565M22.056,87.434c-.133-.162-.28-.373-.459-.552Q16.162,81.438,10.724,76c-.518-.519-.778-.518-1.06.243C8.576,79.178,7.435,82.1,6.287,85.009a1,1,0,0,0,.265,1.245q2.409,2.363,4.772,4.774a1.1,1.1,0,0,0,1.373.314c2.861-1.14,5.74-2.235,8.611-3.348.278-.108.643-.092.748-.56M28.727,66.57a4.966,4.966,0,0,0-.4-.541,37.68,37.68,0,0,1-4.3-5.014c-.525-.754-.808-.074-1.069.185-3.541,3.51-7.047,7.054-10.6,10.551-.656.645-.411,1.016.106,1.519,1.354,1.318,2.721,2.626,4,4.017.7.766,1.121.57,1.751-.071,3.239-3.292,6.519-6.543,9.78-9.813.251-.252.472-.534.735-.834m2.246,2.421c-.125.1-.3.226-.442.372C27.08,72.81,23.642,76.27,20.172,79.7c-.6.6-.337.948.123,1.4,1.384,1.36,2.783,2.708,4.107,4.126.661.707,1.065.49,1.634-.086q4.645-4.7,9.347-9.344c.572-.565.736-1,.233-1.734A31.8,31.8,0,0,0,31.8,69.471c-.218-.218-.41-.491-.828-.481m52.471.364a7.962,7.962,0,0,0-5.412-7.536c-2.78-.9-4.56-.39-6.515,1.817a30.7,30.7,0,0,1-2.611,2.723,3.609,3.609,0,0,0-1.195,2.932,7.866,7.866,0,0,0,15.733.064M74.787,20.5a6.072,6.072,0,0,0-.418-.535c-1.518-1.524-3.059-3.026-4.554-4.572-.587-.607-.909-.158-1.274.206-2.3,2.3-4.587,4.614-6.91,6.892-.56.55-.616.841.153,1.221a23.676,23.676,0,0,1,5.2,3.506c.54.478.85.36,1.289-.086,1.989-2.018,4-4.011,6-6.018.177-.177.321-.387.507-.615m-.2,15.993a4.018,4.018,0,0,0,.35-.283c2.439-2.44,4.865-4.892,7.319-7.316.49-.484.274-.79-.1-1.159-1.445-1.438-2.9-2.866-4.314-4.335-.529-.55-.9-.492-1.4.025-1.973,2.018-3.973,4.01-5.977,6-.386.383-.542.671-.107,1.164a26.375,26.375,0,0,1,3.666,5.445c.11.215.205.487.56.461M87.511,23.747c-.424-.472-.683-.788-.971-1.077-3.849-3.855-7.748-7.661-11.525-11.586-1.042-1.083-1.52-.524-2.195.227-.628.7-1.6,1.12-.356,2.308,3.935,3.765,7.729,7.677,11.6,11.513.327.324.619,1.08,1.223.649a23.8,23.8,0,0,0,2.226-2.034M48.916,78.77c-2.465,0-4.929.013-7.393-.006-1.112-.009-2.088.252-2.111,1.543s.917,1.61,2.047,1.607q7.315-.016,14.629,0c1.113,0,2.1-.258,2.11-1.545.013-1.4-1.042-1.618-2.2-1.607-2.359.021-4.719.006-7.079.006m-.088,6.3c-2.412,0-4.824.014-7.236-.006-1.168-.009-2.209.235-2.178,1.631.029,1.289,1.028,1.525,2.133,1.521q7.236-.02,14.472,0c1.169,0,2.208-.242,2.178-1.633-.028-1.288-1.028-1.529-2.133-1.52-2.412.02-4.824.006-7.236.006m5.322,6.443H43.44a6.318,6.318,0,0,0,10.709,0m-49.4-2.44c-.514,1.34-1.028,2.533-1.429,3.762-.386,1.181.282,1.882,1.448,1.507,1.263-.406,2.483-.946,3.823-1.468l-3.842-3.8" transform="translate(0 0)" fill="#0a5e6b"/>
            <path id="Trazado_838966" data-name="Trazado 838966" d="M234.4,209.784a4.717,4.717,0,1,1-4.68-4.714,4.726,4.726,0,0,1,4.68,4.714m-4.653-1.555a1.5,1.5,0,0,0-1.59,1.416,1.531,1.531,0,1,0,3.056.129,1.5,1.5,0,0,0-1.466-1.545" transform="translate(-154.1 -140.473)" fill="#0a5e6b"/>
          </g>
        </g>
      </g>
    </g>
    <g id="Enmascarar_grupo_89" data-name="Enmascarar grupo 89" transform="translate(-12200 -15645)" clip-path="url(#clip-path-19)">
      <g id="Grupo_1072417" data-name="Grupo 1072417">
        <g id="Grupo_1072414" data-name="Grupo 1072414" transform="translate(348.828 13492)">
          <g id="Grupo_1072247" data-name="Grupo 1072247" transform="translate(0)" clip-path="url(#clip-path-20)">
            <rect id="Rectángulo_377834" data-name="Rectángulo 377834" width="231.172" height="575.979" transform="translate(0 0)" fill="#b8ead1"/>
          </g>
        </g>
        <g id="Grupo_1072415" data-name="Grupo 1072415" transform="translate(384.766 13528.273)">
          <g id="Grupo_1072249" data-name="Grupo 1072249" transform="translate(0)" clip-path="url(#clip-path-21)">
            <rect id="Rectángulo_377835" data-name="Rectángulo 377835" width="225.635" height="225.635" transform="translate(-79.774 79.774) rotate(-45)" fill="url(#linear-gradient-3)"/>
          </g>
        </g>
        <text id="_3.Proponer_los_medios_de_verificación_correspondientes_a_los_indicadores_del_proyecto_en_la_MML_lo_que_implica_determinar_de_que_manera_se_podrá_evidenciar_el_avance_que_se_ha_encontrado_al_calcular_el_anterior_indicador." data-name="3.Proponer los medios de verificación correspondientes a los indicadores del proyecto en la MML, lo que implica determinar de que manera se podrá evidenciar el avance que se ha encontrado al calcular el anterior indicador." transform="translate(366.078 13711.604)" fill="#12263f" font-size="16" font-family="Roboto-Bold, Roboto" font-weight="700"><tspan x="5.477" y="15">3.</tspan><tspan y="15" font-family="Roboto-Regular, Roboto" font-weight="400">Proponer los medios de </tspan><tspan x="55.965" y="39" font-family="Roboto-Regular, Roboto" font-weight="400">verificación </tspan><tspan x="15.809" y="63" font-family="Roboto-Regular, Roboto" font-weight="400">correspondientes a los </tspan><tspan x="9.801" y="87" font-family="Roboto-Regular, Roboto" font-weight="400">indicadores del proyecto </tspan><tspan x="6.496" y="111" font-family="Roboto-Regular, Roboto" font-weight="400">en la MML, lo que implica </tspan><tspan x="3.211" y="135" font-family="Roboto-Regular, Roboto" font-weight="400">determinar de que manera </tspan><tspan x="19.445" y="159" font-family="Roboto-Regular, Roboto" font-weight="400">se podrá evidenciar el </tspan><tspan x="35.191" y="183" font-family="Roboto-Regular, Roboto" font-weight="400">avance que se ha </tspan><tspan x="9.852" y="207" font-family="Roboto-Regular, Roboto" font-weight="400">encontrado al calcular el </tspan><tspan x="32.48" y="231" font-family="Roboto-Regular, Roboto" font-weight="400">anterior indicador.</tspan></text>
        <g id="Grupo_1072416" data-name="Grupo 1072416" transform="translate(408.129 13551.777)">
          <g id="Grupo_1072374" data-name="Grupo 1072374" clip-path="url(#clip-path-22)">
            <path id="Trazado_838967" data-name="Trazado 838967" d="M24.455,43.152q0-12.134,0-24.267a22.519,22.519,0,0,1,.008-2.811,6.585,6.585,0,0,1,2.1-3.909c3.163-3.124,6.3-6.271,9.454-9.407A14.142,14.142,0,0,1,38,.956,6.582,6.582,0,0,1,41.826,0Q56.437,0,71.048,0c4.936,0,9.873-.007,14.809.006A6.373,6.373,0,0,1,88.941.6,5.566,5.566,0,0,1,92.084,5.88c-.029,6.7-.02,13.393-.024,20.09,0,.864.007,1.727.011,2.591,0,.07-.036.16.058.187.118.033.186-.064.257-.134q.923-.912,1.844-1.828L101,20.041a3.663,3.663,0,0,1,4.147-.956,4.063,4.063,0,0,1,1.435.994q2.448,2.438,4.891,4.882a4.8,4.8,0,0,1,.907,1.182,3.5,3.5,0,0,1-.615,4.213c-.718.774-1.486,1.5-2.234,2.247Q101.114,41,92.692,49.383a2.02,2.02,0,0,0-.658,1.575c.03,7.078.024,14.155.03,21.233,0,.6.042,1.2.018,1.8-.014.362.1.322.335.19q1.837-1.041,3.677-2.076c1.954-1.1,3.911-2.2,5.861-3.309a5.881,5.881,0,0,1,6.906,9.464c-2.238,1.9-4.562,3.692-6.852,5.526q-9.433,7.551-18.87,15.1-7.132,5.7-14.264,11.411a10.036,10.036,0,0,1-5.858,2.236,7.864,7.864,0,0,1-2.739-.365c-2.143-.656-4.266-1.376-6.4-2.065-1.282-.414-2.568-.816-3.853-1.223-1.787-.566-3.575-1.129-5.361-1.7-2.5-.8-4.991-1.611-7.491-2.4-3.323-1.054-6.652-2.089-9.975-3.142-1.508-.478-3.009-.977-4.511-1.475A10.665,10.665,0,0,0,21.1,99.8c-.354-.06-.494.068-.55.407a5.581,5.581,0,0,1-1.431,3.005,5.822,5.822,0,0,1-4.335,1.838c-3,.041-6,.066-8.991,0a5.645,5.645,0,0,1-5.73-5.229C.039,99.413,0,99.006,0,98.6Q0,86.11,0,73.625a5.775,5.775,0,0,1,3.243-5.516,5.151,5.151,0,0,1,2.422-.548c3.114-.013,6.229-.034,9.343,0a5.589,5.589,0,0,1,4.971,2.963,4.045,4.045,0,0,1,.421,1.15c.055.231.158.337.4.236q1.737-.745,3.472-1.494c.226-.1.2-.3.2-.49q-.008-5.341-.016-10.683,0-8.045,0-16.09m64.02,10.514c-.351.33-.641.59-.916.863q-2.653,2.638-5.3,5.281a3.257,3.257,0,0,1-1.309.856c-2.036.655-4.063,1.336-6.092,2.01-.779.258-1.55.542-2.333.785a11,11,0,0,1-3.325.226q-16.307.006-32.614.011c-.381,0-.763-.025-1.144-.037a1.776,1.776,0,0,1-1.277-2.716,2.047,2.047,0,0,1,1.8-.884q6.479.011,12.957.006,9.211,0,18.423.013c.365,0,.5-.115.526-.457a3.866,3.866,0,0,1,.244-.931q1.126-3.346,2.243-6.7A6.961,6.961,0,0,1,71.915,49c5.4-5.326,10.758-10.7,16.138-16.042a1.423,1.423,0,0,0,.437-1.1Q88.48,19.183,88.482,6.5a8.806,8.806,0,0,0-.065-1.051,1.9,1.9,0,0,0-.743-1.3,2.325,2.325,0,0,0-1.587-.378q-22.147,0-44.293-.012c-.365,0-.435.111-.43.449.036,2.417.063,4.835,0,7.252a5.279,5.279,0,0,1-1.076,3.016,5.587,5.587,0,0,1-4.8,2.384c-2.247-.019-4.5.008-6.743-.011-.413,0-.538.084-.538.522q.019,25.409.011,50.818c0,.152.013.3.02.455a.633.633,0,0,0,.13-.007,18.5,18.5,0,0,1,9.5-.854c1.863.312,3.729.622,5.588.964,2.824.52,5.672.91,8.5,1.424q2.921.532,5.85,1,3.147.508,6.279,1.1c2.217.42,4.456.714,6.676,1.13,2.333.437,4.687.757,7.016,1.227a5.865,5.865,0,0,1,3.208,1.867,6.582,6.582,0,0,1,1.4,2.894c.071.26.132.363.432.19q2.574-1.479,5.177-2.909a.846.846,0,0,0,.5-.863q-.016-9.957,0-19.914c0-.709,0-1.419,0-2.238M59.894,82.513v.005q8.087,0,16.174,0a6.509,6.509,0,0,0,.791-.043,1.965,1.965,0,0,0,1.791-2.039,2.034,2.034,0,0,0-1.693-2.225c-.707-.128-1.409-.291-2.12-.387-2.108-.285-4.2-.669-6.289-1.049-1.932-.35-3.878-.617-5.816-.939-2.212-.367-4.41-.807-6.624-1.164-1.879-.3-3.761-.6-5.63-.973-2.07-.408-4.159-.719-6.24-1.067-1.938-.324-3.882-.609-5.812-.972a20.81,20.81,0,0,0-3.223-.412A14.661,14.661,0,0,0,28.852,72.4q-3.45,1.49-6.9,2.983c-.4.175-.927.26-1.17.565-.262.33-.076.876-.076,1.326Q20.7,86.437,20.7,95.6c0,.284.046.429.379.427a3.578,3.578,0,0,1,.865.139c2.578.637,5.071,1.551,7.6,2.338,2.7.84,5.383,1.735,8.076,2.6,2.791.891,5.587,1.768,8.379,2.655q4.231,1.344,8.46,2.7c2.121.677,4.247,1.34,6.359,2.046a6.616,6.616,0,0,0,3.175.207,5.976,5.976,0,0,0,2.788-1.426q2-1.621,4.016-3.222l20-16q7.665-6.13,15.331-12.258a3.2,3.2,0,0,0,.964-1.18,2.26,2.26,0,0,0-1.311-2.836,2.823,2.823,0,0,0-2.174.265c-.6.345-1.2.683-1.8,1.021q-9.348,5.27-18.7,10.54-8.178,4.614-16.353,9.234a6.872,6.872,0,0,1-1.356.621,5.826,5.826,0,0,1-5.039-.776c-3.263-2.056-6.549-4.076-9.821-6.118a1.9,1.9,0,0,0-1.076-.308c-1.807.025-3.613.035-5.42.042a10.494,10.494,0,0,1-1.187-.049,1.854,1.854,0,0,1-.242-3.663,4.151,4.151,0,0,1,1.007-.083H59.894M3.784,86.3h0q0,.549,0,1.1,0,5.976,0,11.952a1.914,1.914,0,0,0,.4,1.261,1.893,1.893,0,0,0,1.61.651q4.625.021,9.251.009a1.761,1.761,0,0,0,1.448-.606,2.333,2.333,0,0,0,.417-1.619q0-9.161-.013-18.322c0-2.49-.013-4.979.03-7.469a1.9,1.9,0,0,0-1.959-1.987q-4.558.068-9.118,0a2.04,2.04,0,0,0-2.088,2.074c.057,4.32.022,8.641.022,12.962m94.69-47.848c.01-.121-.079-.136-.127-.184q-2.424-2.4-4.847-4.795c-.4-.393-.392-.4-.809.017q-6.62,6.6-13.239,13.2-1.931,1.926-3.857,3.858c-.132.132-.352.239-.1.49q2.487,2.459,4.954,4.938c.167.167.29.208.5,0q3.8-3.822,7.62-7.622l9.682-9.667c.081-.081.158-.168.224-.237m5.195-16.073c-.016.074-.008.157-.046.195q-1.19,1.205-2.389,2.4c-.162.162-.128.268.033.428q2.44,2.413,4.859,4.847c.2.2.343.256.572.021.747-.766,1.511-1.517,2.279-2.262.167-.162.182-.263,0-.416-.237-.2-.457-.412-.675-.629q-2.136-2.125-4.268-4.254c-.082-.081-.171-.156-.362-.332m.177,10.71-.173-.155c-.152-.138-.309-.27-.454-.414q-2.291-2.276-4.58-4.556c-.093-.093-.161-.261-.342-.078-.791.8-1.592,1.6-2.386,2.4-.125.126-.147.21.026.378,1.671,1.622,3.355,3.232,4.932,4.946.169.183.279.193.458.011.772-.781,1.558-1.55,2.337-2.324.06-.06.112-.127.182-.207m-46.6,53.243c.022.182.174.2.277.269,1.628,1.018,3.264,2.021,4.885,3.05a2.191,2.191,0,0,0,2.443.067c.826-.473,1.662-.931,2.492-1.4q1.693-.954,3.384-1.912l-.01-.076ZM30.881,13.068a1.035,1.035,0,0,0,.7.094,35.51,35.51,0,0,1,3.826,0,1.956,1.956,0,0,0,2.248-2.046c.019-1.477-.006-2.954-.013-4.432,0-.083.034-.187-.072-.229s-.151.051-.212.112Q34.377,9.556,31.4,12.539a2.3,2.3,0,0,0-.514.529M77.31,58.006c-.177-.172-.291-.282-.4-.393L73.746,54.5c-.161-.159-.308-.321-.409.062-.446,1.7-1.1,3.326-1.617,5-.025.082-.092.174,0,.236.043.03.138,0,.2-.017q1.732-.559,3.462-1.124c.624-.2,1.245-.417,1.927-.646" transform="translate(0 0)" fill="#1fd27a"/>
            <path id="Trazado_838968" data-name="Trazado 838968" d="M120.347,67.591q-10.53,0-21.06,0c-.455,0-.91-.016-1.365-.043A1.939,1.939,0,0,1,96.006,65.7a2.044,2.044,0,0,1,1.951-1.853c.1-.006.206,0,.308,0h44.412a1.91,1.91,0,0,1,2.118,1.464,1.8,1.8,0,0,1-1.583,2.241,8.765,8.765,0,0,1-.923.044q-10.971,0-21.942,0Z" transform="translate(-62.154 -41.33)" fill="#1fd27a"/>
            <path id="Trazado_838969" data-name="Trazado 838969" d="M146,94.193q-7.733,0-15.466,0c-.234,0-.47,0-.7-.024a1.812,1.812,0,0,1-1.778-1.483,1.915,1.915,0,0,1,1.348-2.045,4,4,0,0,1,.83-.078q15.664-.005,31.328,0a2.053,2.053,0,0,1,1.578.519,1.777,1.777,0,0,1,.444,1.977,1.641,1.641,0,0,1-1.587,1.115c-.838.047-1.674,0-2.511.005q-6.741.007-13.483,0Z" transform="translate(-82.878 -58.627)" fill="#1fd27a"/>
            <path id="Trazado_838970" data-name="Trazado 838970" d="M111.086,143.631h12.776a2.433,2.433,0,0,1,1.277.263,1.871,1.871,0,0,1,.827,2.1,1.763,1.763,0,0,1-1.482,1.322,7.208,7.208,0,0,1-1.01.065q-12.181,0-24.363,0c-.4,0-.793-.017-1.188-.042a1.941,1.941,0,0,1-1.916-1.849,2.036,2.036,0,0,1,1.951-1.85c.366-.018.734,0,1.1,0h12.027" transform="translate(-62.154 -92.983)" fill="#1fd27a"/>
            <path id="Trazado_838971" data-name="Trazado 838971" d="M105.466,120.769c-2.35,0-4.7.006-7.051,0a2.181,2.181,0,0,1-2-.785,1.805,1.805,0,0,1,1.27-2.9,4.839,4.839,0,0,1,.571-.04q7.117,0,14.234,0a2.185,2.185,0,0,1,1.946.8,1.8,1.8,0,0,1-1.178,2.866,7.906,7.906,0,0,1-1.054.061q-3.371.008-6.743,0Z" transform="translate(-62.181 -75.769)" fill="#1fd27a"/>
            <path id="Trazado_838972" data-name="Trazado 838972" d="M167.582,120.766q-2.643,0-5.286,0a2.022,2.022,0,0,1-1.831-.742,1.878,1.878,0,0,1,1.258-2.928,7.839,7.839,0,0,1,.922-.058q5.087-.006,10.175-.005a2.147,2.147,0,0,1,1.952.778,1.846,1.846,0,0,1-1.2,2.9c-.263.021-.526.05-.79.05-1.732,0-3.465,0-5.2,0Z" transform="translate(-103.665 -75.765)" fill="#1fd27a"/>
            <path id="Trazado_838973" data-name="Trazado 838973" d="M99.8,94.156c-.719-.008-1.438.047-2.156-.024A1.86,1.86,0,0,1,96,92.418a1.953,1.953,0,0,1,1.488-1.826,9.368,9.368,0,0,1,1.756-.056c.836-.007,1.673-.017,2.509.011a1.843,1.843,0,0,1,1.663,1.284,1.757,1.757,0,0,1-.619,1.96,1.609,1.609,0,0,1-.886.344c-.7.073-1.408.017-2.112.021" transform="translate(-62.152 -58.604)" fill="#1fd27a"/>
            <path id="Trazado_838974" data-name="Trazado 838974" d="M24.206,266.052a4.727,4.727,0,0,1,1.355.087,1.856,1.856,0,0,1,1.468,1.917,1.9,1.9,0,0,1-1.717,1.709,10.893,10.893,0,0,1-2.281-.026,1.964,1.964,0,0,1-1.6-1.88,1.819,1.819,0,0,1,1.814-1.8,7.243,7.243,0,0,1,.966-.007" transform="translate(-13.867 -172.231)" fill="#1fd27a"/>
            <path id="Trazado_838975" data-name="Trazado 838975" d="M24.213,216.468c-.264,0-.529,0-.793,0a1.987,1.987,0,0,1-1.983-1.706,1.849,1.849,0,0,1,1.481-1.945,5.685,5.685,0,0,1,2.661.021A1.828,1.828,0,0,1,27,214.87a2.074,2.074,0,0,1-1.909,1.6c-.294,0-.587,0-.881,0" transform="translate(-13.871 -137.681)" fill="#1fd27a"/>
          </g>
        </g>
      </g>
    </g>
    <g id="Enmascarar_grupo_90" data-name="Enmascarar grupo 90" transform="translate(-12200 -15645)" clip-path="url(#clip-path-23)">
      <g id="Grupo_1072420" data-name="Grupo 1072420">
        <g id="Grupo_1072396" data-name="Grupo 1072396" transform="translate(348.828 14013)">
          <g id="Grupo_1072235" data-name="Grupo 1072235" transform="translate(0)" clip-path="url(#clip-path-24)">
            <path id="Trazado_838756" data-name="Trazado 838756" d="M0,0H231.172V575.979H0Z" transform="translate(0 0)" fill="#dbe5f3" stroke="#dbe5f3" stroke-width="1"/>
          </g>
        </g>
        <g id="Grupo_1072397" data-name="Grupo 1072397" transform="translate(384.643 14049.273)">
          <g id="Grupo_1072237" data-name="Grupo 1072237" transform="translate(0)" clip-path="url(#clip-path-25)">
            <rect id="Rectángulo_377829" data-name="Rectángulo 377829" width="225.635" height="225.635" transform="translate(-79.774 79.774) rotate(-45)" fill="url(#linear-gradient-4)"/>
          </g>
        </g>
        <text id="_4.Realizar_un_análisis_de_riesgos_y_establecer_los_supuestos_del_proyecto_en_la_MML._Los_supuestos_deben_definirse_objetivamente_evitando_subjetividades_y_fundamentarse_en_el_panorama_del_problema_central." data-name="4.Realizar un análisis de riesgos y establecer los supuestos del proyecto en la MML. Los supuestos deben definirse objetivamente, evitando subjetividades, y fundamentarse en el panorama del problema central." transform="translate(362.164 14232.604)" fill="#12263f" font-size="16" font-family="Roboto-Bold, Roboto" font-weight="700"><tspan x="16.207" y="15">4.</tspan><tspan y="15" font-family="Roboto-Regular, Roboto" font-weight="400">Realizar un análisis de </tspan><tspan x="18.578" y="39" font-family="Roboto-Regular, Roboto" font-weight="400">riesgos y establecer los </tspan><tspan x="0.793" y="63" font-family="Roboto-Regular, Roboto" font-weight="400">supuestos del proyecto en la </tspan><tspan x="4.027" y="87" font-family="Roboto-Regular, Roboto" font-weight="400">MML. Los supuestos deben </tspan><tspan x="17.656" y="111" font-family="Roboto-Regular, Roboto" font-weight="400">definirse objetivamente, </tspan><tspan x="11.195" y="135" font-family="Roboto-Regular, Roboto" font-weight="400">evitando subjetividades, y </tspan><tspan x="29.293" y="159" font-family="Roboto-Regular, Roboto" font-weight="400">fundamentarse en el </tspan><tspan x="17.805" y="183" font-family="Roboto-Regular, Roboto" font-weight="400">panorama del problema </tspan><tspan x="75.848" y="207" font-family="Roboto-Regular, Roboto" font-weight="400">central.</tspan></text>
        <g id="Grupo_1072398" data-name="Grupo 1072398" transform="translate(418.639 14077.104)">
          <g id="Grupo_1072376" data-name="Grupo 1072376" clip-path="url(#clip-path-26)">
            <path id="Trazado_838976" data-name="Trazado 838976" d="M0,50.384Q0,27.349,0,4.314A4.528,4.528,0,0,1,.682,1.652,3.924,3.924,0,0,1,4,.013C4.576-.011,5.156.006,5.734.006Q34.4.006,63.067,0a4.859,4.859,0,0,1,3.672,1.5Q71.924,6.763,77.18,11.957a4.052,4.052,0,0,1,1.269,2.857c.014.451.035.9.035,1.354q0,13.783,0,27.566a4.64,4.64,0,0,1-.021.93A1.209,1.209,0,0,0,79.069,46a21.423,21.423,0,0,1,6.138,7.179A21.949,21.949,0,0,1,87.4,59.41a21.007,21.007,0,0,1-.1,8.515,22.371,22.371,0,0,1-2.539,6.55.41.41,0,0,0,.081.609q1.93,1.841,3.835,3.708c.219.215.44.148.666.1a5.082,5.082,0,0,1,1.684-.042,3.341,3.341,0,0,1,1.869,1q5.439,5.278,10.875,10.559a3.464,3.464,0,0,1,.086,5.219q-1.942,2.038-3.937,4.026a3.34,3.34,0,0,1-4.765.13c-1.476-1.354-2.884-2.784-4.324-4.177Q87.513,92.4,84.188,89.2a3.753,3.753,0,0,1-1.356-2.975,1.97,1.97,0,0,1,.093-.625.787.787,0,0,0-.286-.974c-1.16-1.094-2.291-2.219-3.43-3.335-.137-.134-.264-.258-.477-.174a.439.439,0,0,0-.266.444c-.008.409.015.818.016,1.228q0,6.669,0,13.338a8.266,8.266,0,0,1-.089,1.392,3.714,3.714,0,0,1-3.8,3.23c-.183.011-.367.012-.55.012H4.849a6.613,6.613,0,0,1-2.417-.307A3.535,3.535,0,0,1,.089,97.549,7.877,7.877,0,0,1,0,96.2Q0,73.292,0,50.384M51.759,80.192c-.243-.213-.391-.341-.537-.472a21.723,21.723,0,0,1-4.894-6.374.752.752,0,0,0-.791-.455q-7.876.018-15.752.013a4.766,4.766,0,0,1-1.053-.083,1.6,1.6,0,0,1-.855-2.673,2.221,2.221,0,0,1,1.783-.609q7.241,0,14.482,0c.141,0,.282,0,.423,0,.183.008.285-.056.2-.247a13.512,13.512,0,0,1-.674-3.175c-.078-.427-.234-.492-.611-.491q-6.817.016-13.635,0c-.24,0-.481.011-.72,0a1.766,1.766,0,0,1-1.682-1.506,1.692,1.692,0,0,1,1.385-1.8,3.6,3.6,0,0,1,.883-.074H33.9c3.2,0,6.408,0,9.612.01.338,0,.453-.094.439-.423a3.8,3.8,0,0,1,.062-.672,24.011,24.011,0,0,1,1.425-5.725c.171-.427.137-.451-.345-.451q-7.389,0-14.778.007a11.122,11.122,0,0,1-1.226-.038,1.743,1.743,0,0,1-1.587-1.209,1.5,1.5,0,0,1,.523-1.707,2.231,2.231,0,0,1,1.509-.443c2.075,0,4.15-.007,6.225,0,3.726.016,7.452-.047,11.178.037a.663.663,0,0,0,.657-.285,20.737,20.737,0,0,1,2.633-3.25c.1-.1.259-.194.2-.339-.053-.13-.228-.057-.346-.056q-10.141.007-20.282.018a4.165,4.165,0,0,1-.844-.045,1.764,1.764,0,0,1-1.461-1.25,1.586,1.586,0,0,1,.559-1.707,1.827,1.827,0,0,1,1.31-.373q12.64.009,25.279.025a1.412,1.412,0,0,0,.727-.17,23.684,23.684,0,0,1,6.987-2.456,17.864,17.864,0,0,1,3.122-.2,18,18,0,0,1,3.756.191,23.824,23.824,0,0,1,5.254,1.56c.627.275.626.27.626-.435Q75.1,29.412,75.1,15.968c0-.3-.062-.37-.371-.369-2.992.008-5.984.014-8.976-.018a2.667,2.667,0,0,1-2.764-2.827q-.014-4.509.008-9.019c0-.281-.069-.36-.35-.364-5.758-.064-11.517-.045-17.275,0-4.742.034-9.484,0-14.226-.025C23.1,3.307,15.053,3.33,7.007,3.333c-.987,0-1.976-.043-2.963.027-.651.046-.652.041-.652.7V96.75a.691.691,0,0,1,0,.127c-.077.407.137.513.495.509.649-.008,1.3,0,1.947,0H31.578l42.428,0c1.095,0,1.086,0,1.087-1.083q.007-6.246.024-12.491c0-.5-.044-.542-.483-.328a19.13,19.13,0,0,1-4.491,1.452,22.956,22.956,0,0,1-6.318.32,21.306,21.306,0,0,1-5.941-1.407,4.352,4.352,0,0,0-1.554-.269q-13.4.007-26.8,0a3.8,3.8,0,0,1-.839-.08,1.554,1.554,0,0,1-1.215-1.269,1.5,1.5,0,0,1,.653-1.626,2.261,2.261,0,0,1,1.388-.421q10.84.011,21.68,0h.565M65.817,44.9a18.562,18.562,0,1,0,.024,37.125A18.648,18.648,0,0,0,84.409,62.509c-.4-9.281-8.27-17.816-18.592-17.61m24.6,37.159a1.063,1.063,0,0,0-.413.306q-1.743,1.789-3.483,3.58c-.446.459-.451.462.01.91q3.429,3.334,6.864,6.663c1.257,1.216,2.525,2.422,3.784,3.636.2.194.363.258.593.018q1.843-1.927,3.708-3.832c.2-.2.209-.345-.01-.553-1.093-1.041-2.172-2.1-3.254-3.149q-3.808-3.7-7.613-7.41c-.06-.058-.123-.112-.185-.168M66.44,5.76a.664.664,0,0,0-.15.468c0,1.9,0,3.8,0,5.706,0,.259.108.3.33.3.577-.018,1.155-.027,1.732-.026,1.31,0,2.62.019,3.931.024.123,0,.288.035.355-.08s-.083-.189-.158-.263c-1.3-1.294-2.6-2.58-3.888-3.881C67.87,7.28,67.175,6.529,66.44,5.76M86.424,81.235c-.05-.055-.093-.109-.142-.156q-1.726-1.681-3.451-3.364c-.148-.145-.248-.131-.38.014-.3.334-.615.659-.929.983-.095.1-.116.172-.006.278q1.762,1.705,3.518,3.416a.212.212,0,0,0,.334,0c.319-.337.634-.679.95-1.02a1.443,1.443,0,0,0,.1-.15" transform="translate(0 0)" fill="#0a5e6b"/>
            <path id="Trazado_838977" data-name="Trazado 838977" d="M78.316,51.362a19.2,19.2,0,1,1,19.2-18.438,19.239,19.239,0,0,1-19.2,18.438m.43-3.4A15.837,15.837,0,1,0,62.478,32.837,15.765,15.765,0,0,0,78.746,47.963" transform="translate(-39.098 -8.568)" fill="#0a5e6b"/>
            <path id="Trazado_838978" data-name="Trazado 838978" d="M101.409,261.6H83.247a3.452,3.452,0,0,1-1.172-.121A1.672,1.672,0,0,1,81,259.788a1.778,1.778,0,0,1,1.291-1.463,4.05,4.05,0,0,1,1.009-.086q17.654,0,35.307,0c.508,0,1.016-.015,1.524,0a1.716,1.716,0,0,1,1.343.616,1.468,1.468,0,0,1,.375,1.52,1.638,1.638,0,0,1-1.309,1.18,5.793,5.793,0,0,1-.885.056H101.409Z" transform="translate(-53.558 -170.756)" fill="#0a5e6b"/>
            <path id="Trazado_838979" data-name="Trazado 838979" d="M42.692,186.95c0,1.51-.02,3.021.006,4.531a1.747,1.747,0,0,1-1.973,1.944c-2.936.01-5.872.018-8.807,0-1.508-.011-2.14-.709-2.133-2.167.014-2.766.016-5.532-.01-8.3-.019-1.962.465-2.471,2.412-2.465,2.738.01,5.476,0,8.215,0a4.689,4.689,0,0,1,1.093.094,1.387,1.387,0,0,1,1.156,1.33c.1,1.141.039,2.285.053,3.428.006.536,0,1.073,0,1.609h-.011m-3.372.016h0c0-.916-.014-1.833.007-2.749.007-.305-.128-.354-.376-.354q-2.771,0-5.543-.012c-.218,0-.289.071-.288.295q.016,2.793.007,5.585c0,.271.1.327.351.326q2.708-.014,5.416,0c.324,0,.441-.077.431-.426-.027-.888-.009-1.776-.009-2.665" transform="translate(-19.687 -119.346)" fill="#0a5e6b"/>
            <path id="Trazado_838980" data-name="Trazado 838980" d="M42.692,133.271c0,2.158.015,3.654,0,5.15a1.862,1.862,0,0,1-2.14,2.069q-4.319,0-8.638,0a1.872,1.872,0,0,1-2.115-2.114q.031-4.467-.023-8.934a1.749,1.749,0,0,1,.811-1.663,2.153,2.153,0,0,1,1.151-.216q4.488-.015,8.977,0a6.3,6.3,0,0,1,.633.05,1.387,1.387,0,0,1,1.3,1.324c.124,1.663.023,3.33.049,4.333M36.2,137.1c.93,0,1.86-.01,2.79.006.283.005.347-.084.343-.358-.023-1.747-.028-3.494-.034-5.241,0-.546.007-.558-.548-.561-1.733-.009-3.467,0-5.2-.02-.334,0-.428.094-.425.426q.023,2.705,0,5.411c0,.3.11.346.367.342.9-.012,1.8,0,2.706,0" transform="translate(-19.685 -84.346)" fill="#0a5e6b"/>
            <path id="Trazado_838981" data-name="Trazado 838981" d="M36.246,246.3c-1.523,0-3.047.007-4.57,0a1.67,1.67,0,0,1-1.9-1.933c.053-3.032.029-6.064,0-9.1a1.709,1.709,0,0,1,1.828-1.877q4.612-.03,9.225,0a1.611,1.611,0,0,1,1.839,1.781c.068,3.159.059,6.319,0,9.478a1.517,1.517,0,0,1-1.689,1.64c-1.579.02-3.159.005-4.739.005Zm-3.1-6.452h0c0,.917.006,1.834,0,2.751,0,.243.038.339.323.336q2.73-.027,5.46-.006c.311,0,.4-.055.4-.389q-.035-2.666-.008-5.332c0-.344-.083-.433-.418-.431-1.806.01-3.612,0-5.418-.009-.25,0-.344.057-.338.328.018.917.007,1.834.007,2.751" transform="translate(-19.687 -154.317)" fill="#0a5e6b"/>
            <path id="Trazado_838982" data-name="Trazado 838982" d="M178.985,155.689a16.319,16.319,0,0,1-16.3,16.12,16.212,16.212,0,1,1,.31-32.423,16.338,16.338,0,0,1,15.993,16.3M162.7,142.779a12.708,12.708,0,0,0-12.847,12.81,12.886,12.886,0,1,0,25.76-.565c-.293-6.563-5.96-12.5-12.913-12.245" transform="translate(-96.88 -92.167)" fill="#0a5e6b"/>
            <path id="Trazado_838983" data-name="Trazado 838983" d="M106.849,47.922c-.1-.187-.271-.2-.4-.271a3.566,3.566,0,0,1-2.14-3.158c-.152-2.859-.253-5.72-.347-8.582-.053-1.621-.017-3.246-.1-4.863a3.564,3.564,0,0,1,3.286-3.58,8.4,8.4,0,0,1,1.814.052,3.452,3.452,0,0,1,2.952,3.436c-.031,2.511-.115,5.02-.194,7.53-.058,1.832-.136,3.664-.221,5.5a4.224,4.224,0,0,1-.794,2.58,4.309,4.309,0,0,1-1.918,1.318,4.555,4.555,0,0,1,2.621,1.956,4.018,4.018,0,0,1,.465,3.133A4.114,4.114,0,0,1,107.905,56a3.979,3.979,0,0,1-3.9-2.812,4.183,4.183,0,0,1,.3-3.243,4.406,4.406,0,0,1,2.546-2.028m1.529-10.213h-.019c.059-2.016.124-4.032.176-6.049.022-.848.01-.832-.864-.84-.333,0-.41.09-.417.423-.074,3.417.173,6.824.294,10.234.032.888.065,1.775.107,2.662.009.193.022.486.237.482s.206-.3.214-.487q.139-3.212.271-6.425m-.451,13.546c-.585,0-.728.127-.737.659-.008.488.192.692.682.694s.72-.213.727-.665c.007-.487-.188-.687-.671-.687" transform="translate(-68.643 -18.147)" fill="#0a5e6b"/>
          </g>
        </g>
      </g>
    </g>
    <path id="Trazado_839005" data-name="Trazado 839005" d="M54.584,239.467A11.187,11.187,0,1,1,43.4,228.282a11.185,11.185,0,0,1,11.185,11.185" transform="translate(-11754.121 -1424.897) rotate(90)" fill="#fff"/>
    <g id="Enmascarar_grupo_91" data-name="Enmascarar grupo 91" transform="translate(-12200 -15645)" clip-path="url(#clip-path-27)">
      <g id="Grupo_1072423" data-name="Grupo 1072423">
        <g id="Grupo_1072399" data-name="Grupo 1072399" transform="translate(348.828 14533.43)">
          <g id="Grupo_1072241" data-name="Grupo 1072241" transform="translate(0)" clip-path="url(#clip-path-28)">
            <rect id="Rectángulo_377831" data-name="Rectángulo 377831" width="231.172" height="575.979" transform="translate(0 0)" fill="#b8ead1"/>
          </g>
        </g>
        <g id="Grupo_1072400" data-name="Grupo 1072400" transform="translate(384.465 14569.703)">
          <g id="Grupo_1072243" data-name="Grupo 1072243" transform="translate(0)" clip-path="url(#clip-path-29)">
            <rect id="Rectángulo_377832" data-name="Rectángulo 377832" width="225.637" height="225.637" transform="translate(-79.774 79.774) rotate(-45)" fill="url(#linear-gradient-5)"/>
          </g>
        </g>
        <text id="_5._Presentar_el_documento_final_de_la_MML_los_insumos_y_herramientas_utilizados_para_su_formulación." data-name="5. Presentar el documento final de la MML, los insumos y herramientas utilizados para su formulación." transform="translate(372.828 14753.033)" fill="#12263f" font-size="16" font-family="Roboto-Bold, Roboto" font-weight="700"><tspan x="39.66" y="15">5. </tspan><tspan y="15" font-family="Roboto-Regular, Roboto" font-weight="400">Presentar el </tspan><tspan x="14.539" y="39" font-family="Roboto-Regular, Roboto" font-weight="400">documento final de la </tspan><tspan x="20.305" y="63" font-family="Roboto-Regular, Roboto" font-weight="400">MML, los insumos y </tspan><tspan x="7.801" y="87" font-family="Roboto-Regular, Roboto" font-weight="400">herramientas utilizados </tspan><tspan x="17.883" y="111" font-family="Roboto-Regular, Roboto" font-weight="400">para su formulación.</tspan></text>
        <g id="Grupo_1072401" data-name="Grupo 1072401" transform="translate(415.98 14598.767)">
          <g id="Grupo_1072378" data-name="Grupo 1072378" clip-path="url(#clip-path-30)">
            <path id="Trazado_838984" data-name="Trazado 838984" d="M.021,59.7C.021,47.139.038,34.574,0,22.01a4.9,4.9,0,0,1,1.56-3.786Q9.954,9.939,18.239,1.544A4.747,4.747,0,0,1,21.869,0Q47.684.044,73.5.021c2.753,0,3.765,1.049,3.767,3.871,0,7.6.032,15.2-.03,22.805-.01,1.2.4,1.585,1.5,1.831a22.63,22.63,0,0,1,.286,44.312c-1.422.312-1.811.808-1.8,2.241.081,7.5.041,14.993.036,22.489,0,2.805-1.023,3.849-3.79,3.849q-34.843.006-69.685,0c-2.779,0-3.766-1.019-3.767-3.863Q.018,78.629.021,59.7m5.957.053c0,11.351.014,22.7-.021,34.052,0,1.142.157,1.641,1.508,1.638q31.2-.071,62.4,0c1.223,0,1.477-.366,1.467-1.515q-.081-9.581,0-19.164c.012-1.179-.348-1.6-1.489-1.828A21.964,21.964,0,0,1,55.139,62.871,2.563,2.563,0,0,0,52.6,61.547c-11.193.036-22.385.022-33.577.021-1.056,0-2.115.039-3.167-.029a2.708,2.708,0,0,1-2.61-2.659c-.12-2.02,1.075-3.16,3.4-3.162q16.392-.017,32.785-.006c2.528,0,2.518,0,2.244-2.452a9.24,9.24,0,0,1-.094-2.053c.141-1.236-.385-1.466-1.526-1.459-8.13.048-16.261.026-24.391.026-3.062,0-6.124.028-9.186-.011-2.1-.027-3.355-1.326-3.239-3.239.11-1.8,1.394-2.775,3.718-2.776q17.105-.009,34.211-.012c.678,0,1.381.247,1.785-.792,3.093-7.936,8.871-12.765,17.191-14.525.885-.187,1.186-.488,1.18-1.421q-.066-9.819,0-19.639C71.335,6.363,71.108,6,70.031,6Q47.7,6.054,25.367,6c-1.145,0-1.4.369-1.384,1.439.055,4.276.03,8.552.019,12.828C24,22.905,22.88,24.029,20.25,24.037c-4.224.013-8.449.062-12.67-.029-1.365-.029-1.635.421-1.63,1.7.048,11.351.028,22.7.028,34.052M57.523,50.7A16.709,16.709,0,1,0,74.207,33.988,16.7,16.7,0,0,0,57.523,50.7M10.375,18.076c2.444,0,4.643,0,6.842,0,.462,0,.836-.062.834-.659-.008-2.278,0-4.556,0-7.027l-7.672,7.683" transform="translate(0 0.001)" fill="#1fd27a"/>
            <path id="Trazado_838985" data-name="Trazado 838985" d="M56.417,219.078c-3.693,0-7.386.01-11.08,0-2.234-.009-3.52-1.091-3.552-2.938-.033-1.929,1.266-3.078,3.572-3.082q11-.02,22,0c2.185,0,3.554,1.157,3.6,2.945.045,1.858-1.357,3.066-3.617,3.075-3.641.013-7.281,0-10.922,0" transform="translate(-28.545 -145.541)" fill="#1fd27a"/>
            <path id="Trazado_838986" data-name="Trazado 838986" d="M56.414,106.68c-3.748,0-7.5.01-11.244,0-2.187-.008-3.357-1.021-3.38-2.871-.024-1.921,1.162-2.973,3.44-2.976q11.4-.017,22.8,0c2.115,0,3.4,1.108,3.426,2.877.03,1.827-1.286,2.964-3.487,2.971-3.853.012-7.707,0-11.56,0" transform="translate(-28.549 -68.875)" fill="#1fd27a"/>
            <path id="Trazado_838987" data-name="Trazado 838987" d="M56.4,250.826c3.69,0,7.381-.011,11.071,0,2.174.009,3.523,1.185,3.486,2.986-.036,1.747-1.347,2.858-3.445,2.861q-11.15.015-22.3,0c-2.272,0-3.451-1.051-3.424-2.98.026-1.839,1.2-2.858,3.383-2.867,3.743-.017,7.486,0,11.229,0" transform="translate(-28.548 -171.348)" fill="#1fd27a"/>
            <path id="Trazado_838988" data-name="Trazado 838988" d="M222.738,141.543a3.251,3.251,0,0,1-1.062,2.49c-2.8,2.787-5.574,5.6-8.392,8.367a2.945,2.945,0,0,1-4.592,0q-2.508-2.408-4.912-4.923a2.985,2.985,0,0,1-.173-4.256,3.037,3.037,0,0,1,4.38.059c.078.07.15.148.229.217.971.855,1.726,2.535,2.861,2.444.973-.078,1.843-1.567,2.741-2.45,1.315-1.292,2.6-2.615,3.926-3.9a2.891,2.891,0,0,1,3.24-.538,2.76,2.76,0,0,1,1.755,2.489" transform="translate(-138.539 -94.814)" fill="#1fd27a"/>
          </g>
        </g>
      </g>
    </g>
  </g>
</svg>
